<?xml version="1.0" standalone="no"?>
<!DOCTYPE svg PUBLIC "-//W3C//DTD SVG 1.1//EN" "http://www.w3.org/Graphics/SVG/1.1/DTD/svg11.dtd" >
<svg>
<metadata>
Created by FontForge 20090914 at Sun Jul 17 16:24:18 2022
 By www-data
Copyright 2021 Stijn de Vries &#38; The Plus Jakarta Sans Project Authors (https://github.com/tokotype/PlusJakartaSans)
</metadata>
<defs>
<font id="EudoxusSans-Medium" horiz-adv-x="580" >
  <font-face 
    font-family="Eudoxus Sans Medium"
    font-weight="500"
    font-stretch="normal"
    units-per-em="1000"
    panose-1="0 0 0 0 0 0 0 0 0 0"
    ascent="800"
    descent="-200"
    x-height="538.999"
    cap-height="745"
    bbox="-164 -339.003 1376 1192"
    underline-thickness="40"
    underline-position="-135"
    unicode-range="U+000D-U+FB02"
  />
<missing-glyph horiz-adv-x="600" 
d="M492 -240h-380v1200h380v-1200zM400 -157v39h-123l84 57h39v39h-200v-39h84l-84 -57v-39h200zM400 6v136h-200v-136h200zM400 214v135h-120v-67h40v28h40v-57h-120v96h-40v-135h200zM400 376v120h-40v-80h-160v-40h200zM320 444v84h80v40h-200v-40h80v-44h-80v-40h120z
M400 600v41h-80v84h-120v-125h200zM400 756v40h-80v44h80v40h-198v-40h78v-44h-80v-40h200zM240 102h120v-56h-120v56zM240 684h40v-43h-40v43z" />
    <glyph glyph-name="fi" unicode="fi" horiz-adv-x="596" 
d="M129 450l-102.999 0.000976562v89h103v38c0 37.333 8.33301 69.666 25 96.999s39.167 48 67.5 62s60.166 21 95.499 21c18 0 33.667 -1.66699 47 -5v-83c-10 2 -22 3 -36 3c-70 0 -105 -31.667 -105 -95v-38h315v-539h-93v450h-222v-450h-94v450z" />
    <glyph glyph-name="fl" unicode="fl" horiz-adv-x="634" 
d="M129 450l-102.999 0.000976562v89h103v38c0 37.333 8.33301 69.666 25 96.999s39.167 48 67.5 62s60.166 21 95.499 21c18 0 33.667 -1.66699 47 -5v-83c-10 2 -22 3 -36 3c-70 0 -105 -31.667 -105 -95v-38h246v218h93v-757h-93v450h-246v-450h-94v450z" />
    <glyph glyph-name="f_f" unicode="ff" horiz-adv-x="785" 
d="M129 450h-102.997v89h103v38c0 37.333 8.33301 69.666 25 96.999s39.167 48 67.5 62s60.166 21 95.499 21c18 0 33.667 -1.66699 47 -5v-83c-10 2 -22 3 -36 3c-70 0 -105 -31.667 -105 -95v-38h280v-4h13v38c0 38.667 8.33301 72 25 100s39.167 49.5 67.5 64.5
s60.166 22.5 95.499 22.5c18 0 33.667 -1.66699 47 -5v-83c-10 2 -22 3 -36 3c-32.667 0 -58.334 -8.16699 -77.001 -24.5s-28 -42.166 -28 -77.499v-38h128v-89h-128v-446h-94v446h-103v4h-190v-450h-94v450z" />
    <glyph glyph-name="f_f_i" unicode="ffi" horiz-adv-x="993" 
d="M129 450l-102.998 0.00195312v89h103v38c0 37.333 8.33301 69.666 25 96.999s39.167 48 67.5 62s60.166 21 95.499 21c18 0 33.667 -1.66699 47 -5v-83c-10 2 -22 3 -36 3c-70 0 -105 -31.667 -105 -95v-38h303v38c0 37.333 8.33301 69.666 25 96.999s39.167 48 67.5 62
s60.166 21 95.499 21c18 0 33.667 -1.66699 47 -5v-83c-10 2 -22 3 -36 3c-70 0 -105 -31.667 -105 -95v-38h316v-539h-94v450h-222v-450h-94v450h-303v-450h-94v450z" />
    <glyph glyph-name="f_f_l" unicode="ffl" horiz-adv-x="1031" 
d="M129 450l-102.998 0.00195312v89h103v38c0 37.333 8.33301 69.666 25 96.999s39.167 48 67.5 62s60.166 21 95.499 21c18 0 33.667 -1.66699 47 -5v-83c-10 2 -22 3 -36 3c-70 0 -105 -31.667 -105 -95v-38h303v38c0 37.333 8.33301 69.666 25 96.999s39.167 48 67.5 62
s60.166 21 95.499 21c18 0 33.667 -1.66699 47 -5v-83c-10 2 -22 3 -36 3c-70 0 -105 -31.667 -105 -95v-38h246v218h94v-757h-94v450h-246v-450h-94v450h-303v-450h-94v450z" />
    <glyph glyph-name=".notdef" horiz-adv-x="600" 
d="M492 -240h-380v1200h380v-1200zM400 -157v39h-123l84 57h39v39h-200v-39h84l-84 -57v-39h200zM400 6v136h-200v-136h200zM400 214v135h-120v-67h40v28h40v-57h-120v96h-40v-135h200zM400 376v120h-40v-80h-160v-40h200zM320 444v84h80v40h-200v-40h80v-44h-80v-40h120z
M400 600v41h-80v84h-120v-125h200zM400 756v40h-80v44h80v40h-198v-40h78v-44h-80v-40h200zM240 102h120v-56h-120v56zM240 684h40v-43h-40v43z" />
    <glyph glyph-name="nonmarkingreturn" unicode="&#xd;" horiz-adv-x="173" 
 />
    <glyph glyph-name="space" unicode=" " horiz-adv-x="173" 
 />
    <glyph glyph-name="exclam" unicode="!" horiz-adv-x="312" 
d="M107 745h98l-7 -527h-85zM114 101.5c11.333 11 25.333 16.498 42 16.498s30.667 -5.5 42 -16.5s17 -24.833 17 -41.5c0 -17.333 -5.66699 -31.666 -17 -42.999s-25.333 -17 -42 -17s-30.667 5.83301 -42 17.5s-17 25.834 -17 42.501s5.66699 30.5 17 41.5z" />
    <glyph glyph-name="quotedbl" unicode="&#x22;" horiz-adv-x="429" 
d="M87 745h92l-13 -240h-65zM342 745l-14 -240h-65l-14 240h93z" />
    <glyph glyph-name="numbersign" unicode="#" horiz-adv-x="832" 
d="M167 185h-120v85h144l60 206h-120v85h144l53 184h97l-53 -184h195l53 184h98l-53 -184h120v-85h-145l-59 -206h120v-85h-144l-53 -185h-98l53 185h-195l-53 -185h-97zM484 270l59 206h-195l-59 -206h195z" />
    <glyph glyph-name="dollar" unicode="$" horiz-adv-x="646" 
d="M294 -9c-59.333 8 -110.664 30.167 -153.997 66.5s-73.333 80.5 -90 132.5l85 35c14.667 -40 35.667 -72.167 63 -96.5s59.333 -40.166 96 -47.499v252l-47 14c-53.333 16 -94.5 42 -123.5 78s-43.5 77.667 -43.5 125c0 38 9 72.333 27 103s43.333 55.167 76 73.5
s69.667 28.5 111 30.5v88h75v-93c51.333 -9.33301 95.666 -29.833 132.999 -61.5s63.666 -69.834 78.999 -114.501l-84 -35c-12 32 -28.833 58.167 -50.5 78.5s-47.5 34.5 -77.5 42.5v-253l39 -12c118.667 -36.667 178 -103.667 178 -201c0 -37.333 -9.16699 -71 -27.5 -101
s-43.833 -54.333 -76.5 -73s-70.334 -29.667 -113.001 -33v-89h-75v91zM204.502 482c17.667 -21.333 43.833 -37.333 78.5 -48l11 -3v237c-35.333 -3.33301 -63.5 -14.833 -84.5 -34.5s-31.5 -45.5 -31.5 -77.5c0 -28 8.83301 -52.667 26.5 -74zM369.001 78
c36 4 64.833 16 86.5 36s32.5 45 32.5 75c0 30.667 -8.66699 55 -26 73s-43.333 32.333 -78 43l-15 5v-232z" />
    <glyph glyph-name="percent" unicode="%" horiz-adv-x="998" 
d="M751 745h111l-608 -745h-111zM85 660c17.333 30 41 53.667 71 71s63 26 99 26c35.333 0 67.833 -8.66699 97.5 -26s53.167 -41 70.5 -71s26 -62.667 26 -98s-8.66699 -68 -26 -98s-40.833 -53.667 -70.5 -71s-62.167 -26 -97.5 -26c-36 0 -69 8.66699 -99 26
s-53.667 41 -71 71s-26 62.667 -26 98s8.66699 68 26 98zM176 483c21.333 -22.667 47.667 -33.999 79 -33.999s57.333 11.333 78 34s31 49 31 79s-10.333 56.5 -31 79.5s-46.667 34.5 -78 34.5c-20.667 0 -39.5 -5.33301 -56.5 -16s-30.333 -24.834 -40 -42.501
s-14.5 -36.167 -14.5 -55.5c0 -30 10.667 -56.333 32 -79zM574.001 281.001c17.333 30 41 53.667 71 71s63 26 99 26c35.333 0 67.833 -8.66699 97.5 -26s53.167 -41 70.5 -71s26 -62.667 26 -98s-8.66699 -68 -26 -98s-40.833 -53.667 -70.5 -71s-62.167 -26 -97.5 -26
c-36 0 -69 8.66699 -99 26s-53.667 41 -71 71s-26 62.667 -26 98s8.66699 68 26 98zM665.001 104.001c21.333 -22.667 47.667 -33.999 79 -33.999s57.333 11.333 78 34s31 49 31 79s-10.333 56.5 -31 79.5s-46.667 34.5 -78 34.5c-20.667 0 -39.5 -5.33301 -56.5 -16
s-30.333 -24.834 -40 -42.501s-14.5 -36.167 -14.5 -55.5c0 -30 10.667 -56.333 32 -79z" />
    <glyph glyph-name="ampersand" unicode="&#x26;" horiz-adv-x="754" 
d="M167 11.5c-32.667 15.667 -58.1689 37.998 -76.502 66.998s-27.5 62.5 -27.5 100.5c0 54 14.833 97.833 44.5 131.5s63.5 61.834 101.5 84.501c-25.333 28 -45.833 56.5 -61.5 85.5s-23.5 60.833 -23.5 95.5s8.33301 65.834 25 93.501s39.334 49.167 68.001 64.5
s59.667 23 93 23s64 -7.66699 92 -23s50.167 -36.5 66.5 -63.5s24.5 -57.167 24.5 -90.5c0 -46 -13.667 -84.667 -41 -116s-60.666 -59 -99.999 -83l131 -141l86 128h107l-129 -197l160 -171h-123l-90 95c-59.333 -71.333 -131 -107 -215 -107
c-42 0 -79.333 7.83301 -112 23.5zM196.998 102.998c21.333 -18.667 49.665 -27.999 84.998 -27.999c32.667 0 60.334 7.66699 83.001 23s44.334 36.666 65.001 63.999l-160 168c-70 -42 -105 -91.667 -105 -149c0 -33.333 10.667 -59.333 32 -78zM238.497 512.999
c13 -22 30.833 -44.998 53.5 -68.998c32.667 19.333 59 39.666 79 60.999s30 46.666 30 75.999c0 26 -8.66699 47.667 -26 65s-39 26 -65 26s-47.667 -8.66699 -65 -26s-26 -39.333 -26 -66c0 -22.667 6.5 -45 19.5 -67z" />
    <glyph glyph-name="quotesingle" unicode="'" horiz-adv-x="267" 
d="M87 745h92l-13 -240h-65z" />
    <glyph glyph-name="parenleft" unicode="(" horiz-adv-x="323" 
d="M95 56c-28 76 -42.001 156.67 -42.001 242.003s13.833 165.833 41.5 241.5s68.834 144.167 123.501 205.5h80c-48 -68 -84.333 -139.833 -109 -215.5s-37 -152.834 -37 -231.501s12.333 -155.834 37 -231.501s61 -147.834 109 -216.501h-80c-54 61.333 -95 130 -123 206z
" />
    <glyph glyph-name="parenright" unicode=")" horiz-adv-x="323" 
d="M134 66.5c24.667 75.667 37 152.831 37 231.498s-12.333 155.834 -37 231.501s-60.667 147.5 -108 215.5h80c54 -61.333 94.833 -129.833 122.5 -205.5s41.5 -156.167 41.5 -241.5s-13.833 -166 -41.5 -242s-68.5 -144.667 -122.5 -206h-80
c47.333 68.667 83.333 140.834 108 216.501z" />
    <glyph glyph-name="asterisk" unicode="*" horiz-adv-x="499" 
d="M101 424l82 109l-123 42l25 77l124 -41v134h81v-134l124 41l25 -77l-123 -42l81 -109l-65 -47l-83 109l-82 -109z" />
    <glyph glyph-name="plus" unicode="+" horiz-adv-x="624" 
d="M269 207h-207v87h207v206h87v-206h206v-87h-206v-207h-87v207z" />
    <glyph glyph-name="comma" unicode="," horiz-adv-x="299" 
d="M157 0c-14.667 0 -27 5 -37 15s-15 22.333 -15 37s4.83301 27 14.5 37s21.834 15 36.501 15c15.333 0 27.833 -6 37.5 -18s14.5 -28 14.5 -48c0 -48.667 -10.333 -88 -31 -118s-50.334 -49.667 -89.001 -59v41c42 11.333 65 44 69 98z" />
    <glyph glyph-name="hyphen" unicode="-" horiz-adv-x="532" 
d="M79 312h375v-85h-375v85z" />
    <glyph glyph-name="period" unicode="." horiz-adv-x="317" 
d="M118.5 16.5c-11 11 -16.5 24.833 -16.5 41.5s5.5 30.5 16.5 41.5s24.5 16.5 40.5 16.5s29.333 -5.5 40 -16.5s16 -24.833 16 -41.5s-5.16699 -30.5 -15.5 -41.5s-23.833 -16.5 -40.5 -16.5c-16 0 -29.5 5.5 -40.5 16.5z" />
    <glyph glyph-name="slash" unicode="/" horiz-adv-x="455" 
d="M343 785h105l-336 -825h-105z" />
    <glyph glyph-name="zero" unicode="0" horiz-adv-x="724" 
d="M208 36c-44.667 32 -79.334 77.167 -104.001 135.5s-37 125.5 -37 201.5s12.333 143 37 201s59.167 103 103.5 135s95.833 48 154.5 48s110.334 -16 155.001 -48s79.334 -77 104.001 -135s37 -125 37 -201s-12.333 -143.167 -37 -201.5s-59.167 -103.5 -103.5 -135.5
s-95.833 -48 -154.5 -48s-110.334 16 -155.001 48zM189.5 218.5c16.333 -44.333 39.5 -78.666 69.5 -102.999s64.667 -36.5 104 -36.5s73.833 12.167 103.5 36.5s52.667 58.666 69 102.999s24.5 95.833 24.5 154.5s-8.16699 110 -24.5 154s-39.5 78.167 -69.5 102.5
s-64.667 36.5 -104 36.5s-73.833 -12.167 -103.5 -36.5s-52.667 -58.5 -69 -102.5s-24.5 -95.333 -24.5 -154s8.16699 -110.167 24.5 -154.5z" />
    <glyph glyph-name="one" unicode="1" horiz-adv-x="382" 
d="M178 660h-141v85h240v-745h-99v660z" />
    <glyph glyph-name="two" unicode="2" horiz-adv-x="599" 
d="M54 68l206 223.003l18 19c42.667 46 73.5 80.5 92.5 103.5s33.333 44.667 43 65s14.5 41.833 14.5 64.5c0 40 -11.833 71.167 -35.5 93.5s-55.5 33.5 -95.5 33.5s-74 -11.5 -102 -34.5s-47.333 -55.5 -58 -97.5l-89 23c12.667 60 41.667 107.667 87 143s99.333 53 162 53
c44.667 0 84.5 -8.83301 119.5 -26.5s62.167 -42.334 81.5 -74.001s29 -67.834 29 -108.501c0 -39.333 -11.5 -77.833 -34.5 -115.5s-62.5 -86.834 -118.5 -147.501l-184 -200h353v-85h-489v68z" />
    <glyph glyph-name="three" unicode="3" horiz-adv-x="610" 
d="M136 34c-46 30.667 -77.666 72.666 -94.999 125.999l83 34c14 -36.667 36 -65.5 66 -86.5s64.667 -31.5 104 -31.5c47.333 0 85.666 13.5 114.999 40.5s44 64.167 44 111.5s-14.833 84.5 -44.5 111.5s-68.167 40.5 -115.5 40.5c-20 0 -40.667 -2.66699 -62 -8l-21 45
l199 243h-330v85h441v-82l-170 -210c60 -7.33301 108.5 -31.166 145.5 -71.499s55.5 -90.833 55.5 -151.5c0 -44.667 -11 -85.5 -33 -122.5s-52.5 -66.167 -91.5 -87.5s-83.167 -32 -132.5 -32c-59.333 0 -112 15.333 -158 46z" />
    <glyph glyph-name="four" unicode="4" horiz-adv-x="638" 
d="M409 172h-366v81l364 492h94v-492h97v-81h-97v-172h-92v172zM409 253v363l-266 -363h266z" />
    <glyph glyph-name="five" unicode="5" horiz-adv-x="616" 
d="M143 34c-46 30.667 -77.666 72 -94.999 124l80 34c14 -36 36.667 -64.333 68 -85s66 -31 104 -31c30 0 56.833 6.83301 80.5 20.5s42.334 32.667 56.001 57s20.5 51.5 20.5 81.5c0 30.667 -6.83301 58.167 -20.5 82.5s-32.334 43.333 -56.001 57s-50.167 20.5 -79.5 20.5
c-30 0 -57.667 -7 -83 -21s-44 -31.667 -56 -53l-79 17l57 408h386v-85h-316l-31 -218c35.333 25.333 79.333 38 132 38c47.333 0 89.666 -10.833 126.999 -32.5s66.333 -51.167 87 -88.5s31 -79 31 -125c0 -46.667 -11.167 -88.667 -33.5 -126s-53 -66.833 -92 -88.5
s-82.5 -32.5 -130.5 -32.5c-58.667 0 -111 15.333 -157 46z" />
    <glyph glyph-name="six" unicode="6" horiz-adv-x="599" 
d="M173.5 19.5c-37.667 21 -66.999 50.168 -87.999 87.501s-31.5 79.666 -31.5 126.999c0 39.333 7 78 21 116s36.667 77.667 68 119l210 276h118l-224 -292c18 8 40.667 12 68 12c43.333 0 82.666 -10.167 117.999 -30.5s63.166 -48.5 83.499 -84.5s30.5 -76.333 30.5 -121
c0 -45.333 -10.667 -86.333 -32 -123s-50.666 -65.5 -87.999 -86.5s-79.333 -31.5 -126 -31.5c-47.333 0 -89.833 10.5 -127.5 31.5zM195.001 119.001c28 -28.667 63.334 -43 106.001 -43c28 0 53.167 6.5 75.5 19.5s39.833 31.167 52.5 54.5s19 49.333 19 78
c0 44 -13.833 80.333 -41.5 109s-62.834 43 -105.501 43s-78 -14.333 -106 -43s-42 -65 -42 -109s14 -80.333 42 -109z" />
    <glyph glyph-name="seven" unicode="7" horiz-adv-x="548" 
d="M404 661h-365v85h468v-85l-324 -661h-106z" />
    <glyph glyph-name="eight" unicode="8" horiz-adv-x="629" 
d="M183 17.5c-38.667 19.667 -68.8311 46.834 -90.498 81.501s-32.5 73.334 -32.5 116.001s10.667 80.667 32 114s51 59 89 77c-26.667 16.667 -47.5 38.667 -62.5 66s-22.5 57 -22.5 89c0 36.667 9.5 70 28.5 100s45.167 53.5 78.5 70.5s70.666 25.5 111.999 25.5
s78.666 -8.33301 111.999 -25s59.333 -40 78 -70s28 -63.667 28 -101c0 -32 -7.66699 -61.667 -23 -89s-36 -49.333 -62 -66c38.667 -18.667 68.667 -44.667 90 -78s32 -71 32 -113c0 -42.667 -10.833 -81.334 -32.5 -116.001s-52 -61.834 -91 -81.501
s-82.833 -29.5 -131.5 -29.5c-49.333 0 -93.333 9.83301 -132 29.5zM202.003 112.5c28.667 -26.333 66.334 -39.5 113.001 -39.5s84.334 13.167 113.001 39.5s43 60.833 43 103.5s-14.333 77.167 -43 103.5s-66.334 39.5 -113.001 39.5s-84.334 -13 -113.001 -39
s-43 -60.667 -43 -104c0 -42.667 14.333 -77.167 43 -103.5zM228.503 476c23 -21.333 51.833 -32 86.5 -32c34 0 62.333 10.667 85 32s34 49 34 83c0 33.333 -11.333 60.5 -34 81.5s-51 31.5 -85 31.5c-34.667 0 -63.5 -10.5 -86.5 -31.5s-34.5 -48.167 -34.5 -81.5
c0 -34 11.5 -61.667 34.5 -83z" />
    <glyph glyph-name="nine" unicode="9" horiz-adv-x="599" 
d="M352 292c-18 -8 -40.668 -12.002 -68.001 -12.002c-43.333 0 -82.666 10.167 -117.999 30.5s-63.166 48.5 -83.499 84.5s-30.5 76.667 -30.5 122s10.667 86.333 32 123s50.666 65.334 87.999 86.001s79.333 31 126 31c47.333 0 89.833 -10.5 127.5 -31.5
s67 -50.167 88 -87.5s31.5 -79.666 31.5 -126.999c0 -39.333 -7 -78 -21 -116s-36.667 -77.667 -68 -119l-210 -276h-118zM192.499 408.498c27.667 -28.333 62.835 -42.5 105.502 -42.5s78 14.167 106 42.5s42 64.5 42 108.5c0 28.667 -6.33301 54.667 -19 78
s-30.334 41.666 -53.001 54.999s-48 20 -76 20c-27.333 0 -52.333 -6.66699 -75 -20s-40.334 -31.666 -53.001 -54.999s-19 -49.333 -19 -78c0 -44 13.833 -80.167 41.5 -108.5z" />
    <glyph glyph-name="colon" unicode=":" horiz-adv-x="317" 
d="M115.5 17.5c-11.667 11.667 -17.5 26.167 -17.5 43.5s5.83301 31.666 17.5 42.999s26.167 17 43.5 17s31.666 -5.66699 42.999 -17s17 -25.666 17 -42.999s-5.66699 -31.833 -17 -43.5s-25.666 -17.5 -42.999 -17.5s-31.833 5.83301 -43.5 17.5zM115.5 521.5
c11.667 11.667 26.167 17.5 43.5 17.5s31.666 -5.83301 42.999 -17.5s17 -26.167 17 -43.5s-5.66699 -31.666 -17 -42.999s-25.666 -17 -42.999 -17s-31.833 5.66699 -43.5 17s-17.5 25.666 -17.5 42.999s5.83301 31.833 17.5 43.5z" />
    <glyph glyph-name="semicolon" unicode=";" horiz-adv-x="337" 
d="M135.5 435.5c-11.667 11.667 -17.498 25.832 -17.498 42.499c0 17.333 5.66699 31.833 17 43.5s25.666 17.5 42.999 17.5s31.666 -5.83301 42.999 -17.5s17 -26.167 17 -43.5s-5.66699 -31.666 -17 -42.999s-25.666 -17 -42.999 -17
c-16.667 0 -30.834 5.83301 -42.501 17.5zM104.002 -98.002c42 10.667 65 43.333 69 98c-14.667 0 -27 5 -37 15s-15 22.333 -15 37s5 27 15 37s22.333 15 37 15s26.834 -6 36.501 -18s14.5 -28 14.5 -48c0 -48.667 -10.333 -88 -31 -118s-50.334 -49.667 -89.001 -59v41z
" />
    <glyph glyph-name="less" unicode="&#x3c;" horiz-adv-x="591" 
d="M83 225v88l426 196v-99l-316 -140l316 -141v-99z" />
    <glyph glyph-name="equal" unicode="=" horiz-adv-x="684" 
d="M117 409h450v-88h-450v88zM117 171h450v-87h-450v87z" />
    <glyph glyph-name="greater" unicode="&#x3e;" horiz-adv-x="573" 
d="M83 129l315 141l-315 140v99l426 -196v-88l-426 -195v99z" />
    <glyph glyph-name="question" unicode="?" horiz-adv-x="527" 
d="M209 333.5c18 28.333 43.666 58.5 76.999 90.5c23.333 22.667 40.5 40 51.5 52s20.5 26 28.5 42s12 33.333 12 52c0 27.333 -10.333 50.833 -31 70.5s-48.334 29.5 -83.001 29.5c-34 0 -63.167 -10.667 -87.5 -32s-39.833 -49.666 -46.5 -84.999l-88 20
c8.66699 55.333 33.334 99.833 74.001 133.5s90.334 50.5 149.001 50.5c41.333 0 78.166 -8.66699 110.499 -26s57.333 -40.166 75 -68.499s26.5 -58.833 26.5 -91.5c0 -24.667 -4.66699 -47.334 -14 -68.001s-20.666 -38.834 -33.999 -54.501s-31.333 -34.834 -54 -57.501
l-16 -15c-26.667 -26 -47 -50.167 -61 -72.5s-21 -47.166 -21 -74.499v-11h-95v13c0 40 9 74.167 27 102.5zM191.499 98c11 10.667 24.5 16 40.5 16s29.333 -5.33301 40 -16s16 -24 16 -40c0 -16.667 -5.16699 -30.5 -15.5 -41.5s-23.833 -16.5 -40.5 -16.5
c-16 0 -29.5 5.5 -40.5 16.5s-16.5 24.833 -16.5 41.5c0 16 5.5 29.333 16.5 40z" />
    <glyph glyph-name="at" unicode="@" horiz-adv-x="928" 
d="M268.5 -24c-64.333 36.667 -114.998 86.832 -151.998 150.499s-55.5 134.834 -55.5 213.501s18.5 149.667 55.5 213s87.5 113.166 151.5 149.499s135.333 54.5 214 54.5c79.333 0 150.666 -18.667 213.999 -56s112.833 -87.666 148.5 -150.999s53.5 -132.333 53.5 -207
c0 -64 -15.167 -115.167 -45.5 -153.5s-71.5 -57.5 -123.5 -57.5c-27.333 0 -52.333 6 -75 18s-39.667 29 -51 51c-14.667 -22 -35 -39 -61 -51s-54.667 -18 -86 -18c-38 0 -72.833 9.16699 -104.5 27.5s-56.5 43.833 -74.5 76.5s-27 69 -27 109c0 39.333 9 75.5 27 108.5
s43 59.167 75 78.5s67.333 29 106 29c29.333 0 56.5 -5.5 81.5 -16.5s44.833 -26.167 59.5 -45.5v52h74v-269c0 -24 5 -42 15 -54s24.333 -18 43 -18c26 0 46 11.167 60 33.5s21 55.5 21 99.5c0 62.667 -13.667 119.5 -41 170.5s-66 91 -116 120s-107.333 43.5 -172 43.5
s-122.5 -14.5 -173.5 -43.5s-90.833 -69 -119.5 -120s-43 -108.5 -43 -172.5c0 -63.333 14.333 -120.833 43 -172.5s68.5 -92.5 119.5 -122.5s109.167 -45 174.5 -45c62.667 0 117.667 13.667 165 41l37 -70c-58.667 -34 -126.334 -51 -203.001 -51
c-78.667 0 -150.167 18.333 -214.5 55zM370.502 248.998c24.333 -26 54.833 -39 91.5 -39s67.167 13 91.5 39s36.5 58.333 36.5 97c0 39.333 -12.167 71.5 -36.5 96.5s-55.5 37.5 -93.5 37.5c-36 0 -66 -12.667 -90 -38s-36 -57.333 -36 -96s12.167 -71 36.5 -97z" />
    <glyph glyph-name="A" unicode="A" horiz-adv-x="672" 
d="M278 745h116l267 -745h-105l-61 175h-318l-61 -175h-105zM464 265l-128 369l-128 -369h256z" />
    <glyph glyph-name="B" unicode="B" horiz-adv-x="692" 
d="M83 745l313 -0.00390625c66.667 0 119.5 -17.667 158.5 -53s58.5 -82.666 58.5 -141.999c0 -31.333 -6.5 -59.666 -19.5 -84.999s-31.833 -46.666 -56.5 -63.999c34.667 -19.333 61 -44.666 79 -75.999s27 -66 27 -104c0 -68.667 -22 -122.667 -66 -162
s-104 -59 -180 -59h-314v745zM401 89.9961c43.333 0 78 11.667 104 35s39 55 39 95c0 39.333 -13 71 -39 95s-60.667 36 -104 36h-220v-261h220zM394 438.996c36 0 65.001 10.334 87.001 31.001s33 47.667 33 81s-10.833 59.166 -32.5 77.499s-50.834 27.5 -87.501 27.5
h-213v-217h213z" />
    <glyph glyph-name="C" unicode="C" horiz-adv-x="779" 
d="M238.5 37.5c-55.667 33 -99.167 78.6689 -130.5 137.002s-47 124.166 -47 197.499s15.667 139.333 47 198s74.833 104.5 130.5 137.5s118.167 49.5 187.5 49.5c49.333 0 94.666 -8.83301 135.999 -26.5s76.333 -40.834 105 -69.501s49.334 -59.667 62.001 -93l-90 -41
c-18 42.667 -45.5 76.5 -82.5 101.5s-80.5 37.5 -130.5 37.5c-52 0 -98.167 -12.333 -138.5 -37s-71.833 -59.334 -94.5 -104.001s-34 -95.667 -34 -153s11.333 -108.166 34 -152.499s54.167 -78.833 94.5 -103.5s86.5 -37 138.5 -37c50 0 93.5 12.5 130.5 37.5
s64.5 58.833 82.5 101.5l90 -41c-12.667 -34 -33.334 -65.333 -62.001 -94s-63.667 -51.667 -105 -69s-86.666 -26 -135.999 -26c-69.333 0 -131.833 16.5 -187.5 49.5z" />
    <glyph glyph-name="D" unicode="D" horiz-adv-x="741" 
d="M83 745h244c74.667 0 140.167 -15.333 196.5 -46s99.833 -74.167 130.5 -130.5s46 -121.5 46 -195.5s-15.333 -139.167 -46 -195.5s-74.167 -100 -130.5 -131s-121.833 -46.5 -196.5 -46.5h-244v745zM328 90c54.667 0 102.333 11.501 143 34.501s72 55.833 94 98.5
s33 92.667 33 150s-11 107.166 -33 149.499s-53.5 75 -94.5 98s-88.5 34.5 -142.5 34.5h-147v-565h147z" />
    <glyph glyph-name="E" unicode="E" horiz-adv-x="606" 
d="M83 745h485v-90h-387v-236h367v-90h-367v-239h387v-90h-485v745z" />
    <glyph glyph-name="F" unicode="F" horiz-adv-x="583" 
d="M83 745h472v-90h-374v-241h339v-90h-339v-324h-98v745z" />
    <glyph glyph-name="G" unicode="G" horiz-adv-x="817" 
d="M239.5 37.5c-55.667 33 -99.3359 78.6699 -131.003 137.003s-47.5 124.166 -47.5 197.499s15.667 139.333 47 198s74.833 104.5 130.5 137.5s118.167 49.5 187.5 49.5c49.333 0 94.666 -8.83301 135.999 -26.5s76.333 -40.834 105 -69.501s49.334 -59.667 62.001 -93
l-88 -43c-17.333 44 -44.666 78.5 -81.999 103.5s-81.666 37.5 -132.999 37.5c-52 0 -98.167 -12.333 -138.5 -37s-71.833 -59.334 -94.5 -104.001s-34 -95.667 -34 -153s11.333 -108.166 34 -152.499s54.334 -78.833 95.001 -103.5s87 -37 139 -37
c44.667 0 85.5 9.66699 122.5 29s66.167 46.166 87.5 80.499s32 73.5 32 117.5v4h-243v85h342v-66c0 -67.333 -15.333 -126.833 -46 -178.5s-72 -91.667 -124 -120s-109 -42.5 -171 -42.5c-69.333 0 -131.833 16.5 -187.5 49.5z" />
    <glyph glyph-name="H" unicode="H" horiz-adv-x="735" 
d="M83 745h98v-332h373v332h99v-745h-99v323h-373v-323h-98v745z" />
    <glyph glyph-name="I" unicode="I" horiz-adv-x="264" 
d="M83 745h98v-745h-98v745z" />
    <glyph glyph-name="J" unicode="J" horiz-adv-x="386" 
d="M50 95h41c35.333 0 63.333 10.5 84 31.5s31 49.5 31 85.5v533h99v-531c0 -65.333 -19.333 -117.333 -58 -156s-90.667 -58 -156 -58h-41v95z" />
    <glyph glyph-name="K" unicode="K" horiz-adv-x="662" 
d="M83 745h98v-381l332 381h123l-270 -312l285 -433h-117l-236 354l-117 -134v-220h-98v745z" />
    <glyph glyph-name="L" unicode="L" horiz-adv-x="535" 
d="M83 745h98v-655h327v-90h-425v745z" />
    <glyph glyph-name="M" unicode="M" horiz-adv-x="855" 
d="M83 745h90l256 -364l254 364h90v-745h-99v561l-242 -341h-8l-243 346v-566h-98v745z" />
    <glyph glyph-name="N" unicode="N" horiz-adv-x="738" 
d="M83 745h82l391 -550v550h99v-745h-82l-392 558v-558h-98v745z" />
    <glyph glyph-name="O" unicode="O" horiz-adv-x="878" 
d="M247.5 38c-57.667 33.333 -103.167 79.3311 -136.5 137.998s-50 124.334 -50 197.001s16.667 138.334 50 197.001s78.833 104.5 136.5 137.5s121.5 49.5 191.5 49.5s133.833 -16.667 191.5 -50s103.334 -79.166 137.001 -137.499s50.5 -123.833 50.5 -196.5
s-16.833 -138.334 -50.5 -197.001s-79.334 -104.667 -137.001 -138s-121.5 -50 -191.5 -50s-133.833 16.667 -191.5 50zM195 224.498c24 -45 57.333 -80.5 100 -106.5s90.667 -39 144 -39s101.333 13 144 39s76 61.5 100 106.5s36 94.5 36 148.5s-12 103.333 -36 148
s-57.333 80 -100 106s-90.667 39 -144 39s-101.333 -13 -144 -39s-76 -61.333 -100 -106s-36 -94 -36 -148s12 -103.5 36 -148.5z" />
    <glyph glyph-name="P" unicode="P" horiz-adv-x="645" 
d="M83 745l263 0.00390625c49.333 0 92.833 -9.33301 130.5 -28s66.834 -45.334 87.501 -80.001s31 -75.334 31 -122.001s-10.333 -87.334 -31 -122.001s-49.834 -61.334 -87.501 -80.001s-81.167 -28 -130.5 -28h-165v-285h-98v745zM349 375.004
c44.667 0 80.334 12.667 107.001 38s40 59.333 40 102s-13.333 76.667 -40 102s-62.334 38 -107.001 38h-168v-280h168z" />
    <glyph glyph-name="Q" unicode="Q" horiz-adv-x="878" 
d="M251 37.5c-58.667 33 -105.002 78.8311 -139.002 137.498s-51 124.667 -51 198c0 72.667 16.667 138.334 50 197.001s78.833 104.5 136.5 137.5s121.5 49.5 191.5 49.5s133.833 -16.667 191.5 -50s103.334 -79.166 137.001 -137.499s50.5 -123.833 50.5 -196.5
c0 -50.667 -8.16699 -98.167 -24.5 -142.5s-39.166 -83.5 -68.499 -117.5l91 -101l-80 -64l-89 98c-59.333 -38.667 -126.666 -58 -201.999 -58c-70.667 0 -135.334 16.5 -194.001 49.5zM194.998 224.498c24 -45 57.332 -80.5 99.999 -106.5s90.667 -39 144 -39
c52.667 0 100.334 13 143.001 39l-161 178l81 63l156 -173c20 26 35.167 54.833 45.5 86.5s15.5 65.167 15.5 100.5c0 54 -12 103.333 -36 148s-57.333 80 -100 106s-90.667 39 -144 39s-101.333 -13 -144 -39s-76 -61.333 -100 -106s-36 -94 -36 -148s12 -103.5 36 -148.5z
" />
    <glyph glyph-name="R" unicode="R" horiz-adv-x="648" 
d="M83 745l262.999 0.00195312c49.333 0 92.833 -9.33301 130.5 -28s66.834 -45.334 87.501 -80.001s31 -75.334 31 -122.001c0 -52 -13.167 -96.5 -39.5 -133.5s-62.5 -63.5 -108.5 -79.5l173 -302h-114l-161 285h-164v-285h-98v745zM348.999 375.002
c44 0 79.5 12.667 106.5 38s40.5 59.333 40.5 102s-13.5 76.667 -40.5 102s-62.5 38 -106.5 38h-168v-280h168z" />
    <glyph glyph-name="S" unicode="S" horiz-adv-x="646" 
d="M203 16.5c-40 19 -72.9951 44.335 -98.9951 76.002s-44 65.834 -54 102.501l90 28c14 -44.667 40.167 -80 78.5 -106s78.5 -39 120.5 -39c28 0 53.167 5.66699 75.5 17s39.833 25.666 52.5 42.999s19 34.666 19 51.999c0 27.333 -9.5 52 -28.5 74
s-45.167 36.667 -78.5 44l-126 28c-53.333 11.333 -95.5 36.833 -126.5 76.5s-46.5 85.167 -46.5 136.5c0 39.333 10.167 74.833 30.5 106.5s48.166 56.5 83.499 74.5s74.333 27 117 27c47.333 0 89.5 -8.33301 126.5 -25s67.333 -38.834 91 -66.501s40.5 -57.5 50.5 -89.5
l-89 -32c-14.667 39.333 -38.834 69.666 -72.501 90.999s-68.834 32 -105.501 32c-25.333 0 -48 -5.5 -68 -16.5s-35.667 -25.167 -47 -42.5s-17 -35 -17 -53c0 -28 10.167 -53.5 30.5 -76.5s45.833 -37.833 76.5 -44.5l114 -26c60 -13.333 106 -38.666 138 -75.999
s48 -82 48 -134c0 -39.333 -10.333 -75 -31 -107s-49.834 -57.167 -87.501 -75.5s-80.834 -27.5 -129.501 -27.5c-50.667 0 -96 9.5 -136 28.5z" />
    <glyph glyph-name="T" unicode="T" horiz-adv-x="522" 
d="M213 655h-202v90h500v-90h-199v-655h-99v655z" />
    <glyph glyph-name="U" unicode="U" horiz-adv-x="706" 
d="M210.5 22c-41.667 22.667 -74.167 54 -97.5 94s-35 85 -35 135v494h99v-492c0 -51.333 16.333 -93.166 49 -125.499s75 -48.5 127 -48.5s94.333 16.167 127 48.5s49 74.166 49 125.499v492h99v-494c0 -50 -11.667 -95 -35 -135s-55.833 -71.333 -97.5 -94
s-89.167 -34 -142.5 -34s-100.833 11.333 -142.5 34z" />
    <glyph glyph-name="V" unicode="V" horiz-adv-x="667" 
d="M11 745h105l218 -625l217 625h105l-268 -745h-108z" />
    <glyph glyph-name="W" unicode="W" horiz-adv-x="996" 
d="M11 745h103l163 -612l170 612h103l168 -610l164 610h103l-209 -745h-109l-169 606l-169 -606h-109z" />
    <glyph glyph-name="X" unicode="X" horiz-adv-x="618" 
d="M254 378l-237 367h112l180 -280l180 280h112l-237 -367l243 -378h-112l-186 291l-187 -291h-111z" />
    <glyph glyph-name="Y" unicode="Y" horiz-adv-x="635" 
d="M269 341l-258 404h111l196 -308l195 308h111l-256 -404v-341h-99v341z" />
    <glyph glyph-name="Z" unicode="Z" 
d="M19 72l405 583h-381v90h508v-72l-403 -583h413v-90h-542v72z" />
    <glyph glyph-name="bracketleft" unicode="[" horiz-adv-x="349" 
d="M94 745h220v-85h-123v-725h123v-85h-220v895z" />
    <glyph glyph-name="backslash" unicode="\" horiz-adv-x="455" 
d="M7 785h105l336 -825h-105z" />
    <glyph glyph-name="bracketright" unicode="]" horiz-adv-x="349" 
d="M35 -65h123v725h-123v85h220v-895h-220v85z" />
    <glyph glyph-name="asciicircum" unicode="^" horiz-adv-x="537" 
d="M225 745h88l169 -322h-105l-107 208l-109 -208h-106z" />
    <glyph glyph-name="underscore" unicode="_" horiz-adv-x="620" 
d="M79 0h462v-85h-462v85z" />
    <glyph glyph-name="grave" unicode="`" horiz-adv-x="392" 
d="M110 784h99l73 -144h-80z" />
    <glyph glyph-name="a" unicode="a" horiz-adv-x="575" 
d="M100 30.5c-33.333 28.333 -50.001 65.168 -50.001 110.501c0 44 14.5 80.833 43.5 110.5s73.167 49.5 132.5 59.5l184 30v25c0 29.333 -11 53.166 -33 71.499s-50.333 27.5 -85 27.5c-30.667 0 -57.834 -7.83301 -81.501 -23.5s-41.167 -36.5 -52.5 -62.5l-81 42
c15.333 37.333 43.333 68.333 84 93s85 37 133 37c40.667 0 76.834 -7.83301 108.501 -23.5s56.334 -37.5 74.001 -65.5s26.5 -60 26.5 -96v-366h-91v70c-19.333 -25.333 -44.833 -45.333 -76.5 -60s-66.834 -22 -105.501 -22c-53.333 0 -96.666 14.167 -129.999 42.5z
M174.499 89.002c17.667 -14.667 39.832 -22 66.499 -22c32.667 0 61.834 7.16699 87.501 21.5s45.667 33.833 60 58.5s21.5 52 21.5 82v34l-163 -27c-66 -11.333 -99 -42 -99 -92c0 -22 8.83301 -40.333 26.5 -55z" />
    <glyph glyph-name="b" unicode="b" horiz-adv-x="669" 
d="M243 11.5c-32.667 15.667 -59.3311 37.835 -79.998 66.502v-78h-91v757h93v-291c21.333 26.667 48.166 47.5 80.499 62.5s67.833 22.5 106.5 22.5c50 0 95.333 -12.333 136 -37s72.667 -58.5 96 -101.5s35 -90.833 35 -143.5s-11.667 -100.334 -35 -143.001
s-55.333 -76.334 -96 -101.001s-86.334 -37 -137.001 -37c-39.333 0 -75.333 7.83301 -108 23.5zM188.503 171.501c15.667 -29 37.167 -51.833 64.5 -68.5s57.666 -25 90.999 -25s63.5 8.33301 90.5 25s48 39.5 63 68.5s22.5 61.5 22.5 97.5s-7.66699 68.667 -23 98
s-36.333 52.333 -63 69s-56.667 25 -90 25s-63.666 -8.33301 -90.999 -25s-48.833 -39.667 -64.5 -69s-23.5 -62 -23.5 -98s7.83301 -68.5 23.5 -97.5z" />
    <glyph glyph-name="c" unicode="c" horiz-adv-x="603" 
d="M180 25c-42 24.667 -74.6709 58.5 -98.0039 101.5s-35 90.833 -35 143.5c0 53.333 11.667 101.333 35 144s55.833 76.167 97.5 100.5s89.167 36.5 142.5 36.5c52 0 99.5 -13.5 142.5 -40.5s73.5 -61.833 91.5 -104.5l-84 -40c-12.667 28.667 -32.5 51.667 -59.5 69
s-57.167 26 -90.5 26c-32.667 0 -62.5 -8.33301 -89.5 -25s-48.167 -39.5 -63.5 -68.5s-23 -61.833 -23 -98.5c0 -36 7.83301 -68.5 23.5 -97.5s36.834 -51.833 63.501 -68.5s56.334 -25 89.001 -25c34 0 64.333 8.66699 91 26s46.334 41 59.001 71l84 -42
c-17.333 -42 -47.666 -76.667 -90.999 -104s-91 -41 -143 -41c-52.667 0 -100 12.333 -142 37z" />
    <glyph glyph-name="d" unicode="d" horiz-adv-x="669" 
d="M181 25c-40.667 24.667 -72.667 58.333 -96 101s-35 90.334 -35 143.001s11.667 100.5 35 143.5s55.333 76.833 96 101.5s86 37 136 37c39.333 0 74.833 -7.33301 106.5 -22s58.167 -35.334 79.5 -62.001v290h94v-757h-91v79c-20 -28.667 -46.5 -51 -79.5 -67
s-69.5 -24 -109.5 -24c-50 0 -95.333 12.333 -136 37zM171 171.499c15.333 -29 36.5 -51.833 63.5 -68.5s57.167 -25 90.5 -25s63.5 8.33301 90.5 25s48.333 39.5 64 68.5s23.5 61.5 23.5 97.5s-7.83301 68.667 -23.5 98s-37 52.333 -64 69s-57.167 25 -90.5 25
s-63.5 -8.33301 -90.5 -25s-48.167 -39.667 -63.5 -69s-23 -62 -23 -98s7.66699 -68.5 23 -97.5z" />
    <glyph glyph-name="e" unicode="e" horiz-adv-x="614" 
d="M182 25c-41.333 24.667 -73.667 58.5 -97 101.5s-35 91.167 -35 144.5s11.5 101.333 34.5 144s54.333 76 94 100s84.167 36 133.5 36c51.333 0 96.166 -12 134.499 -36s67.666 -55.833 87.999 -95.5s30.5 -82.167 30.5 -127.5c0 -15.333 -1.66699 -32 -5 -50h-412
c1.33301 -34 10 -63.667 26 -89s36.833 -45 62.5 -59s53.834 -21 84.501 -21c65.333 0 115.666 29.667 150.999 89l78 -40c-17.333 -38.667 -46.666 -70.667 -87.999 -96s-88.666 -38 -141.999 -38c-50.667 0 -96.667 12.333 -138 37zM463.999 322
c-1.33301 42 -16.5 76.833 -45.5 104.5s-64.5 41.5 -106.5 41.5c-41.333 0 -77 -13.167 -107 -39.5s-48.333 -61.833 -55 -106.5h314z" />
    <glyph glyph-name="f" unicode="f" horiz-adv-x="397" 
d="M129 446l-102.998 -0.000976562v89h103v38c0 38.667 8.33301 72 25 100s39.167 49.5 67.5 64.5s60.166 22.5 95.499 22.5c18 0 33.667 -1.66699 47 -5v-83c-10 2 -22 3 -36 3c-32.667 0 -58.334 -8.16699 -77.001 -24.5s-28 -42.166 -28 -77.499v-38h128v-89h-128v-446
h-94v446z" />
    <glyph glyph-name="g" unicode="g" horiz-adv-x="659" 
d="M179.5 -181.5c-43 25.667 -73.5 59.834 -91.5 102.501l87 40c10 -26.667 28.333 -48.5 55 -65.5s59.334 -25.5 98.001 -25.5c47.333 0 86.666 13.5 117.999 40.5s47 64.5 47 112.5v75c-20 -27.333 -45.667 -48.333 -77 -63s-65.333 -22 -102 -22
c-50 0 -95 11.833 -135 35.5s-71.5 56 -94.5 97s-34.5 86.5 -34.5 136.5s11.333 95.5 34 136.5s54 73.333 94 97s85 35.5 135 35.5c37.333 0 71.666 -7.5 102.999 -22.5s58 -36.5 80 -64.5v75h91v-516c0 -46.667 -11 -88.334 -33 -125.001s-52.667 -65.5 -92 -86.5
s-83.666 -31.5 -132.999 -31.5c-56.667 0 -106.5 12.833 -149.5 38.5zM170.5 192c15 -27.333 35.8311 -49 62.498 -65s56.334 -24 89.001 -24c31.333 0 60.166 8 86.499 24s47 37.667 62 65s22.5 57.333 22.5 90s-7.5 62.667 -22.5 90s-35.667 49 -62 65
s-55.166 24 -86.499 24c-32.667 0 -62.167 -8 -88.5 -24s-47.166 -37.667 -62.499 -65s-23 -57.333 -23 -90s7.5 -62.667 22.5 -90z" />
    <glyph glyph-name="h" unicode="h" 
d="M72 757l92.999 0.000976562v-281c16 24 37.167 42.5 63.5 55.5s55.833 19.5 88.5 19.5c38 0 72.333 -8.83301 103 -26.5s54.834 -41.834 72.501 -72.501s26.5 -65 26.5 -103v-349h-94v319c0 44 -12 78.667 -36 104s-55 38 -93 38s-69.333 -12.833 -94 -38.5
s-37 -60.167 -37 -103.5v-319h-93v757z" />
    <glyph glyph-name="i" unicode="i" horiz-adv-x="237" 
d="M72 539h93v-539h-93v539zM77 725c10.667 10.667 24.667 16 42 16s31.333 -5.33301 42 -16s16 -24.667 16 -42s-5.33301 -31.333 -16 -42s-24.667 -16 -42 -16s-31.333 5.33301 -42 16s-16 24.667 -16 42s5.33301 31.333 16 42z" />
    <glyph glyph-name="j" unicode="j" horiz-adv-x="237" 
d="M-64 -216l-0.000976562 83c14 -2 27.333 -3 40 -3c28.667 0 51.834 8 69.501 24s26.5 39 26.5 69v582h93v-582c0 -56 -17.333 -99.667 -52 -131s-79 -47 -133 -47c-17.333 0 -32 1.66699 -44 5zM76.999 725c10.667 10.667 24.667 16 42 16s31.333 -5.33301 42 -16
s16 -24.667 16 -42s-5.33301 -31.333 -16 -42s-24.667 -16 -42 -16s-31.333 5.33301 -42 16s-16 24.667 -16 42s5.33301 31.333 16 42z" />
    <glyph glyph-name="k" unicode="k" horiz-adv-x="558" 
d="M72 757h93v-471l248 253h119l-207 -217l221 -322h-110l-179 259l-92 -97v-162h-93v757z" />
    <glyph glyph-name="l" unicode="l" horiz-adv-x="237" 
d="M72 757h93v-757h-93v757z" />
    <glyph glyph-name="m" unicode="m" horiz-adv-x="913" 
d="M72 539l91 0.000976562v-67c15.333 25.333 36.166 44.833 62.499 58.5s55.5 20.5 87.5 20.5c36.667 0 70.167 -8.83301 100.5 -26.5s53.5 -41.5 69.5 -71.5c17.333 31.333 40.833 55.5 70.5 72.5s62.5 25.5 98.5 25.5c36.667 0 70.334 -8.83301 101.001 -26.5
s55 -41.834 73 -72.501s27 -65 27 -103v-349h-94v319c0 44 -11.5 78.667 -34.5 104s-52.833 38 -89.5 38c-37.333 0 -67.666 -12.833 -90.999 -38.5s-35 -60.167 -35 -103.5v-319h-94v319c0 44 -11.333 78.667 -34 104s-52.667 38 -90 38
c-36.667 0 -66.834 -12.833 -90.501 -38.5s-35.5 -60.167 -35.5 -103.5v-319h-93v539z" />
    <glyph glyph-name="n" unicode="n" 
d="M72 539l91 0.00195312v-66c16 25.333 37.333 44.666 64 57.999s56.667 20 90 20c38 0 72.333 -8.83301 103 -26.5s54.834 -41.834 72.501 -72.501s26.5 -65 26.5 -103v-349h-94v319c0 44 -11.833 78.667 -35.5 104s-54.834 38 -93.501 38s-70.167 -12.833 -94.5 -38.5
s-36.5 -60.167 -36.5 -103.5v-319h-93v539z" />
    <glyph glyph-name="o" unicode="o" horiz-adv-x="654" 
d="M187.5 24.5c-42.333 24.333 -75.8311 58 -100.498 101s-37 91.167 -37 144.5c0 52.667 12.167 100.5 36.5 143.5s57.666 76.667 99.999 101s89.5 36.5 141.5 36.5c51.333 0 98.166 -12.167 140.499 -36.5s75.666 -57.833 99.999 -100.5s36.5 -90.667 36.5 -144
c0 -54 -12.333 -102.333 -37 -145s-58.167 -76.167 -100.5 -100.5s-88.833 -36.5 -139.5 -36.5c-51.333 0 -98.166 12.167 -140.499 36.5zM171.502 172c15.667 -29.333 37.334 -52.333 65.001 -69s58.167 -25 91.5 -25c32.667 0 62.667 8.33301 90 25s48.833 39.667 64.5 69
s23.5 62 23.5 98s-7.83301 68.5 -23.5 97.5s-37.167 51.833 -64.5 68.5s-57.333 25 -90 25c-33.333 0 -63.833 -8.33301 -91.5 -25s-49.334 -39.5 -65.001 -68.5s-23.5 -61.5 -23.5 -97.5s7.83301 -68.667 23.5 -98z" />
    <glyph glyph-name="p" unicode="p" horiz-adv-x="669" 
d="M72 539l91.002 0.00292969v-75c21.333 27.333 48.166 48.666 80.499 63.999s68.5 23 108.5 23c50 0 95.333 -12.333 136 -37s72.667 -58.5 96 -101.5s35 -90.833 35 -143.5s-11.667 -100.334 -35 -143.001s-55.333 -76.334 -96 -101.001s-86.334 -37 -137.001 -37
c-38.667 0 -74.167 7.5 -106.5 22.5s-58.833 36.5 -79.5 64.5v-275h-93v739zM188.502 171.503c15.667 -29 37.167 -51.833 64.5 -68.5s57.666 -25 90.999 -25s63.5 8.33301 90.5 25s48 39.5 63 68.5s22.5 61.5 22.5 97.5s-7.66699 68.667 -23 98s-36.333 52.333 -63 69
s-56.667 25 -90 25s-63.666 -8.33301 -90.999 -25s-48.833 -39.667 -64.5 -69s-23.5 -62 -23.5 -98s7.83301 -68.5 23.5 -97.5z" />
    <glyph glyph-name="q" unicode="q" horiz-adv-x="669" 
d="M503 75c-20 -28 -46.3311 -49.5029 -78.998 -64.5029s-68.334 -22.5 -107.001 -22.5c-50 0 -95.333 12.333 -136 37s-72.667 58.334 -96 101.001s-35 90.334 -35 143.001s11.667 100.5 35 143.5s55.333 76.833 96 101.5s86 37 136 37c40 0 76.167 -7.66699 108.5 -23
s59.166 -36.666 80.499 -63.999v75h91v-739h-94v275zM171.002 171.497c15.333 -29 36.5 -51.833 63.5 -68.5s57.167 -25 90.5 -25s63.5 8.33301 90.5 25s48.333 39.5 64 68.5s23.5 61.5 23.5 97.5s-7.83301 68.667 -23.5 98s-37 52.333 -64 69s-57.167 25 -90.5 25
s-63.5 -8.33301 -90.5 -25s-48.167 -39.667 -63.5 -69s-23 -62 -23 -98s7.66699 -68.5 23 -97.5z" />
    <glyph glyph-name="r" unicode="r" horiz-adv-x="350" 
d="M72 539h91v-64c28 46.667 75.667 70 143 70h33v-88h-47c-38.667 0 -69.5 -12 -92.5 -36s-34.5 -57.333 -34.5 -100v-321h-93v539z" />
    <glyph glyph-name="s" unicode="s" horiz-adv-x="511" 
d="M127 26.5c-40 25.667 -68.667 60.4971 -86 104.497l75 38c15.333 -31.333 36.333 -56 63 -74s55.667 -27 87 -27c30 0 54.667 7 74 21s29 32.333 29 55c0 22 -8.66699 39.833 -26 53.5s-36 21.834 -56 24.501l-81 11c-48 12 -84 32 -108 60s-36 61 -36 99
c0 31.333 8.16699 59 24.5 83s39 42.667 68 56s61.167 20 96.5 20c46.667 0 88.5 -11.667 125.5 -35s63.5 -55.666 79.5 -96.999l-74 -38c-13.333 27.333 -31.833 49 -55.5 65s-49.834 24 -78.501 24c-27.333 0 -49.333 -6.66699 -66 -20s-25 -30.666 -25 -51.999
c0 -22 7.83301 -39.5 23.5 -52.5s32.834 -21.167 51.501 -24.5l89 -12c44.667 -12 79.5 -32.5 104.5 -61.5s37.5 -62.5 37.5 -100.5c0 -30.667 -8.33301 -58 -25 -82s-40 -42.833 -70 -56.5s-64.333 -20.5 -103 -20.5c-52 0 -98 12.833 -138 38.5z" />
    <glyph glyph-name="t" unicode="t" horiz-adv-x="396" 
d="M169.5 38.5c-28.333 29.667 -42.5 72.167 -42.5 127.5v284h-98v89h20c24 0 43 7.16699 57 21.5s21 33.833 21 58.5v44h93v-124h121v-89h-121v-281c0 -60 30 -90 90 -90c12.667 0 25 1 37 3v-83c-14 -3.33301 -32.667 -5 -56 -5c-52.667 0 -93.167 14.833 -121.5 44.5z
" />
    <glyph glyph-name="u" unicode="u" 
d="M159 15c-30.667 18 -54.666 43.166 -71.999 75.499s-26 69.5 -26 111.5v337h93v-327c0 -40 12 -72.333 36 -97s55.333 -37 94 -37s70 12.833 94 38.5s36 60.167 36 103.5v319h94v-539h-91v66c-16 -25.333 -37.333 -44.666 -64 -57.999s-56.667 -20 -90 -20
c-38.667 0 -73.334 9 -104.001 27z" />
    <glyph glyph-name="v" unicode="v" horiz-adv-x="533" 
d="M11 539h104l151 -408l152 408h104l-212 -539h-88z" />
    <glyph glyph-name="w" unicode="w" horiz-adv-x="826" 
d="M11 539h103l129 -395l126 395h88l126 -395l130 395h102l-185 -539h-89l-128 406l-128 -406h-89z" />
    <glyph glyph-name="x" unicode="x" horiz-adv-x="511" 
d="M200 270l-188 269h112l132 -192l131 192h113l-188 -269l187 -270h-112l-131 193l-131 -193h-114z" />
    <glyph glyph-name="y" unicode="y" horiz-adv-x="553" 
d="M225 1l-214 538h101l164 -421l163 421h103l-298 -739h-103z" />
    <glyph glyph-name="z" unicode="z" horiz-adv-x="460" 
d="M19 79l294 371h-278v89h404v-79l-291 -371h293v-89h-422v79z" />
    <glyph glyph-name="braceleft" unicode="{" horiz-adv-x="344" 
d="M158 -110.5c-28 26.333 -41.999 62.1699 -41.999 107.503v188c0 21.333 -5 38 -15 50s-25 18 -45 18h-29v85h29c20 0 35 6 45 18s15 28.667 15 50v192c0 45.333 14 81.166 42 107.499s65.667 39.5 113 39.5h38v-85h-38c-18 0 -32.167 -5.83301 -42.5 -17.5
s-15.166 -26.834 -14.499 -45.501v-184c0.666992 -23.333 -3.5 -45.166 -12.5 -65.499s-22.167 -37.5 -39.5 -51.5c16.667 -12.667 29.667 -28.834 39 -48.501s13.666 -41.167 12.999 -64.5v-185c-0.666992 -18.667 4.16602 -33.834 14.499 -45.501s24.5 -17.5 42.5 -17.5
h38v-85h-38c-47.333 0 -85 13.167 -113 39.5z" />
    <glyph glyph-name="bar" unicode="|" horiz-adv-x="332" 
d="M117 845h98v-1035h-98v1035z" />
    <glyph glyph-name="braceright" unicode="}" horiz-adv-x="344" 
d="M35 -65l38 0.000976562c18 0 32.333 5.66699 43 17s15.667 26.666 15 45.999v185c-0.666992 22.667 3.33301 44 12 64s21.667 36.333 39 49c-17.333 14 -30.5 31.167 -39.5 51.5s-12.833 42.166 -11.5 65.499v184c0.666992 19.333 -4.33301 34.666 -15 45.999
s-25 17 -43 17h-38v85h38c47.333 0 85 -13.167 113 -39.5s42 -62.166 42 -107.499v-192c0 -21.333 5.16699 -38 15.5 -50s25.166 -18 44.499 -18h29v-85h-29c-19.333 0 -34.166 -6 -44.499 -18s-15.5 -28.667 -15.5 -50v-188c0 -45.333 -14 -81.166 -42 -107.499
s-65.667 -39.5 -113 -39.5h-38v85z" />
    <glyph glyph-name="asciitilde" unicode="~" horiz-adv-x="644" 
d="M363 220c-15.333 6.66699 -32.332 16.334 -50.999 29.001c-14.667 10 -27.167 17.5 -37.5 22.5s-21.833 7.5 -34.5 7.5c-18.667 0 -33.834 -5.66699 -45.501 -17s-18.834 -27.333 -21.501 -48h-81c4 48 18 84.667 42 110s55.667 38 95 38c22 0 40.667 -3.33301 56 -10
s32.333 -16.334 51 -29.001c14.667 -10 27.167 -17.5 37.5 -22.5s21.833 -7.5 34.5 -7.5c34.667 0 55.667 21.667 63 65h80c-4 -48.667 -17.167 -85.5 -39.5 -110.5s-53.166 -37.5 -92.499 -37.5c-22 0 -40.667 3.33301 -56 10z" />
    <glyph glyph-name="uni00A0" unicode="&#xa0;" horiz-adv-x="173" 
 />
    <glyph glyph-name="exclamdown" unicode="&#xa1;" horiz-adv-x="312" 
d="M113 321h85l7 -528h-98zM115.5 522.5c11 11 24.501 16.501 40.501 16.501s29.5 -5.33301 40.5 -16s16.5 -24.334 16.5 -41.001s-5.33301 -30.334 -16 -41.001s-24.334 -16 -41.001 -16c-16 0 -29.5 5.33301 -40.5 16s-16.5 24.334 -16.5 41.001c0 16 5.5 29.5 16.5 40.5z
" />
    <glyph glyph-name="cent" unicode="&#xa2;" horiz-adv-x="603" 
d="M279 95c-44.667 6.66699 -84.334 22.833 -119.001 48.5s-61.667 58.5 -81 98.5s-29 84 -29 132s9.66699 92 29 132s46.333 72.667 81 98s74.334 41 119.001 47v94h75v-93c45.333 -5.33301 86 -21 122 -47s61.667 -57.667 77 -95l-83 -41c-10.667 24 -26 44.167 -46 60.5
s-43.333 26.833 -70 31.5v-376c26 4.66699 49 15.167 69 31.5s35.667 36.833 47 61.5l83 -42c-16 -37.333 -41.833 -69 -77.5 -95s-76.167 -41.667 -121.5 -47v-94h-75v95zM184.5 252.999c24.333 -34 55.833 -55.999 94.5 -65.999v372
c-38.667 -10 -70.167 -31.833 -94.5 -65.5s-36.5 -73.834 -36.5 -120.501c0 -46 12.167 -86 36.5 -120z" />
    <glyph glyph-name="sterling" unicode="&#xa3;" horiz-adv-x="650" 
d="M41 85h99.998v258h-100v71h100v117c0 44.667 9.66699 84 29 118s47 60.5 83 79.5s77.667 28.5 125 28.5c60.667 0 112.5 -17.333 155.5 -52s68.167 -81 75.5 -139l-89 -23c-4.66699 40.667 -19.667 72 -45 94s-57.666 33 -96.999 33
c-43.333 0 -77.166 -12.333 -101.499 -37s-36.5 -58.667 -36.5 -102v-117h174v-71h-174v-258h334v-85h-533v85z" />
    <glyph glyph-name="currency" unicode="&#xa4;" horiz-adv-x="590" 
d="M50 82l76.999 76c-23.333 34 -35 71 -35 111c0 39.333 11.667 76.333 35 111l-77 77l58 58l77 -77c34.667 22.667 71.334 34 110.001 34c40 0 77 -11.333 111 -34l77 77l58 -58l-77 -77c22.667 -35.333 34 -72.333 34 -111c0 -39.333 -11.333 -76.333 -34 -111l77 -76
l-58 -58l-77 76c-34.667 -22.667 -71.667 -34 -111 -34s-76 11.333 -110 34l-77 -76zM214.499 189c22.333 -22 49.166 -33 80.499 -33s58 11 80 33s33 48.667 33 80s-11 58.166 -33 80.499s-48.667 33.5 -80 33.5s-58.166 -11.167 -80.499 -33.5
s-33.5 -49.166 -33.5 -80.499s11.167 -58 33.5 -80z" />
    <glyph glyph-name="yen" unicode="&#xa5;" horiz-adv-x="635" 
d="M269 150h-138v72h138v80h-138v71h118l-238 372h111l196 -308l195 308h111l-236 -372h116v-71h-136v-80h136v-72h-136v-150h-99v150z" />
    <glyph glyph-name="brokenbar" unicode="&#xa6;" horiz-adv-x="332" 
d="M117 845h98v-417h-98v417zM117 228h98v-418h-98v418z" />
    <glyph glyph-name="section" unicode="&#xa7;" horiz-adv-x="531" 
d="M128.5 -61c-42.333 28 -72.168 65.9971 -89.501 113.997l76 36c16 -34 38.333 -60.833 67 -80.5s60 -29.5 94 -29.5c31.333 0 57.333 7.66699 78 23s31 35 31 59c0 38.667 -28.667 65.667 -86 81l-86 25c-49.333 14 -86.166 34.5 -110.499 61.5s-36.5 58.833 -36.5 95.5
c0 29.333 7 55.833 21 79.5s33.333 42.834 58 57.501c-52.667 30 -79 73 -79 129c0 32.667 8.5 61.667 25.5 87s40.5 45 70.5 59s63.333 21 100 21c49.333 0 93.833 -12.667 133.5 -38s67.5 -60 83.5 -104l-77 -37c-12.667 30 -31.834 53.5 -57.501 70.5
s-54.167 25.5 -85.5 25.5c-29.333 0 -52.833 -7.16699 -70.5 -21.5s-26.5 -33.166 -26.5 -56.499c0 -22 7.5 -38.667 22.5 -50s33.833 -20.333 56.5 -27l94 -27c46.667 -14 82.667 -35.167 108 -63.5s38 -61.5 38 -99.5c0 -28 -6.83301 -53.5 -20.5 -76.5
s-32.834 -41.833 -57.501 -56.5c52 -33.333 78 -77.666 78 -132.999c0 -32 -8.66699 -60.667 -26 -86s-41.666 -45 -72.999 -59s-66.666 -21 -105.999 -21c-56 0 -105.167 14 -147.5 42zM245.998 251.997l78.999 -23.002c18.667 7.33301 33.334 18.5 44.001 33.5
s16 32.5 16 52.5c0 25.333 -8.66699 45.5 -26 60.5s-39 26.167 -65 33.5l-67 20c-20 -5.33301 -35.833 -15.666 -47.5 -30.999s-17.5 -33.666 -17.5 -54.999c0 -44.667 28 -75 84 -91z" />
    <glyph glyph-name="dieresis" unicode="&#xa8;" horiz-adv-x="519" 
d="M128 673.5c-12 12.333 -18 27.167 -18 44.5s6 32 18 44s27 18 45 18c17.333 0 32 -6 44 -18s18 -26.667 18 -44c0 -18 -6 -33 -18 -45s-26.667 -18 -44 -18c-18 0 -33 6.16699 -45 18.5zM303 762.001c12 12 27 18.001 45 18.001c17.333 0 32 -6 44 -18s18 -26.667 18 -44
c0 -18 -6 -33 -18 -45s-26.667 -18 -44 -18c-18 0 -33 6.16699 -45 18.5s-18 27.166 -18 44.499s6 32 18 44z" />
    <glyph glyph-name="copyright" unicode="&#xa9;" horiz-adv-x="909" 
d="M261.5 39.5c-59 34.333 -105.668 81 -140.001 140s-51.5 123.5 -51.5 193.5c0 69.333 17.167 133.5 51.5 192.5s80.833 105.667 139.5 140s123.334 51.5 194.001 51.5c70 0 134.333 -17.167 193 -51.5s105.167 -81 139.5 -140s51.5 -123.167 51.5 -192.5
c0 -70 -17.167 -134.5 -51.5 -193.5s-81 -105.667 -140 -140s-123.167 -51.5 -192.5 -51.5c-70 0 -134.5 17.167 -193.5 51.5zM188.999 218c27.333 -46.667 64.333 -83.667 111 -111s98.334 -41 155.001 -41c56 0 107.5 13.667 154.5 41s84.167 64.333 111.5 111
s41 98.334 41 155.001c0 56 -13.667 107.5 -41 154.5s-64.5 84.167 -111.5 111.5s-98.5 41 -154.5 41c-56.667 0 -108.334 -13.667 -155.001 -41s-83.667 -64.5 -111 -111.5s-41 -98.5 -41 -154.5c0 -56.667 13.667 -108.334 41 -155.001zM283.499 480.5
c17.667 31.667 42 56.501 73 74.501s65.833 27 104.5 27c41.333 0 77.666 -10.167 108.999 -30.5s52.333 -45.833 63 -76.5l-71 -32c-8 20 -20.833 36.167 -38.5 48.5s-38.5 18.5 -62.5 18.5c-36.667 0 -66.5 -12.667 -89.5 -38s-34.5 -58.333 -34.5 -99
s11.333 -73.667 34 -99s52.667 -38 90 -38c23.333 0 44 6.16699 62 18.5s31 28.166 39 47.499l71 -32c-10.667 -30.667 -31.667 -56.167 -63 -76.5s-67.666 -30.5 -108.999 -30.5c-38.667 0 -73.5 9 -104.5 27s-55.333 43 -73 75s-26.5 68 -26.5 108
s8.83301 75.833 26.5 107.5z" />
    <glyph glyph-name="ordfeminine" unicode="&#xaa;" horiz-adv-x="452" 
d="M85.5 388.5c-23.667 19.667 -35.502 45.8311 -35.502 78.498s10.833 59.334 32.5 80.001s53.834 34.334 96.501 41.001l118 20v13c0 18 -7 32.667 -21 44s-31.667 17 -53 17c-20 0 -37.667 -5.33301 -53 -16s-26.666 -24.667 -33.999 -42l-70 34
c11.333 29.333 31.833 52.833 61.5 70.5s62.5 26.5 98.5 26.5c45.333 0 82.333 -12.5 111 -37.5s43 -57.167 43 -96.5v-254h-79v43c-30 -34 -70.333 -51 -121 -51c-39.333 0 -70.833 9.83301 -94.5 29.5zM152.998 436.997c10.667 -8.66699 24 -13 40 -13
c30 0 54.833 9.66699 74.5 29s29.5 43 29.5 71v18l-102 -17c-38.667 -6.66699 -58 -24.667 -58 -54c0 -14 5.33301 -25.333 16 -34z" />
    <glyph glyph-name="guillemotleft" unicode="&#xab;" horiz-adv-x="585" 
d="M34 269l153 193h108l-152 -193l152 -192h-108zM442 462h108l-152 -193l152 -192h-108l-153 192z" />
    <glyph glyph-name="logicalnot" unicode="&#xac;" horiz-adv-x="693" 
d="M488 207h-412v87h500v-254h-88v167z" />
    <glyph glyph-name="uni00AD" unicode="&#xad;" horiz-adv-x="532" 
d="M79 312h375v-85h-375v85z" />
    <glyph glyph-name="registered" unicode="&#xae;" horiz-adv-x="653" 
d="M198 306.5c-39.333 23 -70.5 54.167 -93.5 93.5s-34.5 82 -34.5 128c0 46.667 11.5 89.5 34.5 128.5s54.167 70 93.5 93s82.333 34.5 129 34.5c46 0 88.667 -11.5 128 -34.5s70.5 -54 93.5 -93s34.5 -81.833 34.5 -128.5c0 -46 -11.5 -88.667 -34.5 -128
s-54.167 -70.5 -93.5 -93.5s-82 -34.5 -128 -34.5c-46.667 0 -89.667 11.5 -129 34.5zM158 430.5c17.333 -29.667 40.835 -53.166 70.502 -70.499s62.5 -26 98.5 -26c35.333 0 67.833 8.66699 97.5 26s53.167 40.666 70.5 69.999s26 62 26 98
c0 35.333 -8.83301 67.833 -26.5 97.5s-41.334 53.167 -71.001 70.5s-61.834 26 -96.501 26c-36 0 -68.833 -8.66699 -98.5 -26s-53.167 -40.833 -70.5 -70.5s-26 -62.167 -26 -97.5s8.66699 -67.833 26 -97.5zM225.002 664.001h113c29.333 0 53 -7.66699 71 -23
s27 -37 27 -65c0 -34.667 -14.667 -60 -44 -76l62 -106h-70l-53 94h-42v-94h-64v270zM338.002 543.001c10 0 18.167 3.16797 24.5 9.50098s9.5 14.166 9.5 23.499s-3 17 -9 23s-14.333 9 -25 9h-49v-65h49z" />
    <glyph glyph-name="macron" unicode="&#xaf;" horiz-adv-x="486" 
d="M110 739h267v-73h-267v73z" />
    <glyph glyph-name="degree" unicode="&#xb0;" horiz-adv-x="500" 
d="M167.5 455c-25 14 -44.667 33.333 -59 58s-21.5 52 -21.5 82s7.16699 57.333 21.5 82s34 44.167 59 58.5s52.5 21.5 82.5 21.5s57.333 -7.16699 82 -21.5s44.167 -33.833 58.5 -58.5s21.5 -52 21.5 -82s-7.16699 -57.333 -21.5 -82s-33.833 -44 -58.5 -58
s-52 -21 -82 -21s-57.5 7 -82.5 21zM186 531c17.333 -16.667 38.333 -25 63 -25c25.333 0 46.833 8.33301 64.5 25s26.5 38 26.5 64c0 26.667 -8.83301 48.5 -26.5 65.5s-39.167 25.5 -64.5 25.5c-24.667 0 -45.667 -8.5 -63 -25.5s-26 -38.833 -26 -65.5
c0 -26 8.66699 -47.333 26 -64z" />
    <glyph glyph-name="plusminus" unicode="&#xb1;" horiz-adv-x="624" 
d="M269 322h-207v87h207v164h87v-164h206v-87h-206v-164h-87v164zM62 88h500v-88h-500v88z" />
    <glyph glyph-name="uni00B2" unicode="&#xb2;" horiz-adv-x="421" 
d="M34 288l143.001 151c33.333 36 56.333 61.333 69 76s22.5 28.667 29.5 42s10.5 27 10.5 41c0 23.333 -7.33301 41.833 -22 55.5s-33.667 20.5 -57 20.5c-24 0 -44.833 -6.83301 -62.5 -20.5s-29.834 -33.5 -36.501 -59.5l-77 23c8.66699 41.333 29.5 74.333 62.5 99
s70.833 37 113.5 37c49.333 0 89.333 -13.667 120 -41s46 -62.333 46 -105c0 -30 -8 -58 -24 -84s-41 -57 -75 -93l-125 -132h234v-75h-349v65z" />
    <glyph glyph-name="uni00B3" unicode="&#xb3;" horiz-adv-x="432" 
d="M95 249.5c-33.333 23 -55.334 53.165 -66.001 90.498l75 28c8.66699 -24 22.334 -42.5 41.001 -55.5s40 -19.5 64 -19.5c30 0 54 8.33301 72 25s27 39.667 27 69c0 28.667 -9 51.334 -27 68.001s-42 25 -72 25c-16.667 0 -33.334 -3 -50.001 -9l-20 40l137 160h-218v74
h316v-70l-111 -132c40 -5.33301 72 -21.833 96 -49.5s36 -62.5 36 -104.5c0 -32.667 -8 -62.167 -24 -88.5s-38.167 -47.166 -66.5 -62.499s-60.166 -23 -95.499 -23c-42.667 0 -80.667 11.5 -114 34.5z" />
    <glyph glyph-name="acute" unicode="&#xb4;" horiz-adv-x="392" 
d="M183 784h99l-92 -144h-80z" />
    <glyph glyph-name="uni00B5" unicode="&#xb5;" 
d="M61 539h93v-327c0 -40 12 -72.333 36 -97s55.333 -37 94 -37s70 12.833 94 38.5s36 60.167 36 103.5v319h94v-539h-91v68c-14.667 -25.333 -35.5 -45 -62.5 -59s-57.5 -21 -91.5 -21c-40.667 0 -77 10.333 -109 31v-159h-93v679z" />
    <glyph glyph-name="paragraph" unicode="&#xb6;" horiz-adv-x="453" 
d="M144.5 408.5c-27.667 15.667 -49.334 37.332 -65.001 64.999s-23.5 58.167 -23.5 91.5s7.83301 63.833 23.5 91.5s37.334 49.334 65.001 65.001s58.834 23.5 93.501 23.5h98v-845h-98v485c-34.667 0 -65.834 7.83301 -93.501 23.5z" />
    <glyph glyph-name="periodcentered" unicode="&#xb7;" horiz-adv-x="317" 
d="M118.5 225.5c-11 11 -16.5 24.833 -16.5 41.5s5.5 30.5 16.5 41.5s24.5 16.5 40.5 16.5s29.333 -5.5 40 -16.5s16 -24.833 16 -41.5s-5.16699 -30.5 -15.5 -41.5s-23.833 -16.5 -40.5 -16.5c-16 0 -29.5 5.5 -40.5 16.5z" />
    <glyph glyph-name="cedilla" unicode="&#xb8;" horiz-adv-x="416" 
d="M147 -203c-14.667 2.66699 -26.999 6 -36.999 10l12 50c18 -6.66699 38 -10 60 -10c15.333 0 27.333 3.33301 36 10s13 15.667 13 27c0 10 -3 17.667 -9 23s-14.667 8 -26 8c-16 0 -29.333 -2.66699 -40 -8l-21 9l13 107h63l-6 -62c8 1.33301 14.333 2 19 2
c24 0 43.833 -7 59.5 -21s23.5 -32.333 23.5 -55c0 -27.333 -10.5 -49.833 -31.5 -67.5s-50.167 -26.5 -87.5 -26.5c-12.667 0 -26.334 1.33301 -41.001 4z" />
    <glyph glyph-name="uni00B9" unicode="&#xb9;" horiz-adv-x="306" 
d="M119 670h-100v75h188v-522h-88v447z" />
    <glyph glyph-name="ordmasculine" unicode="&#xba;" horiz-adv-x="498" 
d="M149 385c-30.667 17.333 -54.833 40.999 -72.5 70.999s-26.5 63.667 -26.5 101s8.83301 71.166 26.5 101.499s41.667 54 72 71s63.833 25.5 100.5 25.5s70.167 -8.5 100.5 -25.5s54.333 -40.667 72 -71s26.5 -64.166 26.5 -101.499s-9 -71.166 -27 -101.499
s-42.167 -54 -72.5 -71s-63.5 -25.5 -99.5 -25.5s-69.333 8.66699 -100 26zM169.001 471.499c21.333 -23 48 -34.501 80 -34.501s58.5 11.333 79.5 34s31.5 51.334 31.5 86.001s-10.5 63.334 -31.5 86.001s-47.5 34 -79.5 34c-32.667 0 -59.5 -11.333 -80.5 -34
s-31.5 -51.334 -31.5 -86.001c0 -34 10.667 -62.5 32 -85.5z" />
    <glyph glyph-name="guillemotright" unicode="&#xbb;" horiz-adv-x="585" 
d="M442 269l-152 193h108l152 -193l-152 -192h-108zM187 269l-152 193h108l152 -193l-152 -192h-108z" />
    <glyph glyph-name="onequarter" unicode="&#xbc;" horiz-adv-x="888" 
d="M100 678h-81v67h160v-417h-79v350zM562 745h90l-446 -745h-91zM714 92h-191v66l186 259h83v-259h62v-66h-62v-92h-78v92zM714 158v162l-113 -162h113z" />
    <glyph glyph-name="onehalf" unicode="&#xbd;" horiz-adv-x="843" 
d="M100 678h-81v67h160v-417h-79v350zM562 745h90l-446 -745h-91zM524 60l113.001 119c32.667 34 54.667 58.667 66 74s17 30.333 17 45c0 16.667 -5.33301 30 -16 40s-24.334 15 -41.001 15c-17.333 0 -32.5 -5.16699 -45.5 -15.5s-22.167 -24.833 -27.5 -43.5l-69 23
c6.66699 32 23.5 57.833 50.5 77.5s57.5 29.5 91.5 29.5c40 0 72.667 -11 98 -33s38 -50 38 -84c0 -24 -6.33301 -46.333 -19 -67s-31.667 -44 -57 -70l-97 -102h179v-68h-281v60z" />
    <glyph glyph-name="threequarters" unicode="&#xbe;" horiz-adv-x="972" 
d="M82 349.5c-27.333 19 -45 43.835 -53 74.502l69 25c6.66699 -18 16.667 -31.833 30 -41.5s29 -14.5 47 -14.5c22 0 39.667 6.16699 53 18.5s20 29.166 20 50.499c0 20.667 -6.5 36.834 -19.5 48.501s-30.833 17.5 -53.5 17.5c-16.667 0 -31 -3 -43 -9l-18 38l107 122
h-168v66h257v-63l-85 -97c31.333 -5.33301 56 -18.833 74 -40.5s27 -48.834 27 -81.501c0 -26.667 -6.5 -50.834 -19.5 -72.501s-31 -38.667 -54 -51s-48.833 -18.5 -77.5 -18.5c-34.667 0 -65.667 9.5 -93 28.5zM646 745.002h90l-446 -745h-91zM798 92.002h-191v66l186 259
h83v-259h62v-66h-62v-92h-78v92zM798 158.002v162l-113 -162h113z" />
    <glyph glyph-name="questiondown" unicode="&#xbf;" horiz-adv-x="527" 
d="M151.5 -193c-32.333 17.333 -57.166 40.3359 -74.499 69.0029s-26 59.334 -26 92.001c0 26.667 5.5 51.167 16.5 73.5s23.167 40.666 36.5 54.999s35 36.5 65 66.5c26.667 26 47 50.167 61 72.5s21 47.166 21 74.499v11h95v-14c0 -40 -9 -74.167 -27 -102.5
s-43.667 -58.5 -77 -90.5c-23.333 -22.667 -40.5 -39.834 -51.5 -51.501s-20.667 -25.5 -29 -41.5s-12.5 -33.333 -12.5 -52c0 -28 10.167 -51.667 30.5 -71s48.166 -29 83.499 -29c34.667 0 64 10.667 88 32s39.667 49.666 47 84.999l88 -20
c-9.33301 -56 -34.333 -100.833 -75 -134.5s-90.334 -50.5 -149.001 -50.5c-41.333 0 -78.166 8.66699 -110.499 26zM247 539.003h97v-120h-97v120z" />
    <glyph glyph-name="Agrave" unicode="&#xc0;" horiz-adv-x="672" 
d="M278 745h116l267 -745h-105l-61 175h-318l-61 -175h-105zM464 265l-128 369l-128 -369h256zM204 991h99l73 -144h-80z" />
    <glyph glyph-name="Aacute" unicode="&#xc1;" horiz-adv-x="672" 
d="M278 745h116l267 -745h-105l-61 175h-318l-61 -175h-105zM464 265l-128 369l-128 -369h256zM369 991h99l-92 -144h-80z" />
    <glyph glyph-name="Acircumflex" unicode="&#xc2;" horiz-adv-x="672" 
d="M278 745h116l267 -745h-105l-61 175h-318l-61 -175h-105zM464 265l-128 369l-128 -369h256zM288 991h95l116 -144h-85l-78 94l-76 -94h-86z" />
    <glyph glyph-name="Atilde" unicode="&#xc3;" horiz-adv-x="672" 
d="M278 745h116l267 -745h-105l-61 175h-318l-61 -175h-105zM464 265l-128 369l-128 -369h256zM361.5 885c-10.333 4.66699 -21.833 11.667 -34.5 21c-9.33301 6 -16.666 10.5 -21.999 13.5s-11.666 4.5 -18.999 4.5c-18.667 0 -29.667 -14 -33 -42h-63
c0.666992 34.667 8.83398 61.5 24.501 80.5s36.167 28.5 61.5 28.5c15.333 0 28 -2.33301 38 -7s20.667 -11.334 32 -20.001c9.33301 -6.66699 16.833 -11.5 22.5 -14.5s12.167 -4.5 19.5 -4.5c9.33301 0 16.666 3.83301 21.999 11.5s8.66602 17.5 9.99902 29.5h64
c-0.666992 -35.333 -8.33398 -62.166 -23.001 -80.499s-34.667 -27.5 -60 -27.5c-16 0 -29.167 2.33301 -39.5 7z" />
    <glyph glyph-name="Adieresis" unicode="&#xc4;" horiz-adv-x="672" 
d="M278 745h116l267 -745h-105l-61 175h-318l-61 -175h-105zM464 265l-128 369l-128 -369h256zM205 880.5c-12 12.333 -18 27.167 -18 44.5s6 32 18 44s27 18 45 18c17.333 0 32 -6 44 -18s18 -26.667 18 -44c0 -18 -6 -33 -18 -45s-26.667 -18 -44 -18
c-18 0 -33 6.16699 -45 18.5zM380 969.001c12 12 27 18.001 45 18.001c17.333 0 32 -6 44 -18s18 -26.667 18 -44c0 -18 -6 -33 -18 -45s-26.667 -18 -44 -18c-18 0 -33 6.16699 -45 18.5s-18 27.166 -18 44.499s6 32 18 44z" />
    <glyph glyph-name="Aring" unicode="&#xc5;" horiz-adv-x="672" 
d="M278 745h116l267 -745h-105l-61 175h-318l-61 -175h-105zM464 265l-128 369l-128 -369h256zM248.5 830c-23.667 23.333 -35.5 52 -35.5 86c0 34.667 11.833 63.667 35.5 87s52.834 35 87.501 35s63.667 -11.667 87 -35s35 -52.333 35 -87c0 -34 -11.667 -62.667 -35 -86
s-52.333 -35 -87 -35s-63.834 11.667 -87.501 35zM291 871.5c12 -11.667 26.667 -17.499 44 -17.499s32 5.83301 44 17.5s18 26.5 18 44.5s-6 33 -18 45s-26.667 18 -44 18s-32 -5.83301 -44 -17.5s-18 -26.834 -18 -45.501c0 -18 6 -32.833 18 -44.5z" />
    <glyph glyph-name="AE" unicode="&#xc6;" horiz-adv-x="987" 
d="M278 745h671v-90h-387v-236h367v-90h-367v-239h387l-1 -90h-485v175h-286l-61 -175h-105zM463 265v390h-119l-136 -390h255z" />
    <glyph glyph-name="Ccedilla" unicode="&#xc7;" horiz-adv-x="779" 
d="M420 -12l-4.99902 -50c8 1.33301 14.333 2 19 2c24 0 43.833 -7 59.5 -21s23.5 -32.333 23.5 -55c0 -27.333 -10.5 -49.833 -31.5 -67.5s-50.167 -26.5 -87.5 -26.5c-12.667 0 -26.334 1.33301 -41.001 4s-27 6 -37 10l12 50c18 -6.66699 38 -10 60 -10
c15.333 0 27.333 3.33301 36 10s13 15.667 13 27c0 10 -3 17.667 -9 23s-14.667 8 -26 8c-16 0 -29.333 -2.66699 -40 -8l-21 9l12 101c-58 10 -109.333 32.5 -154 67.5s-79.5 79.333 -104.5 133s-37.5 112.834 -37.5 177.501c0 73.333 15.667 139.333 47 198
s74.833 104.5 130.5 137.5s118.167 49.5 187.5 49.5c49.333 0 94.666 -8.83301 135.999 -26.5s76.333 -40.834 105 -69.501s49.334 -59.667 62.001 -93l-90 -41c-18 42.667 -45.5 76.5 -82.5 101.5s-80.5 37.5 -130.5 37.5c-52 0 -98.167 -12.333 -138.5 -37
s-71.833 -59.334 -94.5 -104.001s-34 -95.667 -34 -153s11.333 -108.166 34 -152.499s54.167 -78.833 94.5 -103.5s86.5 -37 138.5 -37c50 0 93.5 12.5 130.5 37.5s64.5 58.833 82.5 101.5l90 -41c-12.667 -34 -33.334 -65.333 -62.001 -94s-63.667 -51.667 -105 -69
s-86.666 -26 -135.999 -26h-6z" />
    <glyph glyph-name="Egrave" unicode="&#xc8;" horiz-adv-x="606" 
d="M83 745h485v-90h-387v-236h367v-90h-367v-239h387v-90h-485v745zM193 991h99l73 -144h-80z" />
    <glyph glyph-name="Eacute" unicode="&#xc9;" horiz-adv-x="606" 
d="M83 745h485v-90h-387v-236h367v-90h-367v-239h387v-90h-485v745zM358 991h99l-92 -144h-80z" />
    <glyph glyph-name="Ecircumflex" unicode="&#xca;" horiz-adv-x="606" 
d="M83 745h485v-90h-387v-236h367v-90h-367v-239h387v-90h-485v745zM277 991h95l116 -144h-85l-78 94l-76 -94h-86z" />
    <glyph glyph-name="Edieresis" unicode="&#xcb;" horiz-adv-x="606" 
d="M83 745h485v-90h-387v-236h367v-90h-367v-239h387v-90h-485v745zM194 880.5c-12 12.333 -18 27.167 -18 44.5s6 32 18 44s27 18 45 18c17.333 0 32 -6 44 -18s18 -26.667 18 -44c0 -18 -6 -33 -18 -45s-26.667 -18 -44 -18c-18 0 -33 6.16699 -45 18.5zM369 969.001
c12 12 27 18.001 45 18.001c17.333 0 32 -6 44 -18s18 -26.667 18 -44c0 -18 -6 -33 -18 -45s-26.667 -18 -44 -18c-18 0 -33 6.16699 -45 18.5s-18 27.166 -18 44.499s6 32 18 44z" />
    <glyph glyph-name="Igrave" unicode="&#xcc;" horiz-adv-x="264" 
d="M83 745h98v-745h-98v745zM-1 991h99l73 -144h-80z" />
    <glyph glyph-name="Iacute" unicode="&#xcd;" horiz-adv-x="264" 
d="M83 745h98v-745h-98v745zM165 991h99l-92 -144h-80z" />
    <glyph glyph-name="Icircumflex" unicode="&#xce;" horiz-adv-x="264" 
d="M83 745h98v-745h-98v745zM83 991h95l116 -144h-85l-78 94l-76 -94h-86z" />
    <glyph glyph-name="Idieresis" unicode="&#xcf;" horiz-adv-x="264" 
d="M83 745h98v-745h-98v745zM0 880.5c-12 12.333 -18 27.167 -18 44.5s6 32 18 44s27 18 45 18c17.333 0 32 -6 44 -18s18 -26.667 18 -44c0 -18 -6 -33 -18 -45s-26.667 -18 -44 -18c-18 0 -33 6.16699 -45 18.5zM175 969.001c12 12 27 18.001 45 18.001
c17.333 0 32 -6 44 -18s18 -26.667 18 -44c0 -18 -6 -33 -18 -45s-26.667 -18 -44 -18c-18 0 -33 6.16699 -45 18.5s-18 27.166 -18 44.499s6 32 18 44z" />
    <glyph glyph-name="Eth" unicode="&#xd0;" horiz-adv-x="741" 
d="M83 337h-89v71h89v337h244c74.667 0 140.167 -15.333 196.5 -46s99.833 -74.167 130.5 -130.5s46 -121.5 46 -195.5s-15.333 -139.167 -46 -195.5s-74.167 -100 -130.5 -131s-121.833 -46.5 -196.5 -46.5h-244v337zM328 90c54.667 0 102.333 11.501 143 34.501
s72 55.833 94 98.5s33 92.667 33 150s-11 107.166 -33 149.499s-53.5 75 -94.5 98s-88.5 34.5 -142.5 34.5h-147v-247h189v-71h-189v-247h147z" />
    <glyph glyph-name="Ntilde" unicode="&#xd1;" horiz-adv-x="738" 
d="M83 745h82l391 -550v550h99v-745h-82l-392 558v-558h-98v745zM393.5 885c-10.333 4.66699 -21.833 11.667 -34.5 21c-9.33301 6 -16.666 10.5 -21.999 13.5s-11.666 4.5 -18.999 4.5c-18.667 0 -29.667 -14 -33 -42h-63c0.666992 34.667 8.83398 61.5 24.501 80.5
s36.167 28.5 61.5 28.5c15.333 0 28 -2.33301 38 -7s20.667 -11.334 32 -20.001c9.33301 -6.66699 16.833 -11.5 22.5 -14.5s12.167 -4.5 19.5 -4.5c9.33301 0 16.666 3.83301 21.999 11.5s8.66602 17.5 9.99902 29.5h64
c-0.666992 -35.333 -8.33398 -62.166 -23.001 -80.499s-34.667 -27.5 -60 -27.5c-16 0 -29.167 2.33301 -39.5 7z" />
    <glyph glyph-name="Ograve" unicode="&#xd2;" horiz-adv-x="878" 
d="M247.5 38c-57.667 33.333 -103.167 79.3311 -136.5 137.998s-50 124.334 -50 197.001s16.667 138.334 50 197.001s78.833 104.5 136.5 137.5s121.5 49.5 191.5 49.5s133.833 -16.667 191.5 -50s103.334 -79.166 137.001 -137.499s50.5 -123.833 50.5 -196.5
s-16.833 -138.334 -50.5 -197.001s-79.334 -104.667 -137.001 -138s-121.5 -50 -191.5 -50s-133.833 16.667 -191.5 50zM195 224.498c24 -45 57.333 -80.5 100 -106.5s90.667 -39 144 -39s101.333 13 144 39s76 61.5 100 106.5s36 94.5 36 148.5s-12 103.333 -36 148
s-57.333 80 -100 106s-90.667 39 -144 39s-101.333 -13 -144 -39s-76 -61.333 -100 -106s-36 -94 -36 -148s12 -103.5 36 -148.5zM307 990.998h99l73 -144h-80z" />
    <glyph glyph-name="Oacute" unicode="&#xd3;" horiz-adv-x="878" 
d="M247.5 38c-57.667 33.333 -103.167 79.3311 -136.5 137.998s-50 124.334 -50 197.001s16.667 138.334 50 197.001s78.833 104.5 136.5 137.5s121.5 49.5 191.5 49.5s133.833 -16.667 191.5 -50s103.334 -79.166 137.001 -137.499s50.5 -123.833 50.5 -196.5
s-16.833 -138.334 -50.5 -197.001s-79.334 -104.667 -137.001 -138s-121.5 -50 -191.5 -50s-133.833 16.667 -191.5 50zM195 224.498c24 -45 57.333 -80.5 100 -106.5s90.667 -39 144 -39s101.333 13 144 39s76 61.5 100 106.5s36 94.5 36 148.5s-12 103.333 -36 148
s-57.333 80 -100 106s-90.667 39 -144 39s-101.333 -13 -144 -39s-76 -61.333 -100 -106s-36 -94 -36 -148s12 -103.5 36 -148.5zM472 990.998h99l-92 -144h-80z" />
    <glyph glyph-name="Ocircumflex" unicode="&#xd4;" horiz-adv-x="878" 
d="M247.5 38c-57.667 33.333 -103.167 79.3311 -136.5 137.998s-50 124.334 -50 197.001s16.667 138.334 50 197.001s78.833 104.5 136.5 137.5s121.5 49.5 191.5 49.5s133.833 -16.667 191.5 -50s103.334 -79.166 137.001 -137.499s50.5 -123.833 50.5 -196.5
s-16.833 -138.334 -50.5 -197.001s-79.334 -104.667 -137.001 -138s-121.5 -50 -191.5 -50s-133.833 16.667 -191.5 50zM195 224.498c24 -45 57.333 -80.5 100 -106.5s90.667 -39 144 -39s101.333 13 144 39s76 61.5 100 106.5s36 94.5 36 148.5s-12 103.333 -36 148
s-57.333 80 -100 106s-90.667 39 -144 39s-101.333 -13 -144 -39s-76 -61.333 -100 -106s-36 -94 -36 -148s12 -103.5 36 -148.5zM391 990.998h95l116 -144h-85l-78 94l-76 -94h-86z" />
    <glyph glyph-name="Otilde" unicode="&#xd5;" horiz-adv-x="878" 
d="M247.5 38c-57.667 33.333 -103.167 79.3311 -136.5 137.998s-50 124.334 -50 197.001s16.667 138.334 50 197.001s78.833 104.5 136.5 137.5s121.5 49.5 191.5 49.5s133.833 -16.667 191.5 -50s103.334 -79.166 137.001 -137.499s50.5 -123.833 50.5 -196.5
s-16.833 -138.334 -50.5 -197.001s-79.334 -104.667 -137.001 -138s-121.5 -50 -191.5 -50s-133.833 16.667 -191.5 50zM195 224.498c24 -45 57.333 -80.5 100 -106.5s90.667 -39 144 -39s101.333 13 144 39s76 61.5 100 106.5s36 94.5 36 148.5s-12 103.333 -36 148
s-57.333 80 -100 106s-90.667 39 -144 39s-101.333 -13 -144 -39s-76 -61.333 -100 -106s-36 -94 -36 -148s12 -103.5 36 -148.5zM464.5 884.998c-10.333 4.66699 -21.833 11.667 -34.5 21c-9.33301 6 -16.666 10.5 -21.999 13.5s-11.666 4.5 -18.999 4.5
c-18.667 0 -29.667 -14 -33 -42h-63c0.666992 34.667 8.83398 61.5 24.501 80.5s36.167 28.5 61.5 28.5c15.333 0 28 -2.33301 38 -7s20.667 -11.334 32 -20.001c9.33301 -6.66699 16.833 -11.5 22.5 -14.5s12.167 -4.5 19.5 -4.5c9.33301 0 16.666 3.83301 21.999 11.5
s8.66602 17.5 9.99902 29.5h64c-0.666992 -35.333 -8.33398 -62.166 -23.001 -80.499s-34.667 -27.5 -60 -27.5c-16 0 -29.167 2.33301 -39.5 7z" />
    <glyph glyph-name="Odieresis" unicode="&#xd6;" horiz-adv-x="878" 
d="M247.5 38c-57.667 33.333 -103.167 79.3311 -136.5 137.998s-50 124.334 -50 197.001s16.667 138.334 50 197.001s78.833 104.5 136.5 137.5s121.5 49.5 191.5 49.5s133.833 -16.667 191.5 -50s103.334 -79.166 137.001 -137.499s50.5 -123.833 50.5 -196.5
s-16.833 -138.334 -50.5 -197.001s-79.334 -104.667 -137.001 -138s-121.5 -50 -191.5 -50s-133.833 16.667 -191.5 50zM195 224.498c24 -45 57.333 -80.5 100 -106.5s90.667 -39 144 -39s101.333 13 144 39s76 61.5 100 106.5s36 94.5 36 148.5s-12 103.333 -36 148
s-57.333 80 -100 106s-90.667 39 -144 39s-101.333 -13 -144 -39s-76 -61.333 -100 -106s-36 -94 -36 -148s12 -103.5 36 -148.5zM308 880.498c-12 12.333 -18 27.167 -18 44.5s6 32 18 44s27 18 45 18c17.333 0 32 -6 44 -18s18 -26.667 18 -44c0 -18 -6 -33 -18 -45
s-26.667 -18 -44 -18c-18 0 -33 6.16699 -45 18.5zM483 968.999c12 12 27 18.001 45 18.001c17.333 0 32 -6 44 -18s18 -26.667 18 -44c0 -18 -6 -33 -18 -45s-26.667 -18 -44 -18c-18 0 -33 6.16699 -45 18.5s-18 27.166 -18 44.499s6 32 18 44z" />
    <glyph glyph-name="multiply" unicode="&#xd7;" horiz-adv-x="574" 
d="M65 62l160 161l-159 159l62 62l159 -160l160 160l62 -62l-160 -159l160 -161l-61 -62l-161 161l-160 -161z" />
    <glyph glyph-name="Oslash" unicode="&#xd8;" horiz-adv-x="878" 
d="M226 51l-41.999 -51h-108l87 105c-32 34.667 -57 74.834 -75 120.501s-27 94.834 -27 147.501c0 72.667 16.667 138.334 50 197.001s78.833 104.5 136.5 137.5s121.5 49.5 191.5 49.5c78 0 149 -21 213 -63l42 51h108l-87 -104c32.667 -34.667 58 -74.834 76 -120.501
s27 -94.834 27 -147.501c0 -72.667 -16.833 -138.334 -50.5 -197.001s-79.334 -104.667 -137.001 -138s-121.5 -50 -191.5 -50c-78 0 -149 21 -213 63zM176.001 267.5c11.333 -33 27.667 -62.5 49 -88.5l367 443c-45.333 29.333 -96.333 44 -153 44
c-53.333 0 -101.333 -13 -144 -39s-76 -61.333 -100 -106s-36 -94 -36 -148c0 -37.333 5.66699 -72.5 17 -105.5zM439.002 79c53.333 0 101.332 13 143.999 39s76 61.5 100 106.5s36 94.5 36 148.5c0 36.667 -5.66699 71.5 -17 104.5s-27.666 62.5 -48.999 88.5l-367 -442
c44.667 -30 95.667 -45 153 -45z" />
    <glyph glyph-name="Ugrave" unicode="&#xd9;" horiz-adv-x="706" 
d="M210.5 22c-41.667 22.667 -74.167 54 -97.5 94s-35 85 -35 135v494h99v-492c0 -51.333 16.333 -93.166 49 -125.499s75 -48.5 127 -48.5s94.333 16.167 127 48.5s49 74.166 49 125.499v492h99v-494c0 -50 -11.667 -95 -35 -135s-55.833 -71.333 -97.5 -94
s-89.167 -34 -142.5 -34s-100.833 11.333 -142.5 34zM221 991h99l73 -144h-80z" />
    <glyph glyph-name="Uacute" unicode="&#xda;" horiz-adv-x="706" 
d="M210.5 22c-41.667 22.667 -74.167 54 -97.5 94s-35 85 -35 135v494h99v-492c0 -51.333 16.333 -93.166 49 -125.499s75 -48.5 127 -48.5s94.333 16.167 127 48.5s49 74.166 49 125.499v492h99v-494c0 -50 -11.667 -95 -35 -135s-55.833 -71.333 -97.5 -94
s-89.167 -34 -142.5 -34s-100.833 11.333 -142.5 34zM386 991h99l-92 -144h-80z" />
    <glyph glyph-name="Ucircumflex" unicode="&#xdb;" horiz-adv-x="706" 
d="M210.5 22c-41.667 22.667 -74.167 54 -97.5 94s-35 85 -35 135v494h99v-492c0 -51.333 16.333 -93.166 49 -125.499s75 -48.5 127 -48.5s94.333 16.167 127 48.5s49 74.166 49 125.499v492h99v-494c0 -50 -11.667 -95 -35 -135s-55.833 -71.333 -97.5 -94
s-89.167 -34 -142.5 -34s-100.833 11.333 -142.5 34zM305 991h95l116 -144h-85l-78 94l-76 -94h-86z" />
    <glyph glyph-name="Udieresis" unicode="&#xdc;" horiz-adv-x="706" 
d="M210.5 22c-41.667 22.667 -74.167 54 -97.5 94s-35 85 -35 135v494h99v-492c0 -51.333 16.333 -93.166 49 -125.499s75 -48.5 127 -48.5s94.333 16.167 127 48.5s49 74.166 49 125.499v492h99v-494c0 -50 -11.667 -95 -35 -135s-55.833 -71.333 -97.5 -94
s-89.167 -34 -142.5 -34s-100.833 11.333 -142.5 34zM222 880.5c-12 12.333 -18 27.167 -18 44.5s6 32 18 44s27 18 45 18c17.333 0 32 -6 44 -18s18 -26.667 18 -44c0 -18 -6 -33 -18 -45s-26.667 -18 -44 -18c-18 0 -33 6.16699 -45 18.5zM397 969.001
c12 12 27 18.001 45 18.001c17.333 0 32 -6 44 -18s18 -26.667 18 -44c0 -18 -6 -33 -18 -45s-26.667 -18 -44 -18c-18 0 -33 6.16699 -45 18.5s-18 27.166 -18 44.499s6 32 18 44z" />
    <glyph glyph-name="Yacute" unicode="&#xdd;" horiz-adv-x="635" 
d="M269 341l-258 404h111l196 -308l195 308h111l-256 -404v-341h-99v341zM351 991h99l-92 -144h-80z" />
    <glyph glyph-name="Thorn" unicode="&#xde;" horiz-adv-x="640" 
d="M75 745l99 0.00195312v-142h165c49.333 0 92.666 -9.5 129.999 -28.5s66.5 -45.833 87.5 -80.5s31.5 -75.334 31.5 -122.001c0 -46 -10.5 -86.333 -31.5 -121s-50.167 -61.334 -87.5 -80.001s-80.666 -28 -129.999 -28h-165v-143h-99v745zM342 233.002
c44.667 0 80.333 12.5 107 37.5s40 59.167 40 102.5c0 42.667 -13.5 76.667 -40.5 102s-62.5 38 -106.5 38h-168v-280h168z" />
    <glyph glyph-name="germandbls" unicode="&#xdf;" horiz-adv-x="616" 
d="M113 649c20 34.667 47.499 61.333 82.499 80s74.5 28 118.5 28c43.333 0 81.833 -8.16699 115.5 -24.5s59.834 -39.5 78.501 -69.5s28 -64.667 28 -104c0 -35.333 -7.5 -67 -22.5 -95s-35.833 -49.667 -62.5 -65c38.667 -18.667 67.5 -42.667 86.5 -72
s28.5 -65.333 28.5 -108c0 -44 -9.83301 -82.5 -29.5 -115.5s-47.667 -58.5 -84 -76.5s-78.5 -27 -126.5 -27h-62v85h59c43.333 0 78.333 12.333 105 37s40 57 40 97c0 40.667 -13.333 73.167 -40 97.5s-61.667 36.5 -105 36.5h-59v85h52c35.333 0 64.333 11.167 87 33.5
s34 50.5 34 84.5c0 34.667 -11.333 62.667 -34 84s-52.334 32 -89.001 32c-41.333 0 -74.666 -13 -99.999 -39s-38 -61 -38 -105v-681h-93v681c0 46 10 86.333 30 121z" />
    <glyph glyph-name="agrave" unicode="&#xe0;" horiz-adv-x="575" 
d="M100 30.5c-33.333 28.333 -50.001 65.168 -50.001 110.501c0 44 14.5 80.833 43.5 110.5s73.167 49.5 132.5 59.5l184 30v25c0 29.333 -11 53.166 -33 71.499s-50.333 27.5 -85 27.5c-30.667 0 -57.834 -7.83301 -81.501 -23.5s-41.167 -36.5 -52.5 -62.5l-81 42
c15.333 37.333 43.333 68.333 84 93s85 37 133 37c40.667 0 76.834 -7.83301 108.501 -23.5s56.334 -37.5 74.001 -65.5s26.5 -60 26.5 -96v-366h-91v70c-19.333 -25.333 -44.833 -45.333 -76.5 -60s-66.834 -22 -105.501 -22c-53.333 0 -96.666 14.167 -129.999 42.5z
M174.499 89.002c17.667 -14.667 39.832 -22 66.499 -22c32.667 0 61.834 7.16699 87.501 21.5s45.667 33.833 60 58.5s21.5 52 21.5 82v34l-163 -27c-66 -11.333 -99 -42 -99 -92c0 -22 8.83301 -40.333 26.5 -55zM154.997 784.002h99l73 -144h-80z" />
    <glyph glyph-name="aacute" unicode="&#xe1;" horiz-adv-x="575" 
d="M100 30.5c-33.333 28.333 -50.001 65.168 -50.001 110.501c0 44 14.5 80.833 43.5 110.5s73.167 49.5 132.5 59.5l184 30v25c0 29.333 -11 53.166 -33 71.499s-50.333 27.5 -85 27.5c-30.667 0 -57.834 -7.83301 -81.501 -23.5s-41.167 -36.5 -52.5 -62.5l-81 42
c15.333 37.333 43.333 68.333 84 93s85 37 133 37c40.667 0 76.834 -7.83301 108.501 -23.5s56.334 -37.5 74.001 -65.5s26.5 -60 26.5 -96v-366h-91v70c-19.333 -25.333 -44.833 -45.333 -76.5 -60s-66.834 -22 -105.501 -22c-53.333 0 -96.666 14.167 -129.999 42.5z
M174.499 89.002c17.667 -14.667 39.832 -22 66.499 -22c32.667 0 61.834 7.16699 87.501 21.5s45.667 33.833 60 58.5s21.5 52 21.5 82v34l-163 -27c-66 -11.333 -99 -42 -99 -92c0 -22 8.83301 -40.333 26.5 -55zM320.997 784.002h99l-92 -144h-80z" />
    <glyph glyph-name="acircumflex" unicode="&#xe2;" horiz-adv-x="575" 
d="M100 30.5c-33.333 28.333 -50.001 65.168 -50.001 110.501c0 44 14.5 80.833 43.5 110.5s73.167 49.5 132.5 59.5l184 30v25c0 29.333 -11 53.166 -33 71.499s-50.333 27.5 -85 27.5c-30.667 0 -57.834 -7.83301 -81.501 -23.5s-41.167 -36.5 -52.5 -62.5l-81 42
c15.333 37.333 43.333 68.333 84 93s85 37 133 37c40.667 0 76.834 -7.83301 108.501 -23.5s56.334 -37.5 74.001 -65.5s26.5 -60 26.5 -96v-366h-91v70c-19.333 -25.333 -44.833 -45.333 -76.5 -60s-66.834 -22 -105.501 -22c-53.333 0 -96.666 14.167 -129.999 42.5z
M174.499 89.002c17.667 -14.667 39.832 -22 66.499 -22c32.667 0 61.834 7.16699 87.501 21.5s45.667 33.833 60 58.5s21.5 52 21.5 82v34l-163 -27c-66 -11.333 -99 -42 -99 -92c0 -22 8.83301 -40.333 26.5 -55zM238.997 784.002h95l116 -144h-85l-78 94l-76 -94h-86z" />
    <glyph glyph-name="atilde" unicode="&#xe3;" horiz-adv-x="575" 
d="M100 30.5c-33.333 28.333 -50.001 65.168 -50.001 110.501c0 44 14.5 80.833 43.5 110.5s73.167 49.5 132.5 59.5l184 30v25c0 29.333 -11 53.166 -33 71.499s-50.333 27.5 -85 27.5c-30.667 0 -57.834 -7.83301 -81.501 -23.5s-41.167 -36.5 -52.5 -62.5l-81 42
c15.333 37.333 43.333 68.333 84 93s85 37 133 37c40.667 0 76.834 -7.83301 108.501 -23.5s56.334 -37.5 74.001 -65.5s26.5 -60 26.5 -96v-366h-91v70c-19.333 -25.333 -44.833 -45.333 -76.5 -60s-66.834 -22 -105.501 -22c-53.333 0 -96.666 14.167 -129.999 42.5z
M174.499 89.002c17.667 -14.667 39.832 -22 66.499 -22c32.667 0 61.834 7.16699 87.501 21.5s45.667 33.833 60 58.5s21.5 52 21.5 82v34l-163 -27c-66 -11.333 -99 -42 -99 -92c0 -22 8.83301 -40.333 26.5 -55zM312.497 678.002c-10.333 4.66699 -21.833 11.667 -34.5 21
c-9.33301 6 -16.666 10.5 -21.999 13.5s-11.666 4.5 -18.999 4.5c-18.667 0 -29.667 -14 -33 -42h-63c0.666992 34.667 8.83398 61.5 24.501 80.5s36.167 28.5 61.5 28.5c15.333 0 28 -2.33301 38 -7s20.667 -11.334 32 -20.001c9.33301 -6.66699 16.833 -11.5 22.5 -14.5
s12.167 -4.5 19.5 -4.5c9.33301 0 16.666 3.83301 21.999 11.5s8.66602 17.5 9.99902 29.5h64c-0.666992 -35.333 -8.33398 -62.166 -23.001 -80.499s-34.667 -27.5 -60 -27.5c-16 0 -29.167 2.33301 -39.5 7z" />
    <glyph glyph-name="adieresis" unicode="&#xe4;" horiz-adv-x="575" 
d="M100 30.5c-33.333 28.333 -50.001 65.168 -50.001 110.501c0 44 14.5 80.833 43.5 110.5s73.167 49.5 132.5 59.5l184 30v25c0 29.333 -11 53.166 -33 71.499s-50.333 27.5 -85 27.5c-30.667 0 -57.834 -7.83301 -81.501 -23.5s-41.167 -36.5 -52.5 -62.5l-81 42
c15.333 37.333 43.333 68.333 84 93s85 37 133 37c40.667 0 76.834 -7.83301 108.501 -23.5s56.334 -37.5 74.001 -65.5s26.5 -60 26.5 -96v-366h-91v70c-19.333 -25.333 -44.833 -45.333 -76.5 -60s-66.834 -22 -105.501 -22c-53.333 0 -96.666 14.167 -129.999 42.5z
M174.499 89.002c17.667 -14.667 39.832 -22 66.499 -22c32.667 0 61.834 7.16699 87.501 21.5s45.667 33.833 60 58.5s21.5 52 21.5 82v34l-163 -27c-66 -11.333 -99 -42 -99 -92c0 -22 8.83301 -40.333 26.5 -55zM155.997 673.502c-12 12.333 -18 27.167 -18 44.5
s6 32 18 44s27 18 45 18c17.333 0 32 -6 44 -18s18 -26.667 18 -44c0 -18 -6 -33 -18 -45s-26.667 -18 -44 -18c-18 0 -33 6.16699 -45 18.5zM330.997 762.003c12 12 27 18.001 45 18.001c17.333 0 32 -6 44 -18s18 -26.667 18 -44c0 -18 -6 -33 -18 -45
s-26.667 -18 -44 -18c-18 0 -33 6.16699 -45 18.5s-18 27.166 -18 44.499s6 32 18 44z" />
    <glyph glyph-name="aring" unicode="&#xe5;" horiz-adv-x="575" 
d="M100 30.5c-33.333 28.333 -50.001 65.168 -50.001 110.501c0 44 14.5 80.833 43.5 110.5s73.167 49.5 132.5 59.5l184 30v25c0 29.333 -11 53.166 -33 71.499s-50.333 27.5 -85 27.5c-30.667 0 -57.834 -7.83301 -81.501 -23.5s-41.167 -36.5 -52.5 -62.5l-81 42
c15.333 37.333 43.333 68.333 84 93s85 37 133 37c40.667 0 76.834 -7.83301 108.501 -23.5s56.334 -37.5 74.001 -65.5s26.5 -60 26.5 -96v-366h-91v70c-19.333 -25.333 -44.833 -45.333 -76.5 -60s-66.834 -22 -105.501 -22c-53.333 0 -96.666 14.167 -129.999 42.5z
M174.499 89.002c17.667 -14.667 39.832 -22 66.499 -22c32.667 0 61.834 7.16699 87.501 21.5s45.667 33.833 60 58.5s21.5 52 21.5 82v34l-163 -27c-66 -11.333 -99 -42 -99 -92c0 -22 8.83301 -40.333 26.5 -55zM200.497 623.002c-23.667 23.333 -35.5 52 -35.5 86
c0 34.667 11.833 63.667 35.5 87s52.834 35 87.501 35s63.667 -11.667 87 -35s35 -52.333 35 -87c0 -34 -11.667 -62.667 -35 -86s-52.333 -35 -87 -35s-63.834 11.667 -87.501 35zM242.997 664.502c12 -11.667 26.667 -17.499 44 -17.499s32 5.83301 44 17.5
s18 26.5 18 44.5s-6 33 -18 45s-26.667 18 -44 18s-32 -5.83301 -44 -17.5s-18 -26.834 -18 -45.501c0 -18 6 -32.833 18 -44.5z" />
    <glyph glyph-name="ae" unicode="&#xe6;" horiz-adv-x="978" 
d="M100 30.5c-33.333 28.333 -49.9971 65.167 -49.9971 110.5c0 44 14.5 80.833 43.5 110.5s73.167 49.5 132.5 59.5l184 30v25c0 29.333 -11 53.166 -33 71.499s-50.333 27.5 -85 27.5c-30.667 0 -57.834 -7.83301 -81.501 -23.5s-41.167 -36.5 -52.5 -62.5l-81 42
c15.333 37.333 43.333 68.333 84 93s85 37 133 37c41.333 0 78 -8.16699 110 -24.5s56.667 -38.833 74 -67.5c24 28.667 53 51.167 87 67.5s70.667 24.5 110 24.5c51.333 0 96.166 -12 134.499 -36s67.666 -55.833 87.999 -95.5s30.5 -82.167 30.5 -127.5
c0 -20 -1.66699 -36.667 -5 -50h-412c1.33301 -34 10 -63.667 26 -89s37 -45 63 -59s54 -21 84 -21c66 0 116.667 29.667 152 89l78 -40c-17.333 -38.667 -46.333 -70.667 -87 -96s-86.667 -38 -138 -38c-38 0 -73.167 6.83301 -105.5 20.5s-60.5 33.834 -84.5 60.501v-69
h-87v70c-19.333 -25.333 -44.833 -45.333 -76.5 -60s-66.834 -22 -105.501 -22c-53.333 0 -96.666 14.167 -129.999 42.5zM174.503 89.001c17.667 -14.667 39.832 -22 66.499 -22c32.667 0 61.834 7.16699 87.501 21.5s45.667 33.833 60 58.5s21.5 52 21.5 82v34l-163 -27
c-66 -11.333 -99 -42 -99 -92c0 -22 8.83301 -40.333 26.5 -55zM828.001 322.001c-0.666992 28 -7.83301 53 -21.5 75s-32.167 39.333 -55.5 52s-48.666 19 -75.999 19c-40.667 0 -76.334 -13.333 -107.001 -40s-48.667 -62 -54 -106h314z" />
    <glyph glyph-name="ccedilla" unicode="&#xe7;" horiz-adv-x="603" 
d="M289 -226c-14.667 2.66699 -27.0029 5.99805 -37.0029 9.99805l12 50c18 -6.66699 38 -10 60 -10c15.333 0 27.333 3.33301 36 10s13 15.667 13 27c0 10 -3 17.667 -9 23s-14.667 8 -26 8c-16 0 -29.333 -2.66699 -40 -8l-21 9l12 97
c-47.333 4.66699 -89.333 19.834 -126 45.501s-65.167 58.834 -85.5 99.501s-30.5 85.667 -30.5 135c0 53.333 11.667 101.333 35 144s55.833 76.167 97.5 100.5s89.167 36.5 142.5 36.5c52 0 99.5 -13.5 142.5 -40.5s73.5 -61.833 91.5 -104.5l-84 -40
c-12.667 28.667 -32.5 51.667 -59.5 69s-57.167 26 -90.5 26c-32.667 0 -62.5 -8.33301 -89.5 -25s-48.167 -39.5 -63.5 -68.5s-23 -61.833 -23 -98.5c0 -36 7.83301 -68.5 23.5 -97.5s36.834 -51.833 63.501 -68.5s56.334 -25 89.001 -25c34 0 64.333 8.66699 91 26
s46.334 41 59.001 71l84 -42c-15.333 -38 -41.666 -70.167 -78.999 -96.5s-79 -41.833 -125 -46.5l-5 -52c8 1.33301 14.333 2 19 2c24 0 43.833 -7 59.5 -21s23.5 -32.333 23.5 -55c0 -27.333 -10.5 -49.833 -31.5 -67.5s-50.167 -26.5 -87.5 -26.5
c-12.667 0 -26.334 1.33301 -41.001 4z" />
    <glyph glyph-name="egrave" unicode="&#xe8;" horiz-adv-x="614" 
d="M182 25c-41.333 24.667 -73.667 58.5 -97 101.5s-35 91.167 -35 144.5s11.5 101.333 34.5 144s54.333 76 94 100s84.167 36 133.5 36c51.333 0 96.166 -12 134.499 -36s67.666 -55.833 87.999 -95.5s30.5 -82.167 30.5 -127.5c0 -15.333 -1.66699 -32 -5 -50h-412
c1.33301 -34 10 -63.667 26 -89s36.833 -45 62.5 -59s53.834 -21 84.501 -21c65.333 0 115.666 29.667 150.999 89l78 -40c-17.333 -38.667 -46.666 -70.667 -87.999 -96s-88.666 -38 -141.999 -38c-50.667 0 -96.667 12.333 -138 37zM463.999 322
c-1.33301 42 -16.5 76.833 -45.5 104.5s-64.5 41.5 -106.5 41.5c-41.333 0 -77 -13.167 -107 -39.5s-48.333 -61.833 -55 -106.5h314zM174.999 784h99l73 -144h-80z" />
    <glyph glyph-name="eacute" unicode="&#xe9;" horiz-adv-x="614" 
d="M182 25c-41.333 24.667 -73.667 58.5 -97 101.5s-35 91.167 -35 144.5s11.5 101.333 34.5 144s54.333 76 94 100s84.167 36 133.5 36c51.333 0 96.166 -12 134.499 -36s67.666 -55.833 87.999 -95.5s30.5 -82.167 30.5 -127.5c0 -15.333 -1.66699 -32 -5 -50h-412
c1.33301 -34 10 -63.667 26 -89s36.833 -45 62.5 -59s53.834 -21 84.501 -21c65.333 0 115.666 29.667 150.999 89l78 -40c-17.333 -38.667 -46.666 -70.667 -87.999 -96s-88.666 -38 -141.999 -38c-50.667 0 -96.667 12.333 -138 37zM463.999 322
c-1.33301 42 -16.5 76.833 -45.5 104.5s-64.5 41.5 -106.5 41.5c-41.333 0 -77 -13.167 -107 -39.5s-48.333 -61.833 -55 -106.5h314zM340.999 784h99l-92 -144h-80z" />
    <glyph glyph-name="ecircumflex" unicode="&#xea;" horiz-adv-x="614" 
d="M182 25c-41.333 24.667 -73.667 58.5 -97 101.5s-35 91.167 -35 144.5s11.5 101.333 34.5 144s54.333 76 94 100s84.167 36 133.5 36c51.333 0 96.166 -12 134.499 -36s67.666 -55.833 87.999 -95.5s30.5 -82.167 30.5 -127.5c0 -15.333 -1.66699 -32 -5 -50h-412
c1.33301 -34 10 -63.667 26 -89s36.833 -45 62.5 -59s53.834 -21 84.501 -21c65.333 0 115.666 29.667 150.999 89l78 -40c-17.333 -38.667 -46.666 -70.667 -87.999 -96s-88.666 -38 -141.999 -38c-50.667 0 -96.667 12.333 -138 37zM463.999 322
c-1.33301 42 -16.5 76.833 -45.5 104.5s-64.5 41.5 -106.5 41.5c-41.333 0 -77 -13.167 -107 -39.5s-48.333 -61.833 -55 -106.5h314zM258.999 784h95l116 -144h-85l-78 94l-76 -94h-86z" />
    <glyph glyph-name="edieresis" unicode="&#xeb;" horiz-adv-x="614" 
d="M182 25c-41.333 24.667 -73.667 58.5 -97 101.5s-35 91.167 -35 144.5s11.5 101.333 34.5 144s54.333 76 94 100s84.167 36 133.5 36c51.333 0 96.166 -12 134.499 -36s67.666 -55.833 87.999 -95.5s30.5 -82.167 30.5 -127.5c0 -15.333 -1.66699 -32 -5 -50h-412
c1.33301 -34 10 -63.667 26 -89s36.833 -45 62.5 -59s53.834 -21 84.501 -21c65.333 0 115.666 29.667 150.999 89l78 -40c-17.333 -38.667 -46.666 -70.667 -87.999 -96s-88.666 -38 -141.999 -38c-50.667 0 -96.667 12.333 -138 37zM463.999 322
c-1.33301 42 -16.5 76.833 -45.5 104.5s-64.5 41.5 -106.5 41.5c-41.333 0 -77 -13.167 -107 -39.5s-48.333 -61.833 -55 -106.5h314zM175.999 673.5c-12 12.333 -18 27.167 -18 44.5s6 32 18 44s27 18 45 18c17.333 0 32 -6 44 -18s18 -26.667 18 -44c0 -18 -6 -33 -18 -45
s-26.667 -18 -44 -18c-18 0 -33 6.16699 -45 18.5zM350.999 762.001c12 12 27 18.001 45 18.001c17.333 0 32 -6 44 -18s18 -26.667 18 -44c0 -18 -6 -33 -18 -45s-26.667 -18 -44 -18c-18 0 -33 6.16699 -45 18.5s-18 27.166 -18 44.499s6 32 18 44z" />
    <glyph glyph-name="igrave" unicode="&#xec;" horiz-adv-x="209" 
d="M58 539h93v-539h-93v539zM-29 784h99l73 -144h-80z" />
    <glyph glyph-name="iacute" unicode="&#xed;" horiz-adv-x="209" 
d="M58 539h93v-539h-93v539zM137 784h99l-92 -144h-80z" />
    <glyph glyph-name="icircumflex" unicode="&#xee;" horiz-adv-x="209" 
d="M58 539h93v-539h-93v539zM55 784h95l116 -144h-85l-78 94l-76 -94h-86z" />
    <glyph glyph-name="idieresis" unicode="&#xef;" horiz-adv-x="209" 
d="M58 539h93v-539h-93v539zM-28 673.5c-12 12.333 -18 27.167 -18 44.5s6 32 18 44s27 18 45 18c17.333 0 32 -6 44 -18s18 -26.667 18 -44c0 -18 -6 -33 -18 -45s-26.667 -18 -44 -18c-18 0 -33 6.16699 -45 18.5zM147 762.001c12 12 27 18.001 45 18.001
c17.333 0 32 -6 44 -18s18 -26.667 18 -44c0 -18 -6 -33 -18 -45s-26.667 -18 -44 -18c-18 0 -33 6.16699 -45 18.5s-18 27.166 -18 44.499s6 32 18 44z" />
    <glyph glyph-name="eth" unicode="&#xf0;" horiz-adv-x="654" 
d="M188.5 24c-43 24 -76.8311 57.167 -101.498 99.5s-37 89.833 -37 142.5c0 51.333 11.833 98 35.5 140s56.5 75 98.5 99s88.667 36 140 36c30.667 0 60 -4.66699 88 -14s53 -24 75 -44c-14.667 62 -46.334 113.667 -95.001 155l-157 -58v59l101 37
c-43.333 22.667 -90 34 -140 34c-38.667 0 -76.667 -6.33301 -114 -19l-16 80c49.333 16 95.666 24 138.999 24c90 0 167.667 -26.667 233 -80l109 40v-60l-64 -24c39.333 -44 69.5 -96.833 90.5 -158.5s31.5 -126.167 31.5 -193.5c0 -74 -12 -135.667 -36 -185
s-56.5 -86 -97.5 -110s-87.5 -36 -139.5 -36c-52.667 0 -100.5 12 -143.5 36zM172.002 170c16 -28.667 37.8311 -51.168 65.498 -67.501s57.834 -24.5 90.501 -24.5s62.667 8.33301 90 25s48.833 39.334 64.5 68.001s23.5 60.667 23.5 96c0 34 -7.5 65 -22.5 93
s-36 50.167 -63 66.5s-57.833 24.5 -92.5 24.5s-65.667 -8.16699 -93 -24.5s-48.666 -38.666 -63.999 -66.999s-23 -59.833 -23 -94.5s8 -66.334 24 -95.001z" />
    <glyph glyph-name="ntilde" unicode="&#xf1;" 
d="M72 539l91 0.00195312v-66c16 25.333 37.333 44.666 64 57.999s56.667 20 90 20c38 0 72.333 -8.83301 103 -26.5s54.834 -41.834 72.501 -72.501s26.5 -65 26.5 -103v-349h-94v319c0 44 -11.833 78.667 -35.5 104s-54.834 38 -93.501 38s-70.167 -12.833 -94.5 -38.5
s-36.5 -60.167 -36.5 -103.5v-319h-93v539zM315.5 678.002c-10.333 4.66699 -21.833 11.667 -34.5 21c-9.33301 6 -16.666 10.5 -21.999 13.5s-11.666 4.5 -18.999 4.5c-18.667 0 -29.667 -14 -33 -42h-63c0.666992 34.667 8.83398 61.5 24.501 80.5s36.167 28.5 61.5 28.5
c15.333 0 28 -2.33301 38 -7s20.667 -11.334 32 -20.001c9.33301 -6.66699 16.833 -11.5 22.5 -14.5s12.167 -4.5 19.5 -4.5c9.33301 0 16.666 3.83301 21.999 11.5s8.66602 17.5 9.99902 29.5h64c-0.666992 -35.333 -8.33398 -62.166 -23.001 -80.499
s-34.667 -27.5 -60 -27.5c-16 0 -29.167 2.33301 -39.5 7z" />
    <glyph glyph-name="ograve" unicode="&#xf2;" horiz-adv-x="654" 
d="M187.5 24.5c-42.333 24.333 -75.8311 58 -100.498 101s-37 91.167 -37 144.5c0 52.667 12.167 100.5 36.5 143.5s57.666 76.667 99.999 101s89.5 36.5 141.5 36.5c51.333 0 98.166 -12.167 140.499 -36.5s75.666 -57.833 99.999 -100.5s36.5 -90.667 36.5 -144
c0 -54 -12.333 -102.333 -37 -145s-58.167 -76.167 -100.5 -100.5s-88.833 -36.5 -139.5 -36.5c-51.333 0 -98.166 12.167 -140.499 36.5zM171.502 172c15.667 -29.333 37.334 -52.333 65.001 -69s58.167 -25 91.5 -25c32.667 0 62.667 8.33301 90 25s48.833 39.667 64.5 69
s23.5 62 23.5 98s-7.83301 68.5 -23.5 97.5s-37.167 51.833 -64.5 68.5s-57.333 25 -90 25c-33.333 0 -63.833 -8.33301 -91.5 -25s-49.334 -39.5 -65.001 -68.5s-23.5 -61.5 -23.5 -97.5s7.83301 -68.667 23.5 -98zM195.002 784h99l73 -144h-80z" />
    <glyph glyph-name="oacute" unicode="&#xf3;" horiz-adv-x="654" 
d="M187.5 24.5c-42.333 24.333 -75.8311 58 -100.498 101s-37 91.167 -37 144.5c0 52.667 12.167 100.5 36.5 143.5s57.666 76.667 99.999 101s89.5 36.5 141.5 36.5c51.333 0 98.166 -12.167 140.499 -36.5s75.666 -57.833 99.999 -100.5s36.5 -90.667 36.5 -144
c0 -54 -12.333 -102.333 -37 -145s-58.167 -76.167 -100.5 -100.5s-88.833 -36.5 -139.5 -36.5c-51.333 0 -98.166 12.167 -140.499 36.5zM171.502 172c15.667 -29.333 37.334 -52.333 65.001 -69s58.167 -25 91.5 -25c32.667 0 62.667 8.33301 90 25s48.833 39.667 64.5 69
s23.5 62 23.5 98s-7.83301 68.5 -23.5 97.5s-37.167 51.833 -64.5 68.5s-57.333 25 -90 25c-33.333 0 -63.833 -8.33301 -91.5 -25s-49.334 -39.5 -65.001 -68.5s-23.5 -61.5 -23.5 -97.5s7.83301 -68.667 23.5 -98zM361.002 784h99l-92 -144h-80z" />
    <glyph glyph-name="ocircumflex" unicode="&#xf4;" horiz-adv-x="654" 
d="M187.5 24.5c-42.333 24.333 -75.8311 58 -100.498 101s-37 91.167 -37 144.5c0 52.667 12.167 100.5 36.5 143.5s57.666 76.667 99.999 101s89.5 36.5 141.5 36.5c51.333 0 98.166 -12.167 140.499 -36.5s75.666 -57.833 99.999 -100.5s36.5 -90.667 36.5 -144
c0 -54 -12.333 -102.333 -37 -145s-58.167 -76.167 -100.5 -100.5s-88.833 -36.5 -139.5 -36.5c-51.333 0 -98.166 12.167 -140.499 36.5zM171.502 172c15.667 -29.333 37.334 -52.333 65.001 -69s58.167 -25 91.5 -25c32.667 0 62.667 8.33301 90 25s48.833 39.667 64.5 69
s23.5 62 23.5 98s-7.83301 68.5 -23.5 97.5s-37.167 51.833 -64.5 68.5s-57.333 25 -90 25c-33.333 0 -63.833 -8.33301 -91.5 -25s-49.334 -39.5 -65.001 -68.5s-23.5 -61.5 -23.5 -97.5s7.83301 -68.667 23.5 -98zM279.002 784h95l116 -144h-85l-78 94l-76 -94h-86z" />
    <glyph glyph-name="otilde" unicode="&#xf5;" horiz-adv-x="654" 
d="M187.5 24.5c-42.333 24.333 -75.8311 58 -100.498 101s-37 91.167 -37 144.5c0 52.667 12.167 100.5 36.5 143.5s57.666 76.667 99.999 101s89.5 36.5 141.5 36.5c51.333 0 98.166 -12.167 140.499 -36.5s75.666 -57.833 99.999 -100.5s36.5 -90.667 36.5 -144
c0 -54 -12.333 -102.333 -37 -145s-58.167 -76.167 -100.5 -100.5s-88.833 -36.5 -139.5 -36.5c-51.333 0 -98.166 12.167 -140.499 36.5zM171.502 172c15.667 -29.333 37.334 -52.333 65.001 -69s58.167 -25 91.5 -25c32.667 0 62.667 8.33301 90 25s48.833 39.667 64.5 69
s23.5 62 23.5 98s-7.83301 68.5 -23.5 97.5s-37.167 51.833 -64.5 68.5s-57.333 25 -90 25c-33.333 0 -63.833 -8.33301 -91.5 -25s-49.334 -39.5 -65.001 -68.5s-23.5 -61.5 -23.5 -97.5s7.83301 -68.667 23.5 -98zM352.502 678c-10.333 4.66699 -21.833 11.667 -34.5 21
c-9.33301 6 -16.666 10.5 -21.999 13.5s-11.666 4.5 -18.999 4.5c-18.667 0 -29.667 -14 -33 -42h-63c0.666992 34.667 8.83398 61.5 24.501 80.5s36.167 28.5 61.5 28.5c15.333 0 28 -2.33301 38 -7s20.667 -11.334 32 -20.001c9.33301 -6.66699 16.833 -11.5 22.5 -14.5
s12.167 -4.5 19.5 -4.5c9.33301 0 16.666 3.83301 21.999 11.5s8.66602 17.5 9.99902 29.5h64c-0.666992 -35.333 -8.33398 -62.166 -23.001 -80.499s-34.667 -27.5 -60 -27.5c-16 0 -29.167 2.33301 -39.5 7z" />
    <glyph glyph-name="odieresis" unicode="&#xf6;" horiz-adv-x="654" 
d="M187.5 24.5c-42.333 24.333 -75.8311 58 -100.498 101s-37 91.167 -37 144.5c0 52.667 12.167 100.5 36.5 143.5s57.666 76.667 99.999 101s89.5 36.5 141.5 36.5c51.333 0 98.166 -12.167 140.499 -36.5s75.666 -57.833 99.999 -100.5s36.5 -90.667 36.5 -144
c0 -54 -12.333 -102.333 -37 -145s-58.167 -76.167 -100.5 -100.5s-88.833 -36.5 -139.5 -36.5c-51.333 0 -98.166 12.167 -140.499 36.5zM171.502 172c15.667 -29.333 37.334 -52.333 65.001 -69s58.167 -25 91.5 -25c32.667 0 62.667 8.33301 90 25s48.833 39.667 64.5 69
s23.5 62 23.5 98s-7.83301 68.5 -23.5 97.5s-37.167 51.833 -64.5 68.5s-57.333 25 -90 25c-33.333 0 -63.833 -8.33301 -91.5 -25s-49.334 -39.5 -65.001 -68.5s-23.5 -61.5 -23.5 -97.5s7.83301 -68.667 23.5 -98zM196.002 673.5c-12 12.333 -18 27.167 -18 44.5
s6 32 18 44s27 18 45 18c17.333 0 32 -6 44 -18s18 -26.667 18 -44c0 -18 -6 -33 -18 -45s-26.667 -18 -44 -18c-18 0 -33 6.16699 -45 18.5zM371.002 762.001c12 12 27 18.001 45 18.001c17.333 0 32 -6 44 -18s18 -26.667 18 -44c0 -18 -6 -33 -18 -45
s-26.667 -18 -44 -18c-18 0 -33 6.16699 -45 18.5s-18 27.166 -18 44.499s6 32 18 44z" />
    <glyph glyph-name="divide" unicode="&#xf7;" horiz-adv-x="630" 
d="M64 294h500v-87h-500v87zM265 107h97v-107h-97v107zM265 500h97v-107h-97v107z" />
    <glyph glyph-name="oslash" unicode="&#xf8;" horiz-adv-x="654" 
d="M179 29l-23.999 -29h-101l66 80c-22.667 24.667 -40 53.334 -52 86.001s-18 67.334 -18 104.001c0 52.667 12.167 100.5 36.5 143.5s57.666 76.667 99.999 101s89.5 36.5 141.5 36.5c54.667 0 104 -13.667 148 -41l24 29h101l-65 -79c22 -24.667 39 -53.334 51 -86.001
s18 -67.334 18 -104.001c0 -54 -12.333 -102.333 -37 -145s-58.167 -76.167 -100.5 -100.5s-88.833 -36.5 -139.5 -36.5c-54 0 -103.667 13.667 -149 41zM182.001 155l234.001 281.999c-26 16 -55.333 24 -88 24c-33.333 0 -63.833 -8.33301 -91.5 -25
s-49.334 -39.5 -65.001 -68.5s-23.5 -61.5 -23.5 -97.5c0 -43.333 11.333 -81.666 34 -114.999zM328.002 77.999c32.667 0 62.667 8.33301 90 25s48.833 39.667 64.5 69s23.5 62 23.5 98c0 42.667 -11 80.667 -33 114l-234 -282c26 -16 55.667 -24 89 -24z" />
    <glyph glyph-name="ugrave" unicode="&#xf9;" 
d="M159 15c-30.667 18 -54.666 43.166 -71.999 75.499s-26 69.5 -26 111.5v337h93v-327c0 -40 12 -72.333 36 -97s55.333 -37 94 -37s70 12.833 94 38.5s36 60.167 36 103.5v319h94v-539h-91v66c-16 -25.333 -37.333 -44.666 -64 -57.999s-56.667 -20 -90 -20
c-38.667 0 -73.334 9 -104.001 27zM158.001 783.999h99l73 -144h-80z" />
    <glyph glyph-name="uacute" unicode="&#xfa;" 
d="M159 15c-30.667 18 -54.666 43.166 -71.999 75.499s-26 69.5 -26 111.5v337h93v-327c0 -40 12 -72.333 36 -97s55.333 -37 94 -37s70 12.833 94 38.5s36 60.167 36 103.5v319h94v-539h-91v66c-16 -25.333 -37.333 -44.666 -64 -57.999s-56.667 -20 -90 -20
c-38.667 0 -73.334 9 -104.001 27zM323.001 783.999h99l-92 -144h-80z" />
    <glyph glyph-name="ucircumflex" unicode="&#xfb;" 
d="M159 15c-30.667 18 -54.666 43.166 -71.999 75.499s-26 69.5 -26 111.5v337h93v-327c0 -40 12 -72.333 36 -97s55.333 -37 94 -37s70 12.833 94 38.5s36 60.167 36 103.5v319h94v-539h-91v66c-16 -25.333 -37.333 -44.666 -64 -57.999s-56.667 -20 -90 -20
c-38.667 0 -73.334 9 -104.001 27zM242.001 783.999h95l116 -144h-85l-78 94l-76 -94h-86z" />
    <glyph glyph-name="udieresis" unicode="&#xfc;" 
d="M159 15c-30.667 18 -54.666 43.166 -71.999 75.499s-26 69.5 -26 111.5v337h93v-327c0 -40 12 -72.333 36 -97s55.333 -37 94 -37s70 12.833 94 38.5s36 60.167 36 103.5v319h94v-539h-91v66c-16 -25.333 -37.333 -44.666 -64 -57.999s-56.667 -20 -90 -20
c-38.667 0 -73.334 9 -104.001 27zM159.001 673.499c-12 12.333 -18 27.167 -18 44.5s6 32 18 44s27 18 45 18c17.333 0 32 -6 44 -18s18 -26.667 18 -44c0 -18 -6 -33 -18 -45s-26.667 -18 -44 -18c-18 0 -33 6.16699 -45 18.5zM334.001 762c12 12 27 18.001 45 18.001
c17.333 0 32 -6 44 -18s18 -26.667 18 -44c0 -18 -6 -33 -18 -45s-26.667 -18 -44 -18c-18 0 -33 6.16699 -45 18.5s-18 27.166 -18 44.499s6 32 18 44z" />
    <glyph glyph-name="yacute" unicode="&#xfd;" horiz-adv-x="553" 
d="M309 784h99l-92 -144h-80z" />
    <glyph glyph-name="thorn" unicode="&#xfe;" horiz-adv-x="669" 
d="M72 745l91.002 0.00292969v-281c21.333 27.333 48.166 48.666 80.499 63.999s68.5 23 108.5 23c50 0 95.333 -12.333 136 -37s72.667 -58.5 96 -101.5s35 -90.833 35 -143.5s-11.667 -100.334 -35 -143.001s-55.333 -76.334 -96 -101.001s-86.334 -37 -137.001 -37
c-38.667 0 -74.167 7.5 -106.5 22.5s-58.833 36.5 -79.5 64.5v-275h-93v945zM188.502 171.503c15.667 -29 37.167 -51.833 64.5 -68.5s57.666 -25 90.999 -25s63.5 8.33301 90.5 25s48 39.5 63 68.5s22.5 61.5 22.5 97.5s-7.66699 68.667 -23 98s-36.333 52.333 -63 69
s-56.667 25 -90 25s-63.666 -8.33301 -90.999 -25s-48.833 -39.667 -64.5 -69s-23.5 -62 -23.5 -98s7.83301 -68.5 23.5 -97.5z" />
    <glyph glyph-name="ydieresis" unicode="&#xff;" horiz-adv-x="553" 
d="M145 673.5c-12 12.333 -18 27.167 -18 44.5s6 32 18 44s27 18 45 18c17.333 0 32 -6 44 -18s18 -26.667 18 -44c0 -18 -6 -33 -18 -45s-26.667 -18 -44 -18c-18 0 -33 6.16699 -45 18.5zM320 762.001c12 12 27 18.001 45 18.001c17.333 0 32 -6 44 -18s18 -26.667 18 -44
c0 -18 -6 -33 -18 -45s-26.667 -18 -44 -18c-18 0 -33 6.16699 -45 18.5s-18 27.166 -18 44.499s6 32 18 44z" />
    <glyph glyph-name="Amacron" unicode="&#x100;" horiz-adv-x="672" 
d="M278 745h116l267 -745h-105l-61 175h-318l-61 -175h-105zM464 265l-128 369l-128 -369h256zM203 946h267v-73h-267v73z" />
    <glyph glyph-name="amacron" unicode="&#x101;" horiz-adv-x="575" 
d="M100 30.5c-33.333 28.333 -50.001 65.168 -50.001 110.501c0 44 14.5 80.833 43.5 110.5s73.167 49.5 132.5 59.5l184 30v25c0 29.333 -11 53.166 -33 71.499s-50.333 27.5 -85 27.5c-30.667 0 -57.834 -7.83301 -81.501 -23.5s-41.167 -36.5 -52.5 -62.5l-81 42
c15.333 37.333 43.333 68.333 84 93s85 37 133 37c40.667 0 76.834 -7.83301 108.501 -23.5s56.334 -37.5 74.001 -65.5s26.5 -60 26.5 -96v-366h-91v70c-19.333 -25.333 -44.833 -45.333 -76.5 -60s-66.834 -22 -105.501 -22c-53.333 0 -96.666 14.167 -129.999 42.5z
M174.499 89.002c17.667 -14.667 39.832 -22 66.499 -22c32.667 0 61.834 7.16699 87.501 21.5s45.667 33.833 60 58.5s21.5 52 21.5 82v34l-163 -27c-66 -11.333 -99 -42 -99 -92c0 -22 8.83301 -40.333 26.5 -55zM154.997 739.002h267v-73h-267v73z" />
    <glyph glyph-name="Abreve" unicode="&#x102;" horiz-adv-x="672" 
d="M278 745h116l267 -745h-105l-61 175h-318l-61 -175h-105zM464 265l-128 369l-128 -369h256zM263.5 866c-22.333 12.667 -40.001 29.667 -53.001 51s-19.5 44.333 -19.5 69h71c0 -20 7.16699 -37.333 21.5 -52s31.833 -22 52.5 -22s38.334 7.33301 53.001 22s22 32 22 52
h70c0 -24.667 -6.5 -47.667 -19.5 -69s-30.667 -38.333 -53 -51s-46.5 -19 -72.5 -19s-50.167 6.33301 -72.5 19z" />
    <glyph glyph-name="abreve" unicode="&#x103;" horiz-adv-x="575" 
d="M100 30.5c-33.333 28.333 -50.001 65.168 -50.001 110.501c0 44 14.5 80.833 43.5 110.5s73.167 49.5 132.5 59.5l184 30v25c0 29.333 -11 53.166 -33 71.499s-50.333 27.5 -85 27.5c-30.667 0 -57.834 -7.83301 -81.501 -23.5s-41.167 -36.5 -52.5 -62.5l-81 42
c15.333 37.333 43.333 68.333 84 93s85 37 133 37c40.667 0 76.834 -7.83301 108.501 -23.5s56.334 -37.5 74.001 -65.5s26.5 -60 26.5 -96v-366h-91v70c-19.333 -25.333 -44.833 -45.333 -76.5 -60s-66.834 -22 -105.501 -22c-53.333 0 -96.666 14.167 -129.999 42.5z
M174.499 89.002c17.667 -14.667 39.832 -22 66.499 -22c32.667 0 61.834 7.16699 87.501 21.5s45.667 33.833 60 58.5s21.5 52 21.5 82v34l-163 -27c-66 -11.333 -99 -42 -99 -92c0 -22 8.83301 -40.333 26.5 -55zM214.497 659.002
c-22.333 12.667 -40.001 29.667 -53.001 51s-19.5 44.333 -19.5 69h71c0 -20 7.16699 -37.333 21.5 -52s31.833 -22 52.5 -22s38.334 7.33301 53.001 22s22 32 22 52h70c0 -24.667 -6.5 -47.667 -19.5 -69s-30.667 -38.333 -53 -51s-46.5 -19 -72.5 -19
s-50.167 6.33301 -72.5 19z" />
    <glyph glyph-name="Aogonek" unicode="&#x104;" horiz-adv-x="672" 
d="M278 745h115.997l267 -745h-67c-37.333 -20 -56 -44 -56 -72c0 -14.667 4.83301 -26.167 14.5 -34.5s22.834 -12.5 39.501 -12.5c24 0 49.333 9.33301 76 28l30 -48c-33.333 -28 -71 -42 -113 -42c-33.333 0 -60.666 8.5 -81.999 25.5s-32 39.5 -32 67.5
c0 22 6.83301 42.333 20.5 61s32.834 34 57.501 46l-54 156h-318l-61 -175h-105zM463.997 265l-128 369l-128 -369h256z" />
    <glyph glyph-name="aogonek" unicode="&#x105;" horiz-adv-x="575" 
d="M100 30.5c-33.333 28.333 -50.0029 65.168 -50.0029 110.501c0 44 14.5 80.833 43.5 110.5s73.167 49.5 132.5 59.5l184 30v25c0 29.333 -11 53.166 -33 71.499s-50.333 27.5 -85 27.5c-30.667 0 -57.834 -7.83301 -81.501 -23.5s-41.167 -36.5 -52.5 -62.5l-81 42
c15.333 37.333 43.333 68.333 84 93s85 37 133 37c40.667 0 76.834 -7.83301 108.501 -23.5s56.334 -37.5 74.001 -65.5s26.5 -60 26.5 -96v-366h-45c-30.667 -19.333 -46 -41.333 -46 -66c0 -14.667 4.83301 -26.167 14.5 -34.5s22.834 -12.5 39.501 -12.5
c24 0 49.333 9.33301 76 28l30 -48c-33.333 -28 -71 -42 -113 -42c-33.333 0 -60.666 8.5 -81.999 25.5s-32 39.5 -32 67.5c0 20.667 5.83301 39.667 17.5 57s28.167 32 49.5 44v51c-19.333 -25.333 -44.833 -45.333 -76.5 -60s-66.834 -22 -105.501 -22
c-53.333 0 -96.666 14.167 -129.999 42.5zM174.497 89.002c17.667 -14.667 39.832 -22 66.499 -22c32.667 0 61.834 7.16699 87.501 21.5s45.667 33.833 60 58.5s21.5 52 21.5 82v34l-163 -27c-66 -11.333 -99 -42 -99 -92c0 -22 8.83301 -40.333 26.5 -55z" />
    <glyph glyph-name="Cacute" unicode="&#x106;" horiz-adv-x="779" 
d="M238.5 37.5c-55.667 33 -99.167 78.6689 -130.5 137.002s-47 124.166 -47 197.499s15.667 139.333 47 198s74.833 104.5 130.5 137.5s118.167 49.5 187.5 49.5c49.333 0 94.666 -8.83301 135.999 -26.5s76.333 -40.834 105 -69.501s49.334 -59.667 62.001 -93l-90 -41
c-18 42.667 -45.5 76.5 -82.5 101.5s-80.5 37.5 -130.5 37.5c-52 0 -98.167 -12.333 -138.5 -37s-71.833 -59.334 -94.5 -104.001s-34 -95.667 -34 -153s11.333 -108.166 34 -152.499s54.167 -78.833 94.5 -103.5s86.5 -37 138.5 -37c50 0 93.5 12.5 130.5 37.5
s64.5 58.833 82.5 101.5l90 -41c-12.667 -34 -33.334 -65.333 -62.001 -94s-63.667 -51.667 -105 -69s-86.666 -26 -135.999 -26c-69.333 0 -131.833 16.5 -187.5 49.5zM423 991.002h99l-92 -144h-80z" />
    <glyph glyph-name="cacute" unicode="&#x107;" horiz-adv-x="603" 
d="M180 25c-42 24.667 -74.6709 58.5 -98.0039 101.5s-35 90.833 -35 143.5c0 53.333 11.667 101.333 35 144s55.833 76.167 97.5 100.5s89.167 36.5 142.5 36.5c52 0 99.5 -13.5 142.5 -40.5s73.5 -61.833 91.5 -104.5l-84 -40c-12.667 28.667 -32.5 51.667 -59.5 69
s-57.167 26 -90.5 26c-32.667 0 -62.5 -8.33301 -89.5 -25s-48.167 -39.5 -63.5 -68.5s-23 -61.833 -23 -98.5c0 -36 7.83301 -68.5 23.5 -97.5s36.834 -51.833 63.501 -68.5s56.334 -25 89.001 -25c34 0 64.333 8.66699 91 26s46.334 41 59.001 71l84 -42
c-17.333 -42 -47.666 -76.667 -90.999 -104s-91 -41 -143 -41c-52.667 0 -100 12.333 -142 37zM354.996 784h99l-92 -144h-80z" />
    <glyph glyph-name="Ccircumflex" unicode="&#x108;" horiz-adv-x="779" 
d="M238.5 37.5c-55.667 33 -99.167 78.6689 -130.5 137.002s-47 124.166 -47 197.499s15.667 139.333 47 198s74.833 104.5 130.5 137.5s118.167 49.5 187.5 49.5c49.333 0 94.666 -8.83301 135.999 -26.5s76.333 -40.834 105 -69.501s49.334 -59.667 62.001 -93l-90 -41
c-18 42.667 -45.5 76.5 -82.5 101.5s-80.5 37.5 -130.5 37.5c-52 0 -98.167 -12.333 -138.5 -37s-71.833 -59.334 -94.5 -104.001s-34 -95.667 -34 -153s11.333 -108.166 34 -152.499s54.167 -78.833 94.5 -103.5s86.5 -37 138.5 -37c50 0 93.5 12.5 130.5 37.5
s64.5 58.833 82.5 101.5l90 -41c-12.667 -34 -33.334 -65.333 -62.001 -94s-63.667 -51.667 -105 -69s-86.666 -26 -135.999 -26c-69.333 0 -131.833 16.5 -187.5 49.5zM341 991.002h95l116 -144h-85l-78 94l-76 -94h-86z" />
    <glyph glyph-name="ccircumflex" unicode="&#x109;" horiz-adv-x="603" 
d="M180 25c-42 24.667 -74.6709 58.5 -98.0039 101.5s-35 90.833 -35 143.5c0 53.333 11.667 101.333 35 144s55.833 76.167 97.5 100.5s89.167 36.5 142.5 36.5c52 0 99.5 -13.5 142.5 -40.5s73.5 -61.833 91.5 -104.5l-84 -40c-12.667 28.667 -32.5 51.667 -59.5 69
s-57.167 26 -90.5 26c-32.667 0 -62.5 -8.33301 -89.5 -25s-48.167 -39.5 -63.5 -68.5s-23 -61.833 -23 -98.5c0 -36 7.83301 -68.5 23.5 -97.5s36.834 -51.833 63.501 -68.5s56.334 -25 89.001 -25c34 0 64.333 8.66699 91 26s46.334 41 59.001 71l84 -42
c-17.333 -42 -47.666 -76.667 -90.999 -104s-91 -41 -143 -41c-52.667 0 -100 12.333 -142 37zM273.996 784h95l116 -144h-85l-78 94l-76 -94h-86z" />
    <glyph glyph-name="Cdotaccent" unicode="&#x10a;" horiz-adv-x="779" 
d="M238.5 37.5c-55.667 33 -99.167 78.6689 -130.5 137.002s-47 124.166 -47 197.499s15.667 139.333 47 198s74.833 104.5 130.5 137.5s118.167 49.5 187.5 49.5c49.333 0 94.666 -8.83301 135.999 -26.5s76.333 -40.834 105 -69.501s49.334 -59.667 62.001 -93l-90 -41
c-18 42.667 -45.5 76.5 -82.5 101.5s-80.5 37.5 -130.5 37.5c-52 0 -98.167 -12.333 -138.5 -37s-71.833 -59.334 -94.5 -104.001s-34 -95.667 -34 -153s11.333 -108.166 34 -152.499s54.167 -78.833 94.5 -103.5s86.5 -37 138.5 -37c50 0 93.5 12.5 130.5 37.5
s64.5 58.833 82.5 101.5l90 -41c-12.667 -34 -33.334 -65.333 -62.001 -94s-63.667 -51.667 -105 -69s-86.666 -26 -135.999 -26c-69.333 0 -131.833 16.5 -187.5 49.5zM345 880.502c-12 12.333 -18 27.167 -18 44.5s6 32 18 44s27 18 45 18c17.333 0 32 -6 44 -18
s18 -26.667 18 -44c0 -18 -6 -33 -18 -45s-26.667 -18 -44 -18c-18 0 -33 6.16699 -45 18.5z" />
    <glyph glyph-name="cdotaccent" unicode="&#x10b;" horiz-adv-x="603" 
d="M180 25c-42 24.667 -74.6709 58.5 -98.0039 101.5s-35 90.833 -35 143.5c0 53.333 11.667 101.333 35 144s55.833 76.167 97.5 100.5s89.167 36.5 142.5 36.5c52 0 99.5 -13.5 142.5 -40.5s73.5 -61.833 91.5 -104.5l-84 -40c-12.667 28.667 -32.5 51.667 -59.5 69
s-57.167 26 -90.5 26c-32.667 0 -62.5 -8.33301 -89.5 -25s-48.167 -39.5 -63.5 -68.5s-23 -61.833 -23 -98.5c0 -36 7.83301 -68.5 23.5 -97.5s36.834 -51.833 63.501 -68.5s56.334 -25 89.001 -25c34 0 64.333 8.66699 91 26s46.334 41 59.001 71l84 -42
c-17.333 -42 -47.666 -76.667 -90.999 -104s-91 -41 -143 -41c-52.667 0 -100 12.333 -142 37zM277.996 673.5c-12 12.333 -18 27.167 -18 44.5s6 32 18 44s27 18 45 18c17.333 0 32 -6 44 -18s18 -26.667 18 -44c0 -18 -6 -33 -18 -45s-26.667 -18 -44 -18
c-18 0 -33 6.16699 -45 18.5z" />
    <glyph glyph-name="Ccaron" unicode="&#x10c;" horiz-adv-x="779" 
d="M238.5 37.5c-55.667 33 -99.167 78.6689 -130.5 137.002s-47 124.166 -47 197.499s15.667 139.333 47 198s74.833 104.5 130.5 137.5s118.167 49.5 187.5 49.5c49.333 0 94.666 -8.83301 135.999 -26.5s76.333 -40.834 105 -69.501s49.334 -59.667 62.001 -93l-90 -41
c-18 42.667 -45.5 76.5 -82.5 101.5s-80.5 37.5 -130.5 37.5c-52 0 -98.167 -12.333 -138.5 -37s-71.833 -59.334 -94.5 -104.001s-34 -95.667 -34 -153s11.333 -108.166 34 -152.499s54.167 -78.833 94.5 -103.5s86.5 -37 138.5 -37c50 0 93.5 12.5 130.5 37.5
s64.5 58.833 82.5 101.5l90 -41c-12.667 -34 -33.334 -65.333 -62.001 -94s-63.667 -51.667 -105 -69s-86.666 -26 -135.999 -26c-69.333 0 -131.833 16.5 -187.5 49.5zM228 991.002h86l76 -94l78 94h85l-116 -144h-95z" />
    <glyph glyph-name="ccaron" unicode="&#x10d;" horiz-adv-x="603" 
d="M180 25c-42 24.667 -74.6709 58.5 -98.0039 101.5s-35 90.833 -35 143.5c0 53.333 11.667 101.333 35 144s55.833 76.167 97.5 100.5s89.167 36.5 142.5 36.5c52 0 99.5 -13.5 142.5 -40.5s73.5 -61.833 91.5 -104.5l-84 -40c-12.667 28.667 -32.5 51.667 -59.5 69
s-57.167 26 -90.5 26c-32.667 0 -62.5 -8.33301 -89.5 -25s-48.167 -39.5 -63.5 -68.5s-23 -61.833 -23 -98.5c0 -36 7.83301 -68.5 23.5 -97.5s36.834 -51.833 63.501 -68.5s56.334 -25 89.001 -25c34 0 64.333 8.66699 91 26s46.334 41 59.001 71l84 -42
c-17.333 -42 -47.666 -76.667 -90.999 -104s-91 -41 -143 -41c-52.667 0 -100 12.333 -142 37zM159.996 784h86l76 -94l78 94h85l-116 -144h-95z" />
    <glyph glyph-name="Dcaron" unicode="&#x10e;" horiz-adv-x="741" 
d="M83 745h244c74.667 0 140.167 -15.333 196.5 -46s99.833 -74.167 130.5 -130.5s46 -121.5 46 -195.5s-15.333 -139.167 -46 -195.5s-74.167 -100 -130.5 -131s-121.833 -46.5 -196.5 -46.5h-244v745zM328 90c54.667 0 102.333 11.501 143 34.501s72 55.833 94 98.5
s33 92.667 33 150s-11 107.166 -33 149.499s-53.5 75 -94.5 98s-88.5 34.5 -142.5 34.5h-147v-565h147zM217.999 991.001h86l76 -94l78 94h85l-116 -144h-95z" />
    <glyph glyph-name="dcaron" unicode="&#x10f;" horiz-adv-x="803" 
d="M181 25c-40.667 24.667 -72.667 58.333 -96 101s-35 90.334 -35 143.001s11.667 100.5 35 143.5s55.333 76.833 96 101.5s86 37 136 37c39.333 0 74.833 -7.33301 106.5 -22s58.167 -35.334 79.5 -62.001v290h94v-757h-91v79c-20 -28.667 -46.5 -51 -79.5 -67
s-69.5 -24 -109.5 -24c-50 0 -95.333 12.333 -136 37zM171 171.499c15.333 -29 36.5 -51.833 63.5 -68.5s57.167 -25 90.5 -25s63.5 8.33301 90.5 25s48.333 39.5 64 68.5s23.5 61.5 23.5 97.5s-7.83301 68.667 -23.5 98s-37 52.333 -64 69s-57.167 25 -90.5 25
s-63.5 -8.33301 -90.5 -25s-48.167 -39.667 -63.5 -69s-23 -62 -23 -98s7.66699 -68.5 23 -97.5zM689 838.999h100l-14 -184h-71z" />
    <glyph glyph-name="Dcroat" unicode="&#x110;" horiz-adv-x="741" 
d="M83 337h-89v71h89v337h244c74.667 0 140.167 -15.333 196.5 -46s99.833 -74.167 130.5 -130.5s46 -121.5 46 -195.5s-15.333 -139.167 -46 -195.5s-74.167 -100 -130.5 -131s-121.833 -46.5 -196.5 -46.5h-244v337zM328 90c54.667 0 102.333 11.501 143 34.501
s72 55.833 94 98.5s33 92.667 33 150s-11 107.166 -33 149.499s-53.5 75 -94.5 98s-88.5 34.5 -142.5 34.5h-147v-247h189v-71h-189v-247h147z" />
    <glyph glyph-name="dcroat" unicode="&#x111;" horiz-adv-x="669" 
d="M181 25c-40.667 24.667 -72.667 58.333 -96 101s-35 90.334 -35 143.001s11.667 100.5 35 143.5s55.333 76.833 96 101.5s86 37 136 37c39.333 0 74.833 -7.33301 106.5 -22s58.167 -35.334 79.5 -62.001v137h-89v71h89v82h94v-82h92v-71h-92v-604h-91v79
c-20 -28.667 -46.5 -51 -79.5 -67s-69.5 -24 -109.5 -24c-50 0 -95.333 12.333 -136 37zM171 171.499c15.333 -29 36.5 -51.833 63.5 -68.5s57.167 -25 90.5 -25s63.5 8.33301 90.5 25s48.333 39.5 64 68.5s23.5 61.5 23.5 97.5s-7.83301 68.667 -23.5 98s-37 52.333 -64 69
s-57.167 25 -90.5 25s-63.5 -8.33301 -90.5 -25s-48.167 -39.667 -63.5 -69s-23 -62 -23 -98s7.66699 -68.5 23 -97.5z" />
    <glyph glyph-name="Emacron" unicode="&#x112;" horiz-adv-x="606" 
d="M83 745h485v-90h-387v-236h367v-90h-367v-239h387v-90h-485v745zM192 946h267v-73h-267v73z" />
    <glyph glyph-name="emacron" unicode="&#x113;" horiz-adv-x="614" 
d="M182 25c-41.333 24.667 -73.667 58.5 -97 101.5s-35 91.167 -35 144.5s11.5 101.333 34.5 144s54.333 76 94 100s84.167 36 133.5 36c51.333 0 96.166 -12 134.499 -36s67.666 -55.833 87.999 -95.5s30.5 -82.167 30.5 -127.5c0 -15.333 -1.66699 -32 -5 -50h-412
c1.33301 -34 10 -63.667 26 -89s36.833 -45 62.5 -59s53.834 -21 84.501 -21c65.333 0 115.666 29.667 150.999 89l78 -40c-17.333 -38.667 -46.666 -70.667 -87.999 -96s-88.666 -38 -141.999 -38c-50.667 0 -96.667 12.333 -138 37zM463.999 322
c-1.33301 42 -16.5 76.833 -45.5 104.5s-64.5 41.5 -106.5 41.5c-41.333 0 -77 -13.167 -107 -39.5s-48.333 -61.833 -55 -106.5h314zM174.999 739h267v-73h-267v73z" />
    <glyph glyph-name="Ebreve" unicode="&#x114;" horiz-adv-x="606" 
d="M83 745h485v-90h-387v-236h367v-90h-367v-239h387v-90h-485v745zM252.5 866c-22.333 12.667 -40.001 29.667 -53.001 51s-19.5 44.333 -19.5 69h71c0 -20 7.16699 -37.333 21.5 -52s31.833 -22 52.5 -22s38.334 7.33301 53.001 22s22 32 22 52h70
c0 -24.667 -6.5 -47.667 -19.5 -69s-30.667 -38.333 -53 -51s-46.5 -19 -72.5 -19s-50.167 6.33301 -72.5 19z" />
    <glyph glyph-name="ebreve" unicode="&#x115;" horiz-adv-x="614" 
d="M182 25c-41.333 24.667 -73.667 58.5 -97 101.5s-35 91.167 -35 144.5s11.5 101.333 34.5 144s54.333 76 94 100s84.167 36 133.5 36c51.333 0 96.166 -12 134.499 -36s67.666 -55.833 87.999 -95.5s30.5 -82.167 30.5 -127.5c0 -15.333 -1.66699 -32 -5 -50h-412
c1.33301 -34 10 -63.667 26 -89s36.833 -45 62.5 -59s53.834 -21 84.501 -21c65.333 0 115.666 29.667 150.999 89l78 -40c-17.333 -38.667 -46.666 -70.667 -87.999 -96s-88.666 -38 -141.999 -38c-50.667 0 -96.667 12.333 -138 37zM463.999 322
c-1.33301 42 -16.5 76.833 -45.5 104.5s-64.5 41.5 -106.5 41.5c-41.333 0 -77 -13.167 -107 -39.5s-48.333 -61.833 -55 -106.5h314zM234.499 659c-22.333 12.667 -40.001 29.667 -53.001 51s-19.5 44.333 -19.5 69h71c0 -20 7.16699 -37.333 21.5 -52s31.833 -22 52.5 -22
s38.334 7.33301 53.001 22s22 32 22 52h70c0 -24.667 -6.5 -47.667 -19.5 -69s-30.667 -38.333 -53 -51s-46.5 -19 -72.5 -19s-50.167 6.33301 -72.5 19z" />
    <glyph glyph-name="Edotaccent" unicode="&#x116;" horiz-adv-x="606" 
d="M83 745h485v-90h-387v-236h367v-90h-367v-239h387v-90h-485v745zM281 880.5c-12 12.333 -18 27.167 -18 44.5s6 32 18 44s27 18 45 18c17.333 0 32 -6 44 -18s18 -26.667 18 -44c0 -18 -6 -33 -18 -45s-26.667 -18 -44 -18c-18 0 -33 6.16699 -45 18.5z" />
    <glyph glyph-name="edotaccent" unicode="&#x117;" horiz-adv-x="614" 
d="M182 25c-41.333 24.667 -73.667 58.5 -97 101.5s-35 91.167 -35 144.5s11.5 101.333 34.5 144s54.333 76 94 100s84.167 36 133.5 36c51.333 0 96.166 -12 134.499 -36s67.666 -55.833 87.999 -95.5s30.5 -82.167 30.5 -127.5c0 -15.333 -1.66699 -32 -5 -50h-412
c1.33301 -34 10 -63.667 26 -89s36.833 -45 62.5 -59s53.834 -21 84.501 -21c65.333 0 115.666 29.667 150.999 89l78 -40c-17.333 -38.667 -46.666 -70.667 -87.999 -96s-88.666 -38 -141.999 -38c-50.667 0 -96.667 12.333 -138 37zM463.999 322
c-1.33301 42 -16.5 76.833 -45.5 104.5s-64.5 41.5 -106.5 41.5c-41.333 0 -77 -13.167 -107 -39.5s-48.333 -61.833 -55 -106.5h314zM262.999 673.5c-12 12.333 -18 27.167 -18 44.5s6 32 18 44s27 18 45 18c17.333 0 32 -6 44 -18s18 -26.667 18 -44c0 -18 -6 -33 -18 -45
s-26.667 -18 -44 -18c-18 0 -33 6.16699 -45 18.5z" />
    <glyph glyph-name="Eogonek" unicode="&#x118;" horiz-adv-x="606" 
d="M83 745l484.998 0.000976562v-90h-387v-236h367v-90h-367v-239h387v-90h-75c-37.333 -20 -56 -44 -56 -72c0 -14.667 4.83301 -26.167 14.5 -34.5s22.834 -12.5 39.501 -12.5c24 0 49.333 9.33301 76 28l30 -48c-33.333 -28 -71 -42 -113 -42
c-33.333 0 -60.666 8.5 -81.999 25.5s-32 39.5 -32 67.5c0 16.667 4 32.667 12 48s19.667 28.666 35 39.999h-334v745z" />
    <glyph glyph-name="eogonek" unicode="&#x119;" horiz-adv-x="614" 
d="M281 -9c-21.333 -17.333 -32.002 -36.333 -32.002 -57c0 -14.667 4.83301 -26.167 14.5 -34.5s22.834 -12.5 39.501 -12.5c24 0 49.333 9.33301 76 28l30 -48c-33.333 -28 -71 -42 -113 -42c-33.333 0 -60.666 8.5 -81.999 25.5s-32 39.5 -32 67.5
c0 33.333 14.667 62 44 86c-53.333 19.333 -96 53 -128 101s-48 103.333 -48 166c0 53.333 11.5 101.333 34.5 144s54.333 76 94 100s84.167 36 133.5 36c51.333 0 96.166 -12 134.499 -36s67.666 -55.833 87.999 -95.5s30.5 -82.167 30.5 -127.5
c0 -15.333 -1.66699 -32 -5 -50h-412c1.33301 -34 10 -63.667 26 -89s36.833 -45 62.5 -59s53.834 -21 84.501 -21c65.333 0 115.666 29.667 150.999 89l78 -40c-17.333 -38.667 -46.666 -70.667 -87.999 -96s-88.666 -38 -141.999 -38c-12.667 0 -25.667 1 -39 3z
M463.998 322c-1.33301 42 -16.5 76.833 -45.5 104.5s-64.5 41.5 -106.5 41.5c-41.333 0 -77 -13.167 -107 -39.5s-48.333 -61.833 -55 -106.5h314z" />
    <glyph glyph-name="Ecaron" unicode="&#x11a;" horiz-adv-x="606" 
d="M83 745h485v-90h-387v-236h367v-90h-367v-239h387v-90h-485v745zM163 991h86l76 -94l78 94h85l-116 -144h-95z" />
    <glyph glyph-name="ecaron" unicode="&#x11b;" horiz-adv-x="614" 
d="M182 25c-41.333 24.667 -73.667 58.5 -97 101.5s-35 91.167 -35 144.5s11.5 101.333 34.5 144s54.333 76 94 100s84.167 36 133.5 36c51.333 0 96.166 -12 134.499 -36s67.666 -55.833 87.999 -95.5s30.5 -82.167 30.5 -127.5c0 -15.333 -1.66699 -32 -5 -50h-412
c1.33301 -34 10 -63.667 26 -89s36.833 -45 62.5 -59s53.834 -21 84.501 -21c65.333 0 115.666 29.667 150.999 89l78 -40c-17.333 -38.667 -46.666 -70.667 -87.999 -96s-88.666 -38 -141.999 -38c-50.667 0 -96.667 12.333 -138 37zM463.999 322
c-1.33301 42 -16.5 76.833 -45.5 104.5s-64.5 41.5 -106.5 41.5c-41.333 0 -77 -13.167 -107 -39.5s-48.333 -61.833 -55 -106.5h314zM144.999 784h86l76 -94l78 94h85l-116 -144h-95z" />
    <glyph glyph-name="Gcircumflex" unicode="&#x11c;" horiz-adv-x="817" 
d="M239.5 37.5c-55.667 33 -99.3359 78.6699 -131.003 137.003s-47.5 124.166 -47.5 197.499s15.667 139.333 47 198s74.833 104.5 130.5 137.5s118.167 49.5 187.5 49.5c49.333 0 94.666 -8.83301 135.999 -26.5s76.333 -40.834 105 -69.501s49.334 -59.667 62.001 -93
l-88 -43c-17.333 44 -44.666 78.5 -81.999 103.5s-81.666 37.5 -132.999 37.5c-52 0 -98.167 -12.333 -138.5 -37s-71.833 -59.334 -94.5 -104.001s-34 -95.667 -34 -153s11.333 -108.166 34 -152.499s54.334 -78.833 95.001 -103.5s87 -37 139 -37
c44.667 0 85.5 9.66699 122.5 29s66.167 46.166 87.5 80.499s32 73.5 32 117.5v4h-243v85h342v-66c0 -67.333 -15.333 -126.833 -46 -178.5s-72 -91.667 -124 -120s-109 -42.5 -171 -42.5c-69.333 0 -131.833 16.5 -187.5 49.5zM359.998 991.003h95l116 -144h-85l-78 94
l-76 -94h-86z" />
    <glyph glyph-name="gcircumflex" unicode="&#x11d;" horiz-adv-x="659" 
d="M179.5 -181.5c-43 25.667 -73.5 59.834 -91.5 102.501l87 40c10 -26.667 28.333 -48.5 55 -65.5s59.334 -25.5 98.001 -25.5c47.333 0 86.666 13.5 117.999 40.5s47 64.5 47 112.5v75c-20 -27.333 -45.667 -48.333 -77 -63s-65.333 -22 -102 -22
c-50 0 -95 11.833 -135 35.5s-71.5 56 -94.5 97s-34.5 86.5 -34.5 136.5s11.333 95.5 34 136.5s54 73.333 94 97s85 35.5 135 35.5c37.333 0 71.666 -7.5 102.999 -22.5s58 -36.5 80 -64.5v75h91v-516c0 -46.667 -11 -88.334 -33 -125.001s-52.667 -65.5 -92 -86.5
s-83.666 -31.5 -132.999 -31.5c-56.667 0 -106.5 12.833 -149.5 38.5zM170.5 192c15 -27.333 35.8311 -49 62.498 -65s56.334 -24 89.001 -24c31.333 0 60.166 8 86.499 24s47 37.667 62 65s22.5 57.333 22.5 90s-7.5 62.667 -22.5 90s-35.667 49 -62 65
s-55.166 24 -86.499 24c-32.667 0 -62.167 -8 -88.5 -24s-47.166 -37.667 -62.499 -65s-23 -57.333 -23 -90s7.5 -62.667 22.5 -90zM280.998 784h95l116 -144h-85l-78 94l-76 -94h-86z" />
    <glyph glyph-name="Gbreve" unicode="&#x11e;" horiz-adv-x="817" 
d="M239.5 37.5c-55.667 33 -99.3359 78.6699 -131.003 137.003s-47.5 124.166 -47.5 197.499s15.667 139.333 47 198s74.833 104.5 130.5 137.5s118.167 49.5 187.5 49.5c49.333 0 94.666 -8.83301 135.999 -26.5s76.333 -40.834 105 -69.501s49.334 -59.667 62.001 -93
l-88 -43c-17.333 44 -44.666 78.5 -81.999 103.5s-81.666 37.5 -132.999 37.5c-52 0 -98.167 -12.333 -138.5 -37s-71.833 -59.334 -94.5 -104.001s-34 -95.667 -34 -153s11.333 -108.166 34 -152.499s54.334 -78.833 95.001 -103.5s87 -37 139 -37
c44.667 0 85.5 9.66699 122.5 29s66.167 46.166 87.5 80.499s32 73.5 32 117.5v4h-243v85h342v-66c0 -67.333 -15.333 -126.833 -46 -178.5s-72 -91.667 -124 -120s-109 -42.5 -171 -42.5c-69.333 0 -131.833 16.5 -187.5 49.5zM336.498 866.003
c-22.333 12.667 -40.001 29.667 -53.001 51s-19.5 44.333 -19.5 69h71c0 -20 7.16699 -37.333 21.5 -52s31.833 -22 52.5 -22s38.334 7.33301 53.001 22s22 32 22 52h70c0 -24.667 -6.5 -47.667 -19.5 -69s-30.667 -38.333 -53 -51s-46.5 -19 -72.5 -19
s-50.167 6.33301 -72.5 19z" />
    <glyph glyph-name="gbreve" unicode="&#x11f;" horiz-adv-x="659" 
d="M179.5 -181.5c-43 25.667 -73.5 59.834 -91.5 102.501l87 40c10 -26.667 28.333 -48.5 55 -65.5s59.334 -25.5 98.001 -25.5c47.333 0 86.666 13.5 117.999 40.5s47 64.5 47 112.5v75c-20 -27.333 -45.667 -48.333 -77 -63s-65.333 -22 -102 -22
c-50 0 -95 11.833 -135 35.5s-71.5 56 -94.5 97s-34.5 86.5 -34.5 136.5s11.333 95.5 34 136.5s54 73.333 94 97s85 35.5 135 35.5c37.333 0 71.666 -7.5 102.999 -22.5s58 -36.5 80 -64.5v75h91v-516c0 -46.667 -11 -88.334 -33 -125.001s-52.667 -65.5 -92 -86.5
s-83.666 -31.5 -132.999 -31.5c-56.667 0 -106.5 12.833 -149.5 38.5zM170.5 192c15 -27.333 35.8311 -49 62.498 -65s56.334 -24 89.001 -24c31.333 0 60.166 8 86.499 24s47 37.667 62 65s22.5 57.333 22.5 90s-7.5 62.667 -22.5 90s-35.667 49 -62 65
s-55.166 24 -86.499 24c-32.667 0 -62.167 -8 -88.5 -24s-47.166 -37.667 -62.499 -65s-23 -57.333 -23 -90s7.5 -62.667 22.5 -90zM256.498 659c-22.333 12.667 -40.001 29.667 -53.001 51s-19.5 44.333 -19.5 69h71c0 -20 7.16699 -37.333 21.5 -52s31.833 -22 52.5 -22
s38.334 7.33301 53.001 22s22 32 22 52h70c0 -24.667 -6.5 -47.667 -19.5 -69s-30.667 -38.333 -53 -51s-46.5 -19 -72.5 -19s-50.167 6.33301 -72.5 19z" />
    <glyph glyph-name="Gdotaccent" unicode="&#x120;" horiz-adv-x="817" 
d="M239.5 37.5c-55.667 33 -99.3359 78.6699 -131.003 137.003s-47.5 124.166 -47.5 197.499s15.667 139.333 47 198s74.833 104.5 130.5 137.5s118.167 49.5 187.5 49.5c49.333 0 94.666 -8.83301 135.999 -26.5s76.333 -40.834 105 -69.501s49.334 -59.667 62.001 -93
l-88 -43c-17.333 44 -44.666 78.5 -81.999 103.5s-81.666 37.5 -132.999 37.5c-52 0 -98.167 -12.333 -138.5 -37s-71.833 -59.334 -94.5 -104.001s-34 -95.667 -34 -153s11.333 -108.166 34 -152.499s54.334 -78.833 95.001 -103.5s87 -37 139 -37
c44.667 0 85.5 9.66699 122.5 29s66.167 46.166 87.5 80.499s32 73.5 32 117.5v4h-243v85h342v-66c0 -67.333 -15.333 -126.833 -46 -178.5s-72 -91.667 -124 -120s-109 -42.5 -171 -42.5c-69.333 0 -131.833 16.5 -187.5 49.5zM363.998 880.503
c-12 12.333 -18 27.167 -18 44.5s6 32 18 44s27 18 45 18c17.333 0 32 -6 44 -18s18 -26.667 18 -44c0 -18 -6 -33 -18 -45s-26.667 -18 -44 -18c-18 0 -33 6.16699 -45 18.5z" />
    <glyph glyph-name="gdotaccent" unicode="&#x121;" horiz-adv-x="659" 
d="M179.5 -181.5c-43 25.667 -73.5 59.834 -91.5 102.501l87 40c10 -26.667 28.333 -48.5 55 -65.5s59.334 -25.5 98.001 -25.5c47.333 0 86.666 13.5 117.999 40.5s47 64.5 47 112.5v75c-20 -27.333 -45.667 -48.333 -77 -63s-65.333 -22 -102 -22
c-50 0 -95 11.833 -135 35.5s-71.5 56 -94.5 97s-34.5 86.5 -34.5 136.5s11.333 95.5 34 136.5s54 73.333 94 97s85 35.5 135 35.5c37.333 0 71.666 -7.5 102.999 -22.5s58 -36.5 80 -64.5v75h91v-516c0 -46.667 -11 -88.334 -33 -125.001s-52.667 -65.5 -92 -86.5
s-83.666 -31.5 -132.999 -31.5c-56.667 0 -106.5 12.833 -149.5 38.5zM170.5 192c15 -27.333 35.8311 -49 62.498 -65s56.334 -24 89.001 -24c31.333 0 60.166 8 86.499 24s47 37.667 62 65s22.5 57.333 22.5 90s-7.5 62.667 -22.5 90s-35.667 49 -62 65
s-55.166 24 -86.499 24c-32.667 0 -62.167 -8 -88.5 -24s-47.166 -37.667 -62.499 -65s-23 -57.333 -23 -90s7.5 -62.667 22.5 -90zM284.998 673.5c-12 12.333 -18 27.167 -18 44.5s6 32 18 44s27 18 45 18c17.333 0 32 -6 44 -18s18 -26.667 18 -44c0 -18 -6 -33 -18 -45
s-26.667 -18 -44 -18c-18 0 -33 6.16699 -45 18.5z" />
    <glyph glyph-name="uni0122" unicode="&#x122;" horiz-adv-x="817" 
d="M239.5 37.5c-55.667 33 -99.3359 78.6699 -131.003 137.003s-47.5 124.166 -47.5 197.499s15.667 139.333 47 198s74.833 104.5 130.5 137.5s118.167 49.5 187.5 49.5c49.333 0 94.666 -8.83301 135.999 -26.5s76.333 -40.834 105 -69.501s49.334 -59.667 62.001 -93
l-88 -43c-17.333 44 -44.666 78.5 -81.999 103.5s-81.666 37.5 -132.999 37.5c-52 0 -98.167 -12.333 -138.5 -37s-71.833 -59.334 -94.5 -104.001s-34 -95.667 -34 -153s11.333 -108.166 34 -152.499s54.334 -78.833 95.001 -103.5s87 -37 139 -37
c44.667 0 85.5 9.66699 122.5 29s66.167 46.166 87.5 80.499s32 73.5 32 117.5v4h-243v85h342v-66c0 -67.333 -15.333 -126.833 -46 -178.5s-72 -91.667 -124 -120s-109 -42.5 -171 -42.5c-69.333 0 -131.833 16.5 -187.5 49.5zM419.998 -199.997h-48.999v120h97v-85
c0 -48.667 -9.83301 -87.5 -29.5 -116.5s-48.834 -48.167 -87.501 -57.5v41c42 11.333 65 44 69 98z" />
    <glyph glyph-name="uni0123" unicode="&#x123;" horiz-adv-x="659" 
d="M179.5 -181.5c-43 25.667 -73.5 59.834 -91.5 102.501l87 40c10 -26.667 28.333 -48.5 55 -65.5s59.334 -25.5 98.001 -25.5c47.333 0 86.666 13.5 117.999 40.5s47 64.5 47 112.5v75c-20 -27.333 -45.667 -48.333 -77 -63s-65.333 -22 -102 -22
c-50 0 -95 11.833 -135 35.5s-71.5 56 -94.5 97s-34.5 86.5 -34.5 136.5s11.333 95.5 34 136.5s54 73.333 94 97s85 35.5 135 35.5c37.333 0 71.666 -7.5 102.999 -22.5s58 -36.5 80 -64.5v75h91v-516c0 -46.667 -11 -88.334 -33 -125.001s-52.667 -65.5 -92 -86.5
s-83.666 -31.5 -132.999 -31.5c-56.667 0 -106.5 12.833 -149.5 38.5zM170.5 192c15 -27.333 35.8311 -49 62.498 -65s56.334 -24 89.001 -24c31.333 0 60.166 8 86.499 24s47 37.667 62 65s22.5 57.333 22.5 90s-7.5 62.667 -22.5 90s-35.667 49 -62 65
s-55.166 24 -86.499 24c-32.667 0 -62.167 -8 -88.5 -24s-47.166 -37.667 -62.499 -65s-23 -57.333 -23 -90s7.5 -62.667 22.5 -90zM310.998 820.5c20 28.333 49.001 46.832 87.001 55.499v-41c-20.667 -5.33301 -36.834 -15.666 -48.501 -30.999s-18.5 -34.333 -20.5 -57
h49v-120h-97v85c0 44 10 80.167 30 108.5z" />
    <glyph glyph-name="Hcircumflex" unicode="&#x124;" horiz-adv-x="735" 
d="M83 745h98v-332h373v332h99v-745h-99v323h-373v-323h-98v745zM319 991h95l116 -144h-85l-78 94l-76 -94h-86z" />
    <glyph glyph-name="hcircumflex" unicode="&#x125;" 
d="M72 757l92.999 0.000976562v-281c16 24 37.167 42.5 63.5 55.5s55.833 19.5 88.5 19.5c38 0 72.333 -8.83301 103 -26.5s54.834 -41.834 72.501 -72.501s26.5 -65 26.5 -103v-349h-94v319c0 44 -12 78.667 -36 104s-55 38 -93 38s-69.333 -12.833 -94 -38.5
s-37 -60.167 -37 -103.5v-319h-93v757zM69.999 994.001h95l116 -144h-85l-78 94l-76 -94h-86z" />
    <glyph glyph-name="Hbar" unicode="&#x126;" horiz-adv-x="735" 
d="M83 560h-75v71h75v114h98v-114h373v114h99v-114h75v-71h-75v-560h-99v323h-373v-323h-98v560zM554 413v147h-373v-147h373z" />
    <glyph glyph-name="hbar" unicode="&#x127;" 
d="M72 604l-91.001 0.000976562v71h91v82h93v-82h92v-71h-92v-128c16 24 37.167 42.5 63.5 55.5s55.833 19.5 88.5 19.5c38 0 72.333 -8.83301 103 -26.5s54.834 -41.834 72.501 -72.501s26.5 -65 26.5 -103v-349h-94v319c0 44 -12 78.667 -36 104s-55 38 -93 38
s-69.333 -12.833 -94 -38.5s-37 -60.167 -37 -103.5v-319h-93v604z" />
    <glyph glyph-name="Itilde" unicode="&#x128;" horiz-adv-x="264" 
d="M83 745h98v-745h-98v745zM156.5 885c-10.333 4.66699 -21.833 11.667 -34.5 21c-9.33301 6 -16.666 10.5 -21.999 13.5s-11.666 4.5 -18.999 4.5c-18.667 0 -29.667 -14 -33 -42h-63c0.666992 34.667 8.83398 61.5 24.501 80.5s36.167 28.5 61.5 28.5
c15.333 0 28 -2.33301 38 -7s20.667 -11.334 32 -20.001c9.33301 -6.66699 16.833 -11.5 22.5 -14.5s12.167 -4.5 19.5 -4.5c9.33301 0 16.666 3.83301 21.999 11.5s8.66602 17.5 9.99902 29.5h64c-0.666992 -35.333 -8.33398 -62.166 -23.001 -80.499
s-34.667 -27.5 -60 -27.5c-16 0 -29.167 2.33301 -39.5 7z" />
    <glyph glyph-name="itilde" unicode="&#x129;" horiz-adv-x="209" 
d="M58 539h93v-539h-93v539zM128.5 678c-10.333 4.66699 -21.833 11.667 -34.5 21c-9.33301 6 -16.666 10.5 -21.999 13.5s-11.666 4.5 -18.999 4.5c-18.667 0 -29.667 -14 -33 -42h-63c0.666992 34.667 8.83398 61.5 24.501 80.5s36.167 28.5 61.5 28.5
c15.333 0 28 -2.33301 38 -7s20.667 -11.334 32 -20.001c9.33301 -6.66699 16.833 -11.5 22.5 -14.5s12.167 -4.5 19.5 -4.5c9.33301 0 16.666 3.83301 21.999 11.5s8.66602 17.5 9.99902 29.5h64c-0.666992 -35.333 -8.33398 -62.166 -23.001 -80.499
s-34.667 -27.5 -60 -27.5c-16 0 -29.167 2.33301 -39.5 7z" />
    <glyph glyph-name="Imacron" unicode="&#x12a;" horiz-adv-x="264" 
d="M83 745h98v-745h-98v745zM-1 946h267v-73h-267v73z" />
    <glyph glyph-name="imacron" unicode="&#x12b;" horiz-adv-x="209" 
d="M58 539h93v-539h-93v539zM-29 739h267v-73h-267v73z" />
    <glyph glyph-name="Ibreve" unicode="&#x12c;" horiz-adv-x="264" 
d="M83 745h98v-745h-98v745zM59.5 866c-22.333 12.667 -40.001 29.667 -53.001 51s-19.5 44.333 -19.5 69h71c0 -20 7.16699 -37.333 21.5 -52s31.833 -22 52.5 -22s38.334 7.33301 53.001 22s22 32 22 52h70c0 -24.667 -6.5 -47.667 -19.5 -69s-30.667 -38.333 -53 -51
s-46.5 -19 -72.5 -19s-50.167 6.33301 -72.5 19z" />
    <glyph glyph-name="ibreve" unicode="&#x12d;" horiz-adv-x="209" 
d="M58 539h93v-539h-93v539zM31.5 659c-22.333 12.667 -40.001 29.667 -53.001 51s-19.5 44.333 -19.5 69h71c0 -20 7.16699 -37.333 21.5 -52s31.833 -22 52.5 -22s38.334 7.33301 53.001 22s22 32 22 52h70c0 -24.667 -6.5 -47.667 -19.5 -69s-30.667 -38.333 -53 -51
s-46.5 -19 -72.5 -19s-50.167 6.33301 -72.5 19z" />
    <glyph glyph-name="Iogonek" unicode="&#x12e;" horiz-adv-x="264" 
d="M25.5 -155.5c-21.667 17 -32.501 39.5 -32.501 67.5c0 24 8 45.833 24 65.5s38 35.167 66 46.5v721h98v-745h-64c-37.333 -20 -56 -44 -56 -72c0 -14.667 4.83301 -26.167 14.5 -34.5s22.834 -12.5 39.501 -12.5c24 0 49.333 9.33301 76 28l30 -48
c-33.333 -28 -71 -42 -113 -42c-33.333 0 -60.833 8.5 -82.5 25.5z" />
    <glyph glyph-name="iogonek" unicode="&#x12f;" horiz-adv-x="209" 
d="M59 673.5c-12 12.333 -18 27.167 -18 44.5s6 32 18 44s27 18 45 18c17.333 0 32 -6 44 -18s18 -26.667 18 -44c0 -18 -6 -33 -18 -45s-26.667 -18 -44 -18c-18 0 -33 6.16699 -45 18.5zM-9.5 -15.999c16.333 20 38.832 35.667 67.499 47v508h93v-539h-71
c-30.667 -19.333 -46 -41.333 -46 -66c0 -14.667 4.83301 -26.167 14.5 -34.5s22.834 -12.5 39.501 -12.5c24 0 49.333 9.33301 76 28l30 -48c-33.333 -28 -71 -42 -113 -42c-33.333 0 -60.833 8.5 -82.5 25.5s-32.5 39.5 -32.5 67.5c0 24 8.16699 46 24.5 66z" />
    <glyph glyph-name="Idotaccent" unicode="&#x130;" horiz-adv-x="264" 
d="M83 745h98v-745h-98v745zM87 880.5c-12 12.333 -18 27.167 -18 44.5s6 32 18 44s27 18 45 18c17.333 0 32 -6 44 -18s18 -26.667 18 -44c0 -18 -6 -33 -18 -45s-26.667 -18 -44 -18c-18 0 -33 6.16699 -45 18.5z" />
    <glyph glyph-name="dotlessi" unicode="&#x131;" horiz-adv-x="209" 
d="M58 539h93v-539h-93v539z" />
    <glyph glyph-name="Jcircumflex" unicode="&#x134;" horiz-adv-x="386" 
d="M50 95h41c35.333 0 63.333 10.5 84 31.5s31 49.5 31 85.5v533h99v-531c0 -65.333 -19.333 -117.333 -58 -156s-90.667 -58 -156 -58h-41v95zM207 991h95l116 -144h-85l-78 94l-76 -94h-86z" />
    <glyph glyph-name="jcircumflex" unicode="&#x135;" horiz-adv-x="237" 
d="M-64 -216l-0.000976562 83c14 -2 27.333 -3 40 -3c28.667 0 51.834 8 69.501 24s26.5 39 26.5 69v582h93v-582c0 -56 -17.333 -99.667 -52 -131s-79 -47 -133 -47c-17.333 0 -32 1.66699 -44 5zM69.999 784h95l116 -144h-85l-78 94l-76 -94h-86z" />
    <glyph glyph-name="uni0136" unicode="&#x136;" horiz-adv-x="662" 
d="M83 745h98v-381l332 381h123l-270 -312l285 -433h-117l-236 354l-117 -134v-220h-98v745zM342 -200h-48.999v120h97v-85c0 -48.667 -9.83301 -87.5 -29.5 -116.5s-48.834 -48.167 -87.501 -57.5v41c42 11.333 65 44 69 98z" />
    <glyph glyph-name="uni0137" unicode="&#x137;" horiz-adv-x="558" 
d="M72 757h93v-471l248 253h119l-207 -217l221 -322h-110l-179 259l-92 -97v-162h-93v757zM290 -200h-48.999v120h97v-85c0 -48.667 -9.83301 -87.5 -29.5 -116.5s-48.834 -48.167 -87.501 -57.5v41c42 11.333 65 44 69 98z" />
    <glyph glyph-name="kgreenlandic" unicode="&#x138;" horiz-adv-x="558" 
d="M266 240h-101v-240h-93v539h93v-210h104l139 210h109l-168 -256l198 -283h-110z" />
    <glyph glyph-name="Lacute" unicode="&#x139;" horiz-adv-x="535" 
d="M83 745h98v-655h327v-90h-425v745zM165 991h99l-92 -144h-80z" />
    <glyph glyph-name="lacute" unicode="&#x13a;" horiz-adv-x="237" 
d="M72 757h93v-757h-93v757zM152 991h99l-92 -144h-80z" />
    <glyph glyph-name="uni013B" unicode="&#x13b;" horiz-adv-x="535" 
d="M83 745h98v-655h327v-90h-425v745zM306 -200h-48.999v120h97v-85c0 -48.667 -9.83301 -87.5 -29.5 -116.5s-48.834 -48.167 -87.501 -57.5v41c42 11.333 65 44 69 98z" />
    <glyph glyph-name="uni013C" unicode="&#x13c;" horiz-adv-x="237" 
d="M72 757h93v-757h-93v757zM129 -200h-48.999v120h97v-85c0 -48.667 -9.83301 -87.5 -29.5 -116.5s-48.834 -48.167 -87.501 -57.5v41c42 11.333 65 44 69 98z" />
    <glyph glyph-name="Lcaron" unicode="&#x13d;" horiz-adv-x="622" 
d="M83 745h98v-655h327v-90h-425v745zM390 745h100l-14 -184h-71z" />
    <glyph glyph-name="lcaron" unicode="&#x13e;" horiz-adv-x="371" 
d="M72 757h93v-757h-93v757zM257 839h100l-14 -184h-71z" />
    <glyph glyph-name="Ldot" unicode="&#x13f;" horiz-adv-x="535" 
d="M83 745h98v-655h327v-90h-425v745zM300.5 417c12.333 12 27.166 18.001 44.499 18.001s32 -6 44 -18s18 -26.667 18 -44c0 -18 -6 -33 -18 -45s-26.667 -18 -44 -18s-32.166 6.16699 -44.499 18.5s-18.5 27.166 -18.5 44.499s6.16699 32 18.5 44z" />
    <glyph glyph-name="ldot" unicode="&#x140;" horiz-adv-x="393" 
d="M72 757h93v-757h-93v757zM250.5 417c12.333 12 27.166 18 44.499 18s32 -6 44 -18s18 -26.667 18 -44c0 -18 -6 -33 -18 -45s-26.667 -18 -44 -18s-32.166 6 -44.499 18s-18.5 27 -18.5 45c0 17.333 6.16699 32 18.5 44z" />
    <glyph glyph-name="Lslash" unicode="&#x141;" horiz-adv-x="535" 
d="M83 320l-108 -35v76l108 35v349h98v-318l107 34v-76l-107 -34v-261h327v-90h-425v320z" />
    <glyph glyph-name="lslash" unicode="&#x142;" horiz-adv-x="237" 
d="M72 336l-85 -32v76l85 32v345h93v-309l85 32v-76l-85 -32v-372h-93v336z" />
    <glyph glyph-name="Nacute" unicode="&#x143;" horiz-adv-x="738" 
d="M83 745h82l391 -550v550h99v-745h-82l-392 558v-558h-98v745zM402 991h99l-92 -144h-80z" />
    <glyph glyph-name="nacute" unicode="&#x144;" 
d="M72 539l91 0.00195312v-66c16 25.333 37.333 44.666 64 57.999s56.667 20 90 20c38 0 72.333 -8.83301 103 -26.5s54.834 -41.834 72.501 -72.501s26.5 -65 26.5 -103v-349h-94v319c0 44 -11.833 78.667 -35.5 104s-54.834 38 -93.501 38s-70.167 -12.833 -94.5 -38.5
s-36.5 -60.167 -36.5 -103.5v-319h-93v539zM323 784.002h99l-92 -144h-80z" />
    <glyph glyph-name="uni0145" unicode="&#x145;" horiz-adv-x="738" 
d="M83 745h82l391 -550v550h99v-745h-82l-392 558v-558h-98v745zM380 -200h-48.999v120h97v-85c0 -48.667 -9.83301 -87.5 -29.5 -116.5s-48.834 -48.167 -87.501 -57.5v41c42 11.333 65 44 69 98z" />
    <glyph glyph-name="uni0146" unicode="&#x146;" 
d="M72 539l91 0.00195312v-66c16 25.333 37.333 44.666 64 57.999s56.667 20 90 20c38 0 72.333 -8.83301 103 -26.5s54.834 -41.834 72.501 -72.501s26.5 -65 26.5 -103v-349h-94v319c0 44 -11.833 78.667 -35.5 104s-54.834 38 -93.501 38s-70.167 -12.833 -94.5 -38.5
s-36.5 -60.167 -36.5 -103.5v-319h-93v539zM301 -199.998h-48.999v120h97v-85c0 -48.667 -9.83301 -87.5 -29.5 -116.5s-48.834 -48.167 -87.501 -57.5v41c42 11.333 65 44 69 98z" />
    <glyph glyph-name="Ncaron" unicode="&#x147;" horiz-adv-x="738" 
d="M83 745h82l391 -550v550h99v-745h-82l-392 558v-558h-98v745zM207 991h86l76 -94l78 94h85l-116 -144h-95z" />
    <glyph glyph-name="ncaron" unicode="&#x148;" 
d="M72 539l91 0.00195312v-66c16 25.333 37.333 44.666 64 57.999s56.667 20 90 20c38 0 72.333 -8.83301 103 -26.5s54.834 -41.834 72.501 -72.501s26.5 -65 26.5 -103v-349h-94v319c0 44 -11.833 78.667 -35.5 104s-54.834 38 -93.501 38s-70.167 -12.833 -94.5 -38.5
s-36.5 -60.167 -36.5 -103.5v-319h-93v539zM128 784.002h86l76 -94l78 94h85l-116 -144h-95z" />
    <glyph glyph-name="Eng" unicode="&#x14a;" horiz-adv-x="738" 
d="M426 -216v87c14 -2 27.333 -3 40 -3c28.667 0 51.167 7.33301 67.5 22s24.5 37 24.5 67v63l-377 537v-557h-98v745h82l391 -551v551h99v-788c0 -56 -17.333 -99.667 -52 -131s-79 -47 -133 -47c-17.333 0 -32 1.66699 -44 5z" />
    <glyph glyph-name="eng" unicode="&#x14b;" horiz-adv-x="600" 
d="M280 -216l0.00195312 83c13.333 -2 26.666 -3 39.999 -3c28.667 0 51.667 8 69 24s26 39 26 69v362c0 44 -11.833 78.667 -35.5 104s-54.834 38 -93.501 38s-70.167 -12.833 -94.5 -38.5s-36.5 -60.167 -36.5 -103.5v-319h-94v539h92v-66
c15.333 24.667 36.333 43.834 63 57.501s56.667 20.5 90 20.5c38 0 72.5 -8.83301 103.5 -26.5s55.333 -41.834 73 -72.501s26.5 -65 26.5 -103v-392c0 -56 -17.333 -99.667 -52 -131s-79 -47 -133 -47c-17.333 0 -32 1.66699 -44 5z" />
    <glyph glyph-name="Omacron" unicode="&#x14c;" horiz-adv-x="878" 
d="M247.5 38c-57.667 33.333 -103.167 79.3311 -136.5 137.998s-50 124.334 -50 197.001s16.667 138.334 50 197.001s78.833 104.5 136.5 137.5s121.5 49.5 191.5 49.5s133.833 -16.667 191.5 -50s103.334 -79.166 137.001 -137.499s50.5 -123.833 50.5 -196.5
s-16.833 -138.334 -50.5 -197.001s-79.334 -104.667 -137.001 -138s-121.5 -50 -191.5 -50s-133.833 16.667 -191.5 50zM195 224.498c24 -45 57.333 -80.5 100 -106.5s90.667 -39 144 -39s101.333 13 144 39s76 61.5 100 106.5s36 94.5 36 148.5s-12 103.333 -36 148
s-57.333 80 -100 106s-90.667 39 -144 39s-101.333 -13 -144 -39s-76 -61.333 -100 -106s-36 -94 -36 -148s12 -103.5 36 -148.5zM306 945.998h267v-73h-267v73z" />
    <glyph glyph-name="omacron" unicode="&#x14d;" horiz-adv-x="654" 
d="M187.5 24.5c-42.333 24.333 -75.8311 58 -100.498 101s-37 91.167 -37 144.5c0 52.667 12.167 100.5 36.5 143.5s57.666 76.667 99.999 101s89.5 36.5 141.5 36.5c51.333 0 98.166 -12.167 140.499 -36.5s75.666 -57.833 99.999 -100.5s36.5 -90.667 36.5 -144
c0 -54 -12.333 -102.333 -37 -145s-58.167 -76.167 -100.5 -100.5s-88.833 -36.5 -139.5 -36.5c-51.333 0 -98.166 12.167 -140.499 36.5zM171.502 172c15.667 -29.333 37.334 -52.333 65.001 -69s58.167 -25 91.5 -25c32.667 0 62.667 8.33301 90 25s48.833 39.667 64.5 69
s23.5 62 23.5 98s-7.83301 68.5 -23.5 97.5s-37.167 51.833 -64.5 68.5s-57.333 25 -90 25c-33.333 0 -63.833 -8.33301 -91.5 -25s-49.334 -39.5 -65.001 -68.5s-23.5 -61.5 -23.5 -97.5s7.83301 -68.667 23.5 -98zM195.002 739h267v-73h-267v73z" />
    <glyph glyph-name="Obreve" unicode="&#x14e;" horiz-adv-x="878" 
d="M247.5 38c-57.667 33.333 -103.167 79.3311 -136.5 137.998s-50 124.334 -50 197.001s16.667 138.334 50 197.001s78.833 104.5 136.5 137.5s121.5 49.5 191.5 49.5s133.833 -16.667 191.5 -50s103.334 -79.166 137.001 -137.499s50.5 -123.833 50.5 -196.5
s-16.833 -138.334 -50.5 -197.001s-79.334 -104.667 -137.001 -138s-121.5 -50 -191.5 -50s-133.833 16.667 -191.5 50zM195 224.498c24 -45 57.333 -80.5 100 -106.5s90.667 -39 144 -39s101.333 13 144 39s76 61.5 100 106.5s36 94.5 36 148.5s-12 103.333 -36 148
s-57.333 80 -100 106s-90.667 39 -144 39s-101.333 -13 -144 -39s-76 -61.333 -100 -106s-36 -94 -36 -148s12 -103.5 36 -148.5zM366.5 865.998c-22.333 12.667 -40.001 29.667 -53.001 51s-19.5 44.333 -19.5 69h71c0 -20 7.16699 -37.333 21.5 -52s31.833 -22 52.5 -22
s38.334 7.33301 53.001 22s22 32 22 52h70c0 -24.667 -6.5 -47.667 -19.5 -69s-30.667 -38.333 -53 -51s-46.5 -19 -72.5 -19s-50.167 6.33301 -72.5 19z" />
    <glyph glyph-name="obreve" unicode="&#x14f;" horiz-adv-x="654" 
d="M187.5 24.5c-42.333 24.333 -75.8311 58 -100.498 101s-37 91.167 -37 144.5c0 52.667 12.167 100.5 36.5 143.5s57.666 76.667 99.999 101s89.5 36.5 141.5 36.5c51.333 0 98.166 -12.167 140.499 -36.5s75.666 -57.833 99.999 -100.5s36.5 -90.667 36.5 -144
c0 -54 -12.333 -102.333 -37 -145s-58.167 -76.167 -100.5 -100.5s-88.833 -36.5 -139.5 -36.5c-51.333 0 -98.166 12.167 -140.499 36.5zM171.502 172c15.667 -29.333 37.334 -52.333 65.001 -69s58.167 -25 91.5 -25c32.667 0 62.667 8.33301 90 25s48.833 39.667 64.5 69
s23.5 62 23.5 98s-7.83301 68.5 -23.5 97.5s-37.167 51.833 -64.5 68.5s-57.333 25 -90 25c-33.333 0 -63.833 -8.33301 -91.5 -25s-49.334 -39.5 -65.001 -68.5s-23.5 -61.5 -23.5 -97.5s7.83301 -68.667 23.5 -98zM254.502 659c-22.333 12.667 -40.001 29.667 -53.001 51
s-19.5 44.333 -19.5 69h71c0 -20 7.16699 -37.333 21.5 -52s31.833 -22 52.5 -22s38.334 7.33301 53.001 22s22 32 22 52h70c0 -24.667 -6.5 -47.667 -19.5 -69s-30.667 -38.333 -53 -51s-46.5 -19 -72.5 -19s-50.167 6.33301 -72.5 19z" />
    <glyph glyph-name="Ohungarumlaut" unicode="&#x150;" horiz-adv-x="878" 
d="M247.5 38c-57.667 33.333 -103.167 79.3311 -136.5 137.998s-50 124.334 -50 197.001s16.667 138.334 50 197.001s78.833 104.5 136.5 137.5s121.5 49.5 191.5 49.5s133.833 -16.667 191.5 -50s103.334 -79.166 137.001 -137.499s50.5 -123.833 50.5 -196.5
s-16.833 -138.334 -50.5 -197.001s-79.334 -104.667 -137.001 -138s-121.5 -50 -191.5 -50s-133.833 16.667 -191.5 50zM195 224.498c24 -45 57.333 -80.5 100 -106.5s90.667 -39 144 -39s101.333 13 144 39s76 61.5 100 106.5s36 94.5 36 148.5s-12 103.333 -36 148
s-57.333 80 -100 106s-90.667 39 -144 39s-101.333 -13 -144 -39s-76 -61.333 -100 -106s-36 -94 -36 -148s12 -103.5 36 -148.5zM394 990.998h99l-92 -144h-80zM549 990.998h100l-93 -144h-80z" />
    <glyph glyph-name="ohungarumlaut" unicode="&#x151;" horiz-adv-x="654" 
d="M187.5 24.5c-42.333 24.333 -75.8311 58 -100.498 101s-37 91.167 -37 144.5c0 52.667 12.167 100.5 36.5 143.5s57.666 76.667 99.999 101s89.5 36.5 141.5 36.5c51.333 0 98.166 -12.167 140.499 -36.5s75.666 -57.833 99.999 -100.5s36.5 -90.667 36.5 -144
c0 -54 -12.333 -102.333 -37 -145s-58.167 -76.167 -100.5 -100.5s-88.833 -36.5 -139.5 -36.5c-51.333 0 -98.166 12.167 -140.499 36.5zM171.502 172c15.667 -29.333 37.334 -52.333 65.001 -69s58.167 -25 91.5 -25c32.667 0 62.667 8.33301 90 25s48.833 39.667 64.5 69
s23.5 62 23.5 98s-7.83301 68.5 -23.5 97.5s-37.167 51.833 -64.5 68.5s-57.333 25 -90 25c-33.333 0 -63.833 -8.33301 -91.5 -25s-49.334 -39.5 -65.001 -68.5s-23.5 -61.5 -23.5 -97.5s7.83301 -68.667 23.5 -98zM283.002 784h99l-92 -144h-80zM438.002 784h100l-93 -144
h-80z" />
    <glyph glyph-name="OE" unicode="&#x152;" horiz-adv-x="1248" 
d="M247.5 38c-57.667 33.333 -103.167 79.3311 -136.5 137.998s-50 124.334 -50 197.001s16.667 138.334 50 197.001s78.833 104.5 136.5 137.5s121.5 49.5 191.5 49.5c56.667 0 109.834 -11.5 159.501 -34.5s91.5 -55.167 125.5 -96.5v119h485v-90h-386v-236h366v-90h-366
v-239h386v-90h-485v119c-34 -41.333 -75.833 -73.5 -125.5 -96.5s-102.834 -34.5 -159.501 -34.5c-70 0 -133.833 16.667 -191.5 50zM195 224.498c24 -45 57.333 -80.5 100 -106.5s90.667 -39 144 -39s101.333 13 144 39s76 61.5 100 106.5s36 94.5 36 148.5
s-12 103.333 -36 148s-57.333 80 -100 106s-90.667 39 -144 39s-101.333 -13 -144 -39s-76 -61.333 -100 -106s-36 -94 -36 -148s12 -103.5 36 -148.5z" />
    <glyph glyph-name="oe" unicode="&#x153;" horiz-adv-x="1075" 
d="M187.5 24.5c-42.333 24.333 -75.834 58 -100.501 101s-37 91.167 -37 144.5c0 52.667 12.167 100.5 36.5 143.5s57.666 76.667 99.999 101s89.5 36.5 141.5 36.5c47.333 0 91 -10.5 131 -31.5s72.333 -50.167 97 -87.5c23.333 37.333 54 66.5 92 87.5
s79.667 31.5 125 31.5c51.333 0 96.166 -12 134.499 -36s67.666 -55.833 87.999 -95.5s30.5 -82.167 30.5 -127.5c0 -15.333 -1.66699 -32 -5 -50h-412c1.33301 -34 10 -63.667 26 -89s36.833 -45 62.5 -59s53.834 -21 84.501 -21c65.333 0 115.666 29.667 150.999 89
l78 -40c-17.333 -38.667 -46.666 -70.667 -87.999 -96s-88.666 -38 -141.999 -38c-47.333 0 -90.5 10.833 -129.5 32.5s-70.5 51.167 -94.5 88.5c-25.333 -38 -58.166 -67.667 -98.499 -89s-83.833 -32 -130.5 -32c-51.333 0 -98.166 12.167 -140.499 36.5zM171.499 172
c15.667 -29.333 37.334 -52.333 65.001 -69s58.167 -25 91.5 -25c32.667 0 62.667 8.33301 90 25s48.833 39.667 64.5 69s23.5 62 23.5 98s-7.83301 68.5 -23.5 97.5s-37.167 51.833 -64.5 68.5s-57.333 25 -90 25c-33.333 0 -63.833 -8.33301 -91.5 -25
s-49.334 -39.5 -65.001 -68.5s-23.5 -61.5 -23.5 -97.5s7.83301 -68.667 23.5 -98zM924.999 322c0 28 -6.99902 53 -20.999 75s-32.5 39.333 -55.5 52s-48.167 19 -75.5 19c-40.667 0 -76.334 -13.333 -107.001 -40s-49 -62 -55 -106h314z" />
    <glyph glyph-name="Racute" unicode="&#x154;" horiz-adv-x="648" 
d="M83 745l262.999 0.00195312c49.333 0 92.833 -9.33301 130.5 -28s66.834 -45.334 87.501 -80.001s31 -75.334 31 -122.001c0 -52 -13.167 -96.5 -39.5 -133.5s-62.5 -63.5 -108.5 -79.5l173 -302h-114l-161 285h-164v-285h-98v745zM348.999 375.002
c44 0 79.5 12.667 106.5 38s40.5 59.333 40.5 102s-13.5 76.667 -40.5 102s-62.5 38 -106.5 38h-168v-280h168zM352.999 991.002h99l-92 -144h-80z" />
    <glyph glyph-name="racute" unicode="&#x155;" horiz-adv-x="350" 
d="M72 539h91v-64c28 46.667 75.667 70 143 70h33v-88h-47c-38.667 0 -69.5 -12 -92.5 -36s-34.5 -57.333 -34.5 -100v-321h-93v539zM238 784h99l-92 -144h-80z" />
    <glyph glyph-name="uni0156" unicode="&#x156;" horiz-adv-x="648" 
d="M83 745l262.999 0.00195312c49.333 0 92.833 -9.33301 130.5 -28s66.834 -45.334 87.501 -80.001s31 -75.334 31 -122.001c0 -52 -13.167 -96.5 -39.5 -133.5s-62.5 -63.5 -108.5 -79.5l173 -302h-114l-161 285h-164v-285h-98v745zM348.999 375.002
c44 0 79.5 12.667 106.5 38s40.5 59.333 40.5 102s-13.5 76.667 -40.5 102s-62.5 38 -106.5 38h-168v-280h168zM330.999 -199.998h-48.999v120h97v-85c0 -48.667 -9.83301 -87.5 -29.5 -116.5s-48.834 -48.167 -87.501 -57.5v41c42 11.333 65 44 69 98z" />
    <glyph glyph-name="uni0157" unicode="&#x157;" horiz-adv-x="350" 
d="M72 539h91v-64c28 46.667 75.667 70 143 70h33v-88h-47c-38.667 0 -69.5 -12 -92.5 -36s-34.5 -57.333 -34.5 -100v-321h-93v539zM129 -200h-48.999v120h97v-85c0 -48.667 -9.83301 -87.5 -29.5 -116.5s-48.834 -48.167 -87.501 -57.5v41c42 11.333 65 44 69 98z" />
    <glyph glyph-name="Rcaron" unicode="&#x158;" horiz-adv-x="648" 
d="M83 745l262.999 0.00195312c49.333 0 92.833 -9.33301 130.5 -28s66.834 -45.334 87.501 -80.001s31 -75.334 31 -122.001c0 -52 -13.167 -96.5 -39.5 -133.5s-62.5 -63.5 -108.5 -79.5l173 -302h-114l-161 285h-164v-285h-98v745zM348.999 375.002
c44 0 79.5 12.667 106.5 38s40.5 59.333 40.5 102s-13.5 76.667 -40.5 102s-62.5 38 -106.5 38h-168v-280h168zM157.999 991.002h86l76 -94l78 94h85l-116 -144h-95z" />
    <glyph glyph-name="rcaron" unicode="&#x159;" horiz-adv-x="350" 
d="M72 539h91v-64c28 46.667 75.667 70 143 70h33v-88h-47c-38.667 0 -69.5 -12 -92.5 -36s-34.5 -57.333 -34.5 -100v-321h-93v539zM43 784h86l76 -94l78 94h85l-116 -144h-95z" />
    <glyph glyph-name="Sacute" unicode="&#x15a;" horiz-adv-x="646" 
d="M203 16.5c-40 19 -72.9951 44.335 -98.9951 76.002s-44 65.834 -54 102.501l90 28c14 -44.667 40.167 -80 78.5 -106s78.5 -39 120.5 -39c28 0 53.167 5.66699 75.5 17s39.833 25.666 52.5 42.999s19 34.666 19 51.999c0 27.333 -9.5 52 -28.5 74
s-45.167 36.667 -78.5 44l-126 28c-53.333 11.333 -95.5 36.833 -126.5 76.5s-46.5 85.167 -46.5 136.5c0 39.333 10.167 74.833 30.5 106.5s48.166 56.5 83.499 74.5s74.333 27 117 27c47.333 0 89.5 -8.33301 126.5 -25s67.333 -38.834 91 -66.501s40.5 -57.5 50.5 -89.5
l-89 -32c-14.667 39.333 -38.834 69.666 -72.501 90.999s-68.834 32 -105.501 32c-25.333 0 -48 -5.5 -68 -16.5s-35.667 -25.167 -47 -42.5s-17 -35 -17 -53c0 -28 10.167 -53.5 30.5 -76.5s45.833 -37.833 76.5 -44.5l114 -26c60 -13.333 106 -38.666 138 -75.999
s48 -82 48 -134c0 -39.333 -10.333 -75 -31 -107s-49.834 -57.167 -87.501 -75.5s-80.834 -27.5 -129.501 -27.5c-50.667 0 -96 9.5 -136 28.5zM356.005 991.002h99l-92 -144h-80z" />
    <glyph glyph-name="sacute" unicode="&#x15b;" horiz-adv-x="511" 
d="M127 26.5c-40 25.667 -68.667 60.4971 -86 104.497l75 38c15.333 -31.333 36.333 -56 63 -74s55.667 -27 87 -27c30 0 54.667 7 74 21s29 32.333 29 55c0 22 -8.66699 39.833 -26 53.5s-36 21.834 -56 24.501l-81 11c-48 12 -84 32 -108 60s-36 61 -36 99
c0 31.333 8.16699 59 24.5 83s39 42.667 68 56s61.167 20 96.5 20c46.667 0 88.5 -11.667 125.5 -35s63.5 -55.666 79.5 -96.999l-74 -38c-13.333 27.333 -31.833 49 -55.5 65s-49.834 24 -78.501 24c-27.333 0 -49.333 -6.66699 -66 -20s-25 -30.666 -25 -51.999
c0 -22 7.83301 -39.5 23.5 -52.5s32.834 -21.167 51.501 -24.5l89 -12c44.667 -12 79.5 -32.5 104.5 -61.5s37.5 -62.5 37.5 -100.5c0 -30.667 -8.33301 -58 -25 -82s-40 -42.833 -70 -56.5s-64.333 -20.5 -103 -20.5c-52 0 -98 12.833 -138 38.5zM289 783.997h99l-92 -144
h-80z" />
    <glyph glyph-name="Scircumflex" unicode="&#x15c;" horiz-adv-x="646" 
d="M203 16.5c-40 19 -72.9951 44.335 -98.9951 76.002s-44 65.834 -54 102.501l90 28c14 -44.667 40.167 -80 78.5 -106s78.5 -39 120.5 -39c28 0 53.167 5.66699 75.5 17s39.833 25.666 52.5 42.999s19 34.666 19 51.999c0 27.333 -9.5 52 -28.5 74
s-45.167 36.667 -78.5 44l-126 28c-53.333 11.333 -95.5 36.833 -126.5 76.5s-46.5 85.167 -46.5 136.5c0 39.333 10.167 74.833 30.5 106.5s48.166 56.5 83.499 74.5s74.333 27 117 27c47.333 0 89.5 -8.33301 126.5 -25s67.333 -38.834 91 -66.501s40.5 -57.5 50.5 -89.5
l-89 -32c-14.667 39.333 -38.834 69.666 -72.501 90.999s-68.834 32 -105.501 32c-25.333 0 -48 -5.5 -68 -16.5s-35.667 -25.167 -47 -42.5s-17 -35 -17 -53c0 -28 10.167 -53.5 30.5 -76.5s45.833 -37.833 76.5 -44.5l114 -26c60 -13.333 106 -38.666 138 -75.999
s48 -82 48 -134c0 -39.333 -10.333 -75 -31 -107s-49.834 -57.167 -87.501 -75.5s-80.834 -27.5 -129.501 -27.5c-50.667 0 -96 9.5 -136 28.5zM275.005 991.002h95l116 -144h-85l-78 94l-76 -94h-86z" />
    <glyph glyph-name="scircumflex" unicode="&#x15d;" horiz-adv-x="511" 
d="M127 26.5c-40 25.667 -68.667 60.4971 -86 104.497l75 38c15.333 -31.333 36.333 -56 63 -74s55.667 -27 87 -27c30 0 54.667 7 74 21s29 32.333 29 55c0 22 -8.66699 39.833 -26 53.5s-36 21.834 -56 24.501l-81 11c-48 12 -84 32 -108 60s-36 61 -36 99
c0 31.333 8.16699 59 24.5 83s39 42.667 68 56s61.167 20 96.5 20c46.667 0 88.5 -11.667 125.5 -35s63.5 -55.666 79.5 -96.999l-74 -38c-13.333 27.333 -31.833 49 -55.5 65s-49.834 24 -78.501 24c-27.333 0 -49.333 -6.66699 -66 -20s-25 -30.666 -25 -51.999
c0 -22 7.83301 -39.5 23.5 -52.5s32.834 -21.167 51.501 -24.5l89 -12c44.667 -12 79.5 -32.5 104.5 -61.5s37.5 -62.5 37.5 -100.5c0 -30.667 -8.33301 -58 -25 -82s-40 -42.833 -70 -56.5s-64.333 -20.5 -103 -20.5c-52 0 -98 12.833 -138 38.5zM207 783.997h95l116 -144
h-85l-78 94l-76 -94h-86z" />
    <glyph glyph-name="Scedilla" unicode="&#x15e;" horiz-adv-x="646" 
d="M290 -226c-14.667 2.66699 -26.9971 6.00293 -36.9971 10.0029l12 50c18 -6.66699 38 -10 60 -10c15.333 0 27.333 3.33301 36 10s13 15.667 13 27c0 10 -3 17.667 -9 23s-14.667 8 -26 8c-16 0 -29.333 -2.66699 -40 -8l-21 9l12 98c-62 9.33301 -114 33 -156 71
s-70 82.333 -84 133l90 28c14 -44.667 40.167 -80 78.5 -106s78.5 -39 120.5 -39c28 0 53.167 5.66699 75.5 17s39.833 25.666 52.5 42.999s19 34.666 19 51.999c0 27.333 -9.5 52 -28.5 74s-45.167 36.667 -78.5 44l-126 28c-53.333 11.333 -95.5 36.833 -126.5 76.5
s-46.5 85.167 -46.5 136.5c0 39.333 10.167 74.833 30.5 106.5s48.166 56.5 83.499 74.5s74.333 27 117 27c47.333 0 89.5 -8.33301 126.5 -25s67.333 -38.834 91 -66.501s40.5 -57.5 50.5 -89.5l-89 -32c-14.667 39.333 -38.834 69.666 -72.501 90.999
s-68.834 32 -105.501 32c-25.333 0 -48 -5.5 -68 -16.5s-35.667 -25.167 -47 -42.5s-17 -35 -17 -53c0 -28 10.167 -53.5 30.5 -76.5s45.833 -37.833 76.5 -44.5l114 -26c60 -13.333 106 -38.666 138 -75.999s48 -82 48 -134c0 -38 -9.66699 -72.5 -29 -103.5
s-46.666 -56 -81.999 -75s-76.333 -29.5 -123 -31.5l-5 -50c8 1.33301 14.333 2 19 2c24 0 43.833 -7 59.5 -21s23.5 -32.333 23.5 -55c0 -27.333 -10.5 -49.833 -31.5 -67.5s-50.167 -26.5 -87.5 -26.5c-12.667 0 -26.334 1.33301 -41.001 4z" />
    <glyph glyph-name="scedilla" unicode="&#x15f;" horiz-adv-x="511" 
d="M223 -226c-14.667 2.66699 -27 5.99707 -37 9.99707l12 50c18 -6.66699 38 -10 60 -10c15.333 0 27.333 3.33301 36 10s13 15.667 13 27c0 10 -3 17.667 -9 23s-14.667 8 -26 8c-16 0 -29.333 -2.66699 -40 -8l-21 9l12 98c-42.667 6.66699 -80 22.167 -112 46.5
s-55.333 55.5 -70 93.5l75 38c15.333 -31.333 36.333 -56 63 -74s55.667 -27 87 -27c30 0 54.667 7 74 21s29 32.333 29 55c0 22 -8.66699 39.833 -26 53.5s-36 21.834 -56 24.501l-81 11c-48 12 -84 32 -108 60s-36 61 -36 99c0 31.333 8.16699 59 24.5 83s39 42.667 68 56
s61.167 20 96.5 20c46.667 0 88.5 -11.667 125.5 -35s63.5 -55.666 79.5 -96.999l-74 -38c-13.333 27.333 -31.833 49 -55.5 65s-49.834 24 -78.501 24c-27.333 0 -49.333 -6.66699 -66 -20s-25 -30.666 -25 -51.999c0 -22 7.83301 -39.5 23.5 -52.5
s32.834 -21.167 51.501 -24.5l89 -12c44.667 -12 79.5 -32.5 104.5 -61.5s37.5 -62.5 37.5 -100.5c0 -43.333 -16.167 -79.5 -48.5 -108.5s-75.166 -45.5 -128.499 -49.5l-5 -51c8 1.33301 14.333 2 19 2c24 0 43.833 -7 59.5 -21s23.5 -32.333 23.5 -55
c0 -27.333 -10.5 -49.833 -31.5 -67.5s-50.167 -26.5 -87.5 -26.5c-12.667 0 -26.334 1.33301 -41.001 4z" />
    <glyph glyph-name="Scaron" unicode="&#x160;" horiz-adv-x="646" 
d="M203 16.5c-40 19 -72.9951 44.335 -98.9951 76.002s-44 65.834 -54 102.501l90 28c14 -44.667 40.167 -80 78.5 -106s78.5 -39 120.5 -39c28 0 53.167 5.66699 75.5 17s39.833 25.666 52.5 42.999s19 34.666 19 51.999c0 27.333 -9.5 52 -28.5 74
s-45.167 36.667 -78.5 44l-126 28c-53.333 11.333 -95.5 36.833 -126.5 76.5s-46.5 85.167 -46.5 136.5c0 39.333 10.167 74.833 30.5 106.5s48.166 56.5 83.499 74.5s74.333 27 117 27c47.333 0 89.5 -8.33301 126.5 -25s67.333 -38.834 91 -66.501s40.5 -57.5 50.5 -89.5
l-89 -32c-14.667 39.333 -38.834 69.666 -72.501 90.999s-68.834 32 -105.501 32c-25.333 0 -48 -5.5 -68 -16.5s-35.667 -25.167 -47 -42.5s-17 -35 -17 -53c0 -28 10.167 -53.5 30.5 -76.5s45.833 -37.833 76.5 -44.5l114 -26c60 -13.333 106 -38.666 138 -75.999
s48 -82 48 -134c0 -39.333 -10.333 -75 -31 -107s-49.834 -57.167 -87.501 -75.5s-80.834 -27.5 -129.501 -27.5c-50.667 0 -96 9.5 -136 28.5zM161.005 991.002h86l76 -94l78 94h85l-116 -144h-95z" />
    <glyph glyph-name="scaron" unicode="&#x161;" horiz-adv-x="511" 
d="M127 26.5c-40 25.667 -68.667 60.4971 -86 104.497l75 38c15.333 -31.333 36.333 -56 63 -74s55.667 -27 87 -27c30 0 54.667 7 74 21s29 32.333 29 55c0 22 -8.66699 39.833 -26 53.5s-36 21.834 -56 24.501l-81 11c-48 12 -84 32 -108 60s-36 61 -36 99
c0 31.333 8.16699 59 24.5 83s39 42.667 68 56s61.167 20 96.5 20c46.667 0 88.5 -11.667 125.5 -35s63.5 -55.666 79.5 -96.999l-74 -38c-13.333 27.333 -31.833 49 -55.5 65s-49.834 24 -78.501 24c-27.333 0 -49.333 -6.66699 -66 -20s-25 -30.666 -25 -51.999
c0 -22 7.83301 -39.5 23.5 -52.5s32.834 -21.167 51.501 -24.5l89 -12c44.667 -12 79.5 -32.5 104.5 -61.5s37.5 -62.5 37.5 -100.5c0 -30.667 -8.33301 -58 -25 -82s-40 -42.833 -70 -56.5s-64.333 -20.5 -103 -20.5c-52 0 -98 12.833 -138 38.5zM93 783.997h86l76 -94
l78 94h85l-116 -144h-95z" />
    <glyph glyph-name="uni0162" unicode="&#x162;" horiz-adv-x="522" 
d="M213 655h-201.999v90h500v-90h-199v-655h-20l-6 -62c8 1.33301 14.333 2 19 2c24 0 43.833 -7 59.5 -21s23.5 -32.333 23.5 -55c0 -27.333 -10.5 -49.833 -31.5 -67.5s-50.167 -26.5 -87.5 -26.5c-12.667 0 -26.334 1.33301 -41.001 4s-27 6 -37 10l12 50
c18 -6.66699 38 -10 60 -10c15.333 0 27.333 3.33301 36 10s13 15.667 13 27c0 10 -3 17.667 -9 23s-14.667 8 -26 8c-16 0 -29.333 -2.66699 -40 -8l-21 9l13 107h-16v655z" />
    <glyph glyph-name="uni0163" unicode="&#x163;" horiz-adv-x="396" 
d="M250 -226c-14.667 2.66699 -27 6 -37 10l12 50c18 -6.66699 38 -10 60 -10c15.333 0 27.333 3.33301 36 10s13 15.667 13 27c0 10 -3 17.667 -9 23s-14.667 8 -26 8c-16 0 -29.333 -2.66699 -40 -8l-21 9l13 104c-40 7.33301 -70.667 25.5 -92 54.5s-32 67.167 -32 114.5
v284h-98v89h20c24 0 43 7.16699 57 21.5s21 33.833 21 58.5v44h93v-124h121v-89h-121v-281c0 -60 30 -90 90 -90c12.667 0 25 1 37 3v-83c-13.333 -2.66699 -24.666 -4 -33.999 -4l-5 -57c8 1.33301 14.333 2 19 2c24 0 43.833 -7 59.5 -21s23.5 -32.333 23.5 -55
c0 -27.333 -10.5 -49.833 -31.5 -67.5s-50.167 -26.5 -87.5 -26.5c-12.667 0 -26.334 1.33301 -41.001 4z" />
    <glyph glyph-name="Tcaron" unicode="&#x164;" horiz-adv-x="522" 
d="M213 655h-202v90h500v-90h-199v-655h-99v655zM99 991h86l76 -94l78 94h85l-116 -144h-95z" />
    <glyph glyph-name="tcaron" unicode="&#x165;" horiz-adv-x="426" 
d="M169.5 38.5c-28.333 29.667 -42.5 72.167 -42.5 127.5v284h-98v89h20c24 0 43 7.16699 57 21.5s21 33.833 21 58.5v44h93v-124h121v-89h-121v-281c0 -60 30 -90 90 -90c12.667 0 25 1 37 3v-83c-14 -3.33301 -32.667 -5 -56 -5c-52.667 0 -93.167 14.833 -121.5 44.5z
M301 839h100l-14 -184h-71z" />
    <glyph glyph-name="Tbar" unicode="&#x166;" horiz-adv-x="522" 
d="M213 337h-139v71h139v247h-202v90h500v-90h-199v-247h137v-71h-137v-337h-99v337z" />
    <glyph glyph-name="tbar" unicode="&#x167;" horiz-adv-x="396" 
d="M169.5 38.5c-28.333 29.667 -42.5 72.167 -42.5 127.5v58h-95v89h95v137h-98v89h20c24 0 43 7.16699 57 21.5s21 33.833 21 58.5v44h93v-124h121v-89h-121v-137h123v-89h-123v-55c0 -60 30 -90 90 -90c12.667 0 25 1 37 3v-83c-14 -3.33301 -32.667 -5 -56 -5
c-52.667 0 -93.167 14.833 -121.5 44.5z" />
    <glyph glyph-name="Utilde" unicode="&#x168;" horiz-adv-x="706" 
d="M210.5 22c-41.667 22.667 -74.167 54 -97.5 94s-35 85 -35 135v494h99v-492c0 -51.333 16.333 -93.166 49 -125.499s75 -48.5 127 -48.5s94.333 16.167 127 48.5s49 74.166 49 125.499v492h99v-494c0 -50 -11.667 -95 -35 -135s-55.833 -71.333 -97.5 -94
s-89.167 -34 -142.5 -34s-100.833 11.333 -142.5 34zM378.5 885c-10.333 4.66699 -21.833 11.667 -34.5 21c-9.33301 6 -16.666 10.5 -21.999 13.5s-11.666 4.5 -18.999 4.5c-18.667 0 -29.667 -14 -33 -42h-63c0.666992 34.667 8.83398 61.5 24.501 80.5
s36.167 28.5 61.5 28.5c15.333 0 28 -2.33301 38 -7s20.667 -11.334 32 -20.001c9.33301 -6.66699 16.833 -11.5 22.5 -14.5s12.167 -4.5 19.5 -4.5c9.33301 0 16.666 3.83301 21.999 11.5s8.66602 17.5 9.99902 29.5h64
c-0.666992 -35.333 -8.33398 -62.166 -23.001 -80.499s-34.667 -27.5 -60 -27.5c-16 0 -29.167 2.33301 -39.5 7z" />
    <glyph glyph-name="utilde" unicode="&#x169;" 
d="M159 15c-30.667 18 -54.666 43.166 -71.999 75.499s-26 69.5 -26 111.5v337h93v-327c0 -40 12 -72.333 36 -97s55.333 -37 94 -37s70 12.833 94 38.5s36 60.167 36 103.5v319h94v-539h-91v66c-16 -25.333 -37.333 -44.666 -64 -57.999s-56.667 -20 -90 -20
c-38.667 0 -73.334 9 -104.001 27zM315.501 677.999c-10.333 4.66699 -21.833 11.667 -34.5 21c-9.33301 6 -16.666 10.5 -21.999 13.5s-11.666 4.5 -18.999 4.5c-18.667 0 -29.667 -14 -33 -42h-63c0.666992 34.667 8.83398 61.5 24.501 80.5s36.167 28.5 61.5 28.5
c15.333 0 28 -2.33301 38 -7s20.667 -11.334 32 -20.001c9.33301 -6.66699 16.833 -11.5 22.5 -14.5s12.167 -4.5 19.5 -4.5c9.33301 0 16.666 3.83301 21.999 11.5s8.66602 17.5 9.99902 29.5h64c-0.666992 -35.333 -8.33398 -62.166 -23.001 -80.499
s-34.667 -27.5 -60 -27.5c-16 0 -29.167 2.33301 -39.5 7z" />
    <glyph glyph-name="Umacron" unicode="&#x16a;" horiz-adv-x="706" 
d="M210.5 22c-41.667 22.667 -74.167 54 -97.5 94s-35 85 -35 135v494h99v-492c0 -51.333 16.333 -93.166 49 -125.499s75 -48.5 127 -48.5s94.333 16.167 127 48.5s49 74.166 49 125.499v492h99v-494c0 -50 -11.667 -95 -35 -135s-55.833 -71.333 -97.5 -94
s-89.167 -34 -142.5 -34s-100.833 11.333 -142.5 34zM220 946h267v-73h-267v73z" />
    <glyph glyph-name="umacron" unicode="&#x16b;" 
d="M159 15c-30.667 18 -54.666 43.166 -71.999 75.499s-26 69.5 -26 111.5v337h93v-327c0 -40 12 -72.333 36 -97s55.333 -37 94 -37s70 12.833 94 38.5s36 60.167 36 103.5v319h94v-539h-91v66c-16 -25.333 -37.333 -44.666 -64 -57.999s-56.667 -20 -90 -20
c-38.667 0 -73.334 9 -104.001 27zM157.001 738.999h267v-73h-267v73z" />
    <glyph glyph-name="Ubreve" unicode="&#x16c;" horiz-adv-x="706" 
d="M210.5 22c-41.667 22.667 -74.167 54 -97.5 94s-35 85 -35 135v494h99v-492c0 -51.333 16.333 -93.166 49 -125.499s75 -48.5 127 -48.5s94.333 16.167 127 48.5s49 74.166 49 125.499v492h99v-494c0 -50 -11.667 -95 -35 -135s-55.833 -71.333 -97.5 -94
s-89.167 -34 -142.5 -34s-100.833 11.333 -142.5 34zM280.5 866c-22.333 12.667 -40.001 29.667 -53.001 51s-19.5 44.333 -19.5 69h71c0 -20 7.16699 -37.333 21.5 -52s31.833 -22 52.5 -22s38.334 7.33301 53.001 22s22 32 22 52h70c0 -24.667 -6.5 -47.667 -19.5 -69
s-30.667 -38.333 -53 -51s-46.5 -19 -72.5 -19s-50.167 6.33301 -72.5 19z" />
    <glyph glyph-name="ubreve" unicode="&#x16d;" 
d="M159 15c-30.667 18 -54.666 43.166 -71.999 75.499s-26 69.5 -26 111.5v337h93v-327c0 -40 12 -72.333 36 -97s55.333 -37 94 -37s70 12.833 94 38.5s36 60.167 36 103.5v319h94v-539h-91v66c-16 -25.333 -37.333 -44.666 -64 -57.999s-56.667 -20 -90 -20
c-38.667 0 -73.334 9 -104.001 27zM217.501 658.999c-22.333 12.667 -40.001 29.667 -53.001 51s-19.5 44.333 -19.5 69h71c0 -20 7.16699 -37.333 21.5 -52s31.833 -22 52.5 -22s38.334 7.33301 53.001 22s22 32 22 52h70c0 -24.667 -6.5 -47.667 -19.5 -69
s-30.667 -38.333 -53 -51s-46.5 -19 -72.5 -19s-50.167 6.33301 -72.5 19z" />
    <glyph glyph-name="Uring" unicode="&#x16e;" horiz-adv-x="706" 
d="M210.5 22c-41.667 22.667 -74.167 54 -97.5 94s-35 85 -35 135v494h99v-492c0 -51.333 16.333 -93.166 49 -125.499s75 -48.5 127 -48.5s94.333 16.167 127 48.5s49 74.166 49 125.499v492h99v-494c0 -50 -11.667 -95 -35 -135s-55.833 -71.333 -97.5 -94
s-89.167 -34 -142.5 -34s-100.833 11.333 -142.5 34zM265.5 830c-23.667 23.333 -35.5 52 -35.5 86c0 34.667 11.833 63.667 35.5 87s52.834 35 87.501 35s63.667 -11.667 87 -35s35 -52.333 35 -87c0 -34 -11.667 -62.667 -35 -86s-52.333 -35 -87 -35
s-63.834 11.667 -87.501 35zM308 871.5c12 -11.667 26.667 -17.499 44 -17.499s32 5.83301 44 17.5s18 26.5 18 44.5s-6 33 -18 45s-26.667 18 -44 18s-32 -5.83301 -44 -17.5s-18 -26.834 -18 -45.501c0 -18 6 -32.833 18 -44.5z" />
    <glyph glyph-name="uring" unicode="&#x16f;" 
d="M159 15c-30.667 18 -54.666 43.166 -71.999 75.499s-26 69.5 -26 111.5v337h93v-327c0 -40 12 -72.333 36 -97s55.333 -37 94 -37s70 12.833 94 38.5s36 60.167 36 103.5v319h94v-539h-91v66c-16 -25.333 -37.333 -44.666 -64 -57.999s-56.667 -20 -90 -20
c-38.667 0 -73.334 9 -104.001 27zM203.501 622.999c-23.667 23.333 -35.5 52 -35.5 86c0 34.667 11.833 63.667 35.5 87s52.834 35 87.501 35s63.667 -11.667 87 -35s35 -52.333 35 -87c0 -34 -11.667 -62.667 -35 -86s-52.333 -35 -87 -35s-63.834 11.667 -87.501 35z
M246.001 664.499c12 -11.667 26.667 -17.499 44 -17.499s32 5.83301 44 17.5s18 26.5 18 44.5s-6 33 -18 45s-26.667 18 -44 18s-32 -5.83301 -44 -17.5s-18 -26.834 -18 -45.501c0 -18 6 -32.833 18 -44.5z" />
    <glyph glyph-name="Uhungarumlaut" unicode="&#x170;" horiz-adv-x="706" 
d="M210.5 22c-41.667 22.667 -74.167 54 -97.5 94s-35 85 -35 135v494h99v-492c0 -51.333 16.333 -93.166 49 -125.499s75 -48.5 127 -48.5s94.333 16.167 127 48.5s49 74.166 49 125.499v492h99v-494c0 -50 -11.667 -95 -35 -135s-55.833 -71.333 -97.5 -94
s-89.167 -34 -142.5 -34s-100.833 11.333 -142.5 34zM308 991h99l-92 -144h-80zM463 991h100l-93 -144h-80z" />
    <glyph glyph-name="uhungarumlaut" unicode="&#x171;" 
d="M159 15c-30.667 18 -54.666 43.166 -71.999 75.499s-26 69.5 -26 111.5v337h93v-327c0 -40 12 -72.333 36 -97s55.333 -37 94 -37s70 12.833 94 38.5s36 60.167 36 103.5v319h94v-539h-91v66c-16 -25.333 -37.333 -44.666 -64 -57.999s-56.667 -20 -90 -20
c-38.667 0 -73.334 9 -104.001 27zM246.001 783.999h99l-92 -144h-80zM401.001 783.999h100l-93 -144h-80z" />
    <glyph glyph-name="Uogonek" unicode="&#x172;" horiz-adv-x="706" 
d="M297 -155.5c-21.333 17 -32 39.498 -32 67.498c0 30.667 12.333 57.334 37 80.001c-44.667 6.66699 -83.834 21.834 -117.501 45.501s-59.834 54 -78.501 91s-28 77.833 -28 122.5v494h99v-492c0 -51.333 16.333 -93.166 49 -125.499s75 -48.5 127 -48.5
s94.333 16.167 127 48.5s49 74.166 49 125.499v492h99v-494c0 -48.667 -10.833 -92.5 -32.5 -131.5s-52.167 -70 -91.5 -93s-84.333 -35.833 -135 -38.5c-24.667 -17.333 -37 -37.333 -37 -60c0 -14.667 4.83301 -26.167 14.5 -34.5s22.834 -12.5 39.501 -12.5
c24 0 49.333 9.33301 76 28l30 -48c-33.333 -28 -71 -42 -113 -42c-33.333 0 -60.666 8.5 -81.999 25.5z" />
    <glyph glyph-name="uogonek" unicode="&#x173;" 
d="M159 15c-30.667 18 -54.667 43.166 -72 75.499s-26 69.5 -26 111.5v337h93v-327c0 -40 12 -72.333 36 -97s55.333 -37 94 -37s70 12.833 94 38.5s36 60.167 36 103.5v319h94v-539h-50c-30.667 -19.333 -46 -41.333 -46 -66c0 -14.667 4.83301 -26.167 14.5 -34.5
s22.834 -12.5 39.501 -12.5c24 0 49.333 9.33301 76 28l30 -48c-33.333 -28 -71 -42 -113 -42c-33.333 0 -60.666 8.5 -81.999 25.5s-32 39.5 -32 67.5c0 21.333 6.16699 41 18.5 59s30.166 33 53.499 45v44c-16 -25.333 -37.333 -44.666 -64 -57.999s-56.667 -20 -90 -20
c-38.667 0 -73.334 9 -104.001 27z" />
    <glyph glyph-name="Wcircumflex" unicode="&#x174;" horiz-adv-x="996" 
d="M11 745h103l163 -612l170 612h103l168 -610l164 610h103l-209 -745h-109l-169 606l-169 -606h-109zM450 991h95l116 -144h-85l-78 94l-76 -94h-86z" />
    <glyph glyph-name="wcircumflex" unicode="&#x175;" horiz-adv-x="826" 
d="M11 539h103l129 -395l126 395h88l126 -395l130 395h102l-185 -539h-89l-128 406l-128 -406h-89zM365 784h95l116 -144h-85l-78 94l-76 -94h-86z" />
    <glyph glyph-name="Ycircumflex" unicode="&#x176;" horiz-adv-x="635" 
d="M269 341l-258 404h111l196 -308l195 308h111l-256 -404v-341h-99v341zM270 991h95l116 -144h-85l-78 94l-76 -94h-86z" />
    <glyph glyph-name="ycircumflex" unicode="&#x177;" horiz-adv-x="553" 
d="M228 784h95l116 -144h-85l-78 94l-76 -94h-86z" />
    <glyph glyph-name="Ydieresis" unicode="&#x178;" horiz-adv-x="635" 
d="M269 341l-258 404h111l196 -308l195 308h111l-256 -404v-341h-99v341zM187 880.5c-12 12.333 -18 27.167 -18 44.5s6 32 18 44s27 18 45 18c17.333 0 32 -6 44 -18s18 -26.667 18 -44c0 -18 -6 -33 -18 -45s-26.667 -18 -44 -18c-18 0 -33 6.16699 -45 18.5zM362 969.001
c12 12 27 18.001 45 18.001c17.333 0 32 -6 44 -18s18 -26.667 18 -44c0 -18 -6 -33 -18 -45s-26.667 -18 -44 -18c-18 0 -33 6.16699 -45 18.5s-18 27.166 -18 44.499s6 32 18 44z" />
    <glyph glyph-name="Zacute" unicode="&#x179;" 
d="M19 72l405 583h-381v90h508v-72l-403 -583h413v-90h-542v72zM323 991h99l-92 -144h-80z" />
    <glyph glyph-name="zacute" unicode="&#x17a;" horiz-adv-x="460" 
d="M19 79l294 371h-278v89h404v-79l-291 -371h293v-89h-422v79zM260 784h99l-92 -144h-80z" />
    <glyph glyph-name="Zdotaccent" unicode="&#x17b;" 
d="M19 72l405 583h-381v90h508v-72l-403 -583h413v-90h-542v72zM246 880.5c-12 12.333 -18 27.167 -18 44.5s6 32 18 44s27 18 45 18c17.333 0 32 -6 44 -18s18 -26.667 18 -44c0 -18 -6 -33 -18 -45s-26.667 -18 -44 -18c-18 0 -33 6.16699 -45 18.5z" />
    <glyph glyph-name="zdotaccent" unicode="&#x17c;" horiz-adv-x="460" 
d="M19 79l294 371h-278v89h404v-79l-291 -371h293v-89h-422v79zM183 673.5c-12 12.333 -18 27.167 -18 44.5s6 32 18 44s27 18 45 18c17.333 0 32 -6 44 -18s18 -26.667 18 -44c0 -18 -6 -33 -18 -45s-26.667 -18 -44 -18c-18 0 -33 6.16699 -45 18.5z" />
    <glyph glyph-name="Zcaron" unicode="&#x17d;" 
d="M19 72l405 583h-381v90h508v-72l-403 -583h413v-90h-542v72zM128 991h86l76 -94l78 94h85l-116 -144h-95z" />
    <glyph glyph-name="zcaron" unicode="&#x17e;" horiz-adv-x="460" 
d="M19 79l294 371h-278v89h404v-79l-291 -371h293v-89h-422v79zM65 784h86l76 -94l78 94h85l-116 -144h-95z" />
    <glyph glyph-name="uni018F" unicode="&#x18f;" horiz-adv-x="826" 
d="M229 34c-52.667 30.667 -93.832 72.8311 -123.499 126.498s-44.5 113.834 -44.5 180.501c0 21.333 2 42.333 6 63h599c-3.33301 49.333 -17.166 94 -41.499 134s-56.833 71.333 -97.5 94s-86 34 -136 34s-94.667 -11.333 -134 -34s-69.666 -54 -90.999 -94l-85 43
c25.333 52.667 66.166 95.167 122.499 127.5s119.166 48.5 188.499 48.5c70.667 0 134.5 -17 191.5 -51s101.667 -80.5 134 -139.5s48.5 -124.833 48.5 -197.5c0 -69.333 -14.833 -133.166 -44.5 -191.499s-71.667 -104.5 -126 -138.5s-116.833 -51 -187.5 -51
c-66.667 0 -126.334 15.333 -179.001 46zM200.002 193.997c20.667 -36 49.5 -64.167 86.5 -84.5s78.833 -30.5 125.5 -30.5c44 0 84.167 9.66699 120.5 29s66 47 89 83s37.5 78.333 43.5 127h-496v-3c0 -44.667 10.333 -85 31 -121z" />
    <glyph glyph-name="florin" unicode="&#x192;" horiz-adv-x="515" 
d="M70 -7v83.001c10 -2 21.667 -3 35 -3c70.667 0 106 36 106 108v151h-128v81h128v154c0 60.667 17.667 107.5 53 140.5s80.333 49.5 135 49.5c17.333 0 32.666 -1.66699 45.999 -5v-83c-10 2 -21.667 3 -35 3c-33.333 0 -59.333 -8.33301 -78 -25s-28 -44.334 -28 -83.001
v-151h128v-81h-128v-154c0 -60.667 -17.667 -107.5 -53 -140.5s-80.333 -49.5 -135 -49.5c-17.333 0 -32.666 1.66699 -45.999 5z" />
    <glyph glyph-name="Ohorn" unicode="&#x1a0;" horiz-adv-x="878" 
d="M247.5 38c-57.667 33.333 -103.166 79.332 -136.499 137.999s-50 124.334 -50 197.001s16.667 138.334 50 197.001s78.833 104.5 136.5 137.5s121.5 49.5 191.5 49.5h210c32.667 0 49 17 49 51c0 20.667 -7.33301 47 -22 79h100c16.667 -30.667 25 -60 25 -88
c0 -39.333 -11 -69.166 -33 -89.499s-52.333 -31.5 -91 -33.5c44 -34.667 78.5 -78.334 103.5 -131.001s37.5 -110 37.5 -172c0 -72.667 -16.833 -138.334 -50.5 -197.001s-79.334 -104.667 -137.001 -138s-121.5 -50 -191.5 -50s-133.833 16.667 -191.5 50z
M195.001 224.499c24 -45 57.333 -80.5 100 -106.5s90.667 -39 144 -39s101.333 13 144 39s76 61.5 100 106.5s36 94.5 36 148.5s-12 103.333 -36 148s-57.333 80 -100 106s-90.667 39 -144 39s-101.333 -13 -144 -39s-76 -61.333 -100 -106s-36 -94 -36 -148
s12 -103.5 36 -148.5z" />
    <glyph glyph-name="ohorn" unicode="&#x1a1;" horiz-adv-x="654" 
d="M187.5 24.5c-42.333 24.333 -75.832 57.999 -100.499 100.999s-37 91.167 -37 144.5c0 52.667 12.167 100.5 36.5 143.5s57.666 76.667 99.999 101s89.5 36.5 141.5 36.5h110c14.667 0 26.667 3.5 36 10.5s14 20.833 14 41.5c0 12 -1.83301 24 -5.5 36
s-8.83398 26.333 -15.501 43h87c8 -18 13.833 -33.333 17.5 -46s5.5 -26.667 5.5 -42c0 -28 -6.16699 -50.833 -18.5 -68.5s-29.5 -30.5 -51.5 -38.5c30.667 -25.333 54.667 -56.666 72 -93.999s26 -78.333 26 -123c0 -54 -12.333 -102.333 -37 -145
s-58.167 -76.167 -100.5 -100.5s-88.833 -36.5 -139.5 -36.5c-51.333 0 -98.166 12.167 -140.499 36.5zM171.501 171.999c15.667 -29.333 37.334 -52.333 65.001 -69s58.167 -25 91.5 -25c32.667 0 62.667 8.33301 90 25s48.833 39.667 64.5 69s23.5 62 23.5 98
s-7.83301 68.5 -23.5 97.5s-37.167 51.833 -64.5 68.5s-57.333 25 -90 25c-33.333 0 -63.833 -8.33301 -91.5 -25s-49.334 -39.5 -65.001 -68.5s-23.5 -61.5 -23.5 -97.5s7.83301 -68.667 23.5 -98z" />
    <glyph glyph-name="Uhorn" unicode="&#x1af;" horiz-adv-x="706" 
d="M210.5 22c-41.667 22.667 -74.167 53.998 -97.5 93.998s-35 85 -35 135v494h99v-492c0 -51.333 16.333 -93.166 49 -125.499s75 -48.5 127 -48.5s94.333 16.167 127 48.5s49 74.166 49 125.499v492h87c14 0 25.833 3.33301 35.5 10s14.5 20.334 14.5 41.001
c0 22 -7.66699 48.333 -23 79h101c16 -30 24 -59.333 24 -88c0 -41.333 -12 -72.166 -36 -92.499s-57 -30.5 -99 -30.5h-5v-413c0 -50 -11.667 -95 -35 -135s-55.833 -71.333 -97.5 -94s-89.167 -34 -142.5 -34s-100.833 11.333 -142.5 34z" />
    <glyph glyph-name="uhorn" unicode="&#x1b0;" horiz-adv-x="617" 
d="M159 15c-30.667 18 -54.665 43.1631 -71.998 75.4961s-26 69.5 -26 111.5v337h93v-327c0 -40 12 -72.333 36 -97s55.333 -37 94 -37s70 12.833 94 38.5s36 60.167 36 103.5v319h55c33.333 0 50 17.333 50 52c0 20 -7.33301 46.333 -22 79h87
c7.33301 -16.667 13 -31.667 17 -45s6 -27.666 6 -42.999c0 -33.333 -8.83301 -59.666 -26.5 -78.999s-41.834 -30.666 -72.501 -33.999v-469h-91v66c-16 -25.333 -37.333 -44.666 -64 -57.999s-56.667 -20 -90 -20c-38.667 0 -73.334 9 -104.001 27z" />
    <glyph glyph-name="uni01C4" unicode="&#x1c4;" horiz-adv-x="1321" 
d="M83 745h244c74.667 0 140.167 -15.333 196.5 -46s99.833 -74.167 130.5 -130.5s46 -121.5 46 -195.5s-15.333 -139.167 -46 -195.5s-74.167 -100 -130.5 -131s-121.833 -46.5 -196.5 -46.5h-244v745zM328 90c54.667 0 102.333 11.501 143 34.501s72 55.833 94 98.5
s33 92.667 33 150s-11 107.166 -33 149.499s-53.5 75 -94.5 98s-88.5 34.5 -142.5 34.5h-147v-565h147zM760.999 72.001l404 583h-381v90h509v-72l-404 -583h413v-90h-541v72zM954.999 991.001l76 -95l78 95h85l-116 -144h-95l-114 144h86z" />
    <glyph glyph-name="uni01C5" unicode="&#x1c5;" horiz-adv-x="1201" 
d="M83 745h244c74.667 0 140.167 -15.333 196.5 -46s99.833 -74.167 130.5 -130.5s46 -121.5 46 -195.5s-15.333 -139.167 -46 -195.5s-74.167 -100 -130.5 -131s-121.833 -46.5 -196.5 -46.5h-244v745zM328 90c54.667 0 102.333 11.501 143 34.501s72 55.833 94 98.5
s33 92.667 33 150s-11 107.166 -33 149.499s-53.5 75 -94.5 98s-88.5 34.5 -142.5 34.5h-147v-565h147zM760.999 79.001l293 371h-277v89h403v-79l-291 -371h293v-89h-421v79zM891.999 784.001l76 -94l78 94h85l-116 -144h-95l-114 144h86z" />
    <glyph glyph-name="uni01C6" unicode="&#x1c6;" horiz-adv-x="1128" 
d="M181 25c-40.667 24.667 -72.667 58.333 -96 101s-35 90.334 -35 143.001s11.667 100.5 35 143.5s55.333 76.833 96 101.5s86 37 136 37c39.333 0 74.833 -7.33301 106.5 -22s58.167 -35.334 79.5 -62.001v278h94v-745h-91v79c-20 -28.667 -46.5 -51 -79.5 -67
s-69.5 -24 -109.5 -24c-50 0 -95.333 12.333 -136 37zM171 171.499c15.333 -29 36.5 -51.833 63.5 -68.5s57.167 -25 90.5 -25s63.5 8.33301 90.5 25s48.333 39.5 64 68.5s23.5 61.5 23.5 97.5s-7.83301 68.667 -23.5 98s-37 52.333 -64 69s-57.167 25 -90.5 25
s-63.5 -8.33301 -90.5 -25s-48.167 -39.667 -63.5 -69s-23 -62 -23 -98s7.66699 -68.5 23 -97.5zM688 78.999l294 371h-278v89h403v-79l-291 -371h293v-89h-421v79zM819 783.999l76 -95l78 95h85l-116 -144h-94l-115 144h86z" />
    <glyph glyph-name="uni01C7" unicode="&#x1c7;" horiz-adv-x="1125" 
d="M83 745h98v-655h327v-90h-425v745zM659 37.5c-43.333 33 -71.334 77.167 -84.001 132.5l91 26c11.333 -36.667 30.166 -65.334 56.499 -86.001s57.833 -31 94.5 -31c39.333 0 70.333 11.833 93 35.5s34 54.834 34 93.501v537h99v-537c0 -42 -9.16699 -79.667 -27.5 -113
s-44.666 -59.5 -78.999 -78.5s-74.5 -28.5 -120.5 -28.5c-61.333 0 -113.666 16.5 -156.999 49.5z" />
    <glyph glyph-name="uni01C8" unicode="&#x1c8;" horiz-adv-x="772" 
d="M83 745h98v-655h327v-90h-425v745zM471 -216l-0.000976562 83c14 -2 27.333 -3 40 -3c28.667 0 51.834 8 69.501 24s26.5 39 26.5 69v582h93v-582c0 -56 -17.333 -99.667 -52 -131s-79 -47 -133 -47c-17.333 0 -32 1.66699 -44 5zM611.999 725
c10.667 10.667 24.667 16 42 16s31.333 -5.33301 42 -16s16 -24.667 16 -42s-5.33301 -31.333 -16 -42s-24.667 -16 -42 -16s-31.333 5.33301 -42 16s-16 24.667 -16 42s5.33301 31.333 16 42z" />
    <glyph glyph-name="uni01C9" unicode="&#x1c9;" horiz-adv-x="474" 
d="M72 757h93v-757h-93v757zM173 -216l-0.000976562 83c14 -2 27.333 -3 40 -3c28.667 0 51.834 8 69.501 24s26.5 39 26.5 69v582h93v-582c0 -56 -17.333 -99.667 -52 -131s-79 -47 -133 -47c-17.333 0 -32 1.66699 -44 5zM313.999 725c10.667 10.667 24.667 16 42 16
s31.333 -5.33301 42 -16s16 -24.667 16 -42s-5.33301 -31.333 -16 -42s-24.667 -16 -42 -16s-31.333 5.33301 -42 16s-16 24.667 -16 42s5.33301 31.333 16 42z" />
    <glyph glyph-name="uni01CA" unicode="&#x1ca;" horiz-adv-x="1124" 
d="M83 745h82l391 -550v550h99v-745h-82l-392 558v-558h-98v745zM788 95h41c35.333 0 63.333 10.5 84 31.5s31 49.5 31 85.5v533h99v-531c0 -65.333 -19.333 -117.333 -58 -156s-90.667 -58 -156 -58h-41v95z" />
    <glyph glyph-name="uni01CB" unicode="&#x1cb;" horiz-adv-x="974" 
d="M83 745h82l391 -550v550h99v-745h-82l-392 558v-558h-98v745zM674 -216l-0.000976562 83c14 -2 27.333 -3 40 -3c28.667 0 51.834 8 69.501 24s26.5 39 26.5 69v582h93v-582c0 -56 -17.333 -99.667 -52 -131s-79 -47 -133 -47c-17.333 0 -32 1.66699 -44 5zM814.999 725
c10.667 10.667 24.667 16 42 16s31.333 -5.33301 42 -16s16 -24.667 16 -42s-5.33301 -31.333 -16 -42s-24.667 -16 -42 -16s-31.333 5.33301 -42 16s-16 24.667 -16 42s5.33301 31.333 16 42z" />
    <glyph glyph-name="uni01CC" unicode="&#x1cc;" horiz-adv-x="816" 
d="M72 539l91 0.00195312v-66c16 25.333 37.333 44.666 64 57.999s56.667 20 90 20c38 0 72.333 -8.83301 103 -26.5s54.834 -41.834 72.501 -72.501s26.5 -65 26.5 -103v-349h-94v319c0 44 -11.833 78.667 -35.5 104s-54.834 38 -93.501 38s-70.167 -12.833 -94.5 -38.5
s-36.5 -60.167 -36.5 -103.5v-319h-93v539zM516 -215.998l-0.000976562 83c14 -2 27.333 -3 40 -3c28.667 0 51.834 8 69.501 24s26.5 39 26.5 69v582h93v-582c0 -56 -17.333 -99.667 -52 -131s-79 -47 -133 -47c-17.333 0 -32 1.66699 -44 5zM656.999 725.002
c10.667 10.667 24.667 16 42 16s31.333 -5.33301 42 -16s16 -24.667 16 -42s-5.33301 -31.333 -16 -42s-24.667 -16 -42 -16s-31.333 5.33301 -42 16s-16 24.667 -16 42s5.33301 31.333 16 42z" />
    <glyph glyph-name="Gcaron" unicode="&#x1e6;" horiz-adv-x="817" 
d="M239.5 37.5c-55.667 33 -99.3359 78.6699 -131.003 137.003s-47.5 124.166 -47.5 197.499s15.667 139.333 47 198s74.833 104.5 130.5 137.5s118.167 49.5 187.5 49.5c49.333 0 94.666 -8.83301 135.999 -26.5s76.333 -40.834 105 -69.501s49.334 -59.667 62.001 -93
l-88 -43c-17.333 44 -44.666 78.5 -81.999 103.5s-81.666 37.5 -132.999 37.5c-52 0 -98.167 -12.333 -138.5 -37s-71.833 -59.334 -94.5 -104.001s-34 -95.667 -34 -153s11.333 -108.166 34 -152.499s54.334 -78.833 95.001 -103.5s87 -37 139 -37
c44.667 0 85.5 9.66699 122.5 29s66.167 46.166 87.5 80.499s32 73.5 32 117.5v4h-243v85h342v-66c0 -67.333 -15.333 -126.833 -46 -178.5s-72 -91.667 -124 -120s-109 -42.5 -171 -42.5c-69.333 0 -131.833 16.5 -187.5 49.5zM246.998 991.003h86l76 -94l78 94h85
l-116 -144h-95z" />
    <glyph glyph-name="gcaron" unicode="&#x1e7;" horiz-adv-x="659" 
d="M179.5 -181.5c-43 25.667 -73.5 59.834 -91.5 102.501l87 40c10 -26.667 28.333 -48.5 55 -65.5s59.334 -25.5 98.001 -25.5c47.333 0 86.666 13.5 117.999 40.5s47 64.5 47 112.5v75c-20 -27.333 -45.667 -48.333 -77 -63s-65.333 -22 -102 -22
c-50 0 -95 11.833 -135 35.5s-71.5 56 -94.5 97s-34.5 86.5 -34.5 136.5s11.333 95.5 34 136.5s54 73.333 94 97s85 35.5 135 35.5c37.333 0 71.666 -7.5 102.999 -22.5s58 -36.5 80 -64.5v75h91v-516c0 -46.667 -11 -88.334 -33 -125.001s-52.667 -65.5 -92 -86.5
s-83.666 -31.5 -132.999 -31.5c-56.667 0 -106.5 12.833 -149.5 38.5zM170.5 192c15 -27.333 35.8311 -49 62.498 -65s56.334 -24 89.001 -24c31.333 0 60.166 8 86.499 24s47 37.667 62 65s22.5 57.333 22.5 90s-7.5 62.667 -22.5 90s-35.667 49 -62 65
s-55.166 24 -86.499 24c-32.667 0 -62.167 -8 -88.5 -24s-47.166 -37.667 -62.499 -65s-23 -57.333 -23 -90s7.5 -62.667 22.5 -90zM166.998 784h86l76 -94l78 94h85l-116 -144h-95z" />
    <glyph glyph-name="uni01EA" unicode="&#x1ea;" horiz-adv-x="878" 
d="M583 118c42.667 26 76 61.5 100 106.5s36 94.5 36 148.5s-12 103.333 -36 148s-57.333 80 -100 106s-90.667 39 -144 39s-101.333 -13 -144 -39s-76 -61.333 -100 -106s-36 -94 -36 -148s12 -103.5 36 -148.5s57.333 -80.5 100 -106.5s90.667 -39 144 -39
s101.333 13 144 39zM111 570c33.333 58.667 78.8271 104.497 136.494 137.497s121.5 49.5 191.5 49.5s133.833 -16.667 191.5 -50s103.334 -79.166 137.001 -137.499s50.5 -123.833 50.5 -196.5c0 -69.333 -15.167 -132.333 -45.5 -189s-72.166 -102.167 -125.499 -136.5
s-112.666 -53.833 -177.999 -58.5c-25.333 -17.333 -38 -37.666 -38 -60.999c0 -14.667 4.83301 -26.167 14.5 -34.5s22.834 -12.5 39.501 -12.5c24 0 49.333 9.33301 76 28l30 -48c-33.333 -28 -71 -42 -113 -42c-33.333 0 -60.666 8.5 -81.999 25.5s-32 39.5 -32 67.5
c0 30 11.667 56 35 78c-64 6 -121.667 26.333 -173 61s-91.666 80 -120.999 136s-44 118 -44 186c0 72.667 16.667 138.334 50 197.001z" />
    <glyph glyph-name="uni01EB" unicode="&#x1eb;" horiz-adv-x="654" 
d="M323 -12c-19.333 -16.667 -28.999 -34.666 -28.999 -53.999c0 -14.667 4.83301 -26.167 14.5 -34.5s22.834 -12.5 39.501 -12.5c24 0 49.333 9.33301 76 28l30 -48c-33.333 -28 -71 -42 -113 -42c-33.333 0 -60.666 8.5 -81.999 25.5s-32 39.5 -32 67.5
c0 30 11.667 56 35 78c-40.667 9.33301 -77.167 26.833 -109.5 52.5s-57.5 57.667 -75.5 96s-27 80.166 -27 125.499c0 52.667 12.167 100.5 36.5 143.5s57.666 76.667 99.999 101s89.5 36.5 141.5 36.5c51.333 0 98.166 -12.167 140.499 -36.5
s75.666 -57.833 99.999 -100.5s36.5 -90.667 36.5 -144c0 -54 -12.333 -102.333 -37 -145s-58.167 -76.167 -100.5 -100.5s-88.833 -36.5 -139.5 -36.5h-5zM171.501 172.001c15.667 -29.333 37.334 -52.333 65.001 -69s58.167 -25 91.5 -25c32.667 0 62.667 8.33301 90 25
s48.833 39.667 64.5 69s23.5 62 23.5 98s-7.83301 68.5 -23.5 97.5s-37.167 51.833 -64.5 68.5s-57.333 25 -90 25c-33.333 0 -63.833 -8.33301 -91.5 -25s-49.334 -39.5 -65.001 -68.5s-23.5 -61.5 -23.5 -97.5s7.83301 -68.667 23.5 -98z" />
    <glyph glyph-name="Aringacute" unicode="&#x1fa;" horiz-adv-x="672" 
d="M278 745h116l267 -745h-105l-61 175h-318l-61 -175h-105zM464 265l-128 369l-128 -369h256zM248.5 830c-23.667 23.333 -35.5 52 -35.5 86c0 34.667 11.833 63.667 35.5 87s52.834 35 87.501 35s63.667 -11.667 87 -35s35 -52.333 35 -87c0 -34 -11.667 -62.667 -35 -86
s-52.333 -35 -87 -35s-63.834 11.667 -87.501 35zM291 871.5c12 -11.667 26.667 -17.499 44 -17.499s32 5.83301 44 17.5s18 26.5 18 44.5s-6 33 -18 45s-26.667 18 -44 18s-32 -5.83301 -44 -17.5s-18 -26.834 -18 -45.501c0 -18 6 -32.833 18 -44.5zM341 1154h96l-60 -94
h-83z" />
    <glyph glyph-name="aringacute" unicode="&#x1fb;" horiz-adv-x="575" 
d="M100 30.5c-33.333 28.333 -50.001 65.168 -50.001 110.501c0 44 14.5 80.833 43.5 110.5s73.167 49.5 132.5 59.5l184 30v25c0 29.333 -11 53.166 -33 71.499s-50.333 27.5 -85 27.5c-30.667 0 -57.834 -7.83301 -81.501 -23.5s-41.167 -36.5 -52.5 -62.5l-81 42
c15.333 37.333 43.333 68.333 84 93s85 37 133 37c40.667 0 76.834 -7.83301 108.501 -23.5s56.334 -37.5 74.001 -65.5s26.5 -60 26.5 -96v-366h-91v70c-19.333 -25.333 -44.833 -45.333 -76.5 -60s-66.834 -22 -105.501 -22c-53.333 0 -96.666 14.167 -129.999 42.5z
M174.499 89.002c17.667 -14.667 39.832 -22 66.499 -22c32.667 0 61.834 7.16699 87.501 21.5s45.667 33.833 60 58.5s21.5 52 21.5 82v34l-163 -27c-66 -11.333 -99 -42 -99 -92c0 -22 8.83301 -40.333 26.5 -55zM200.497 623.002c-23.667 23.333 -35.5 52 -35.5 86
c0 34.667 11.833 63.667 35.5 87s52.834 35 87.501 35s63.667 -11.667 87 -35s35 -52.333 35 -87c0 -34 -11.667 -62.667 -35 -86s-52.333 -35 -87 -35s-63.834 11.667 -87.501 35zM242.997 664.502c12 -11.667 26.667 -17.499 44 -17.499s32 5.83301 44 17.5
s18 26.5 18 44.5s-6 33 -18 45s-26.667 18 -44 18s-32 -5.83301 -44 -17.5s-18 -26.834 -18 -45.501c0 -18 6 -32.833 18 -44.5zM292.997 947.003h96l-60 -94h-83z" />
    <glyph glyph-name="AEacute" unicode="&#x1fc;" horiz-adv-x="987" 
d="M278 745h671v-90h-387v-236h367v-90h-367v-239h387l-1 -90h-485v175h-286l-61 -175h-105zM463 265v390h-119l-136 -390h255zM527 991h99l-92 -144h-80z" />
    <glyph glyph-name="aeacute" unicode="&#x1fd;" horiz-adv-x="978" 
d="M100 30.5c-33.333 28.333 -49.9971 65.167 -49.9971 110.5c0 44 14.5 80.833 43.5 110.5s73.167 49.5 132.5 59.5l184 30v25c0 29.333 -11 53.166 -33 71.499s-50.333 27.5 -85 27.5c-30.667 0 -57.834 -7.83301 -81.501 -23.5s-41.167 -36.5 -52.5 -62.5l-81 42
c15.333 37.333 43.333 68.333 84 93s85 37 133 37c41.333 0 78 -8.16699 110 -24.5s56.667 -38.833 74 -67.5c24 28.667 53 51.167 87 67.5s70.667 24.5 110 24.5c51.333 0 96.166 -12 134.499 -36s67.666 -55.833 87.999 -95.5s30.5 -82.167 30.5 -127.5
c0 -20 -1.66699 -36.667 -5 -50h-412c1.33301 -34 10 -63.667 26 -89s37 -45 63 -59s54 -21 84 -21c66 0 116.667 29.667 152 89l78 -40c-17.333 -38.667 -46.333 -70.667 -87 -96s-86.667 -38 -138 -38c-38 0 -73.167 6.83301 -105.5 20.5s-60.5 33.834 -84.5 60.501v-69
h-87v70c-19.333 -25.333 -44.833 -45.333 -76.5 -60s-66.834 -22 -105.501 -22c-53.333 0 -96.666 14.167 -129.999 42.5zM174.503 89.001c17.667 -14.667 39.832 -22 66.499 -22c32.667 0 61.834 7.16699 87.501 21.5s45.667 33.833 60 58.5s21.5 52 21.5 82v34l-163 -27
c-66 -11.333 -99 -42 -99 -92c0 -22 8.83301 -40.333 26.5 -55zM828.001 322.001c-0.666992 28 -7.83301 53 -21.5 75s-32.167 39.333 -55.5 52s-48.666 19 -75.999 19c-40.667 0 -76.334 -13.333 -107.001 -40s-48.667 -62 -54 -106h314zM522.002 784.001h99l-92 -144h-80z
" />
    <glyph glyph-name="Oslashacute" unicode="&#x1fe;" horiz-adv-x="878" 
d="M226 51l-41.999 -51h-108l87 105c-32 34.667 -57 74.834 -75 120.501s-27 94.834 -27 147.501c0 72.667 16.667 138.334 50 197.001s78.833 104.5 136.5 137.5s121.5 49.5 191.5 49.5c78 0 149 -21 213 -63l42 51h108l-87 -104c32.667 -34.667 58 -74.834 76 -120.501
s27 -94.834 27 -147.501c0 -72.667 -16.833 -138.334 -50.5 -197.001s-79.334 -104.667 -137.001 -138s-121.5 -50 -191.5 -50c-78 0 -149 21 -213 63zM176.001 267.5c11.333 -33 27.667 -62.5 49 -88.5l367 443c-45.333 29.333 -96.333 44 -153 44
c-53.333 0 -101.333 -13 -144 -39s-76 -61.333 -100 -106s-36 -94 -36 -148c0 -37.333 5.66699 -72.5 17 -105.5zM439.002 79c53.333 0 101.332 13 143.999 39s76 61.5 100 106.5s36 94.5 36 148.5c0 36.667 -5.66699 71.5 -17 104.5s-27.666 62.5 -48.999 88.5l-367 -442
c44.667 -30 95.667 -45 153 -45zM472.001 991h99l-92 -144h-80z" />
    <glyph glyph-name="oslashacute" unicode="&#x1ff;" horiz-adv-x="654" 
d="M179 29l-23.999 -29h-101l66 80c-22.667 24.667 -40 53.334 -52 86.001s-18 67.334 -18 104.001c0 52.667 12.167 100.5 36.5 143.5s57.666 76.667 99.999 101s89.5 36.5 141.5 36.5c54.667 0 104 -13.667 148 -41l24 29h101l-65 -79c22 -24.667 39 -53.334 51 -86.001
s18 -67.334 18 -104.001c0 -54 -12.333 -102.333 -37 -145s-58.167 -76.167 -100.5 -100.5s-88.833 -36.5 -139.5 -36.5c-54 0 -103.667 13.667 -149 41zM182.001 155l234.001 281.999c-26 16 -55.333 24 -88 24c-33.333 0 -63.833 -8.33301 -91.5 -25
s-49.334 -39.5 -65.001 -68.5s-23.5 -61.5 -23.5 -97.5c0 -43.333 11.333 -81.666 34 -114.999zM328.002 77.999c32.667 0 62.667 8.33301 90 25s48.833 39.667 64.5 69s23.5 62 23.5 98c0 42.667 -11 80.667 -33 114l-234 -282c26 -16 55.667 -24 89 -24zM361.002 783.999
h99l-92 -144h-80z" />
    <glyph glyph-name="uni0200" unicode="&#x200;" horiz-adv-x="672" 
d="M278 745h116l267 -745h-105l-61 175h-318l-61 -175h-105zM464 265l-128 369l-128 -369h256zM281 991h100l73 -144h-80zM225 991l73 -144h-80l-92 144h99z" />
    <glyph glyph-name="uni0201" unicode="&#x201;" horiz-adv-x="575" 
d="M100 30.5c-33.333 28.333 -50.001 65.168 -50.001 110.501c0 44 14.5 80.833 43.5 110.5s73.167 49.5 132.5 59.5l184 30v25c0 29.333 -11 53.166 -33 71.499s-50.333 27.5 -85 27.5c-30.667 0 -57.834 -7.83301 -81.501 -23.5s-41.167 -36.5 -52.5 -62.5l-81 42
c15.333 37.333 43.333 68.333 84 93s85 37 133 37c40.667 0 76.834 -7.83301 108.501 -23.5s56.334 -37.5 74.001 -65.5s26.5 -60 26.5 -96v-366h-91v70c-19.333 -25.333 -44.833 -45.333 -76.5 -60s-66.834 -22 -105.501 -22c-53.333 0 -96.666 14.167 -129.999 42.5z
M174.499 89.002c17.667 -14.667 39.832 -22 66.499 -22c32.667 0 61.834 7.16699 87.501 21.5s45.667 33.833 60 58.5s21.5 52 21.5 82v34l-163 -27c-66 -11.333 -99 -42 -99 -92c0 -22 8.83301 -40.333 26.5 -55zM231.997 784.002h100l73 -144h-80zM175.997 784.002
l73 -144h-80l-92 144h99z" />
    <glyph glyph-name="uni0202" unicode="&#x202;" horiz-adv-x="672" 
d="M278 745h116l267 -745h-105l-61 175h-318l-61 -175h-105zM464 265l-128 369l-128 -369h256zM210.5 916c13 21.333 30.668 38.333 53.001 51s46.5 19 72.5 19s50.167 -6.33301 72.5 -19s40 -29.667 53 -51s19.5 -44.333 19.5 -69h-70c0 20 -7.33301 37.333 -22 52
s-32.334 22 -53.001 22s-38.167 -7.33301 -52.5 -22s-21.5 -32 -21.5 -52h-71c0 24.667 6.5 47.667 19.5 69z" />
    <glyph glyph-name="uni0203" unicode="&#x203;" horiz-adv-x="575" 
d="M100 30.5c-33.333 28.333 -50.001 65.168 -50.001 110.501c0 44 14.5 80.833 43.5 110.5s73.167 49.5 132.5 59.5l184 30v25c0 29.333 -11 53.166 -33 71.499s-50.333 27.5 -85 27.5c-30.667 0 -57.834 -7.83301 -81.501 -23.5s-41.167 -36.5 -52.5 -62.5l-81 42
c15.333 37.333 43.333 68.333 84 93s85 37 133 37c40.667 0 76.834 -7.83301 108.501 -23.5s56.334 -37.5 74.001 -65.5s26.5 -60 26.5 -96v-366h-91v70c-19.333 -25.333 -44.833 -45.333 -76.5 -60s-66.834 -22 -105.501 -22c-53.333 0 -96.666 14.167 -129.999 42.5z
M174.499 89.002c17.667 -14.667 39.832 -22 66.499 -22c32.667 0 61.834 7.16699 87.501 21.5s45.667 33.833 60 58.5s21.5 52 21.5 82v34l-163 -27c-66 -11.333 -99 -42 -99 -92c0 -22 8.83301 -40.333 26.5 -55zM161.497 709.002c13 21.333 30.668 38.333 53.001 51
s46.5 19 72.5 19s50.167 -6.33301 72.5 -19s40 -29.667 53 -51s19.5 -44.333 19.5 -69h-70c0 20 -7.33301 37.333 -22 52s-32.334 22 -53.001 22s-38.167 -7.33301 -52.5 -22s-21.5 -32 -21.5 -52h-71c0 24.667 6.5 47.667 19.5 69z" />
    <glyph glyph-name="uni0204" unicode="&#x204;" horiz-adv-x="606" 
d="M83 745h485v-90h-387v-236h367v-90h-367v-239h387v-90h-485v745zM270 991h100l73 -144h-80zM214 991l73 -144h-80l-92 144h99z" />
    <glyph glyph-name="uni0205" unicode="&#x205;" horiz-adv-x="614" 
d="M182 25c-41.333 24.667 -73.667 58.5 -97 101.5s-35 91.167 -35 144.5s11.5 101.333 34.5 144s54.333 76 94 100s84.167 36 133.5 36c51.333 0 96.166 -12 134.499 -36s67.666 -55.833 87.999 -95.5s30.5 -82.167 30.5 -127.5c0 -15.333 -1.66699 -32 -5 -50h-412
c1.33301 -34 10 -63.667 26 -89s36.833 -45 62.5 -59s53.834 -21 84.501 -21c65.333 0 115.666 29.667 150.999 89l78 -40c-17.333 -38.667 -46.666 -70.667 -87.999 -96s-88.666 -38 -141.999 -38c-50.667 0 -96.667 12.333 -138 37zM463.999 322
c-1.33301 42 -16.5 76.833 -45.5 104.5s-64.5 41.5 -106.5 41.5c-41.333 0 -77 -13.167 -107 -39.5s-48.333 -61.833 -55 -106.5h314zM251.999 784h100l73 -144h-80zM195.999 784l73 -144h-80l-92 144h99z" />
    <glyph glyph-name="uni0206" unicode="&#x206;" horiz-adv-x="606" 
d="M83 745h485v-90h-387v-236h367v-90h-367v-239h387v-90h-485v745zM199.5 916c13 21.333 30.668 38.333 53.001 51s46.5 19 72.5 19s50.167 -6.33301 72.5 -19s40 -29.667 53 -51s19.5 -44.333 19.5 -69h-70c0 20 -7.33301 37.333 -22 52s-32.334 22 -53.001 22
s-38.167 -7.33301 -52.5 -22s-21.5 -32 -21.5 -52h-71c0 24.667 6.5 47.667 19.5 69z" />
    <glyph glyph-name="uni0207" unicode="&#x207;" horiz-adv-x="614" 
d="M182 25c-41.333 24.667 -73.667 58.5 -97 101.5s-35 91.167 -35 144.5s11.5 101.333 34.5 144s54.333 76 94 100s84.167 36 133.5 36c51.333 0 96.166 -12 134.499 -36s67.666 -55.833 87.999 -95.5s30.5 -82.167 30.5 -127.5c0 -15.333 -1.66699 -32 -5 -50h-412
c1.33301 -34 10 -63.667 26 -89s36.833 -45 62.5 -59s53.834 -21 84.501 -21c65.333 0 115.666 29.667 150.999 89l78 -40c-17.333 -38.667 -46.666 -70.667 -87.999 -96s-88.666 -38 -141.999 -38c-50.667 0 -96.667 12.333 -138 37zM463.999 322
c-1.33301 42 -16.5 76.833 -45.5 104.5s-64.5 41.5 -106.5 41.5c-41.333 0 -77 -13.167 -107 -39.5s-48.333 -61.833 -55 -106.5h314zM181.499 709c13 21.333 30.668 38.333 53.001 51s46.5 19 72.5 19s50.167 -6.33301 72.5 -19s40 -29.667 53 -51s19.5 -44.333 19.5 -69
h-70c0 20 -7.33301 37.333 -22 52s-32.334 22 -53.001 22s-38.167 -7.33301 -52.5 -22s-21.5 -32 -21.5 -52h-71c0 24.667 6.5 47.667 19.5 69z" />
    <glyph glyph-name="uni0208" unicode="&#x208;" horiz-adv-x="264" 
d="M83 745h98v-745h-98v745zM77 991h100l73 -144h-80zM21 991l73 -144h-80l-92 144h99z" />
    <glyph glyph-name="uni0209" unicode="&#x209;" horiz-adv-x="209" 
d="M58 539h93v-539h-93v539zM49 784h100l73 -144h-80zM-7 784l73 -144h-80l-92 144h99z" />
    <glyph glyph-name="uni020A" unicode="&#x20a;" horiz-adv-x="264" 
d="M83 745h98v-745h-98v745zM6.5 916c13 21.333 30.668 38.333 53.001 51s46.5 19 72.5 19s50.167 -6.33301 72.5 -19s40 -29.667 53 -51s19.5 -44.333 19.5 -69h-70c0 20 -7.33301 37.333 -22 52s-32.334 22 -53.001 22s-38.167 -7.33301 -52.5 -22s-21.5 -32 -21.5 -52
h-71c0 24.667 6.5 47.667 19.5 69z" />
    <glyph glyph-name="uni020B" unicode="&#x20b;" horiz-adv-x="209" 
d="M58 539h93v-539h-93v539zM-21.5 709c13 21.333 30.668 38.333 53.001 51s46.5 19 72.5 19s50.167 -6.33301 72.5 -19s40 -29.667 53 -51s19.5 -44.333 19.5 -69h-70c0 20 -7.33301 37.333 -22 52s-32.334 22 -53.001 22s-38.167 -7.33301 -52.5 -22s-21.5 -32 -21.5 -52
h-71c0 24.667 6.5 47.667 19.5 69z" />
    <glyph glyph-name="uni020C" unicode="&#x20c;" horiz-adv-x="878" 
d="M247.5 38c-57.667 33.333 -103.167 79.3311 -136.5 137.998s-50 124.334 -50 197.001s16.667 138.334 50 197.001s78.833 104.5 136.5 137.5s121.5 49.5 191.5 49.5s133.833 -16.667 191.5 -50s103.334 -79.166 137.001 -137.499s50.5 -123.833 50.5 -196.5
s-16.833 -138.334 -50.5 -197.001s-79.334 -104.667 -137.001 -138s-121.5 -50 -191.5 -50s-133.833 16.667 -191.5 50zM195 224.498c24 -45 57.333 -80.5 100 -106.5s90.667 -39 144 -39s101.333 13 144 39s76 61.5 100 106.5s36 94.5 36 148.5s-12 103.333 -36 148
s-57.333 80 -100 106s-90.667 39 -144 39s-101.333 -13 -144 -39s-76 -61.333 -100 -106s-36 -94 -36 -148s12 -103.5 36 -148.5zM384 990.998h100l73 -144h-80zM328 990.998l73 -144h-80l-92 144h99z" />
    <glyph glyph-name="uni020D" unicode="&#x20d;" horiz-adv-x="654" 
d="M187.5 24.5c-42.333 24.333 -75.8311 58 -100.498 101s-37 91.167 -37 144.5c0 52.667 12.167 100.5 36.5 143.5s57.666 76.667 99.999 101s89.5 36.5 141.5 36.5c51.333 0 98.166 -12.167 140.499 -36.5s75.666 -57.833 99.999 -100.5s36.5 -90.667 36.5 -144
c0 -54 -12.333 -102.333 -37 -145s-58.167 -76.167 -100.5 -100.5s-88.833 -36.5 -139.5 -36.5c-51.333 0 -98.166 12.167 -140.499 36.5zM171.502 172c15.667 -29.333 37.334 -52.333 65.001 -69s58.167 -25 91.5 -25c32.667 0 62.667 8.33301 90 25s48.833 39.667 64.5 69
s23.5 62 23.5 98s-7.83301 68.5 -23.5 97.5s-37.167 51.833 -64.5 68.5s-57.333 25 -90 25c-33.333 0 -63.833 -8.33301 -91.5 -25s-49.334 -39.5 -65.001 -68.5s-23.5 -61.5 -23.5 -97.5s7.83301 -68.667 23.5 -98zM272.002 784h100l73 -144h-80zM216.002 784l73 -144h-80
l-92 144h99z" />
    <glyph glyph-name="uni020E" unicode="&#x20e;" horiz-adv-x="878" 
d="M247.5 38c-57.667 33.333 -103.167 79.3311 -136.5 137.998s-50 124.334 -50 197.001s16.667 138.334 50 197.001s78.833 104.5 136.5 137.5s121.5 49.5 191.5 49.5s133.833 -16.667 191.5 -50s103.334 -79.166 137.001 -137.499s50.5 -123.833 50.5 -196.5
s-16.833 -138.334 -50.5 -197.001s-79.334 -104.667 -137.001 -138s-121.5 -50 -191.5 -50s-133.833 16.667 -191.5 50zM195 224.498c24 -45 57.333 -80.5 100 -106.5s90.667 -39 144 -39s101.333 13 144 39s76 61.5 100 106.5s36 94.5 36 148.5s-12 103.333 -36 148
s-57.333 80 -100 106s-90.667 39 -144 39s-101.333 -13 -144 -39s-76 -61.333 -100 -106s-36 -94 -36 -148s12 -103.5 36 -148.5zM313.5 915.998c13 21.333 30.668 38.333 53.001 51s46.5 19 72.5 19s50.167 -6.33301 72.5 -19s40 -29.667 53 -51s19.5 -44.333 19.5 -69h-70
c0 20 -7.33301 37.333 -22 52s-32.334 22 -53.001 22s-38.167 -7.33301 -52.5 -22s-21.5 -32 -21.5 -52h-71c0 24.667 6.5 47.667 19.5 69z" />
    <glyph glyph-name="uni020F" unicode="&#x20f;" horiz-adv-x="654" 
d="M187.5 24.5c-42.333 24.333 -75.8311 58 -100.498 101s-37 91.167 -37 144.5c0 52.667 12.167 100.5 36.5 143.5s57.666 76.667 99.999 101s89.5 36.5 141.5 36.5c51.333 0 98.166 -12.167 140.499 -36.5s75.666 -57.833 99.999 -100.5s36.5 -90.667 36.5 -144
c0 -54 -12.333 -102.333 -37 -145s-58.167 -76.167 -100.5 -100.5s-88.833 -36.5 -139.5 -36.5c-51.333 0 -98.166 12.167 -140.499 36.5zM171.502 172c15.667 -29.333 37.334 -52.333 65.001 -69s58.167 -25 91.5 -25c32.667 0 62.667 8.33301 90 25s48.833 39.667 64.5 69
s23.5 62 23.5 98s-7.83301 68.5 -23.5 97.5s-37.167 51.833 -64.5 68.5s-57.333 25 -90 25c-33.333 0 -63.833 -8.33301 -91.5 -25s-49.334 -39.5 -65.001 -68.5s-23.5 -61.5 -23.5 -97.5s7.83301 -68.667 23.5 -98zM201.502 709c13 21.333 30.668 38.333 53.001 51
s46.5 19 72.5 19s50.167 -6.33301 72.5 -19s40 -29.667 53 -51s19.5 -44.333 19.5 -69h-70c0 20 -7.33301 37.333 -22 52s-32.334 22 -53.001 22s-38.167 -7.33301 -52.5 -22s-21.5 -32 -21.5 -52h-71c0 24.667 6.5 47.667 19.5 69z" />
    <glyph glyph-name="uni0210" unicode="&#x210;" horiz-adv-x="648" 
d="M83 745l262.999 0.00195312c49.333 0 92.833 -9.33301 130.5 -28s66.834 -45.334 87.501 -80.001s31 -75.334 31 -122.001c0 -52 -13.167 -96.5 -39.5 -133.5s-62.5 -63.5 -108.5 -79.5l173 -302h-114l-161 285h-164v-285h-98v745zM348.999 375.002
c44 0 79.5 12.667 106.5 38s40.5 59.333 40.5 102s-13.5 76.667 -40.5 102s-62.5 38 -106.5 38h-168v-280h168zM263.999 991.002h100l73 -144h-80zM207.999 991.002l73 -144h-80l-92 144h99z" />
    <glyph glyph-name="uni0211" unicode="&#x211;" horiz-adv-x="350" 
d="M72 539h91v-64c28 46.667 75.667 70 143 70h33v-88h-47c-38.667 0 -69.5 -12 -92.5 -36s-34.5 -57.333 -34.5 -100v-321h-93v539zM150 784h100l73 -144h-80zM94 784l73 -144h-80l-92 144h99z" />
    <glyph glyph-name="uni0212" unicode="&#x212;" horiz-adv-x="648" 
d="M83 745l262.999 0.00195312c49.333 0 92.833 -9.33301 130.5 -28s66.834 -45.334 87.501 -80.001s31 -75.334 31 -122.001c0 -52 -13.167 -96.5 -39.5 -133.5s-62.5 -63.5 -108.5 -79.5l173 -302h-114l-161 285h-164v-285h-98v745zM348.999 375.002
c44 0 79.5 12.667 106.5 38s40.5 59.333 40.5 102s-13.5 76.667 -40.5 102s-62.5 38 -106.5 38h-168v-280h168zM194.499 916.002c13 21.333 30.668 38.333 53.001 51s46.5 19 72.5 19s50.167 -6.33301 72.5 -19s40 -29.667 53 -51s19.5 -44.333 19.5 -69h-70
c0 20 -7.33301 37.333 -22 52s-32.334 22 -53.001 22s-38.167 -7.33301 -52.5 -22s-21.5 -32 -21.5 -52h-71c0 24.667 6.5 47.667 19.5 69z" />
    <glyph glyph-name="uni0213" unicode="&#x213;" horiz-adv-x="350" 
d="M72 539h91v-64c28 46.667 75.667 70 143 70h33v-88h-47c-38.667 0 -69.5 -12 -92.5 -36s-34.5 -57.333 -34.5 -100v-321h-93v539zM79.5 709c13 21.333 30.668 38.333 53.001 51s46.5 19 72.5 19s50.167 -6.33301 72.5 -19s40 -29.667 53 -51s19.5 -44.333 19.5 -69h-70
c0 20 -7.33301 37.333 -22 52s-32.334 22 -53.001 22s-38.167 -7.33301 -52.5 -22s-21.5 -32 -21.5 -52h-71c0 24.667 6.5 47.667 19.5 69z" />
    <glyph glyph-name="uni0214" unicode="&#x214;" horiz-adv-x="706" 
d="M210.5 22c-41.667 22.667 -74.167 54 -97.5 94s-35 85 -35 135v494h99v-492c0 -51.333 16.333 -93.166 49 -125.499s75 -48.5 127 -48.5s94.333 16.167 127 48.5s49 74.166 49 125.499v492h99v-494c0 -50 -11.667 -95 -35 -135s-55.833 -71.333 -97.5 -94
s-89.167 -34 -142.5 -34s-100.833 11.333 -142.5 34zM298 991h100l73 -144h-80zM242 991l73 -144h-80l-92 144h99z" />
    <glyph glyph-name="uni0215" unicode="&#x215;" 
d="M159 15c-30.667 18 -54.666 43.166 -71.999 75.499s-26 69.5 -26 111.5v337h93v-327c0 -40 12 -72.333 36 -97s55.333 -37 94 -37s70 12.833 94 38.5s36 60.167 36 103.5v319h94v-539h-91v66c-16 -25.333 -37.333 -44.666 -64 -57.999s-56.667 -20 -90 -20
c-38.667 0 -73.334 9 -104.001 27zM235.001 783.999h100l73 -144h-80zM179.001 783.999l73 -144h-80l-92 144h99z" />
    <glyph glyph-name="uni0216" unicode="&#x216;" horiz-adv-x="706" 
d="M210.5 22c-41.667 22.667 -74.167 54 -97.5 94s-35 85 -35 135v494h99v-492c0 -51.333 16.333 -93.166 49 -125.499s75 -48.5 127 -48.5s94.333 16.167 127 48.5s49 74.166 49 125.499v492h99v-494c0 -50 -11.667 -95 -35 -135s-55.833 -71.333 -97.5 -94
s-89.167 -34 -142.5 -34s-100.833 11.333 -142.5 34zM227.5 916c13 21.333 30.668 38.333 53.001 51s46.5 19 72.5 19s50.167 -6.33301 72.5 -19s40 -29.667 53 -51s19.5 -44.333 19.5 -69h-70c0 20 -7.33301 37.333 -22 52s-32.334 22 -53.001 22
s-38.167 -7.33301 -52.5 -22s-21.5 -32 -21.5 -52h-71c0 24.667 6.5 47.667 19.5 69z" />
    <glyph glyph-name="uni0217" unicode="&#x217;" 
d="M159 15c-30.667 18 -54.666 43.166 -71.999 75.499s-26 69.5 -26 111.5v337h93v-327c0 -40 12 -72.333 36 -97s55.333 -37 94 -37s70 12.833 94 38.5s36 60.167 36 103.5v319h94v-539h-91v66c-16 -25.333 -37.333 -44.666 -64 -57.999s-56.667 -20 -90 -20
c-38.667 0 -73.334 9 -104.001 27zM164.501 708.999c13 21.333 30.668 38.333 53.001 51s46.5 19 72.5 19s50.167 -6.33301 72.5 -19s40 -29.667 53 -51s19.5 -44.333 19.5 -69h-70c0 20 -7.33301 37.333 -22 52s-32.334 22 -53.001 22s-38.167 -7.33301 -52.5 -22
s-21.5 -32 -21.5 -52h-71c0 24.667 6.5 47.667 19.5 69z" />
    <glyph glyph-name="uni0218" unicode="&#x218;" horiz-adv-x="646" 
d="M203 16.5c-40 19 -72.9951 44.335 -98.9951 76.002s-44 65.834 -54 102.501l90 28c14 -44.667 40.167 -80 78.5 -106s78.5 -39 120.5 -39c28 0 53.167 5.66699 75.5 17s39.833 25.666 52.5 42.999s19 34.666 19 51.999c0 27.333 -9.5 52 -28.5 74
s-45.167 36.667 -78.5 44l-126 28c-53.333 11.333 -95.5 36.833 -126.5 76.5s-46.5 85.167 -46.5 136.5c0 39.333 10.167 74.833 30.5 106.5s48.166 56.5 83.499 74.5s74.333 27 117 27c47.333 0 89.5 -8.33301 126.5 -25s67.333 -38.834 91 -66.501s40.5 -57.5 50.5 -89.5
l-89 -32c-14.667 39.333 -38.834 69.666 -72.501 90.999s-68.834 32 -105.501 32c-25.333 0 -48 -5.5 -68 -16.5s-35.667 -25.167 -47 -42.5s-17 -35 -17 -53c0 -28 10.167 -53.5 30.5 -76.5s45.833 -37.833 76.5 -44.5l114 -26c60 -13.333 106 -38.666 138 -75.999
s48 -82 48 -134c0 -39.333 -10.333 -75 -31 -107s-49.834 -57.167 -87.501 -75.5s-80.834 -27.5 -129.501 -27.5c-50.667 0 -96 9.5 -136 28.5zM334.005 -199.998h-48.999v120h97v-85c0 -48.667 -9.83301 -87.5 -29.5 -116.5s-48.834 -48.167 -87.501 -57.5v41
c42 11.333 65 44 69 98z" />
    <glyph glyph-name="uni0219" unicode="&#x219;" horiz-adv-x="511" 
d="M127 26.5c-40 25.667 -68.667 60.4971 -86 104.497l75 38c15.333 -31.333 36.333 -56 63 -74s55.667 -27 87 -27c30 0 54.667 7 74 21s29 32.333 29 55c0 22 -8.66699 39.833 -26 53.5s-36 21.834 -56 24.501l-81 11c-48 12 -84 32 -108 60s-36 61 -36 99
c0 31.333 8.16699 59 24.5 83s39 42.667 68 56s61.167 20 96.5 20c46.667 0 88.5 -11.667 125.5 -35s63.5 -55.666 79.5 -96.999l-74 -38c-13.333 27.333 -31.833 49 -55.5 65s-49.834 24 -78.501 24c-27.333 0 -49.333 -6.66699 -66 -20s-25 -30.666 -25 -51.999
c0 -22 7.83301 -39.5 23.5 -52.5s32.834 -21.167 51.501 -24.5l89 -12c44.667 -12 79.5 -32.5 104.5 -61.5s37.5 -62.5 37.5 -100.5c0 -30.667 -8.33301 -58 -25 -82s-40 -42.833 -70 -56.5s-64.333 -20.5 -103 -20.5c-52 0 -98 12.833 -138 38.5zM267 -200.003h-48.999v120
h97v-85c0 -48.667 -9.83301 -87.5 -29.5 -116.5s-48.834 -48.167 -87.501 -57.5v41c42 11.333 65 44 69 98z" />
    <glyph glyph-name="uni021A" unicode="&#x21a;" horiz-adv-x="522" 
d="M213 655h-202v90h500v-90h-199v-655h-99v655zM272 -200h-48.999v120h97v-85c0 -48.667 -9.83301 -87.5 -29.5 -116.5s-48.834 -48.167 -87.501 -57.5v41c42 11.333 65 44 69 98z" />
    <glyph glyph-name="uni021B" unicode="&#x21b;" horiz-adv-x="396" 
d="M169.5 38.5c-28.333 29.667 -42.5 72.167 -42.5 127.5v284h-98v89h20c24 0 43 7.16699 57 21.5s21 33.833 21 58.5v44h93v-124h121v-89h-121v-281c0 -60 30 -90 90 -90c12.667 0 25 1 37 3v-83c-14 -3.33301 -32.667 -5 -56 -5c-52.667 0 -93.167 14.833 -121.5 44.5z
M294 -200h-48.999v120h97v-85c0 -48.667 -9.83301 -87.5 -29.5 -116.5s-48.834 -48.167 -87.501 -57.5v41c42 11.333 65 44 69 98z" />
    <glyph glyph-name="uni022A" unicode="&#x22a;" horiz-adv-x="878" 
d="M247.5 38c-57.667 33.333 -103.167 79.3311 -136.5 137.998s-50 124.334 -50 197.001s16.667 138.334 50 197.001s78.833 104.5 136.5 137.5s121.5 49.5 191.5 49.5s133.833 -16.667 191.5 -50s103.334 -79.166 137.001 -137.499s50.5 -123.833 50.5 -196.5
s-16.833 -138.334 -50.5 -197.001s-79.334 -104.667 -137.001 -138s-121.5 -50 -191.5 -50s-133.833 16.667 -191.5 50zM195 224.498c24 -45 57.333 -80.5 100 -106.5s90.667 -39 144 -39s101.333 13 144 39s76 61.5 100 106.5s36 94.5 36 148.5s-12 103.333 -36 148
s-57.333 80 -100 106s-90.667 39 -144 39s-101.333 -13 -144 -39s-76 -61.333 -100 -106s-36 -94 -36 -148s12 -103.5 36 -148.5zM308 880.498c-12 12.333 -18 27.167 -18 44.5s6 32 18 44s27 18 45 18c17.333 0 32 -6 44 -18s18 -26.667 18 -44c0 -18 -6 -33 -18 -45
s-26.667 -18 -44 -18c-18 0 -33 6.16699 -45 18.5zM311 1089h259v-72h-259v72zM483 968.999c12 12 27 18.001 45 18.001c17.333 0 32 -6 44 -18s18 -26.667 18 -44c0 -18 -6 -33 -18 -45s-26.667 -18 -44 -18c-18 0 -33 6.16699 -45 18.5s-18 27.166 -18 44.499s6 32 18 44z
" />
    <glyph glyph-name="uni022B" unicode="&#x22b;" horiz-adv-x="654" 
d="M187.5 24.5c-42.333 24.333 -75.8311 58 -100.498 101s-37 91.167 -37 144.5c0 52.667 12.167 100.5 36.5 143.5s57.666 76.667 99.999 101s89.5 36.5 141.5 36.5c51.333 0 98.166 -12.167 140.499 -36.5s75.666 -57.833 99.999 -100.5s36.5 -90.667 36.5 -144
c0 -54 -12.333 -102.333 -37 -145s-58.167 -76.167 -100.5 -100.5s-88.833 -36.5 -139.5 -36.5c-51.333 0 -98.166 12.167 -140.499 36.5zM171.502 172c15.667 -29.333 37.334 -52.333 65.001 -69s58.167 -25 91.5 -25c32.667 0 62.667 8.33301 90 25s48.833 39.667 64.5 69
s23.5 62 23.5 98s-7.83301 68.5 -23.5 97.5s-37.167 51.833 -64.5 68.5s-57.333 25 -90 25c-33.333 0 -63.833 -8.33301 -91.5 -25s-49.334 -39.5 -65.001 -68.5s-23.5 -61.5 -23.5 -97.5s7.83301 -68.667 23.5 -98zM196.002 673.5c-12 12.333 -18 27.167 -18 44.5
s6 32 18 44s27 18 45 18c17.333 0 32 -6 44 -18s18 -26.667 18 -44c0 -18 -6 -33 -18 -45s-26.667 -18 -44 -18c-18 0 -33 6.16699 -45 18.5zM199.002 882.001h259v-72h-259v72zM371.002 762.001c12 12 27 18.001 45 18.001c17.333 0 32 -6 44 -18s18 -26.667 18 -44
c0 -18 -6 -33 -18 -45s-26.667 -18 -44 -18c-18 0 -33 6.16699 -45 18.5s-18 27.166 -18 44.499s6 32 18 44z" />
    <glyph glyph-name="uni022C" unicode="&#x22c;" horiz-adv-x="878" 
d="M247.5 38c-57.667 33.333 -103.167 79.3311 -136.5 137.998s-50 124.334 -50 197.001s16.667 138.334 50 197.001s78.833 104.5 136.5 137.5s121.5 49.5 191.5 49.5s133.833 -16.667 191.5 -50s103.334 -79.166 137.001 -137.499s50.5 -123.833 50.5 -196.5
s-16.833 -138.334 -50.5 -197.001s-79.334 -104.667 -137.001 -138s-121.5 -50 -191.5 -50s-133.833 16.667 -191.5 50zM195 224.498c24 -45 57.333 -80.5 100 -106.5s90.667 -39 144 -39s101.333 13 144 39s76 61.5 100 106.5s36 94.5 36 148.5s-12 103.333 -36 148
s-57.333 80 -100 106s-90.667 39 -144 39s-101.333 -13 -144 -39s-76 -61.333 -100 -106s-36 -94 -36 -148s12 -103.5 36 -148.5zM465.5 884.998c-10.333 4.66699 -21.833 11.667 -34.5 21c-9.33301 6 -16.666 10.5 -21.999 13.5s-11.666 4.5 -18.999 4.5
c-18.667 0 -29.667 -14 -33 -42h-63c0.666992 34.667 8.83398 61.5 24.501 80.5s36.167 28.5 61.5 28.5c15.333 0 28 -2.33301 38 -7s20.667 -11.334 32 -20.001c9.33301 -6.66699 16.833 -11.5 22.5 -14.5s12.167 -4.5 19.5 -4.5c9.33301 0 16.666 3.83301 21.999 11.5
s8.66602 17.5 9.99902 29.5h64c-0.666992 -35.333 -8.33398 -62.166 -23.001 -80.499s-34.667 -27.5 -60 -27.5c-16 0 -29.167 2.33301 -39.5 7zM311 1114h259v-72h-259v72z" />
    <glyph glyph-name="uni022D" unicode="&#x22d;" horiz-adv-x="654" 
d="M187.5 24.5c-42.333 24.333 -75.8311 58 -100.498 101s-37 91.167 -37 144.5c0 52.667 12.167 100.5 36.5 143.5s57.666 76.667 99.999 101s89.5 36.5 141.5 36.5c51.333 0 98.166 -12.167 140.499 -36.5s75.666 -57.833 99.999 -100.5s36.5 -90.667 36.5 -144
c0 -54 -12.333 -102.333 -37 -145s-58.167 -76.167 -100.5 -100.5s-88.833 -36.5 -139.5 -36.5c-51.333 0 -98.166 12.167 -140.499 36.5zM171.502 172c15.667 -29.333 37.334 -52.333 65.001 -69s58.167 -25 91.5 -25c32.667 0 62.667 8.33301 90 25s48.833 39.667 64.5 69
s23.5 62 23.5 98s-7.83301 68.5 -23.5 97.5s-37.167 51.833 -64.5 68.5s-57.333 25 -90 25c-33.333 0 -63.833 -8.33301 -91.5 -25s-49.334 -39.5 -65.001 -68.5s-23.5 -61.5 -23.5 -97.5s7.83301 -68.667 23.5 -98zM354.502 678c-10.333 4.66699 -21.833 11.667 -34.5 21
c-9.33301 6 -16.666 10.5 -21.999 13.5s-11.666 4.5 -18.999 4.5c-18.667 0 -29.667 -14 -33 -42h-63c0.666992 34.667 8.83398 61.5 24.501 80.5s36.167 28.5 61.5 28.5c15.333 0 28 -2.33301 38 -7s20.667 -11.334 32 -20.001c9.33301 -6.66699 16.833 -11.5 22.5 -14.5
s12.167 -4.5 19.5 -4.5c9.33301 0 16.666 3.83301 21.999 11.5s8.66602 17.5 9.99902 29.5h64c-0.666992 -35.333 -8.33398 -62.166 -23.001 -80.499s-34.667 -27.5 -60 -27.5c-16 0 -29.167 2.33301 -39.5 7zM200.002 907h259v-72h-259v72z" />
    <glyph glyph-name="uni0230" unicode="&#x230;" horiz-adv-x="878" 
d="M247.5 38c-57.667 33.333 -103.167 79.3311 -136.5 137.998s-50 124.334 -50 197.001s16.667 138.334 50 197.001s78.833 104.5 136.5 137.5s121.5 49.5 191.5 49.5s133.833 -16.667 191.5 -50s103.334 -79.166 137.001 -137.499s50.5 -123.833 50.5 -196.5
s-16.833 -138.334 -50.5 -197.001s-79.334 -104.667 -137.001 -138s-121.5 -50 -191.5 -50s-133.833 16.667 -191.5 50zM195 224.498c24 -45 57.333 -80.5 100 -106.5s90.667 -39 144 -39s101.333 13 144 39s76 61.5 100 106.5s36 94.5 36 148.5s-12 103.333 -36 148
s-57.333 80 -100 106s-90.667 39 -144 39s-101.333 -13 -144 -39s-76 -61.333 -100 -106s-36 -94 -36 -148s12 -103.5 36 -148.5zM310 1089h259v-72h-259v72zM395.5 968.998c12.333 12 27.166 18.001 44.499 18.001s32 -6 44 -18s18 -26.667 18 -44c0 -18 -6 -33 -18 -45
s-26.667 -18 -44 -18s-32.166 6.16699 -44.499 18.5s-18.5 27.166 -18.5 44.499s6.16699 32 18.5 44z" />
    <glyph glyph-name="uni0231" unicode="&#x231;" horiz-adv-x="654" 
d="M187.5 24.5c-42.333 24.333 -75.8311 58 -100.498 101s-37 91.167 -37 144.5c0 52.667 12.167 100.5 36.5 143.5s57.666 76.667 99.999 101s89.5 36.5 141.5 36.5c51.333 0 98.166 -12.167 140.499 -36.5s75.666 -57.833 99.999 -100.5s36.5 -90.667 36.5 -144
c0 -54 -12.333 -102.333 -37 -145s-58.167 -76.167 -100.5 -100.5s-88.833 -36.5 -139.5 -36.5c-51.333 0 -98.166 12.167 -140.499 36.5zM171.502 172c15.667 -29.333 37.334 -52.333 65.001 -69s58.167 -25 91.5 -25c32.667 0 62.667 8.33301 90 25s48.833 39.667 64.5 69
s23.5 62 23.5 98s-7.83301 68.5 -23.5 97.5s-37.167 51.833 -64.5 68.5s-57.333 25 -90 25c-33.333 0 -63.833 -8.33301 -91.5 -25s-49.334 -39.5 -65.001 -68.5s-23.5 -61.5 -23.5 -97.5s7.83301 -68.667 23.5 -98zM198.002 882h259v-72h-259v72zM283.502 762
c12.333 12 27.166 18.001 44.499 18.001s32 -6 44 -18s18 -26.667 18 -44c0 -18 -6 -33 -18 -45s-26.667 -18 -44 -18s-32.166 6.16699 -44.499 18.5s-18.5 27.166 -18.5 44.499s6.16699 32 18.5 44z" />
    <glyph glyph-name="uni0232" unicode="&#x232;" horiz-adv-x="635" 
d="M269 341l-258 404h111l196 -308l195 308h111l-256 -404v-341h-99v341zM185 946h267v-73h-267v73z" />
    <glyph glyph-name="uni0233" unicode="&#x233;" horiz-adv-x="553" 
d="M143 739h267v-73h-267v73z" />
    <glyph glyph-name="uni0237" unicode="&#x237;" horiz-adv-x="237" 
d="M-64 -216l-0.000976562 83c14 -2 27.333 -3 40 -3c28.667 0 51.834 8 69.501 24s26.5 39 26.5 69v582h93v-582c0 -56 -17.333 -99.667 -52 -131s-79 -47 -133 -47c-17.333 0 -32 1.66699 -44 5z" />
    <glyph glyph-name="uni0259" unicode="&#x259;" horiz-adv-x="614" 
d="M168.5 24c-38.333 24 -67.6621 55.833 -87.9951 95.5s-30.5 82.167 -30.5 127.5c0 19.333 1.33301 36 4 50h412c-1.33301 33.333 -10 62.833 -26 88.5s-36.833 45.5 -62.5 59.5s-53.834 21 -84.501 21c-34 0 -63.5 -8 -88.5 -24s-45.833 -37.667 -62.5 -65l-78 40
c17.333 38.667 46.666 70.667 87.999 96s88.666 38 141.999 38c51.333 0 97.666 -12.333 138.999 -37s73.666 -58.5 96.999 -101.5s35 -91.167 35 -144.5s-11.5 -101.333 -34.5 -144s-54.5 -76 -94.5 -100s-84.667 -36 -134 -36c-50.667 0 -95.167 12 -133.5 36z
M195.504 112.5c29 -27.667 64.5 -41.5 106.5 -41.5c41.333 0 77 13.167 107 39.5s48.333 61.833 55 106.5h-314c1.33301 -42 16.5 -76.833 45.5 -104.5z" />
    <glyph glyph-name="uni02BB" unicode="&#x2bb;" horiz-adv-x="337" 
d="M158 618c14.667 0 27 -4.83203 37 -14.499s15 -21.834 15 -36.501s-4.83301 -27 -14.5 -37s-22.167 -15 -37.5 -15c-14.667 0 -26.834 5.83301 -36.501 17.5s-14.5 27.834 -14.5 48.501c0 48 10.333 87 31 117s50.334 49.667 89.001 59v-41
c-42 -10.667 -65 -43.334 -69 -98.001z" />
    <glyph glyph-name="uni02BC" unicode="&#x2bc;" horiz-adv-x="312" 
d="M110 745h92l-13 -240h-65z" />
    <glyph glyph-name="uni02BE" unicode="&#x2be;" horiz-adv-x="343" 
d="M155 664.5c12 11.667 18 26.499 18 44.499c0 18.667 -6 33.834 -18 45.501s-27 17.5 -45 17.5v59c34.667 0 63.834 -11.667 87.501 -35s35.5 -52.333 35.5 -87c0 -34 -11.833 -62.667 -35.5 -86s-52.834 -35 -87.501 -35v59c18 0 33 5.83301 45 17.5z" />
    <glyph glyph-name="uni02BF" unicode="&#x2bf;" horiz-adv-x="343" 
d="M145.5 623c-23.667 23.333 -35.5 52.001 -35.5 86.001c0 34.667 11.833 63.667 35.5 87s52.834 35 87.501 35v-59c-18 0 -33 -5.83301 -45 -17.5s-18 -26.834 -18 -45.501c0 -18 6 -32.833 18 -44.5s27 -17.5 45 -17.5v-59c-34.667 0 -63.834 11.667 -87.501 35z" />
    <glyph glyph-name="circumflex" unicode="&#x2c6;" horiz-adv-x="544" 
d="M224 784h95l116 -144h-85l-78 94l-76 -94h-86z" />
    <glyph glyph-name="caron" unicode="&#x2c7;" horiz-adv-x="544" 
d="M110 784h86l76 -94l78 94h85l-116 -144h-95z" />
    <glyph glyph-name="uni02C8" unicode="&#x2c8;" horiz-adv-x="312" 
d="M110 745h92v-195h-92v195z" />
    <glyph glyph-name="uni02C9" unicode="&#x2c9;" horiz-adv-x="486" 
d="M110 739h267v-73h-267v73z" />
    </font>
</defs>
</svg>
