<?xml version="1.0" standalone="no"?>
<!DOCTYPE svg PUBLIC "-//W3C//DTD SVG 1.1//EN" "http://www.w3.org/Graphics/SVG/1.1/DTD/svg11.dtd" >
<svg>
<metadata>
Created by FontForge 20090914 at Sun Jul 17 16:24:36 2022
 By www-data
Copyright 2021 Stijn de Vries &#38; The Plus Jakarta Sans Project Authors (https://github.com/tokotype/PlusJakartaSans)
</metadata>
<defs>
<font id="EudoxusSans-Regular" horiz-adv-x="573" >
  <font-face 
    font-family="Eudoxus Sans"
    font-weight="400"
    font-stretch="normal"
    units-per-em="1000"
    panose-1="0 0 0 0 0 0 0 0 0 0"
    ascent="800"
    descent="-200"
    x-height="536"
    cap-height="745"
    bbox="-157 -320.004 1360 1184"
    underline-thickness="40"
    underline-position="-135"
    unicode-range="U+000D-U+FB02"
  />
<missing-glyph horiz-adv-x="600" 
d="M492 -240h-380v1200h380v-1200zM400 -157v39h-123l84 57h39v39h-200v-39h84l-84 -57v-39h200zM400 6v136h-200v-136h200zM400 214v135h-120v-67h40v28h40v-57h-120v96h-40v-135h200zM400 376v120h-40v-80h-160v-40h200zM320 444v84h80v40h-200v-40h80v-44h-80v-40h120z
M400 600v41h-80v84h-120v-125h200zM400 756v40h-80v44h80v40h-198v-40h78v-44h-80v-40h200zM240 102h120v-56h-120v56zM240 684h40v-43h-40v43z" />
    <glyph glyph-name="fi" unicode="fi" horiz-adv-x="582" 
d="M132 461h-106.999v75h107v48c0 36 8.16699 67 24.5 93s38.166 45.833 65.499 59.5s57 20.5 89 20.5c17.333 0 32 -1.66699 44 -5v-68c-8.66699 2 -20.667 3 -36 3c-34.667 0 -62 -8.16699 -82 -24.5s-30 -42.5 -30 -78.5v-48h313v-536h-75v461h-238v-461h-75v461z" />
    <glyph glyph-name="fl" unicode="fl" horiz-adv-x="622" 
d="M132 461h-106.999v75h107v48c0 36 8.16699 67 24.5 93s38.166 45.833 65.499 59.5s57 20.5 89 20.5c17.333 0 32 -1.66699 44 -5v-68c-8.66699 2 -20.667 3 -36 3c-34.667 0 -62 -8.16699 -82 -24.5s-30 -42.5 -30 -78.5v-48h263v221h75v-757h-75v461h-263v-461h-75v461z
" />
    <glyph glyph-name="f_f" unicode="ff" horiz-adv-x="776" 
d="M132 461h-106.998v75h107v48c0 36 8.16699 67 24.5 93s38.166 45.833 65.499 59.5s57 20.5 89 20.5c17.333 0 32 -1.66699 44 -5v-68c-8.66699 2 -20.667 3 -36 3c-34.667 0 -62 -8.16699 -82 -24.5s-30 -42.5 -30 -78.5v-48h308v48c0 36 8.16699 67 24.5 93
s38.166 45.833 65.499 59.5s57 20.5 89 20.5c17.333 0 32 -1.66699 44 -5v-68c-8.66699 2 -20.667 3 -36 3c-34.667 0 -62 -8.16699 -82 -24.5s-30 -42.5 -30 -78.5v-48h131v-75h-131v-461h-75v461h-308v-461h-75v461z" />
    <glyph glyph-name="f_f_i" unicode="ffi" horiz-adv-x="975" 
d="M132 461h-106.998v75h107v48c0 36 8.16699 67 24.5 93s38.166 45.833 65.499 59.5s57 20.5 89 20.5c17.333 0 32 -1.66699 44 -5v-68c-8.66699 2 -20.667 3 -36 3c-34.667 0 -62 -8.16699 -82 -24.5s-30 -42.5 -30 -78.5v-48h318v48c0 36 8.16699 67 24.5 93
s38.166 45.833 65.499 59.5s57 20.5 89 20.5c17.333 0 32 -1.66699 44 -5v-68c-8.66699 2 -20.667 3 -36 3c-34.667 0 -62 -8.16699 -82 -24.5s-30 -42.5 -30 -78.5v-48h313v-536h-75v461h-238v-461h-75v461h-318v-461h-75v461z" />
    <glyph glyph-name="f_f_l" unicode="ffl" horiz-adv-x="1015" 
d="M132 461h-106.998v75h107v48c0 36 8.16699 67 24.5 93s38.166 45.833 65.499 59.5s57 20.5 89 20.5c17.333 0 32 -1.66699 44 -5v-68c-8.66699 2 -20.667 3 -36 3c-34.667 0 -62 -8.16699 -82 -24.5s-30 -42.5 -30 -78.5v-48h318v48c0 36 8.16699 67 24.5 93
s38.166 45.833 65.499 59.5s57 20.5 89 20.5c17.333 0 32 -1.66699 44 -5v-68c-8.66699 2 -20.667 3 -36 3c-34.667 0 -62 -8.16699 -82 -24.5s-30 -42.5 -30 -78.5v-48h263v221h75v-757h-75v461h-263v-461h-75v461h-318v-461h-75v461z" />
    <glyph glyph-name=".notdef" horiz-adv-x="600" 
d="M492 -240h-380v1200h380v-1200zM400 -157v39h-123l84 57h39v39h-200v-39h84l-84 -57v-39h200zM400 6v136h-200v-136h200zM400 214v135h-120v-67h40v28h40v-57h-120v96h-40v-135h200zM400 376v120h-40v-80h-160v-40h200zM320 444v84h80v40h-200v-40h80v-44h-80v-40h120z
M400 600v41h-80v84h-120v-125h200zM400 756v40h-80v44h80v40h-198v-40h78v-44h-80v-40h200zM240 102h120v-56h-120v56zM240 684h40v-43h-40v43z" />
    <glyph glyph-name="nonmarkingreturn" unicode="&#xd;" horiz-adv-x="170" 
 />
    <glyph glyph-name="space" unicode=" " horiz-adv-x="170" 
 />
    <glyph glyph-name="exclam" unicode="!" horiz-adv-x="282" 
d="M101 745h80l-5 -531h-70zM107 83c9.33301 9.33301 20.667 14.001 34 14.001s24.666 -4.5 33.999 -13.5s14 -20.5 14 -34.5s-4.5 -25.667 -13.5 -35s-20.5 -14 -34.5 -14c-13.333 0 -24.666 4.66699 -33.999 14s-14 21 -14 35c0 13.333 4.66699 24.666 14 33.999z" />
    <glyph glyph-name="quotedbl" unicode="&#x22;" horiz-adv-x="395" 
d="M82 745h80l-12 -218h-55zM312 745l-12 -218h-55l-13 218h80z" />
    <glyph glyph-name="numbersign" unicode="#" horiz-adv-x="790" 
d="M159 195h-120v70h140l62 215h-120v70h140l56 195h80l-56 -195h210l56 195h80l-56 -195h120v-70h-140l-62 -215h120v-70h-140l-56 -195h-80l56 195h-210l-56 -195h-80zM469 265l62 215h-210l-62 -215h210z" />
    <glyph glyph-name="dollar" unicode="$" horiz-adv-x="646" 
d="M296 -9c-59.333 8 -110.503 30.168 -153.503 66.501s-72.167 79.833 -87.5 130.5l72 27c14.667 -42.667 36.334 -76.834 65.001 -102.501s63.334 -42.167 104.001 -49.5v278l-46 14c-52 15.333 -92.333 40.833 -121 76.5s-43 76.834 -43 123.501c0 37.333 9 71 27 101
s43 53.833 75 71.5s68 27.5 108 29.5v88h70v-93c50.667 -9.33301 94.334 -29.833 131.001 -61.5s62 -68.834 76 -111.501l-70 -28c-12.667 34 -30.5 61.833 -53.5 83.5s-50.833 36.5 -83.5 44.5v-279l36 -11c118.667 -35.333 178 -101.333 178 -198
c0 -36.667 -9 -69.667 -27 -99s-43.167 -53 -75.5 -71s-69.5 -28.667 -111.5 -32v-89h-70v91zM195.997 478.001c20 -24 49.333 -42 88 -54l12 -4v265c-39.333 -2.66699 -70.833 -15 -94.5 -37s-35.5 -51 -35.5 -87c0 -31.333 10 -59 30 -83zM463.497 100.501
c24.333 21.667 36.5 49.501 36.5 83.501c0 35.333 -9.66699 63.166 -29 83.499s-48.333 36.166 -87 47.499l-18 5v-259c40.667 4.66699 73.167 17.834 97.5 39.501z" />
    <glyph glyph-name="percent" unicode="%" horiz-adv-x="974" 
d="M748 745h97l-610 -745h-97zM78 660c17.333 30 41 53.667 71 71s62.667 26 98 26s67.833 -8.66699 97.5 -26s53.167 -41 70.5 -71s26 -62.667 26 -98s-8.66699 -68 -26 -98s-40.833 -53.667 -70.5 -71s-62.167 -26 -97.5 -26s-68 8.66699 -98 26s-53.667 41 -71 71
s-26 62.667 -26 98s8.66699 68 26 98zM143 502.5c10.667 -19 25.167 -34.335 43.5 -46.002s38.5 -17.5 60.5 -17.5s42.167 5.83301 60.5 17.5s32.666 26.834 42.999 45.501s15.5 38.667 15.5 60s-5.16699 41.333 -15.5 60s-24.666 33.834 -42.999 45.501
s-38.5 17.5 -60.5 17.5s-42.167 -5.83301 -60.5 -17.5s-32.833 -27 -43.5 -46s-16 -38.833 -16 -59.5s5.33301 -40.5 16 -59.5zM558 280.998c17.333 30 41 53.667 71 71s62.667 26 98 26s67.833 -8.66699 97.5 -26s53.167 -41 70.5 -71s26 -62.667 26 -98
s-8.66699 -68 -26 -98s-40.833 -53.667 -70.5 -71s-62.167 -26 -97.5 -26s-68 8.66699 -98 26s-53.667 41 -71 71s-26 62.667 -26 98s8.66699 68 26 98zM623 123.498c10.667 -19 25.167 -34.335 43.5 -46.002s38.5 -17.5 60.5 -17.5s42.167 5.83301 60.5 17.5
s32.666 26.834 42.999 45.501s15.5 38.667 15.5 60s-5.16699 41.333 -15.5 60s-24.666 33.834 -42.999 45.501s-38.5 17.5 -60.5 17.5s-42.167 -5.83301 -60.5 -17.5s-32.833 -27 -43.5 -46s-16 -38.833 -16 -59.5s5.33301 -40.5 16 -59.5z" />
    <glyph glyph-name="ampersand" unicode="&#x26;" horiz-adv-x="734" 
d="M157 11c-31.333 15.333 -56 37.167 -74 65.5s-27 60.833 -27 97.5c0 54.667 15.333 98.667 46 132s65 62 103 86l2 1c-28 30.667 -50.333 60.834 -67 90.501s-25 62.167 -25 97.5c0 33.333 8 63.5 24 90.5s37.5 48 64.5 63s56.833 22.5 89.5 22.5
c32 0 61.333 -7.33301 88 -22s48 -35.167 64 -61.5s24 -55.833 24 -88.5c0 -46.667 -13.833 -85.834 -41.5 -117.501s-60.5 -59.5 -98.5 -83.5l147 -154l93 139h91l-129 -197l164 -172h-107l-103 106c-28 -35.333 -59.667 -63.833 -95 -85.5s-77.333 -32.5 -126 -32.5
c-40 0 -75.667 7.66699 -107 23zM175.5 92.501c23 -20.333 53.166 -30.501 90.499 -30.501c36.667 0 67.5 8.83301 92.5 26.5s48.833 42.5 71.5 74.5l-171 177l-4 -3c-31.333 -19.333 -58.166 -41.5 -80.499 -66.5s-33.5 -56.5 -33.5 -94.5
c0 -35.333 11.5 -63.166 34.5 -83.499zM216.999 512.5c14.667 -23 35 -48.166 61 -75.499c32 19.333 58.833 41 80.5 65s32.5 51.667 32.5 83c0 28 -9.33301 51.333 -28 70s-42 28 -70 28c-28.667 0 -52.167 -9.33301 -70.5 -28s-27.5 -42.334 -27.5 -71.001
c0 -24.667 7.33301 -48.5 22 -71.5z" />
    <glyph glyph-name="quotesingle" unicode="'" horiz-adv-x="245" 
d="M82 745h80l-12 -218h-55z" />
    <glyph glyph-name="parenleft" unicode="(" horiz-adv-x="295" 
d="M89 63c-27.333 75.333 -41.002 155.33 -41.002 239.997c0 85.333 13.833 165.5 41.5 240.5s67.834 142.167 120.501 201.5h65c-48 -66.667 -84.5 -137.667 -109.5 -213s-37.5 -151.666 -37.5 -228.999s12.5 -153.666 37.5 -228.999s61.5 -146.666 109.5 -213.999h-65
c-53.333 60 -93.666 127.667 -120.999 203z" />
    <glyph glyph-name="parenright" unicode=")" horiz-adv-x="295" 
d="M129.5 74c25 75.333 37.498 151.669 37.498 229.002s-12.5 153.666 -37.5 228.999s-61.5 146.333 -109.5 213h65c52.667 -59.333 92.834 -126.5 120.501 -201.5s41.5 -155.167 41.5 -240.5c0 -84.667 -13.667 -164.667 -41 -240s-67.666 -143 -120.999 -203h-65
c48 67.333 84.5 138.666 109.5 213.999z" />
    <glyph glyph-name="asterisk" unicode="*" horiz-adv-x="479" 
d="M94 425l86 114l-127 43l22 68l128 -42v137h72v-137l128 42l22 -68l-127 -43l86 -114l-58 -42l-87 114l-87 -114z" />
    <glyph glyph-name="plus" unicode="+" horiz-adv-x="606" 
d="M266 213h-213v75h213v212h75v-212h212v-75h-212v-213h-75v213z" />
    <glyph glyph-name="comma" unicode="," horiz-adv-x="270" 
d="M143 0c-13.333 0 -24.5 4.16602 -33.5 12.499s-13.5 18.833 -13.5 31.5s4.16699 23.167 12.5 31.5s18.833 12.5 31.5 12.5s23.167 -5.66699 31.5 -17s12.5 -25.333 12.5 -42c0 -43.333 -9 -78.666 -27 -105.999s-43.667 -45 -77 -53v30c40 10.667 61 44 63 100z" />
    <glyph glyph-name="hyphen" unicode="-" horiz-adv-x="498" 
d="M74 303h350v-70h-350v70z" />
    <glyph glyph-name="period" unicode="." horiz-adv-x="286" 
d="M109 14c-9.33301 9.33301 -13.999 21.333 -13.999 36s4.66699 26.667 14 36s20.666 14 33.999 14s24.666 -4.66699 33.999 -14s14 -21.333 14 -36s-4.5 -26.667 -13.5 -36s-20.5 -14 -34.5 -14c-13.333 0 -24.666 4.66699 -33.999 14z" />
    <glyph glyph-name="slash" unicode="/" horiz-adv-x="429" 
d="M340 785h87l-338 -825h-87z" />
    <glyph glyph-name="zero" unicode="0" horiz-adv-x="732" 
d="M213 36c-44.667 32 -79.334 77.167 -104.001 135.5s-37 125.5 -37 201.5s12.333 143 37 201s59.167 103 103.5 135s95.5 48 153.5 48s109.167 -16 153.5 -48s78.833 -77 103.5 -135s37 -125 37 -201s-12.167 -143.167 -36.5 -201.5s-58.666 -103.5 -102.999 -135.5
s-95.5 -48 -153.5 -48s-109.333 16 -154 48zM179 211c18 -46.667 43.167 -83 75.5 -109s69.833 -39 112.5 -39c42 0 79.167 12.833 111.5 38.5s57.5 62 75.5 109s27 101.167 27 162.5s-9 115.333 -27 162s-43.167 82.834 -75.5 108.501s-69.833 38.5 -112.5 38.5
c-42 0 -79.167 -12.833 -111.5 -38.5s-57.5 -61.834 -75.5 -108.501s-27 -100.667 -27 -162s9 -115.333 27 -162z" />
    <glyph glyph-name="one" unicode="1" horiz-adv-x="371" 
d="M181 675h-140v70h220v-745h-80v675z" />
    <glyph glyph-name="two" unicode="2" horiz-adv-x="600" 
d="M58 50l208 228.995l30 33c40.667 44 70.167 77.333 88.5 100s32.5 44.834 42.5 66.501s15 44.834 15 69.501c0 44 -12.833 78.167 -38.5 102.5s-60.5 36.5 -104.5 36.5c-44.667 0 -82.167 -12.667 -112.5 -38s-50.833 -60.666 -61.5 -105.999l-73 16
c13.333 60.667 42 108.834 86 144.501s97.333 53.5 160 53.5c44 0 82.833 -8.83301 116.5 -26.5s60 -42.5 79 -74.5s28.5 -68 28.5 -108c0 -39.333 -11.833 -77.666 -35.5 -114.999s-65.167 -89 -124.5 -155l-189 -208h369v-70h-484v50z" />
    <glyph glyph-name="three" unicode="3" horiz-adv-x="609" 
d="M140.5 32c-44.333 29.333 -75.834 69.668 -94.501 121.001l64 30c15.333 -38.667 39.333 -69.167 72 -91.5s70 -33.5 112 -33.5c51.333 0 92.833 14.667 124.5 44s47.5 70 47.5 122c0 51.333 -16.167 91.666 -48.5 120.999s-73.833 44 -124.5 44
c-18.667 0 -36.667 -1.33301 -54 -4l-16 35l201 255h-343v70h433v-70l-179 -225c62.667 -6.66699 113.5 -30.5 152.5 -71.5s58.5 -92.5 58.5 -154.5c0 -44 -10.667 -83.833 -32 -119.5s-51.166 -64 -89.499 -85s-81.833 -31.5 -130.5 -31.5c-58 0 -109.167 14.667 -153.5 44
z" />
    <glyph glyph-name="four" unicode="4" horiz-adv-x="630" 
d="M425 176h-379v65l379 504h70v-504h91v-65h-91v-176h-70v176zM425 241v395l-296 -395h296z" />
    <glyph glyph-name="five" unicode="5" horiz-adv-x="616" 
d="M147.5 32.5c-45 29.667 -76.833 69.8359 -95.5 120.503l61 30c15.333 -38 40.333 -68.333 75 -91s72.667 -34 114 -34c32 0 61 7.66699 87 23s46.333 36.166 61 62.499s22 55.833 22 88.5c0 33.333 -7.5 63.166 -22.5 89.499s-35.333 47 -61 62s-54.167 22.5 -85.5 22.5
c-32 0 -62 -7.33301 -90 -22s-48.333 -33 -61 -55l-63 12l56 405h377v-70h-321l-34 -241c39.333 28.667 86 43 140 43c46.667 0 88.667 -11 126 -33s66.5 -51.833 87.5 -89.5s31.5 -78.834 31.5 -123.501c0 -46 -10.833 -87.5 -32.5 -124.5s-51.5 -66.167 -89.5 -87.5
s-80.667 -32 -128 -32c-58 0 -109.5 14.833 -154.5 44.5z" />
    <glyph glyph-name="six" unicode="6" horiz-adv-x="597" 
d="M176 19.5c-36.667 21 -65.168 50.1699 -85.501 87.5029s-30.5 79.666 -30.5 126.999c0 78 28.667 155.333 86 232l210 279h96l-234 -306c24 14.667 54.667 22 92 22c42.667 0 81.667 -10.167 117 -30.5s63 -48.5 83 -84.5s30 -76.667 30 -122
c0 -44.667 -10.5 -84.834 -31.5 -120.501s-49.667 -63.834 -86 -84.501s-77.166 -31 -122.499 -31c-46 0 -87.333 10.5 -124 31.5zM160.999 139.003c14 -25.333 33.167 -45.166 57.5 -59.499s51.5 -21.5 81.5 -21.5s57.167 7.16699 81.5 21.5s43.5 34.166 57.5 59.499
s21 53.666 21 84.999s-6.83301 59.5 -20.5 84.5s-32.667 44.667 -57 59s-51.833 21.5 -82.5 21.5s-58.167 -7.16699 -82.5 -21.5s-43.333 -34 -57 -59s-20.5 -53.167 -20.5 -84.5s7 -59.666 21 -84.999z" />
    <glyph glyph-name="seven" unicode="7" horiz-adv-x="543" 
d="M415 676h-372v70h455v-70l-335 -676h-84z" />
    <glyph glyph-name="eight" unicode="8" horiz-adv-x="628" 
d="M186 17.5c-38 19.667 -67.832 46.6689 -89.499 81.002s-32.5 73.166 -32.5 116.499s11.333 82.5 34 117.5s53.667 61.167 93 78.5c-28 16.667 -49.667 38.667 -65 66s-23 56.666 -23 87.999c0 36 9.16699 68.667 27.5 98s43.666 52.333 75.999 69s68.166 25 107.499 25
c40 0 76 -8.16699 108 -24.5s57 -39.166 75 -68.499s27 -62.333 27 -99c0 -32.667 -7.66699 -62.334 -23 -89.001s-36.666 -48.334 -63.999 -65.001c39.333 -17.333 70.333 -43.5 93 -78.5s34 -74.167 34 -117.5s-10.833 -82.166 -32.5 -116.499s-51.5 -61.333 -89.5 -81
s-80.667 -29.5 -128 -29.5s-90 9.83301 -128 29.5zM191.001 101.002c31.333 -28.667 72.333 -43 123 -43s91.667 14.333 123 43s47 66.667 47 114s-15.667 85.333 -47 114s-72.333 43 -123 43s-91.667 -14.333 -123 -43s-47 -66.667 -47 -114s15.667 -85.333 47 -114z
M220.501 476.002c25 -22.667 56.167 -34 93.5 -34s68.333 11.333 93 34s37 52.334 37 89.001c0 36 -12.333 65.333 -37 88s-55.667 34 -93 34s-68.5 -11.333 -93.5 -34s-37.5 -52 -37.5 -88c0 -36.667 12.5 -66.334 37.5 -89.001z" />
    <glyph glyph-name="nine" unicode="9" horiz-adv-x="597" 
d="M379 306c-24 -14.667 -54.666 -22.0029 -91.999 -22.0029c-42.667 0 -81.667 10.167 -117 30.5s-63 48.5 -83 84.5s-30 76.667 -30 122c0 44.667 10.5 84.834 31.5 120.501s49.667 63.834 86 84.501s77.166 31 122.499 31c46 0 87.333 -10.5 124 -31.5
s65.167 -50.167 85.5 -87.5s30.5 -79.666 30.5 -126.999c0 -78 -28.667 -155.333 -86 -232l-210 -279h-96zM157.501 436.497c13.667 -25 32.667 -44.667 57 -59s51.833 -21.5 82.5 -21.5s58.167 7.16699 82.5 21.5s43.333 34 57 59s20.5 53.167 20.5 84.5
s-7 59.666 -21 84.999s-33.167 45.166 -57.5 59.499s-51.5 21.5 -81.5 21.5s-57.167 -7.16699 -81.5 -21.5s-43.5 -34.166 -57.5 -59.499s-21 -53.666 -21 -84.999s6.83301 -59.5 20.5 -84.5z" />
    <glyph glyph-name="colon" unicode=":" horiz-adv-x="286" 
d="M105.5 15.5c-10.333 10.333 -15.5 22.833 -15.5 37.5c0 15.333 5.16699 28 15.5 38s22.833 15 37.5 15c15.333 0 28 -5 38 -15s15 -22.667 15 -38s-5 -28 -15 -38s-22.667 -15 -38 -15c-14.667 0 -27.167 5.16699 -37.5 15.5zM105.5 521c10.333 10 22.833 15 37.5 15
c15.333 0 28 -5 38 -15s15 -22.667 15 -38s-5 -28 -15 -38s-22.667 -15 -38 -15c-14.667 0 -27.167 5.16699 -37.5 15.5s-15.5 22.833 -15.5 37.5c0 15.333 5.16699 28 15.5 38z" />
    <glyph glyph-name="semicolon" unicode=";" horiz-adv-x="306" 
d="M124.5 445.5c-10.333 10.333 -15.5 22.833 -15.5 37.5c0 15.333 5.16699 28 15.5 38s22.833 15 37.5 15c15.333 0 28 -5 38 -15s15 -22.667 15 -38s-5 -28 -15 -38s-22.667 -15 -38 -15c-14.667 0 -27.167 5.16699 -37.5 15.5zM98 -100c40 10.667 61 43.999 63 99.999
c-13.333 0 -24.5 4.16699 -33.5 12.5s-13.5 18.833 -13.5 31.5s4.16699 23.167 12.5 31.5s18.833 12.5 31.5 12.5s23.167 -5.66699 31.5 -17s12.5 -25.333 12.5 -42c0 -43.333 -9 -78.666 -27 -105.999s-43.667 -45 -77 -53v30z" />
    <glyph glyph-name="less" unicode="&#x3c;" horiz-adv-x="554" 
d="M72 234v68l410 195v-81l-323 -148l323 -148v-81z" />
    <glyph glyph-name="equal" unicode="=" horiz-adv-x="670" 
d="M110 406h450v-75h-450v75zM110 171h450v-75h-450v75z" />
    <glyph glyph-name="greater" unicode="&#x3e;" horiz-adv-x="537" 
d="M72 120l323 148l-323 148v81l410 -195v-68l-410 -195v81z" />
    <glyph glyph-name="question" unicode="?" horiz-adv-x="499" 
d="M195 326.5c18.667 28.333 46 59.4971 82 93.4971c23.333 22 41.166 39.833 53.499 53.5s22.833 29.334 31.5 47.001s13 36.834 13 57.501c0 30 -11 55.667 -33 77s-51.667 32 -89 32s-69.333 -11.667 -96 -35s-43.667 -54.333 -51 -93l-71 15
c9.33301 55.333 33.833 99.666 73.5 132.999s87.834 50 144.501 50c38.667 0 73.5 -8.16699 104.5 -24.5s55 -38.166 72 -65.499s25.5 -57 25.5 -89c0 -25.333 -4.83301 -48.5 -14.5 -69.5s-21.5 -39.667 -35.5 -56s-33 -36.166 -57 -59.499l-18 -18
c-26.667 -26.667 -47.167 -51.5 -61.5 -74.5s-21.5 -48.5 -21.5 -76.5v-10h-80v10c0 40 9.33301 74.167 28 102.5zM176 82.9971c9.33301 9.33301 20.667 14.001 34 14.001s24.666 -4.5 33.999 -13.5s14 -20.5 14 -34.5s-4.5 -25.667 -13.5 -35s-20.5 -14 -34.5 -14
c-13.333 0 -24.666 4.66699 -33.999 14s-14 21 -14 35c0 13.333 4.66699 24.666 14 33.999z" />
    <glyph glyph-name="at" unicode="@" horiz-adv-x="929" 
d="M271 -15c-63.333 36.667 -113.335 86.6689 -150.002 150.002s-55 133.333 -55 210c0 76 18.5 145.5 55.5 208.5s87.167 112.667 150.5 149s133.333 54.5 210 54.5c78 0 148.667 -19 212 -57s112.833 -88.333 148.5 -151s53.5 -129.334 53.5 -200.001
c0 -64 -14.667 -115.333 -44 -154s-69.666 -58 -120.999 -58c-27.333 0 -52.333 6.33301 -75 19s-39.334 30 -50.001 52c-16 -22.667 -36.667 -40.167 -62 -52.5s-53.666 -18.5 -84.999 -18.5c-38.667 0 -73.5 9.33301 -104.5 28s-55.5 44.167 -73.5 76.5
s-27 68.5 -27 108.5s9 76.333 27 109s42.667 58.334 74 77.001s66 28 104 28c30 0 57.833 -5.83301 83.5 -17.5s46.834 -27.834 63.501 -48.501v56h65v-276c0 -47.333 20.333 -71 61 -71c28.667 0 50.667 11.833 66 35.5s23 58.5 23 104.5c0 63.333 -14.5 121 -43.5 173
s-69.167 92.833 -120.5 122.5s-109.666 44.5 -174.999 44.5c-64.667 0 -122.834 -14.833 -174.501 -44.5s-92.334 -70.334 -122.001 -122.001s-44.5 -109.834 -44.5 -174.501c0 -63.333 14.5 -121.5 43.5 -174.5s69.5 -94.833 121.5 -125.5s111.333 -46 178 -46
c62 0 116.333 12.667 163 38l32 -60c-27.333 -15.333 -58 -27.166 -92 -35.499s-69 -12.5 -105 -12.5c-77.333 0 -147.666 18.333 -210.999 55zM366.998 248.002c25.333 -27.333 57 -41 95 -41c38.667 0 70.667 13.667 96 41s38 61.666 38 102.999
c0 40.667 -12.667 74.334 -38 101.001s-57.333 40 -96 40s-70.5 -13.333 -95.5 -40s-37.5 -60.667 -37.5 -102c0 -40.667 12.667 -74.667 38 -102z" />
    <glyph glyph-name="A" unicode="A" horiz-adv-x="652" 
d="M283 745h86l272 -745h-84l-64 182h-333l-65 -182h-84zM465 257l-139 394l-140 -394h279z" />
    <glyph glyph-name="B" unicode="B" horiz-adv-x="693" 
d="M88 745l312.999 -0.000976562c62.667 0 112.834 -17.167 150.501 -51.5s56.5 -79.5 56.5 -135.5c0 -34 -7.33301 -64.5 -22 -91.5s-35.667 -48.833 -63 -65.5c36 -18.667 64.167 -44.167 84.5 -76.5s30.5 -68.166 30.5 -107.499c0 -66.667 -21.167 -119.5 -63.5 -158.5
s-99.833 -58.5 -172.5 -58.5h-314v745zM401.999 74.999c47.333 0 85.166 12.668 113.499 38.001s42.5 59.666 42.5 102.999c0 42.667 -14.167 77 -42.5 103s-66.166 39 -113.499 39h-234v-283h234zM394.999 430c40 0 72.167 11.667 96.5 35s36.5 53.333 36.5 90
s-12 65 -36 85s-56.333 30 -97 30h-227v-240h227z" />
    <glyph glyph-name="C" unicode="C" horiz-adv-x="781" 
d="M241.5 37.5c-55 33 -98 78.666 -129 136.999s-46.5 124.166 -46.5 197.499s15.5 139.333 46.5 198s74 104.5 129 137.5s117.167 49.5 186.5 49.5c48 0 92.333 -8.83301 133 -26.5s75.167 -40.667 103.5 -69s48.833 -58.5 61.5 -90.5l-75 -33
c-19.333 44.667 -48.333 79.834 -87 105.501s-84 38.5 -136 38.5c-54.667 0 -103.334 -13 -146.001 -39s-76 -62.5 -100 -109.5s-36 -100.833 -36 -161.5s12 -114.5 36 -161.5s57.333 -83.333 100 -109s91.334 -38.5 146.001 -38.5c52 0 97.333 12.667 136 38
s67.667 60.333 87 105l75 -33c-12.667 -32 -33.167 -62.167 -61.5 -90.5s-62.833 -51.166 -103.5 -68.499s-85 -26 -133 -26c-69.333 0 -131.5 16.5 -186.5 49.5z" />
    <glyph glyph-name="D" unicode="D" horiz-adv-x="742" 
d="M88 745l245 -0.000976562c73.333 0 137.5 -15.167 192.5 -45.5s97.5 -73.666 127.5 -129.999s45 -121.833 45 -196.5s-15 -140.167 -45 -196.5s-72.667 -99.833 -128 -130.5s-119.333 -46 -192 -46h-245v745zM333 74.999c56.667 0 106.167 12.166 148.5 36.499
s75 58.833 98 103.5s34.5 97.334 34.5 158.001c0 60 -11.5 112.333 -34.5 157s-55.833 79.167 -98.5 103.5s-92 36.5 -148 36.5h-165v-595h165z" />
    <glyph glyph-name="E" unicode="E" horiz-adv-x="612" 
d="M88 745h480v-75h-400v-259h380v-75h-380v-261h400v-75h-480v745z" />
    <glyph glyph-name="F" unicode="F" horiz-adv-x="581" 
d="M88 745h460v-75h-380v-259h350v-75h-350v-336h-80v745z" />
    <glyph glyph-name="G" unicode="G" horiz-adv-x="821" 
d="M241.5 37.5c-55 33 -98 78.6699 -129 137.003s-46.5 124.166 -46.5 197.499s15.5 139.333 46.5 198s74 104.5 129 137.5s117.167 49.5 186.5 49.5c48 0 92.333 -8.83301 133 -26.5s75.167 -40.667 103.5 -69s48.833 -58.5 61.5 -90.5l-72 -35
c-18.667 46 -47.5 81.833 -86.5 107.5s-85.5 38.5 -139.5 38.5c-54.667 0 -103.334 -13 -146.001 -39s-76 -62.5 -100 -109.5s-36 -100.833 -36 -161.5s12 -114.5 36 -161.5s57.333 -83.333 100 -109s91.334 -38.5 146.001 -38.5c48 0 91.667 10.667 131 32
s70.333 50.666 93 87.999s34 79.666 34 126.999v5h-258v70h338v-62c0 -64 -15 -121.5 -45 -172.5s-70.667 -90.833 -122 -119.5s-108.333 -43 -171 -43c-69.333 0 -131.5 16.5 -186.5 49.5z" />
    <glyph glyph-name="H" unicode="H" horiz-adv-x="736" 
d="M88 745h80v-335h400v335h80v-745h-80v335h-400v-335h-80v745z" />
    <glyph glyph-name="I" unicode="I" horiz-adv-x="256" 
d="M88 745h80v-745h-80v745z" />
    <glyph glyph-name="J" unicode="J" horiz-adv-x="383" 
d="M55 80h39.999c36.667 0 65.834 11.167 87.501 33.5s32.5 52.833 32.5 91.5v540h80v-540c0 -62.667 -18 -112.5 -54 -149.5s-84.667 -55.5 -146 -55.5h-40v80z" />
    <glyph glyph-name="K" unicode="K" horiz-adv-x="654" 
d="M88 745h80v-406l357 406h100l-277 -315l295 -430h-96l-254 367l-125 -142v-225h-80v745z" />
    <glyph glyph-name="L" unicode="L" horiz-adv-x="531" 
d="M88 745h80v-670h330v-75h-410v745z" />
    <glyph glyph-name="M" unicode="M" horiz-adv-x="836" 
d="M88 745h70l260 -378l260 378h70v-745h-80v589l-248 -359h-4l-248 361v-591h-80v745z" />
    <glyph glyph-name="N" unicode="N" horiz-adv-x="736" 
d="M88 745h70l410 -588v588h80v-745h-70l-410 592v-592h-80v745z" />
    <glyph glyph-name="O" unicode="O" horiz-adv-x="878" 
d="M250.5 37.5c-57 33 -102.001 78.835 -135.001 137.502s-49.5 124.667 -49.5 198s16.5 139.166 49.5 197.499s78 104 135 137s119.833 49.5 188.5 49.5s131.334 -16.5 188.001 -49.5s101.667 -78.833 135 -137.5s50 -124.334 50 -197.001
c0 -73.333 -16.5 -139.333 -49.5 -198s-78 -104.5 -135 -137.5s-119.833 -49.5 -188.5 -49.5s-131.5 16.5 -188.5 49.5zM183.499 217.002c25 -47.333 59.833 -84.833 104.5 -112.5s95 -41.5 151 -41.5s106.333 13.833 151 41.5s79.5 65.167 104.5 112.5
s37.5 99.333 37.5 156c0 56 -12.5 107.667 -37.5 155s-59.833 84.833 -104.5 112.5s-95 41.5 -151 41.5s-106.333 -13.833 -151 -41.5s-79.5 -65.167 -104.5 -112.5s-37.5 -99 -37.5 -155c0 -56.667 12.5 -108.667 37.5 -156z" />
    <glyph glyph-name="P" unicode="P" horiz-adv-x="643" 
d="M88 745l256.001 0.000976562c48 0 90.5 -9.5 127.5 -28.5s65.667 -45.833 86 -80.5s30.5 -74.334 30.5 -119.001s-10.167 -84.167 -30.5 -118.5s-48.833 -61 -85.5 -80s-79.334 -28.5 -128.001 -28.5h-176v-290h-80v745zM348.001 365.001
c48.667 0 87.5 13.668 116.5 41.001s43.5 64.666 43.5 111.999c0 46.667 -14.5 83.667 -43.5 111s-67.833 41 -116.5 41h-180v-305h180z" />
    <glyph glyph-name="Q" unicode="Q" horiz-adv-x="878" 
d="M250.5 37.5c-57 33 -102.001 78.835 -135.001 137.502s-49.5 124.667 -49.5 198s16.5 139.166 49.5 197.499s78 104 135 137s119.833 49.5 188.5 49.5s131.334 -16.5 188.001 -49.5s101.667 -78.833 135 -137.5s50 -124.334 50 -197.001
c0 -50.667 -8.33301 -98.5 -25 -143.5s-40 -84.5 -70 -118.5l94 -104l-70 -54l-90 100c-62 -43.333 -132.667 -65 -212 -65c-68.667 0 -131.5 16.5 -188.5 49.5zM183.499 217.002c25 -47.333 59.833 -84.834 104.5 -112.501s95 -41.5 151 -41.5c60 0 113.333 15.667 160 47
l-173 191l71 53l167 -184c22 27.333 38.833 58.333 50.5 93s17.5 71.334 17.5 110.001c0 56 -12.5 107.667 -37.5 155s-59.833 84.833 -104.5 112.5s-95 41.5 -151 41.5s-106.333 -13.833 -151 -41.5s-79.5 -65.167 -104.5 -112.5s-37.5 -99 -37.5 -155
c0 -56.667 12.5 -108.667 37.5 -156z" />
    <glyph glyph-name="R" unicode="R" horiz-adv-x="641" 
d="M88 745h256c48 0 90.5 -9.5 127.5 -28.5s65.667 -45.833 86 -80.5s30.5 -74.334 30.5 -119.001c0 -52.667 -13.667 -97.667 -41 -135s-65 -63.666 -113 -78.999l174 -303h-94l-164 290h-182v-290h-80v745zM348 365c48.667 0 87.5 13.668 116.5 41.001
s43.5 64.666 43.5 111.999c0 46.667 -14.5 83.667 -43.5 111s-67.833 41 -116.5 41h-180v-305h180z" />
    <glyph glyph-name="S" unicode="S" horiz-adv-x="646" 
d="M211.5 14.5c-39 17.667 -72.001 41.6699 -99.001 72.0029s-46.167 64.166 -57.5 101.499l72 25c10.667 -32 27.834 -59.5 51.501 -82.5s50 -40.5 79 -52.5s56.167 -18 81.5 -18c30 0 57.333 6.5 82 19.5s44 29.167 58 48.5s21 38 21 56c0 30 -10.333 57.333 -31 82
s-49 41 -85 49l-134 31c-50.667 11.333 -90.667 37 -120 77s-44 84 -44 132c0 38.667 9.66699 73.334 29 104.001s45.833 54.667 79.5 72s71.834 26 114.501 26s82.167 -8 118.5 -24s67 -37.5 92 -64.5s42.833 -56.833 53.5 -89.5l-70 -28c-10 28 -25.833 52.167 -47.5 72.5
s-45.5 35.666 -71.5 45.999s-50.667 15.5 -74 15.5c-27.333 0 -52 -6 -74 -18s-39.167 -27.667 -51.5 -47s-18.5 -39 -18.5 -59c0 -30.667 11.333 -59.334 34 -86.001s50.667 -43.667 84 -51l118 -27c57.333 -13.333 101.333 -38.333 132 -75s46 -80.334 46 -131.001
c0 -39.333 -10.167 -74.5 -30.5 -105.5s-48.833 -55 -85.5 -72s-78.334 -25.5 -125.001 -25.5c-46 0 -88.5 8.83301 -127.5 26.5z" />
    <glyph glyph-name="T" unicode="T" horiz-adv-x="512" 
d="M217 670h-206v75h490v-75h-204v-670h-80v670z" />
    <glyph glyph-name="U" unicode="U" horiz-adv-x="700" 
d="M211.5 20.5c-40.333 21.667 -71.5 51.834 -93.5 90.501s-33 82.667 -33 132v502h80v-502c0 -54 17 -97.5 51 -130.5s78.667 -49.5 134 -49.5s100 16.5 134 49.5s51 76.5 51 130.5v502h80v-502c0 -49.333 -11 -93.333 -33 -132s-53.167 -68.834 -93.5 -90.501
s-86.5 -32.5 -138.5 -32.5s-98.167 10.833 -138.5 32.5z" />
    <glyph glyph-name="V" unicode="V" horiz-adv-x="652" 
d="M11 745h83l232 -651l231 651h84l-273 -745h-84z" />
    <glyph glyph-name="W" unicode="W" horiz-adv-x="984" 
d="M11 745h81l177 -637l181 637h85l180 -635l177 635h81l-214 -745h-85l-182 638l-182 -638h-85z" />
    <glyph glyph-name="X" unicode="X" horiz-adv-x="597" 
d="M253 380l-234 365h90l189 -297l189 297h90l-234 -365l243 -380h-90l-198 311l-199 -311h-88z" />
    <glyph glyph-name="Y" unicode="Y" horiz-adv-x="623" 
d="M272 346l-261 399h89l212 -323l211 323h89l-260 -399v-346h-80v346z" />
    <glyph glyph-name="Z" unicode="Z" horiz-adv-x="584" 
d="M22 54l426 616h-401v75h506v-54l-425 -616h434v-75h-540v54z" />
    <glyph glyph-name="bracketleft" unicode="[" horiz-adv-x="315" 
d="M88 745h200v-70h-120v-745h120v-70h-200v885z" />
    <glyph glyph-name="backslash" unicode="\" horiz-adv-x="429" 
d="M2 785h87l338 -825h-87z" />
    <glyph glyph-name="bracketright" unicode="]" horiz-adv-x="315" 
d="M27 -70h120v745h-120v70h200v-885h-200v70z" />
    <glyph glyph-name="asciicircum" unicode="^" horiz-adv-x="504" 
d="M217 745h70l169 -320h-86l-117 227l-119 -227h-86z" />
    <glyph glyph-name="underscore" unicode="_" horiz-adv-x="598" 
d="M74 0h450v-70h-450v70z" />
    <glyph glyph-name="grave" unicode="`" horiz-adv-x="360" 
d="M103 784h76l78 -144h-63z" />
    <glyph glyph-name="a" unicode="a" horiz-adv-x="572" 
d="M141.5 7.5c-27 13 -48.168 30.998 -63.501 53.998s-23 48.833 -23 77.5c0 43.333 14.167 80 42.5 110s71.166 49.667 128.499 59l194 32v28c0 32 -11.667 58 -35 78s-53.666 30 -90.999 30c-32 0 -60.333 -8 -85 -24s-43.334 -37.333 -56.001 -64l-68 37
c15.333 34.667 42.833 63.834 82.5 87.501s81.834 35.5 126.501 35.5c38.667 0 73.334 -7.66699 104.001 -23s54.5 -36.666 71.5 -63.999s25.5 -58.333 25.5 -93v-368h-75v77c-18 -26.667 -43.667 -48.167 -77 -64.5s-70.333 -24.5 -111 -24.5
c-33.333 0 -63.5 6.5 -90.5 19.5zM163.999 80.998c19.333 -16.667 43.667 -25 73 -25c35.333 0 67 7.66699 95 23s49.667 36.5 65 63.5s23 56.833 23 89.5v40l-176 -29c-37.333 -6 -64.833 -17.833 -82.5 -35.5s-26.5 -39.5 -26.5 -65.5c0 -24 9.66699 -44.333 29 -61z" />
    <glyph glyph-name="b" unicode="b" horiz-adv-x="667" 
d="M234.5 14c-34.333 17.333 -61.834 41.6699 -82.501 73.0029v-87h-75v757h75v-302c22 29.333 49.833 52.166 83.5 68.499s71.167 24.5 112.5 24.5c50 0 95.167 -12.167 135.5 -36.5s71.833 -57.833 94.5 -100.5s34 -90.334 34 -143.001s-11.5 -100.334 -34.5 -143.001
s-54.5 -76.167 -94.5 -100.5s-85 -36.5 -135 -36.5c-41.333 0 -79.166 8.66699 -113.499 26zM177.499 164.004c17 -31.333 40.167 -56 69.5 -74s61.666 -27 96.999 -27s67.333 9 96 27s51.167 42.5 67.5 73.5s24.5 65.833 24.5 104.5s-8.16699 73.5 -24.5 104.5
s-38.833 55.5 -67.5 73.5s-60.667 27 -96 27s-67.666 -9 -96.999 -27s-52.5 -42.667 -69.5 -74s-25.5 -66 -25.5 -104s8.5 -72.667 25.5 -104z" />
    <glyph glyph-name="c" unicode="c" horiz-adv-x="600" 
d="M181.5 24.5c-41 24.333 -72.833 57.8311 -95.5 100.498s-34 90.667 -34 144c0 52.667 11.333 100.334 34 143.001s54.5 76 95.5 100s87.833 36 140.5 36c49.333 0 95 -12.833 137 -38.5s71.667 -58.5 89 -98.5l-68 -35c-14 29.333 -35.167 52.833 -63.5 70.5
s-59.833 26.5 -94.5 26.5s-66.5 -8.83301 -95.5 -26.5s-52 -42.167 -69 -73.5s-25.5 -66.333 -25.5 -105c0 -38 8.5 -72.667 25.5 -104s40 -56 69 -74s60.833 -27 95.5 -27c35.333 0 67 8.83301 95 26.5s49 41.834 63 72.501l68 -37c-18 -39.333 -48 -72 -90 -98
s-87.333 -39 -136 -39c-52.667 0 -99.5 12.167 -140.5 36.5z" />
    <glyph glyph-name="d" unicode="d" horiz-adv-x="667" 
d="M184 24.5c-40 24.333 -71.501 57.8291 -94.501 100.496s-34.5 90.334 -34.5 143.001s11.333 100.334 34 143.001s54.167 76.167 94.5 100.5s85.5 36.5 135.5 36.5c41.333 0 78.833 -8.16699 112.5 -24.5s61.5 -39.166 83.5 -68.499v302h75v-757h-75v87
c-20.667 -31.333 -48.167 -55.666 -82.5 -72.999s-72.166 -26 -113.499 -26c-50 0 -95 12.167 -135 36.5zM159.499 163.496c16.333 -31 38.833 -55.5 67.5 -73.5s60.667 -27 96 -27s67.666 9 96.999 27s52.5 42.667 69.5 74s25.5 66 25.5 104s-8.5 72.667 -25.5 104
s-40.167 56 -69.5 74s-61.666 27 -96.999 27s-67.333 -9 -96 -27s-51.167 -42.5 -67.5 -73.5s-24.5 -65.833 -24.5 -104.5s8.16699 -73.5 24.5 -104.5z" />
    <glyph glyph-name="e" unicode="e" horiz-adv-x="615" 
d="M186 24.5c-40.667 24.333 -72.665 57.9971 -95.998 100.997s-35 91.167 -35 144.5c0 52.667 11.167 100.167 33.5 142.5s53.166 75.5 92.499 99.5s83.333 36 132 36c49.333 0 92.666 -12 129.999 -36s66.166 -55.667 86.499 -95s30.5 -80.666 30.5 -123.999
c0 -16.667 -1.33301 -32.667 -4 -48h-422c0.666992 -37.333 9.83398 -70.166 27.501 -98.499s40.667 -50.166 69 -65.499s58.5 -23 90.5 -23c70 0 124.667 32.667 164 98l64 -34c-17.333 -38 -46.5 -69.833 -87.5 -95.5s-87.833 -38.5 -140.5 -38.5
c-49.333 0 -94.333 12.167 -135 36.5zM479.002 314.997c0 30.667 -7.5 58.501 -22.5 83.501s-35.167 44.5 -60.5 58.5s-53 21 -83 21c-29.333 0 -56.833 -6.66699 -82.5 -20s-47 -32.333 -64 -57s-27.167 -53.334 -30.5 -86.001h343z" />
    <glyph glyph-name="f" unicode="f" horiz-adv-x="393" 
d="M132 461h-106.999v75h107v48c0 36 8.16699 67 24.5 93s38.166 45.833 65.499 59.5s57 20.5 89 20.5c17.333 0 32 -1.66699 44 -5v-68c-8.66699 2 -20.667 3 -36 3c-34.667 0 -62 -8.16699 -82 -24.5s-30 -42.5 -30 -78.5v-48h131v-75h-131v-461h-75v461z" />
    <glyph glyph-name="g" unicode="g" horiz-adv-x="662" 
d="M187.5 -184c-41 24 -70.833 56.001 -89.5 96.001l69 37c11.333 -27.333 31 -49.833 59 -67.5s62.333 -26.5 103 -26.5c32.667 0 62.834 6.5 90.501 19.5s49.667 32 66 57s24.5 54.833 24.5 89.5v86c-20 -31.333 -46.833 -55.666 -80.5 -72.999s-70.5 -26 -110.5 -26
c-49.333 0 -94.166 12 -134.499 36s-72 56.5 -95 97.5s-34.5 86.5 -34.5 136.5s11.5 95.5 34.5 136.5s54.5 73.5 94.5 97.5s85 36 135 36c38.667 0 74.667 -8.33301 108 -25s61 -39.334 83 -68.001v81h75v-515c0 -46 -10.833 -87.333 -32.5 -124
s-51.834 -65.334 -90.501 -86.001s-82.334 -31 -131.001 -31c-54.667 0 -102.5 12 -143.5 36zM159.5 180.501c16.333 -29.667 38.833 -53.332 67.5 -70.999s60.667 -26.5 96 -26.5c34 0 65.333 8.83301 94 26.5s51.334 41.5 68.001 71.5s25 62.333 25 97s-8.33301 67 -25 97
s-39.334 53.833 -68.001 71.5s-60 26.5 -94 26.5c-34.667 0 -66.5 -8.83301 -95.5 -26.5s-51.667 -41.334 -68 -71.001s-24.5 -62.167 -24.5 -97.5s8.16699 -67.833 24.5 -97.5z" />
    <glyph glyph-name="h" unicode="h" 
d="M77 757l75 -0.000976562v-287c16 24.667 37.5 43.834 64.5 57.501s56.833 20.5 89.5 20.5c37.333 0 71.333 -8.66699 102 -26s54.834 -41.333 72.501 -72s26.5 -64.667 26.5 -102v-348h-75v319c0 47.333 -13 84.833 -39 112.5s-59.333 41.5 -100 41.5
s-74.334 -14 -101.001 -42s-40 -65.333 -40 -112v-319h-75v757z" />
    <glyph glyph-name="i" unicode="i" horiz-adv-x="229" 
d="M77 536h75v-536h-75v536zM80 712c9.33301 9.33301 21 14 35 14s25.667 -4.66699 35 -14s14 -21 14 -35s-4.66699 -25.667 -14 -35s-21 -14 -35 -14s-25.667 4.66699 -35 14s-14 21 -14 35s4.66699 25.667 14 35z" />
    <glyph glyph-name="j" unicode="j" horiz-adv-x="229" 
d="M-63 -216v69c14 -2 28 -3 42 -3c28.667 0 52.167 8.66699 70.5 26s27.5 42 27.5 74v586h75v-586c0 -53.333 -16.667 -95 -50 -125s-75 -45 -125 -45c-18 0 -31.333 1.33301 -40 4zM80 712c9.33301 9.33301 21 14 35 14s25.667 -4.66699 35 -14s14 -21 14 -35
s-4.66699 -25.667 -14 -35s-21 -14 -35 -14s-25.667 4.66699 -35 14s-14 21 -14 35s4.66699 25.667 14 35z" />
    <glyph glyph-name="k" unicode="k" horiz-adv-x="548" 
d="M77 757h75v-493l269 272h97l-210 -215l229 -321h-90l-193 266l-102 -105v-161h-75v757z" />
    <glyph glyph-name="l" unicode="l" horiz-adv-x="229" 
d="M77 757h75v-757h-75v757z" />
    <glyph glyph-name="m" unicode="m" horiz-adv-x="908" 
d="M77 536l74.999 -0.00390625v-66c16 24.667 37.167 43.834 63.5 57.501s54.833 20.5 85.5 20.5c36.667 0 70.334 -9.16699 101.001 -27.5s54.334 -43.166 71.001 -74.499c16 32.667 39.167 57.834 69.5 75.501s63.5 26.5 99.5 26.5s69.167 -8.83301 99.5 -26.5
s54.666 -41.667 72.999 -72s27.5 -64.166 27.5 -101.499v-348h-75v319c0 47.333 -12.5 84.833 -37.5 112.5s-57.167 41.5 -96.5 41.5s-71.833 -14 -97.5 -42s-38.5 -65.333 -38.5 -112v-319h-75v319c0 47.333 -12.5 84.833 -37.5 112.5s-57.167 41.5 -96.5 41.5
s-71.833 -14 -97.5 -42s-38.5 -65.333 -38.5 -112v-319h-75v536z" />
    <glyph glyph-name="n" unicode="n" 
d="M77 536l74.999 -0.000976562v-66c16 24.667 37.5 43.834 64.5 57.501s56.833 20.5 89.5 20.5c37.333 0 71.333 -8.66699 102 -26s54.834 -41.333 72.501 -72s26.5 -64.667 26.5 -102v-348h-75v319c0 48 -12.667 85.667 -38 113s-59 41 -101 41s-76 -13.833 -102 -41.5
s-39 -65.167 -39 -112.5v-319h-75v536z" />
    <glyph glyph-name="o" unicode="o" horiz-adv-x="655" 
d="M190.5 24.5c-41.667 24.333 -74.667 58.002 -99 101.002s-36.5 90.833 -36.5 143.5s11.833 100.167 35.5 142.5s56.334 75.666 98.001 99.999s88.167 36.5 139.5 36.5s97.666 -12 138.999 -36s73.833 -57.333 97.5 -100s35.5 -90.334 35.5 -143.001
c0 -54 -12.167 -102.333 -36.5 -145s-57.333 -76 -99 -100s-87.167 -36 -136.5 -36c-50 0 -95.833 12.167 -137.5 36.5zM160.5 164.002c17 -31.333 40.333 -56 70 -74s62.167 -27 97.5 -27s67.666 9 96.999 27s52.5 42.833 69.5 74.5s25.5 66.5 25.5 104.5
s-8.5 72.5 -25.5 103.5s-40.167 55.5 -69.5 73.5s-61.666 27 -96.999 27s-67.833 -9 -97.5 -27s-53 -42.5 -70 -73.5s-25.5 -65.5 -25.5 -103.5c0 -38.667 8.5 -73.667 25.5 -105z" />
    <glyph glyph-name="p" unicode="p" horiz-adv-x="667" 
d="M77 536l74.999 0.00390625v-81c22 29.333 49.833 52.166 83.5 68.499s71.167 24.5 112.5 24.5c50 0 95.167 -12.167 135.5 -36.5s71.833 -57.833 94.5 -100.5s34 -90.334 34 -143.001s-11.5 -100.334 -34.5 -143.001s-54.5 -76.167 -94.5 -100.5s-85 -36.5 -135 -36.5
c-41.333 0 -79.166 8.66699 -113.499 26s-61.833 41.666 -82.5 72.999v-287h-75v736zM177.499 164.004c17 -31.333 40.167 -56 69.5 -74s61.666 -27 96.999 -27s67.333 9 96 27s51.167 42.5 67.5 73.5s24.5 65.833 24.5 104.5s-8.16699 73.5 -24.5 104.5
s-38.833 55.5 -67.5 73.5s-60.667 27 -96 27s-67.666 -9 -96.999 -27s-52.5 -42.667 -69.5 -74s-25.5 -66 -25.5 -104s8.5 -72.667 25.5 -104z" />
    <glyph glyph-name="q" unicode="q" horiz-adv-x="667" 
d="M515 87c-20.667 -31.333 -48.168 -55.6699 -82.501 -73.0029s-72.166 -26 -113.499 -26c-50 0 -95 12.167 -135 36.5s-71.5 57.833 -94.5 100.5s-34.5 90.334 -34.5 143.001s11.333 100.334 34 143.001s54.167 76.167 94.5 100.5s85.5 36.5 135.5 36.5
c41.333 0 78.833 -8.16699 112.5 -24.5s61.5 -39.166 83.5 -68.499v81h75v-736h-75v287zM159.499 163.496c16.333 -31 38.833 -55.5 67.5 -73.5s60.667 -27 96 -27s67.666 9 96.999 27s52.5 42.667 69.5 74s25.5 66 25.5 104s-8.5 72.667 -25.5 104s-40.167 56 -69.5 74
s-61.666 27 -96.999 27s-67.333 -9 -96 -27s-51.167 -42.5 -67.5 -73.5s-24.5 -65.833 -24.5 -104.5s8.16699 -73.5 24.5 -104.5z" />
    <glyph glyph-name="r" unicode="r" horiz-adv-x="338" 
d="M77 536l75 -0.000976562v-58c14 20.667 33 36.667 57 48s52 17 84 17h34v-75h-47c-39.333 0 -70.5 -12.167 -93.5 -36.5s-34.5 -58.166 -34.5 -101.499v-330h-75v536z" />
    <glyph glyph-name="s" unicode="s" horiz-adv-x="509" 
d="M131 25.5c-38.667 25 -67 59.4961 -85 103.496l63 32c16 -32.667 37.833 -58.334 65.5 -77.001s57.834 -28 90.501 -28s59.834 7.83301 81.501 23.5s32.5 36.167 32.5 61.5s-10 45.666 -30 60.999s-40.333 24 -61 26l-77 9c-48.667 12.667 -84.667 32.834 -108 60.501
s-35 59.5 -35 95.5c0 30.667 8 57.834 24 81.501s37.833 41.834 65.5 54.501s58.5 19 92.5 19c44.667 0 85.167 -11.667 121.5 -35s62.166 -55 77.499 -95l-63 -32c-14 29.333 -33.5 52.333 -58.5 69s-52.167 25 -81.5 25c-30 0 -54.167 -7.5 -72.5 -22.5
s-27.5 -34.5 -27.5 -58.5c0 -25.333 8.83301 -45.333 26.5 -60s35.5 -23 53.5 -25l89 -10c44 -12 78.5 -32.667 103.5 -62s37.5 -62.666 37.5 -99.999c0 -29.333 -8 -55.666 -24 -78.999s-38.5 -41.666 -67.5 -54.999s-62.167 -20 -99.5 -20
c-50.667 0 -95.334 12.5 -134.001 37.5z" />
    <glyph glyph-name="t" unicode="t" horiz-adv-x="388" 
d="M171 36c-26 28 -39.001 68 -39.001 120v305h-99v75h25c22 0 39.833 7.33301 53.5 22s20.5 33.667 20.5 57v45h75v-124h118v-75h-118v-305c0 -29.333 6.66699 -52 20 -68s36 -24 68 -24c14.667 0 27.334 1 38.001 3v-68c-13.333 -3.33301 -30.333 -5 -51 -5
c-48 0 -85 14 -111 42z" />
    <glyph glyph-name="u" unicode="u" 
d="M165 14.5c-30.667 17.667 -54.833 42.5 -72.5 74.5s-26.5 68.333 -26.5 109v338h75v-329c0 -43.333 12.833 -78.166 38.5 -104.499s59.167 -39.5 100.5 -39.5c42 0 76 13.833 102 41.5s39 65.167 39 112.5v319h75v-536h-75v66c-16 -24.667 -37.5 -43.834 -64.5 -57.501
s-56.833 -20.5 -89.5 -20.5c-37.333 0 -71.333 8.83301 -102 26.5z" />
    <glyph glyph-name="v" unicode="v" horiz-adv-x="517" 
d="M11 536h84l163 -434l163 434h85l-211 -536h-75z" />
    <glyph glyph-name="w" unicode="w" horiz-adv-x="797" 
d="M11 536h85l137 -421l128 421h75l129 -421l137 421h84l-184 -536h-75l-128 424l-129 -424h-75z" />
    <glyph glyph-name="x" unicode="x" horiz-adv-x="487" 
d="M199 268l-187 268h92l140 -204l140 204h92l-187 -268l187 -268h-92l-140 204l-140 -204h-93z" />
    <glyph glyph-name="y" unicode="y" horiz-adv-x="536" 
d="M225 -1l-214 538h81l175 -443l175 443h83l-299 -737h-84z" />
    <glyph glyph-name="z" unicode="z" horiz-adv-x="449" 
d="M22 65l301 396h-284v75h386v-65l-300 -396h302v-75h-405v65z" />
    <glyph glyph-name="braceleft" unicode="{" horiz-adv-x="317" 
d="M151.5 -101.5c-26.333 25.667 -39.499 59.8301 -39.499 102.497v193c0 22.667 -5.33301 40.5 -16 53.5s-26.667 19.5 -48 19.5h-28v70h28c21.333 0 37.333 6.5 48 19.5s16 30.833 16 53.5v194c0 42.667 13.167 76.834 39.5 102.501s61.166 38.5 104.499 38.5h34v-70h-34
c-20 0 -36 -6.5 -48 -19.5s-17.333 -30.167 -16 -51.5v-190c3.33301 -44.667 -12.667 -82 -48 -112c16 -13.333 28.167 -29.666 36.5 -48.999s12.166 -39.666 11.499 -60.999v-191c-1.33301 -21.333 4 -38.5 16 -51.5s28 -19.5 48 -19.5h34v-70h-34
c-43.333 0 -78.166 12.833 -104.499 38.5z" />
    <glyph glyph-name="bar" unicode="|" horiz-adv-x="300" 
d="M110 845h80v-1035h-80v1035z" />
    <glyph glyph-name="braceright" unicode="}" horiz-adv-x="317" 
d="M27 -70l34.001 0.00390625c20 0 36 6.5 48 19.5s17.333 30.167 16 51.5v191c-0.666992 21.333 3.16602 41.666 11.499 60.999s20.5 35.666 36.5 48.999c-35.333 30 -51.333 67.333 -48 112v190c1.33301 21.333 -4 38.5 -16 51.5s-28 19.5 -48 19.5h-34v70h34
c43.333 0 78.166 -12.833 104.499 -38.5s39.5 -59.834 39.5 -102.501v-194c0 -22.667 5.33301 -40.5 16 -53.5s26.667 -19.5 48 -19.5h28v-70h-28c-21.333 0 -37.333 -6.5 -48 -19.5s-16 -30.833 -16 -53.5v-193c0 -42.667 -13.167 -76.834 -39.5 -102.501
s-61.166 -38.5 -104.499 -38.5h-34v70z" />
    <glyph glyph-name="asciitilde" unicode="~" horiz-adv-x="618" 
d="M352.5 230c-15.667 6.66699 -32.834 16.334 -51.501 29.001c-16 10.667 -29.333 18.5 -40 23.5s-22.667 7.5 -36 7.5c-19.333 0 -35.333 -5.83301 -48 -17.5s-20.667 -28.167 -24 -49.5h-67c4 44 17.5 77.833 40.5 101.5s52.833 35.5 89.5 35.5
c20.667 0 38.834 -3.33301 54.501 -10s32.834 -16.334 51.501 -29.001c16 -10.667 29.333 -18.5 40 -23.5s22.667 -7.5 36 -7.5c36.667 0 58.667 22.333 66 67h67c-4 -44.667 -16.667 -78.667 -38 -102s-50 -35 -86 -35c-20.667 0 -38.834 3.33301 -54.501 10z" />
    <glyph glyph-name="uni00A0" unicode="&#xa0;" horiz-adv-x="170" 
 />
    <glyph glyph-name="exclamdown" unicode="&#xa1;" horiz-adv-x="282" 
d="M106 322h70l5 -531h-80zM107 522c9.33301 9.33301 20.667 14.001 34 14.001s24.666 -4.5 33.999 -13.5s14 -20.5 14 -34.5s-4.5 -25.667 -13.5 -35s-20.5 -14 -34.5 -14c-13.333 0 -24.666 4.66699 -33.999 14s-14 21 -14 35c0 13.333 4.66699 24.666 14 33.999z" />
    <glyph glyph-name="cent" unicode="&#xa2;" horiz-adv-x="600" 
d="M280 96c-44.667 6 -84 21.835 -118 47.502s-60.333 58.5 -79 98.5s-28 84 -28 132s9.33301 91.833 28 131.5s45 72.167 79 97.5s73.333 41 118 47v95h70v-94c43.333 -4.66699 82.666 -19.334 117.999 -44.001s61 -55 77 -91l-68 -35c-12 24.667 -29 45.5 -51 62.5
s-47.333 27.833 -76 32.5v-406c28.667 4.66699 54 15.5 76 32.5s39 38.5 51 64.5l68 -37c-16 -36 -41.667 -66.333 -77 -91s-74.666 -39.334 -117.999 -44.001v-95h-70v96zM175.5 243.002c27 -36.667 61.833 -59.999 104.5 -69.999v400
c-42.667 -9.33301 -77.5 -32.333 -104.5 -69s-40.5 -80.334 -40.5 -131.001c0 -50 13.5 -93.333 40.5 -130z" />
    <glyph glyph-name="sterling" unicode="&#xa3;" horiz-adv-x="643" 
d="M44 70l100 -0.000976562v276h-100v65h100v129c0 42.667 9.5 80.334 28.5 113.001s45.833 58.167 80.5 76.5s74.667 27.5 120 27.5c61.333 0 112.5 -17.333 153.5 -52s65.167 -82 72.5 -142l-73 -16c-4.66699 44.667 -20.667 79.167 -48 103.5s-62.333 36.5 -105 36.5
c-46.667 0 -83.167 -13 -109.5 -39s-39.5 -62 -39.5 -108v-129h169v-65h-169v-276h339v-70h-519v70z" />
    <glyph glyph-name="currency" unicode="&#xa4;" horiz-adv-x="588" 
d="M55 79l76 76c-24.667 34 -37 72 -37 114c0 40.667 12.333 78.667 37 114l-76 76l49 49l76 -76c35.333 24.667 73.333 37 114 37c41.333 0 79.333 -12.333 114 -37l76 76l49 -49l-76 -76c24.667 -35.333 37 -73.333 37 -114c0 -42 -12.333 -80 -37 -114l76 -76l-49 -49
l-76 76c-34 -24.667 -72 -37 -114 -37c-41.333 0 -79.333 12.333 -114 37l-76 -76zM205.5 181c24.333 -24 53.833 -36 88.5 -36c34 0 63.167 12 87.5 36s36.5 53.333 36.5 88c0 22.667 -5.66699 43.5 -17 62.5s-26.5 34.167 -45.5 45.5s-39.5 17 -61.5 17
c-34.667 0 -64.167 -12.167 -88.5 -36.5s-36.5 -53.833 -36.5 -88.5s12.167 -64 36.5 -88z" />
    <glyph glyph-name="yen" unicode="&#xa5;" horiz-adv-x="623" 
d="M272 153h-135v65h135v90h-135v65h117l-243 372h89l212 -323l211 323h89l-242 -372h116v-65h-134v-90h134v-65h-134v-153h-80v153z" />
    <glyph glyph-name="brokenbar" unicode="&#xa6;" horiz-adv-x="300" 
d="M110 845h80v-417h-80v417zM110 228h80v-418h-80v418z" />
    <glyph glyph-name="section" unicode="&#xa7;" horiz-adv-x="529" 
d="M132 -64c-40.667 27.333 -69.999 64.3301 -87.999 110.997l65 31c16.667 -35.333 39.5 -63 68.5 -83s61.167 -30 96.5 -30c34.667 0 63.5 8.5 86.5 25.5s34.5 38.833 34.5 65.5c0 42 -31.667 71.667 -95 89l-82 24c-98 28.667 -147 80 -147 154
c0 30.667 7.83301 58.167 23.5 82.5s37.167 43.5 64.5 57.5c-58.667 30 -88 73.667 -88 131c0 32 8.33301 60.333 25 85s39.5 43.834 68.5 57.501s60.833 20.5 95.5 20.5c47.333 0 90.333 -12.667 129 -38s66 -59.333 82 -102l-65 -31c-14.667 31.333 -35.167 56 -61.5 74
s-55.5 27 -87.5 27c-31.333 0 -56.833 -8.16699 -76.5 -24.5s-29.5 -37.166 -29.5 -62.499c0 -24.667 8.16699 -43.167 24.5 -55.5s36.166 -21.833 59.499 -28.5l94 -28c45.333 -13.333 80.833 -34.166 106.5 -62.499s38.5 -61.166 38.5 -98.499
c0 -28.667 -7.66699 -54.834 -23 -78.501s-36.333 -42.5 -63 -56.5c27.333 -16 48.5 -35.5 63.5 -58.5s22.5 -48.833 22.5 -77.5c0 -30.667 -8.5 -58.167 -25.5 -82.5s-40.667 -43.5 -71 -57.5s-64.833 -21 -103.5 -21c-54 0 -101.333 13.667 -142 41zM235.001 244.997
l80 -24.001c24 6.66699 43.333 18.5 58 35.5s22 37.167 22 60.5c0 46.667 -31.667 79.667 -95 99l-63 19c-26.667 -4 -47.667 -14.667 -63 -32s-23 -38.666 -23 -63.999c0 -46.667 28 -78 84 -94z" />
    <glyph glyph-name="dieresis" unicode="&#xa8;" horiz-adv-x="486" 
d="M119.5 676.5c-11 11 -16.5 24.833 -16.5 41.5c0 16 5.5 29.5 16.5 40.5s24.833 16.5 41.5 16.5c16 0 29.5 -5.5 40.5 -16.5s16.5 -24.5 16.5 -40.5c0 -16.667 -5.5 -30.5 -16.5 -41.5s-24.5 -16.5 -40.5 -16.5c-16.667 0 -30.5 5.5 -41.5 16.5zM284.5 758.5
c11 11 24.833 16.5 41.5 16.5c16 0 29.5 -5.5 40.5 -16.5s16.5 -24.5 16.5 -40.5c0 -16.667 -5.5 -30.5 -16.5 -41.5s-24.5 -16.5 -40.5 -16.5c-16.667 0 -30.5 5.5 -41.5 16.5s-16.5 24.833 -16.5 41.5c0 16 5.5 29.5 16.5 40.5z" />
    <glyph glyph-name="copyright" unicode="&#xa9;" horiz-adv-x="895" 
d="M254.5 39.5c-59 34.333 -105.667 81.001 -140 140.001s-51.5 123.5 -51.5 193.5c0 69.333 17.167 133.333 51.5 192s80.833 105.334 139.5 140.001s123.334 52 194.001 52c70 0 134.333 -17.333 193 -52s105.167 -81.334 139.5 -140.001s51.5 -122.667 51.5 -192
c0 -70.667 -17.333 -135.334 -52 -194.001s-81.334 -105.167 -140.001 -139.5s-122.667 -51.5 -192 -51.5c-70 0 -134.5 17.167 -193.5 51.5zM175 214.001c28 -48 66 -86 114 -114s101 -42 159 -42c57.333 0 110 14 158 42s86 66 114 114s42 101 42 159
c0 57.333 -14 110 -42 158s-66 86 -114 114s-100.667 42 -158 42c-58 0 -111 -14 -159 -42s-86 -66 -114 -114s-42 -100.667 -42 -158c0 -58 14 -111 42 -159zM278 480.501c17.333 31.667 41.502 56.498 72.502 74.498s65.5 27 103.5 27
c40.667 0 76.334 -10.167 107.001 -30.5s51.667 -45.166 63 -74.499l-62 -30c-8.66699 20.667 -22.334 37.667 -41.001 51s-41 20 -67 20c-39.333 0 -71.166 -13.5 -95.499 -40.5s-36.5 -61.833 -36.5 -104.5c0 -43.333 12.167 -78.5 36.5 -105.5s56.166 -40.5 95.499 -40.5
c25.333 0 47.5 6.5 66.5 19.5s32.833 30.167 41.5 51.5l62 -30c-11.333 -29.333 -32.333 -54.166 -63 -74.499s-66.334 -30.5 -107.001 -30.5c-38 0 -72.333 9 -103 27s-54.834 43 -72.501 75s-26.5 68 -26.5 108s8.66699 75.833 26 107.5z" />
    <glyph glyph-name="ordfeminine" unicode="&#xaa;" horiz-adv-x="455" 
d="M90.5 390.5c-23.667 19.667 -35.501 45.501 -35.501 77.501s10.667 58.333 32 79s52.666 34.334 93.999 41.001l124 21v15c0 19.333 -7.33301 35.166 -22 47.499s-33.667 18.5 -57 18.5c-20.667 0 -39.167 -5.33301 -55.5 -16s-28.166 -25 -35.499 -43l-62 31
c11.333 28 31.5 50.5 60.5 67.5s60.5 25.5 94.5 25.5c44.667 0 80.834 -12.167 108.501 -36.5s41.5 -55.833 41.5 -94.5v-255h-70v46c-14 -16.667 -31.667 -29.834 -53 -39.501s-45.333 -14.5 -72 -14.5c-38 0 -68.833 9.83301 -92.5 29.5zM149.499 434.501
c11.667 -9.66699 26.167 -14.499 43.5 -14.499c32.667 0 59.5 10.167 80.5 30.5s31.5 45.833 31.5 76.5v22l-109 -18c-42.667 -7.33301 -64 -27.333 -64 -60c0 -14.667 5.83301 -26.834 17.5 -36.501z" />
    <glyph glyph-name="guillemotleft" unicode="&#xab;" horiz-adv-x="540" 
d="M29 269l152 190h90l-152 -190l152 -190h-90zM421 459h90l-152 -190l152 -190h-90l-152 190z" />
    <glyph glyph-name="logicalnot" unicode="&#xac;" horiz-adv-x="676" 
d="M491 213h-425v75h500v-248h-75v173z" />
    <glyph glyph-name="uni00AD" unicode="&#xad;" horiz-adv-x="498" 
d="M74 303h350v-70h-350v70z" />
    <glyph glyph-name="registered" unicode="&#xae;" horiz-adv-x="639" 
d="M191 306.5c-39.333 23 -70.5 54.167 -93.5 93.5s-34.5 82 -34.5 128s11.5 88.667 34.5 128s54.167 70.5 93.5 93.5s82.333 34.5 129 34.5c46 0 88.667 -11.5 128 -34.5s70.5 -54.167 93.5 -93.5s34.5 -82 34.5 -128s-11.5 -88.667 -34.5 -128s-54.167 -70.5 -93.5 -93.5
s-82 -34.5 -128 -34.5c-46.667 0 -89.667 11.5 -129 34.5zM147.5 428.5c17.667 -30.333 41.667 -54.332 72 -71.999s63.833 -26.5 100.5 -26.5c36 0 69.167 8.66699 99.5 26s54.333 41.166 72 71.499s26.5 63.833 26.5 100.5c0 36 -8.83301 69.167 -26.5 99.5
s-41.667 54.333 -72 72s-63.5 26.5 -99.5 26.5c-36.667 0 -70.167 -8.83301 -100.5 -26.5s-54.333 -41.667 -72 -72s-26.5 -63.5 -26.5 -99.5s8.83301 -69.167 26.5 -99.5zM222 664.001l108.999 -0.000976562c28.667 0 51.834 -7.66699 69.501 -23
s26.5 -36.666 26.5 -63.999c0 -36 -15.333 -61.667 -46 -77l63 -106h-65l-54 95h-45v-95h-58v270zM330.999 541c10.667 0 19.5 3.5 26.5 10.5s10.5 15.5 10.5 25.5s-3.5 18.333 -10.5 25s-15.833 10 -26.5 10h-51v-71h51z" />
    <glyph glyph-name="macron" unicode="&#xaf;" horiz-adv-x="466" 
d="M103 730h260v-60h-260v60z" />
    <glyph glyph-name="degree" unicode="&#xb0;" horiz-adv-x="482" 
d="M159.5 460.5c-24.333 13.667 -43.5 32.667 -57.5 57s-21 51.166 -21 80.499s7 56.166 21 80.499s33.167 43.5 57.5 57.5s51.5 21 81.5 21s57.167 -7 81.5 -21s43.5 -33.167 57.5 -57.5s21 -51.166 21 -80.499s-7 -56.166 -21 -80.499s-33.167 -43.333 -57.5 -57
s-51.5 -20.5 -81.5 -20.5s-57.167 6.83301 -81.5 20.5zM171.5 528.5c18.333 -17.667 41.166 -26.499 68.499 -26.499s50.5 9 69.5 27s28.5 41 28.5 69c0 28.667 -9.5 52 -28.5 70s-42.167 27 -69.5 27s-50.166 -9 -68.499 -27s-27.5 -41.333 -27.5 -70
s9.16699 -51.834 27.5 -69.501z" />
    <glyph glyph-name="plusminus" unicode="&#xb1;" horiz-adv-x="606" 
d="M266 318h-213v75h213v172h75v-172h212v-75h-212v-173h-75v173zM53 75h500v-75h-500v75z" />
    <glyph glyph-name="uni00B2" unicode="&#xb2;" horiz-adv-x="427" 
d="M40 278l143.002 154.002l16 17c40 43.333 66.333 74.166 79 92.499s19 38.166 19 59.499c0 26 -7.83301 46.333 -23.5 61s-36.5 22 -62.5 22c-26.667 0 -49.334 -7.5 -68.001 -22.5s-31.667 -36.5 -39 -64.5l-68 19c8.66699 42 29.167 75.333 61.5 100
s70.166 37 113.499 37c48 0 87.167 -13.667 117.5 -41s45.5 -62.333 45.5 -105c0 -30 -8.16699 -57.833 -24.5 -83.5s-42.5 -58.167 -78.5 -97.5l-128 -137h242v-66h-345v55z" />
    <glyph glyph-name="uni00B3" unicode="&#xb3;" horiz-adv-x="436" 
d="M101 248c-32.667 22 -54.667 51.668 -66 89.001l65 26c9.33301 -25.333 24 -45 44 -59s43 -21 69 -21c32 0 57.667 9.16699 77 27.5s29 43.166 29 74.499c0 30.667 -9.83301 55 -29.5 73s-45.167 27 -76.5 27c-16.667 0 -32 -2.33301 -46 -7l-17 35l138 166h-226v66h312
v-63l-115 -141c41.333 -5.33301 74.5 -22 99.5 -50s37.5 -63 37.5 -105c0 -32 -7.83301 -61 -23.5 -87s-37.5 -46.5 -65.5 -61.5s-59.333 -22.5 -94 -22.5c-42 0 -79.333 11 -112 33z" />
    <glyph glyph-name="acute" unicode="&#xb4;" horiz-adv-x="360" 
d="M181 784h76l-91 -144h-63z" />
    <glyph glyph-name="uni00B5" unicode="&#xb5;" 
d="M66 536l75 -0.000976562v-329c0 -43.333 12.833 -78.166 38.5 -104.499s59.167 -39.5 100.5 -39.5c42 0 76 13.833 102 41.5s39 65.167 39 112.5v319h75v-536h-75v67c-15.333 -24.667 -36.5 -44 -63.5 -58s-57.167 -21 -90.5 -21c-48 0 -90 14.333 -126 43v-171h-75v676z
" />
    <glyph glyph-name="paragraph" unicode="&#xb6;" horiz-adv-x="398" 
d="M127 444.5c-24.667 14.333 -44 33.833 -58 58.5s-21 51.667 -21 81s7 56.333 21 81s33.333 44.167 58 58.5s51.667 21.5 81 21.5h80v-845h-80v523c-29.333 0 -56.333 7.16699 -81 21.5z" />
    <glyph glyph-name="periodcentered" unicode="&#xb7;" horiz-adv-x="286" 
d="M109 227c-9.33301 9.33301 -13.999 21.333 -13.999 36s4.66699 26.667 14 36s20.666 14 33.999 14s24.666 -4.66699 33.999 -14s14 -21.333 14 -36s-4.5 -26.667 -13.5 -36s-20.5 -14 -34.5 -14c-13.333 0 -24.666 4.66699 -33.999 14z" />
    <glyph glyph-name="cedilla" unicode="&#xb8;" horiz-adv-x="386" 
d="M138 -196c-14 2.66699 -25.6689 6.33203 -35.002 10.999l12 42c18.667 -7.33301 38.334 -11 59.001 -11c15.333 0 27.333 3.5 36 10.5s13 16.5 13 28.5c0 10 -3.16699 18 -9.5 24s-15.166 9 -26.499 9c-14 0 -27.667 -3.33301 -41 -10l-20 8l12 104h51l-6 -62
c8 1.33301 15 2 21 2c22.667 0 41.5 -6.66699 56.5 -20s22.5 -30.666 22.5 -51.999c0 -25.333 -9.5 -46.333 -28.5 -63s-44.5 -25 -76.5 -25c-12.667 0 -26 1.33301 -40 4z" />
    <glyph glyph-name="uni00B9" unicode="&#xb9;" horiz-adv-x="302" 
d="M120 678h-99v67h176v-522h-77v455z" />
    <glyph glyph-name="ordmasculine" unicode="&#xba;" horiz-adv-x="503" 
d="M153 386.5c-30 17 -53.832 40.5 -71.499 70.5s-26.5 63.667 -26.5 101s8.66699 71 26 101s41.166 53.5 71.499 70.5s63.5 25.5 99.5 25.5s69 -8.5 99 -25.5s53.667 -40.5 71 -70.5s26 -63.667 26 -101s-8.83301 -71 -26.5 -101s-41.5 -53.5 -71.5 -70.5
s-62.667 -25.5 -98 -25.5c-36 0 -69 8.5 -99 25.5zM166.501 467c23 -24.667 51.501 -37 85.501 -37c33.333 0 61.5 12.167 84.5 36.5s34.5 54.833 34.5 91.5s-11.5 67.167 -34.5 91.5s-51.167 36.5 -84.5 36.5c-34.667 0 -63.334 -12.167 -86.001 -36.5
s-34 -54.833 -34 -91.5c0 -36 11.5 -66.333 34.5 -91z" />
    <glyph glyph-name="guillemotright" unicode="&#xbb;" horiz-adv-x="540" 
d="M421 269l-152 190h90l152 -190l-152 -190h-90zM181 269l-152 190h90l152 -190l-152 -190h-90z" />
    <glyph glyph-name="onequarter" unicode="&#xbc;" horiz-adv-x="891" 
d="M101 683h-80v62h152v-417h-72v355zM567 745h82l-446 -745h-82zM722 93h-195v60l191 264h74v-264h60v-60h-60v-93h-70v93zM722 153v174l-124 -174h124z" />
    <glyph glyph-name="onehalf" unicode="&#xbd;" horiz-adv-x="852" 
d="M101 683h-80v62h152v-417h-72v355zM567 745h82l-446 -745h-82zM531 54l114.001 119.999c34 36 56.833 62 68.5 78s17.5 32 17.5 48c0 18 -5.66699 32.333 -17 43s-26.333 16 -45 16s-34.834 -5.5 -48.501 -16.5s-23.167 -26.5 -28.5 -46.5l-64 20
c6.66699 32.667 23.334 58.834 50.001 78.501s57 29.5 91 29.5c40 0 72.333 -11 97 -33s37 -50 37 -84c0 -24.667 -6.33301 -47 -19 -67s-32.334 -44.333 -59.001 -73l-99 -105h184v-62h-279v54z" />
    <glyph glyph-name="threequarters" unicode="&#xbe;" horiz-adv-x="982" 
d="M88.5 349c-27 18.667 -44.834 42.999 -53.501 72.999l62 23c7.33301 -18.667 18.333 -33.167 33 -43.5s31.334 -15.5 50.001 -15.5c22.667 0 41.167 6.66699 55.5 20s21.5 31.333 21.5 54c0 22 -7 39.5 -21 52.5s-32.667 19.5 -56 19.5c-15.333 0 -29 -2.66699 -41 -8
l-16 34l108 126h-173v61h254v-58l-87 -103c32 -5.33301 57.333 -19 76 -41s28 -49.333 28 -82c0 -26 -6.5 -49.667 -19.5 -71s-30.833 -38.166 -53.5 -50.499s-48 -18.5 -76 -18.5c-34 0 -64.5 9.33301 -91.5 28zM657.999 744.999h82l-446 -745h-82zM812.999 92.999h-195v60
l191 264h74v-264h60v-60h-60v-93h-70v93zM812.999 152.999v174l-124 -174h124z" />
    <glyph glyph-name="questiondown" unicode="&#xbf;" horiz-adv-x="499" 
d="M141.5 -196.5c-31 16.333 -55 38.1689 -72 65.502s-25.5 57 -25.5 89c0 25.333 4.83301 48.5 14.5 69.5s21.5 39.667 35.5 56s33 36.166 57 59.499l18 18c26.667 26.667 47.167 51.5 61.5 74.5s21.5 48.5 21.5 76.5v10h80v-10c0 -40 -9.33301 -74.167 -28 -102.5
s-46 -59.5 -82 -93.5c-23.333 -22 -41.166 -39.833 -53.499 -53.5s-22.833 -29.334 -31.5 -47.001s-13 -36.834 -13 -57.501c0 -30 11 -55.667 33 -77s51.667 -32 89 -32s69.333 11.667 96 35s43.667 54.333 51 93l71 -15c-9.33301 -55.333 -33.833 -99.666 -73.5 -132.999
s-87.834 -50 -144.501 -50c-38.667 0 -73.5 8.16699 -104.5 24.5zM249 536.003h80v-110h-80v110z" />
    <glyph glyph-name="Agrave" unicode="&#xc0;" horiz-adv-x="652" 
d="M283 745h86l272 -745h-84l-64 182h-333l-65 -182h-84zM465 257l-139 394l-140 -394h279zM203 993h76l78 -144h-63z" />
    <glyph glyph-name="Aacute" unicode="&#xc1;" horiz-adv-x="652" 
d="M283 745h86l272 -745h-84l-64 182h-333l-65 -182h-84zM465 257l-139 394l-140 -394h279zM372 993h76l-91 -144h-63z" />
    <glyph glyph-name="Acircumflex" unicode="&#xc2;" horiz-adv-x="652" 
d="M283 745h86l272 -745h-84l-64 182h-333l-65 -182h-84zM465 257l-139 394l-140 -394h279zM288 993h74l114 -144h-68l-83 103l-81 -103h-68z" />
    <glyph glyph-name="Atilde" unicode="&#xc3;" horiz-adv-x="652" 
d="M283 745h86l272 -745h-84l-64 182h-333l-65 -182h-84zM465 257l-139 394l-140 -394h279zM347.5 896c-10.333 4.66699 -21.167 11.334 -32.5 20.001c-1.33301 0.666992 -4.83301 3 -10.5 7s-11.167 6.83301 -16.5 8.5s-10.333 2.5 -15 2.5
c-19.333 0 -30.333 -13.333 -33 -40h-54c0.666992 30 8.5 53.667 23.5 71s34.167 26 57.5 26c15.333 0 28 -2.33301 38 -7s20.667 -11.334 32 -20.001c1.33301 -0.666992 4.83301 -3 10.5 -7s11.167 -6.83301 16.5 -8.5s10.333 -2.5 15 -2.5c20 0 31 13.333 33 40h54
c-0.666992 -30 -8.33398 -53.667 -23.001 -71s-33.667 -26 -57 -26c-15.333 0 -28.166 2.33301 -38.499 7z" />
    <glyph glyph-name="Adieresis" unicode="&#xc4;" horiz-adv-x="652" 
d="M283 745h86l272 -745h-84l-64 182h-333l-65 -182h-84zM465 257l-139 394l-140 -394h279zM202.5 885.5c-11 11 -16.5 24.833 -16.5 41.5c0 16 5.5 29.5 16.5 40.5s24.833 16.5 41.5 16.5c16 0 29.5 -5.5 40.5 -16.5s16.5 -24.5 16.5 -40.5
c0 -16.667 -5.5 -30.5 -16.5 -41.5s-24.5 -16.5 -40.5 -16.5c-16.667 0 -30.5 5.5 -41.5 16.5zM367.5 967.5c11 11 24.833 16.5 41.5 16.5c16 0 29.5 -5.5 40.5 -16.5s16.5 -24.5 16.5 -40.5c0 -16.667 -5.5 -30.5 -16.5 -41.5s-24.5 -16.5 -40.5 -16.5
c-16.667 0 -30.5 5.5 -41.5 16.5s-16.5 24.833 -16.5 41.5c0 16 5.5 29.5 16.5 40.5z" />
    <glyph glyph-name="Aring" unicode="&#xc5;" horiz-adv-x="652" 
d="M283 745h86l272 -745h-84l-64 182h-333l-65 -182h-84zM465 257l-139 394l-140 -394h279zM239.5 833.5c-23 23 -34.5 51.167 -34.5 84.5c0 34 11.5 62.5 34.5 85.5s51.833 34.5 86.5 34.5c34 0 62.5 -11.5 85.5 -34.5s34.5 -51.5 34.5 -85.5
c0 -33.333 -11.5 -61.5 -34.5 -84.5s-51.5 -34.5 -85.5 -34.5c-34.667 0 -63.5 11.5 -86.5 34.5zM278 870.5c12.667 -12.333 28.334 -18.5 47.001 -18.5s34.334 6.16699 47.001 18.5s19 28.166 19 47.499s-6.33301 35.333 -19 48s-28.334 19 -47.001 19
s-34.334 -6.16699 -47.001 -18.5s-19 -28.5 -19 -48.5c0 -19.333 6.33301 -35.166 19 -47.499z" />
    <glyph glyph-name="AE" unicode="&#xc6;" horiz-adv-x="985" 
d="M283 745h658v-75h-400v-259h380v-75h-380v-261h400v-75h-480v182h-301l-65 -182h-84zM461 257v413h-128l-147 -413h275z" />
    <glyph glyph-name="Ccedilla" unicode="&#xc7;" horiz-adv-x="781" 
d="M415 -12l-5.00195 -50.0039c8 1.33301 15 2 21 2c22.667 0 41.5 -6.66699 56.5 -20s22.5 -30.666 22.5 -51.999c0 -25.333 -9.5 -46.333 -28.5 -63s-44.5 -25 -76.5 -25c-12.667 0 -26 1.33301 -40 4s-25.667 6.33398 -35 11.001l12 42
c18.667 -7.33301 38.334 -11 59.001 -11c15.333 0 27.333 3.5 36 10.5s13 16.5 13 28.5c0 10 -3.16699 18 -9.5 24s-15.166 9 -26.499 9c-14 0 -27.667 -3.33301 -41 -10l-20 8l11 97c-58 9.33301 -109.667 31.333 -155 66s-80.5 79 -105.5 133s-37.5 114 -37.5 180
c0 73.333 15.5 139.333 46.5 198s74 104.5 129 137.5s117.167 49.5 186.5 49.5c48 0 92.333 -8.83301 133 -26.5s75.167 -40.667 103.5 -69s48.833 -58.5 61.5 -90.5l-75 -33c-19.333 44.667 -48.333 79.834 -87 105.501s-84 38.5 -136 38.5
c-54.667 0 -103.334 -13 -146.001 -39s-76 -62.5 -100 -109.5s-36 -100.833 -36 -161.5s12 -114.5 36 -161.5s57.333 -83.333 100 -109s91.334 -38.5 146.001 -38.5c52 0 97.333 12.667 136 38s67.667 60.333 87 105l75 -33c-12.667 -32 -33.167 -62.167 -61.5 -90.5
s-62.833 -51.166 -103.5 -68.499s-85 -26 -133 -26h-13z" />
    <glyph glyph-name="Egrave" unicode="&#xc8;" horiz-adv-x="612" 
d="M88 745h480v-75h-400v-259h380v-75h-380v-261h400v-75h-480v745zM205 993h76l78 -144h-63z" />
    <glyph glyph-name="Eacute" unicode="&#xc9;" horiz-adv-x="612" 
d="M88 745h480v-75h-400v-259h380v-75h-380v-261h400v-75h-480v745zM374 993h76l-91 -144h-63z" />
    <glyph glyph-name="Ecircumflex" unicode="&#xca;" horiz-adv-x="612" 
d="M88 745h480v-75h-400v-259h380v-75h-380v-261h400v-75h-480v745zM290 993h74l114 -144h-68l-83 103l-81 -103h-68z" />
    <glyph glyph-name="Edieresis" unicode="&#xcb;" horiz-adv-x="612" 
d="M88 745h480v-75h-400v-259h380v-75h-380v-261h400v-75h-480v745zM204.5 885.5c-11 11 -16.5 24.833 -16.5 41.5c0 16 5.5 29.5 16.5 40.5s24.833 16.5 41.5 16.5c16 0 29.5 -5.5 40.5 -16.5s16.5 -24.5 16.5 -40.5c0 -16.667 -5.5 -30.5 -16.5 -41.5
s-24.5 -16.5 -40.5 -16.5c-16.667 0 -30.5 5.5 -41.5 16.5zM369.5 967.5c11 11 24.833 16.5 41.5 16.5c16 0 29.5 -5.5 40.5 -16.5s16.5 -24.5 16.5 -40.5c0 -16.667 -5.5 -30.5 -16.5 -41.5s-24.5 -16.5 -40.5 -16.5c-16.667 0 -30.5 5.5 -41.5 16.5
s-16.5 24.833 -16.5 41.5c0 16 5.5 29.5 16.5 40.5z" />
    <glyph glyph-name="Igrave" unicode="&#xcc;" horiz-adv-x="256" 
d="M88 745h80v-745h-80v745zM5 993h76l78 -144h-63z" />
    <glyph glyph-name="Iacute" unicode="&#xcd;" horiz-adv-x="256" 
d="M88 745h80v-745h-80v745zM174 993h76l-91 -144h-63z" />
    <glyph glyph-name="Icircumflex" unicode="&#xce;" horiz-adv-x="256" 
d="M88 745h80v-745h-80v745zM90 993h74l114 -144h-68l-83 103l-81 -103h-68z" />
    <glyph glyph-name="Idieresis" unicode="&#xcf;" horiz-adv-x="256" 
d="M88 745h80v-745h-80v745zM4.5 885.5c-11 11 -16.5 24.833 -16.5 41.5c0 16 5.5 29.5 16.5 40.5s24.833 16.5 41.5 16.5c16 0 29.5 -5.5 40.5 -16.5s16.5 -24.5 16.5 -40.5c0 -16.667 -5.5 -30.5 -16.5 -41.5s-24.5 -16.5 -40.5 -16.5c-16.667 0 -30.5 5.5 -41.5 16.5z
M169.5 967.5c11 11 24.833 16.5 41.5 16.5c16 0 29.5 -5.5 40.5 -16.5s16.5 -24.5 16.5 -40.5c0 -16.667 -5.5 -30.5 -16.5 -41.5s-24.5 -16.5 -40.5 -16.5c-16.667 0 -30.5 5.5 -41.5 16.5s-16.5 24.833 -16.5 41.5c0 16 5.5 29.5 16.5 40.5z" />
    <glyph glyph-name="Eth" unicode="&#xd0;" horiz-adv-x="742" 
d="M88 340l-85 -0.000976562v65h85v340h245c73.333 0 137.5 -15.167 192.5 -45.5s97.5 -73.666 127.5 -129.999s45 -121.833 45 -196.5s-15 -140.167 -45 -196.5s-72.667 -99.833 -128 -130.5s-119.333 -46 -192 -46h-245v340zM333 74.999
c56.667 0 106.167 12.166 148.5 36.499s75 58.833 98 103.5s34.5 97.334 34.5 158.001c0 60 -11.5 112.333 -34.5 157s-55.833 79.167 -98.5 103.5s-92 36.5 -148 36.5h-165v-265h185v-65h-185v-265h165z" />
    <glyph glyph-name="Ntilde" unicode="&#xd1;" horiz-adv-x="736" 
d="M88 745h70l410 -588v588h80v-745h-70l-410 592v-592h-80v745zM389.5 896c-10.333 4.66699 -21.167 11.334 -32.5 20.001c-1.33301 0.666992 -4.83301 3 -10.5 7s-11.167 6.83301 -16.5 8.5s-10.333 2.5 -15 2.5c-19.333 0 -30.333 -13.333 -33 -40h-54
c0.666992 30 8.5 53.667 23.5 71s34.167 26 57.5 26c15.333 0 28 -2.33301 38 -7s20.667 -11.334 32 -20.001c1.33301 -0.666992 4.83301 -3 10.5 -7s11.167 -6.83301 16.5 -8.5s10.333 -2.5 15 -2.5c20 0 31 13.333 33 40h54c-0.666992 -30 -8.33398 -53.667 -23.001 -71
s-33.667 -26 -57 -26c-15.333 0 -28.166 2.33301 -38.499 7z" />
    <glyph glyph-name="Ograve" unicode="&#xd2;" horiz-adv-x="878" 
d="M250.5 37.5c-57 33 -102.001 78.835 -135.001 137.502s-49.5 124.667 -49.5 198s16.5 139.166 49.5 197.499s78 104 135 137s119.833 49.5 188.5 49.5s131.334 -16.5 188.001 -49.5s101.667 -78.833 135 -137.5s50 -124.334 50 -197.001
c0 -73.333 -16.5 -139.333 -49.5 -198s-78 -104.5 -135 -137.5s-119.833 -49.5 -188.5 -49.5s-131.5 16.5 -188.5 49.5zM183.499 217.002c25 -47.333 59.833 -84.833 104.5 -112.5s95 -41.5 151 -41.5s106.333 13.833 151 41.5s79.5 65.167 104.5 112.5
s37.5 99.333 37.5 156c0 56 -12.5 107.667 -37.5 155s-59.833 84.833 -104.5 112.5s-95 41.5 -151 41.5s-106.333 -13.833 -151 -41.5s-79.5 -65.167 -104.5 -112.5s-37.5 -99 -37.5 -155c0 -56.667 12.5 -108.667 37.5 -156zM315.999 993.002h76l78 -144h-63z" />
    <glyph glyph-name="Oacute" unicode="&#xd3;" horiz-adv-x="878" 
d="M250.5 37.5c-57 33 -102.001 78.835 -135.001 137.502s-49.5 124.667 -49.5 198s16.5 139.166 49.5 197.499s78 104 135 137s119.833 49.5 188.5 49.5s131.334 -16.5 188.001 -49.5s101.667 -78.833 135 -137.5s50 -124.334 50 -197.001
c0 -73.333 -16.5 -139.333 -49.5 -198s-78 -104.5 -135 -137.5s-119.833 -49.5 -188.5 -49.5s-131.5 16.5 -188.5 49.5zM183.499 217.002c25 -47.333 59.833 -84.833 104.5 -112.5s95 -41.5 151 -41.5s106.333 13.833 151 41.5s79.5 65.167 104.5 112.5
s37.5 99.333 37.5 156c0 56 -12.5 107.667 -37.5 155s-59.833 84.833 -104.5 112.5s-95 41.5 -151 41.5s-106.333 -13.833 -151 -41.5s-79.5 -65.167 -104.5 -112.5s-37.5 -99 -37.5 -155c0 -56.667 12.5 -108.667 37.5 -156zM484.999 993.002h76l-91 -144h-63z" />
    <glyph glyph-name="Ocircumflex" unicode="&#xd4;" horiz-adv-x="878" 
d="M250.5 37.5c-57 33 -102.001 78.835 -135.001 137.502s-49.5 124.667 -49.5 198s16.5 139.166 49.5 197.499s78 104 135 137s119.833 49.5 188.5 49.5s131.334 -16.5 188.001 -49.5s101.667 -78.833 135 -137.5s50 -124.334 50 -197.001
c0 -73.333 -16.5 -139.333 -49.5 -198s-78 -104.5 -135 -137.5s-119.833 -49.5 -188.5 -49.5s-131.5 16.5 -188.5 49.5zM183.499 217.002c25 -47.333 59.833 -84.833 104.5 -112.5s95 -41.5 151 -41.5s106.333 13.833 151 41.5s79.5 65.167 104.5 112.5
s37.5 99.333 37.5 156c0 56 -12.5 107.667 -37.5 155s-59.833 84.833 -104.5 112.5s-95 41.5 -151 41.5s-106.333 -13.833 -151 -41.5s-79.5 -65.167 -104.5 -112.5s-37.5 -99 -37.5 -155c0 -56.667 12.5 -108.667 37.5 -156zM400.999 993.002h74l114 -144h-68l-83 103
l-81 -103h-68z" />
    <glyph glyph-name="Otilde" unicode="&#xd5;" horiz-adv-x="878" 
d="M250.5 37.5c-57 33 -102.001 78.835 -135.001 137.502s-49.5 124.667 -49.5 198s16.5 139.166 49.5 197.499s78 104 135 137s119.833 49.5 188.5 49.5s131.334 -16.5 188.001 -49.5s101.667 -78.833 135 -137.5s50 -124.334 50 -197.001
c0 -73.333 -16.5 -139.333 -49.5 -198s-78 -104.5 -135 -137.5s-119.833 -49.5 -188.5 -49.5s-131.5 16.5 -188.5 49.5zM183.499 217.002c25 -47.333 59.833 -84.833 104.5 -112.5s95 -41.5 151 -41.5s106.333 13.833 151 41.5s79.5 65.167 104.5 112.5
s37.5 99.333 37.5 156c0 56 -12.5 107.667 -37.5 155s-59.833 84.833 -104.5 112.5s-95 41.5 -151 41.5s-106.333 -13.833 -151 -41.5s-79.5 -65.167 -104.5 -112.5s-37.5 -99 -37.5 -155c0 -56.667 12.5 -108.667 37.5 -156zM460.499 896.002
c-10.333 4.66699 -21.167 11.334 -32.5 20.001c-1.33301 0.666992 -4.83301 3 -10.5 7s-11.167 6.83301 -16.5 8.5s-10.333 2.5 -15 2.5c-19.333 0 -30.333 -13.333 -33 -40h-54c0.666992 30 8.5 53.667 23.5 71s34.167 26 57.5 26c15.333 0 28 -2.33301 38 -7
s20.667 -11.334 32 -20.001c1.33301 -0.666992 4.83301 -3 10.5 -7s11.167 -6.83301 16.5 -8.5s10.333 -2.5 15 -2.5c20 0 31 13.333 33 40h54c-0.666992 -30 -8.33398 -53.667 -23.001 -71s-33.667 -26 -57 -26c-15.333 0 -28.166 2.33301 -38.499 7z" />
    <glyph glyph-name="Odieresis" unicode="&#xd6;" horiz-adv-x="878" 
d="M250.5 37.5c-57 33 -102.001 78.835 -135.001 137.502s-49.5 124.667 -49.5 198s16.5 139.166 49.5 197.499s78 104 135 137s119.833 49.5 188.5 49.5s131.334 -16.5 188.001 -49.5s101.667 -78.833 135 -137.5s50 -124.334 50 -197.001
c0 -73.333 -16.5 -139.333 -49.5 -198s-78 -104.5 -135 -137.5s-119.833 -49.5 -188.5 -49.5s-131.5 16.5 -188.5 49.5zM183.499 217.002c25 -47.333 59.833 -84.833 104.5 -112.5s95 -41.5 151 -41.5s106.333 13.833 151 41.5s79.5 65.167 104.5 112.5
s37.5 99.333 37.5 156c0 56 -12.5 107.667 -37.5 155s-59.833 84.833 -104.5 112.5s-95 41.5 -151 41.5s-106.333 -13.833 -151 -41.5s-79.5 -65.167 -104.5 -112.5s-37.5 -99 -37.5 -155c0 -56.667 12.5 -108.667 37.5 -156zM315.499 885.502
c-11 11 -16.5 24.833 -16.5 41.5c0 16 5.5 29.5 16.5 40.5s24.833 16.5 41.5 16.5c16 0 29.5 -5.5 40.5 -16.5s16.5 -24.5 16.5 -40.5c0 -16.667 -5.5 -30.5 -16.5 -41.5s-24.5 -16.5 -40.5 -16.5c-16.667 0 -30.5 5.5 -41.5 16.5zM480.499 967.502
c11 11 24.833 16.5 41.5 16.5c16 0 29.5 -5.5 40.5 -16.5s16.5 -24.5 16.5 -40.5c0 -16.667 -5.5 -30.5 -16.5 -41.5s-24.5 -16.5 -40.5 -16.5c-16.667 0 -30.5 5.5 -41.5 16.5s-16.5 24.833 -16.5 41.5c0 16 5.5 29.5 16.5 40.5z" />
    <glyph glyph-name="multiply" unicode="&#xd7;" horiz-adv-x="552" 
d="M58 53l165 165l-164 164l53 53l164 -164l164 164l53 -53l-164 -164l165 -165l-53 -53l-165 165l-165 -165z" />
    <glyph glyph-name="Oslash" unicode="&#xd8;" horiz-adv-x="878" 
d="M221 57l-47 -56.998h-91l85 103c-32 34 -57 74.167 -75 120.5s-27 96.166 -27 149.499c0 73.333 16.5 139.166 49.5 197.499s78 104 135 137s119.833 49.5 188.5 49.5c40 0 78.5 -5.83301 115.5 -17.5s70.833 -28.5 101.5 -50.5l47 56h91l-85 -102
c32.667 -34.667 58 -75 76 -121s27 -95.667 27 -149c0 -73.333 -16.5 -139.333 -49.5 -198s-78 -104.5 -135 -137.5s-119.833 -49.5 -188.5 -49.5c-81.333 0 -154 23 -218 69zM165 259.502c12.667 -35.667 30.667 -67.5 54 -95.5l388 465c-48 35.333 -104 53 -168 53
c-56 0 -106.333 -13.833 -151 -41.5s-79.5 -65.167 -104.5 -112.5s-37.5 -99 -37.5 -155c0 -40 6.33301 -77.833 19 -113.5zM439 63.002c56 0 106.333 13.833 151 41.5s79.5 65.167 104.5 112.5s37.5 99.333 37.5 156c0 40 -6.33301 77.833 -19 113.5s-31 67.5 -55 95.5
l-387 -466c49.333 -35.333 105.333 -53 168 -53z" />
    <glyph glyph-name="Ugrave" unicode="&#xd9;" horiz-adv-x="700" 
d="M211.5 20.5c-40.333 21.667 -71.5 51.834 -93.5 90.501s-33 82.667 -33 132v502h80v-502c0 -54 17 -97.5 51 -130.5s78.667 -49.5 134 -49.5s100 16.5 134 49.5s51 76.5 51 130.5v502h80v-502c0 -49.333 -11 -93.333 -33 -132s-53.167 -68.834 -93.5 -90.501
s-86.5 -32.5 -138.5 -32.5s-98.167 10.833 -138.5 32.5zM227 993h76l78 -144h-63z" />
    <glyph glyph-name="Uacute" unicode="&#xda;" horiz-adv-x="700" 
d="M211.5 20.5c-40.333 21.667 -71.5 51.834 -93.5 90.501s-33 82.667 -33 132v502h80v-502c0 -54 17 -97.5 51 -130.5s78.667 -49.5 134 -49.5s100 16.5 134 49.5s51 76.5 51 130.5v502h80v-502c0 -49.333 -11 -93.333 -33 -132s-53.167 -68.834 -93.5 -90.501
s-86.5 -32.5 -138.5 -32.5s-98.167 10.833 -138.5 32.5zM396 993h76l-91 -144h-63z" />
    <glyph glyph-name="Ucircumflex" unicode="&#xdb;" horiz-adv-x="700" 
d="M211.5 20.5c-40.333 21.667 -71.5 51.834 -93.5 90.501s-33 82.667 -33 132v502h80v-502c0 -54 17 -97.5 51 -130.5s78.667 -49.5 134 -49.5s100 16.5 134 49.5s51 76.5 51 130.5v502h80v-502c0 -49.333 -11 -93.333 -33 -132s-53.167 -68.834 -93.5 -90.501
s-86.5 -32.5 -138.5 -32.5s-98.167 10.833 -138.5 32.5zM312 993h74l114 -144h-68l-83 103l-81 -103h-68z" />
    <glyph glyph-name="Udieresis" unicode="&#xdc;" horiz-adv-x="700" 
d="M211.5 20.5c-40.333 21.667 -71.5 51.834 -93.5 90.501s-33 82.667 -33 132v502h80v-502c0 -54 17 -97.5 51 -130.5s78.667 -49.5 134 -49.5s100 16.5 134 49.5s51 76.5 51 130.5v502h80v-502c0 -49.333 -11 -93.333 -33 -132s-53.167 -68.834 -93.5 -90.501
s-86.5 -32.5 -138.5 -32.5s-98.167 10.833 -138.5 32.5zM226.5 885.5c-11 11 -16.5 24.833 -16.5 41.5c0 16 5.5 29.5 16.5 40.5s24.833 16.5 41.5 16.5c16 0 29.5 -5.5 40.5 -16.5s16.5 -24.5 16.5 -40.5c0 -16.667 -5.5 -30.5 -16.5 -41.5s-24.5 -16.5 -40.5 -16.5
c-16.667 0 -30.5 5.5 -41.5 16.5zM391.5 967.5c11 11 24.833 16.5 41.5 16.5c16 0 29.5 -5.5 40.5 -16.5s16.5 -24.5 16.5 -40.5c0 -16.667 -5.5 -30.5 -16.5 -41.5s-24.5 -16.5 -40.5 -16.5c-16.667 0 -30.5 5.5 -41.5 16.5s-16.5 24.833 -16.5 41.5
c0 16 5.5 29.5 16.5 40.5z" />
    <glyph glyph-name="Yacute" unicode="&#xdd;" horiz-adv-x="623" 
d="M272 346l-261 399h89l212 -323l211 323h89l-260 -399v-346h-80v346zM358 993h76l-91 -144h-63z" />
    <glyph glyph-name="Thorn" unicode="&#xde;" horiz-adv-x="635" 
d="M80 745l80.001 0.000976562v-145h176c48 0 90.5 -9.5 127.5 -28.5s65.667 -45.833 86 -80.5s30.5 -74.334 30.5 -119.001s-10.167 -84.167 -30.5 -118.5s-48.833 -61 -85.5 -80s-79.334 -28.5 -128.001 -28.5h-176v-145h-80v745zM340.001 220.001
c48.667 0 87.5 13.668 116.5 41.001s43.5 64.666 43.5 111.999c0 46.667 -14.5 83.667 -43.5 111s-67.833 41 -116.5 41h-180v-305h180z" />
    <glyph glyph-name="germandbls" unicode="&#xdf;" horiz-adv-x="603" 
d="M116.5 655c19 32.667 44.998 57.8379 77.998 75.5049s70.5 26.5 112.5 26.5c41.333 0 78 -8 110 -24s56.833 -38.333 74.5 -67s26.5 -62 26.5 -100s-8 -71.833 -24 -101.5s-38.333 -51.834 -67 -66.501c80.667 -36.667 121 -97.667 121 -183
c0 -42.667 -9.66699 -80.334 -29 -113.001s-46.833 -57.834 -82.5 -75.501s-77.167 -26.5 -124.5 -26.5h-59v70h59c46.667 0 84.334 13.333 113.001 40s43 61.667 43 105s-14.333 78.333 -43 105s-66.334 40 -113.001 40h-59v70h53c38.667 0 70.334 12.333 95.001 37
s37 56 37 94c0 37.333 -12.167 67.666 -36.5 90.999s-56.166 35 -95.499 35c-42 0 -76.333 -13.333 -103 -40s-40 -62.334 -40 -107.001v-690h-75v690c0 44 9.5 82.333 28.5 115z" />
    <glyph glyph-name="agrave" unicode="&#xe0;" horiz-adv-x="572" 
d="M141.5 7.5c-27 13 -48.168 30.998 -63.501 53.998s-23 48.833 -23 77.5c0 43.333 14.167 80 42.5 110s71.166 49.667 128.499 59l194 32v28c0 32 -11.667 58 -35 78s-53.666 30 -90.999 30c-32 0 -60.333 -8 -85 -24s-43.334 -37.333 -56.001 -64l-68 37
c15.333 34.667 42.833 63.834 82.5 87.501s81.834 35.5 126.501 35.5c38.667 0 73.334 -7.66699 104.001 -23s54.5 -36.666 71.5 -63.999s25.5 -58.333 25.5 -93v-368h-75v77c-18 -26.667 -43.667 -48.167 -77 -64.5s-70.333 -24.5 -111 -24.5
c-33.333 0 -63.5 6.5 -90.5 19.5zM163.999 80.998c19.333 -16.667 43.667 -25 73 -25c35.333 0 67 7.66699 95 23s49.667 36.5 65 63.5s23 56.833 23 89.5v40l-176 -29c-37.333 -6 -64.833 -17.833 -82.5 -35.5s-26.5 -39.5 -26.5 -65.5c0 -24 9.66699 -44.333 29 -61z
M163 783.998h76l78 -144h-63z" />
    <glyph glyph-name="aacute" unicode="&#xe1;" horiz-adv-x="572" 
d="M141.5 7.5c-27 13 -48.168 30.998 -63.501 53.998s-23 48.833 -23 77.5c0 43.333 14.167 80 42.5 110s71.166 49.667 128.499 59l194 32v28c0 32 -11.667 58 -35 78s-53.666 30 -90.999 30c-32 0 -60.333 -8 -85 -24s-43.334 -37.333 -56.001 -64l-68 37
c15.333 34.667 42.833 63.834 82.5 87.501s81.834 35.5 126.501 35.5c38.667 0 73.334 -7.66699 104.001 -23s54.5 -36.666 71.5 -63.999s25.5 -58.333 25.5 -93v-368h-75v77c-18 -26.667 -43.667 -48.167 -77 -64.5s-70.333 -24.5 -111 -24.5
c-33.333 0 -63.5 6.5 -90.5 19.5zM163.999 80.998c19.333 -16.667 43.667 -25 73 -25c35.333 0 67 7.66699 95 23s49.667 36.5 65 63.5s23 56.833 23 89.5v40l-176 -29c-37.333 -6 -64.833 -17.833 -82.5 -35.5s-26.5 -39.5 -26.5 -65.5c0 -24 9.66699 -44.333 29 -61z
M332 783.998h76l-91 -144h-63z" />
    <glyph glyph-name="acircumflex" unicode="&#xe2;" horiz-adv-x="572" 
d="M141.5 7.5c-27 13 -48.168 30.998 -63.501 53.998s-23 48.833 -23 77.5c0 43.333 14.167 80 42.5 110s71.166 49.667 128.499 59l194 32v28c0 32 -11.667 58 -35 78s-53.666 30 -90.999 30c-32 0 -60.333 -8 -85 -24s-43.334 -37.333 -56.001 -64l-68 37
c15.333 34.667 42.833 63.834 82.5 87.501s81.834 35.5 126.501 35.5c38.667 0 73.334 -7.66699 104.001 -23s54.5 -36.666 71.5 -63.999s25.5 -58.333 25.5 -93v-368h-75v77c-18 -26.667 -43.667 -48.167 -77 -64.5s-70.333 -24.5 -111 -24.5
c-33.333 0 -63.5 6.5 -90.5 19.5zM163.999 80.998c19.333 -16.667 43.667 -25 73 -25c35.333 0 67 7.66699 95 23s49.667 36.5 65 63.5s23 56.833 23 89.5v40l-176 -29c-37.333 -6 -64.833 -17.833 -82.5 -35.5s-26.5 -39.5 -26.5 -65.5c0 -24 9.66699 -44.333 29 -61z
M248 783.998h74l114 -144h-68l-83 103l-81 -103h-68z" />
    <glyph glyph-name="atilde" unicode="&#xe3;" horiz-adv-x="572" 
d="M141.5 7.5c-27 13 -48.168 30.998 -63.501 53.998s-23 48.833 -23 77.5c0 43.333 14.167 80 42.5 110s71.166 49.667 128.499 59l194 32v28c0 32 -11.667 58 -35 78s-53.666 30 -90.999 30c-32 0 -60.333 -8 -85 -24s-43.334 -37.333 -56.001 -64l-68 37
c15.333 34.667 42.833 63.834 82.5 87.501s81.834 35.5 126.501 35.5c38.667 0 73.334 -7.66699 104.001 -23s54.5 -36.666 71.5 -63.999s25.5 -58.333 25.5 -93v-368h-75v77c-18 -26.667 -43.667 -48.167 -77 -64.5s-70.333 -24.5 -111 -24.5
c-33.333 0 -63.5 6.5 -90.5 19.5zM163.999 80.998c19.333 -16.667 43.667 -25 73 -25c35.333 0 67 7.66699 95 23s49.667 36.5 65 63.5s23 56.833 23 89.5v40l-176 -29c-37.333 -6 -64.833 -17.833 -82.5 -35.5s-26.5 -39.5 -26.5 -65.5c0 -24 9.66699 -44.333 29 -61z
M307.5 686.998c-10.333 4.66699 -21.167 11.334 -32.5 20.001c-1.33301 0.666992 -4.83301 3 -10.5 7s-11.167 6.83301 -16.5 8.5s-10.333 2.5 -15 2.5c-19.333 0 -30.333 -13.333 -33 -40h-54c0.666992 30 8.5 53.667 23.5 71s34.167 26 57.5 26
c15.333 0 28 -2.33301 38 -7s20.667 -11.334 32 -20.001c1.33301 -0.666992 4.83301 -3 10.5 -7s11.167 -6.83301 16.5 -8.5s10.333 -2.5 15 -2.5c20 0 31 13.333 33 40h54c-0.666992 -30 -8.33398 -53.667 -23.001 -71s-33.667 -26 -57 -26
c-15.333 0 -28.166 2.33301 -38.499 7z" />
    <glyph glyph-name="adieresis" unicode="&#xe4;" horiz-adv-x="572" 
d="M141.5 7.5c-27 13 -48.168 30.998 -63.501 53.998s-23 48.833 -23 77.5c0 43.333 14.167 80 42.5 110s71.166 49.667 128.499 59l194 32v28c0 32 -11.667 58 -35 78s-53.666 30 -90.999 30c-32 0 -60.333 -8 -85 -24s-43.334 -37.333 -56.001 -64l-68 37
c15.333 34.667 42.833 63.834 82.5 87.501s81.834 35.5 126.501 35.5c38.667 0 73.334 -7.66699 104.001 -23s54.5 -36.666 71.5 -63.999s25.5 -58.333 25.5 -93v-368h-75v77c-18 -26.667 -43.667 -48.167 -77 -64.5s-70.333 -24.5 -111 -24.5
c-33.333 0 -63.5 6.5 -90.5 19.5zM163.999 80.998c19.333 -16.667 43.667 -25 73 -25c35.333 0 67 7.66699 95 23s49.667 36.5 65 63.5s23 56.833 23 89.5v40l-176 -29c-37.333 -6 -64.833 -17.833 -82.5 -35.5s-26.5 -39.5 -26.5 -65.5c0 -24 9.66699 -44.333 29 -61z
M162.5 676.498c-11 11 -16.5 24.833 -16.5 41.5c0 16 5.5 29.5 16.5 40.5s24.833 16.5 41.5 16.5c16 0 29.5 -5.5 40.5 -16.5s16.5 -24.5 16.5 -40.5c0 -16.667 -5.5 -30.5 -16.5 -41.5s-24.5 -16.5 -40.5 -16.5c-16.667 0 -30.5 5.5 -41.5 16.5zM327.5 758.498
c11 11 24.833 16.5 41.5 16.5c16 0 29.5 -5.5 40.5 -16.5s16.5 -24.5 16.5 -40.5c0 -16.667 -5.5 -30.5 -16.5 -41.5s-24.5 -16.5 -40.5 -16.5c-16.667 0 -30.5 5.5 -41.5 16.5s-16.5 24.833 -16.5 41.5c0 16 5.5 29.5 16.5 40.5z" />
    <glyph glyph-name="aring" unicode="&#xe5;" horiz-adv-x="572" 
d="M141.5 7.5c-27 13 -48.168 30.998 -63.501 53.998s-23 48.833 -23 77.5c0 43.333 14.167 80 42.5 110s71.166 49.667 128.499 59l194 32v28c0 32 -11.667 58 -35 78s-53.666 30 -90.999 30c-32 0 -60.333 -8 -85 -24s-43.334 -37.333 -56.001 -64l-68 37
c15.333 34.667 42.833 63.834 82.5 87.501s81.834 35.5 126.501 35.5c38.667 0 73.334 -7.66699 104.001 -23s54.5 -36.666 71.5 -63.999s25.5 -58.333 25.5 -93v-368h-75v77c-18 -26.667 -43.667 -48.167 -77 -64.5s-70.333 -24.5 -111 -24.5
c-33.333 0 -63.5 6.5 -90.5 19.5zM163.999 80.998c19.333 -16.667 43.667 -25 73 -25c35.333 0 67 7.66699 95 23s49.667 36.5 65 63.5s23 56.833 23 89.5v40l-176 -29c-37.333 -6 -64.833 -17.833 -82.5 -35.5s-26.5 -39.5 -26.5 -65.5c0 -24 9.66699 -44.333 29 -61z
M199.5 624.498c-23 23 -34.5 51.167 -34.5 84.5c0 34 11.5 62.5 34.5 85.5s51.833 34.5 86.5 34.5c34 0 62.5 -11.5 85.5 -34.5s34.5 -51.5 34.5 -85.5c0 -33.333 -11.5 -61.5 -34.5 -84.5s-51.5 -34.5 -85.5 -34.5c-34.667 0 -63.5 11.5 -86.5 34.5zM238 661.498
c12.667 -12.333 28.334 -18.5 47.001 -18.5s34.334 6.16699 47.001 18.5s19 28.166 19 47.499s-6.33301 35.333 -19 48s-28.334 19 -47.001 19s-34.334 -6.16699 -47.001 -18.5s-19 -28.5 -19 -48.5c0 -19.333 6.33301 -35.166 19 -47.499z" />
    <glyph glyph-name="ae" unicode="&#xe6;" horiz-adv-x="983" 
d="M141.5 7.5c-27 13 -48.1631 30.9971 -63.4961 53.9971s-23 48.833 -23 77.5c0 43.333 14.167 80 42.5 110s71.166 49.667 128.499 59l194 32v28c0 32 -11.667 58 -35 78s-53.666 30 -90.999 30c-32 0 -60.333 -8 -85 -24s-43.334 -37.333 -56.001 -64l-68 37
c15.333 34.667 42.833 63.834 82.5 87.501s81.834 35.5 126.501 35.5c42.667 0 80.167 -9 112.5 -27s56.166 -43 71.499 -75c23.333 32 52.666 57 87.999 75s73.666 27 114.999 27c49.333 0 92.666 -12 129.999 -36s66.166 -55.667 86.499 -95s30.5 -80.666 30.5 -123.999
c0 -16.667 -1.33301 -32.667 -4 -48h-422c0.666992 -37.333 9.83398 -70.166 27.501 -98.499s40.667 -50.166 69 -65.499s58.5 -23 90.5 -23c70 0 124.667 32.667 164 98l64 -34c-17.333 -38 -46.5 -69.833 -87.5 -95.5s-87.833 -38.5 -140.5 -38.5
c-38.667 0 -74.667 7.66699 -108 23s-62 37 -86 65v-76h-75v78c-18 -26.667 -43.667 -48.334 -77 -65.001s-70.333 -25 -111 -25c-33.333 0 -63.5 6.5 -90.5 19.5zM164.004 80.9971c19.333 -16.667 43.667 -25 73 -25c35.333 0 67 7.66699 95 23s49.667 36.5 65 63.5
s23 56.833 23 89.5v40l-176 -29c-37.333 -6 -64.833 -17.833 -82.5 -35.5s-26.5 -39.5 -26.5 -65.5c0 -24 9.66699 -44.333 29 -61zM847.005 314.997c0 30.667 -7.5 58.501 -22.5 83.501s-35.167 44.5 -60.5 58.5s-53 21 -83 21c-29.333 0 -56.833 -6.66699 -82.5 -20
s-47 -32.333 -64 -57s-27.167 -53.334 -30.5 -86.001h343z" />
    <glyph glyph-name="ccedilla" unicode="&#xe7;" horiz-adv-x="600" 
d="M296 -216c-14 2.66699 -25.6689 6.33008 -35.002 10.9971l12 42c18.667 -7.33301 38.334 -11 59.001 -11c15.333 0 27.333 3.5 36 10.5s13 16.5 13 28.5c0 10 -3.16699 18 -9.5 24s-15.166 9 -26.499 9c-14 0 -27.667 -3.33301 -41 -10l-20 8l11 93
c-48 4 -90.333 18.667 -127 44s-65.167 58.5 -85.5 99.5s-30.5 86.5 -30.5 136.5c0 52.667 11.333 100.334 34 143.001s54.5 76 95.5 100s87.833 36 140.5 36c49.333 0 95 -12.833 137 -38.5s71.667 -58.5 89 -98.5l-68 -35c-14 29.333 -35.167 52.833 -63.5 70.5
s-59.833 26.5 -94.5 26.5s-66.5 -8.83301 -95.5 -26.5s-52 -42.167 -69 -73.5s-25.5 -66.333 -25.5 -105c0 -38 8.5 -72.667 25.5 -104s40 -56 69 -74s60.833 -27 95.5 -27c35.333 0 67 8.83301 95 26.5s49 41.834 63 72.501l68 -37c-16 -36 -42.5 -66.5 -79.5 -91.5
s-77.833 -39.833 -122.5 -44.5l-5 -51c8 1.33301 15 2 21 2c22.667 0 41.5 -6.66699 56.5 -20s22.5 -30.666 22.5 -51.999c0 -25.333 -9.5 -46.333 -28.5 -63s-44.5 -25 -76.5 -25c-12.667 0 -26 1.33301 -40 4z" />
    <glyph glyph-name="egrave" unicode="&#xe8;" horiz-adv-x="615" 
d="M186 24.5c-40.667 24.333 -72.665 57.9971 -95.998 100.997s-35 91.167 -35 144.5c0 52.667 11.167 100.167 33.5 142.5s53.166 75.5 92.499 99.5s83.333 36 132 36c49.333 0 92.666 -12 129.999 -36s66.166 -55.667 86.499 -95s30.5 -80.666 30.5 -123.999
c0 -16.667 -1.33301 -32.667 -4 -48h-422c0.666992 -37.333 9.83398 -70.166 27.501 -98.499s40.667 -50.166 69 -65.499s58.5 -23 90.5 -23c70 0 124.667 32.667 164 98l64 -34c-17.333 -38 -46.5 -69.833 -87.5 -95.5s-87.833 -38.5 -140.5 -38.5
c-49.333 0 -94.333 12.167 -135 36.5zM479.002 314.997c0 30.667 -7.5 58.501 -22.5 83.501s-35.167 44.5 -60.5 58.5s-53 21 -83 21c-29.333 0 -56.833 -6.66699 -82.5 -20s-47 -32.333 -64 -57s-27.167 -53.334 -30.5 -86.001h343zM185.002 783.998h76l78 -144h-63z" />
    <glyph glyph-name="eacute" unicode="&#xe9;" horiz-adv-x="615" 
d="M186 24.5c-40.667 24.333 -72.665 57.9971 -95.998 100.997s-35 91.167 -35 144.5c0 52.667 11.167 100.167 33.5 142.5s53.166 75.5 92.499 99.5s83.333 36 132 36c49.333 0 92.666 -12 129.999 -36s66.166 -55.667 86.499 -95s30.5 -80.666 30.5 -123.999
c0 -16.667 -1.33301 -32.667 -4 -48h-422c0.666992 -37.333 9.83398 -70.166 27.501 -98.499s40.667 -50.166 69 -65.499s58.5 -23 90.5 -23c70 0 124.667 32.667 164 98l64 -34c-17.333 -38 -46.5 -69.833 -87.5 -95.5s-87.833 -38.5 -140.5 -38.5
c-49.333 0 -94.333 12.167 -135 36.5zM479.002 314.997c0 30.667 -7.5 58.501 -22.5 83.501s-35.167 44.5 -60.5 58.5s-53 21 -83 21c-29.333 0 -56.833 -6.66699 -82.5 -20s-47 -32.333 -64 -57s-27.167 -53.334 -30.5 -86.001h343zM354.002 783.998h76l-91 -144h-63z" />
    <glyph glyph-name="ecircumflex" unicode="&#xea;" horiz-adv-x="615" 
d="M186 24.5c-40.667 24.333 -72.665 57.9971 -95.998 100.997s-35 91.167 -35 144.5c0 52.667 11.167 100.167 33.5 142.5s53.166 75.5 92.499 99.5s83.333 36 132 36c49.333 0 92.666 -12 129.999 -36s66.166 -55.667 86.499 -95s30.5 -80.666 30.5 -123.999
c0 -16.667 -1.33301 -32.667 -4 -48h-422c0.666992 -37.333 9.83398 -70.166 27.501 -98.499s40.667 -50.166 69 -65.499s58.5 -23 90.5 -23c70 0 124.667 32.667 164 98l64 -34c-17.333 -38 -46.5 -69.833 -87.5 -95.5s-87.833 -38.5 -140.5 -38.5
c-49.333 0 -94.333 12.167 -135 36.5zM479.002 314.997c0 30.667 -7.5 58.501 -22.5 83.501s-35.167 44.5 -60.5 58.5s-53 21 -83 21c-29.333 0 -56.833 -6.66699 -82.5 -20s-47 -32.333 -64 -57s-27.167 -53.334 -30.5 -86.001h343zM270.002 783.998h74l114 -144h-68
l-83 103l-81 -103h-68z" />
    <glyph glyph-name="edieresis" unicode="&#xeb;" horiz-adv-x="615" 
d="M186 24.5c-40.667 24.333 -72.665 57.9971 -95.998 100.997s-35 91.167 -35 144.5c0 52.667 11.167 100.167 33.5 142.5s53.166 75.5 92.499 99.5s83.333 36 132 36c49.333 0 92.666 -12 129.999 -36s66.166 -55.667 86.499 -95s30.5 -80.666 30.5 -123.999
c0 -16.667 -1.33301 -32.667 -4 -48h-422c0.666992 -37.333 9.83398 -70.166 27.501 -98.499s40.667 -50.166 69 -65.499s58.5 -23 90.5 -23c70 0 124.667 32.667 164 98l64 -34c-17.333 -38 -46.5 -69.833 -87.5 -95.5s-87.833 -38.5 -140.5 -38.5
c-49.333 0 -94.333 12.167 -135 36.5zM479.002 314.997c0 30.667 -7.5 58.501 -22.5 83.501s-35.167 44.5 -60.5 58.5s-53 21 -83 21c-29.333 0 -56.833 -6.66699 -82.5 -20s-47 -32.333 -64 -57s-27.167 -53.334 -30.5 -86.001h343zM184.502 676.498
c-11 11 -16.5 24.833 -16.5 41.5c0 16 5.5 29.5 16.5 40.5s24.833 16.5 41.5 16.5c16 0 29.5 -5.5 40.5 -16.5s16.5 -24.5 16.5 -40.5c0 -16.667 -5.5 -30.5 -16.5 -41.5s-24.5 -16.5 -40.5 -16.5c-16.667 0 -30.5 5.5 -41.5 16.5zM349.502 758.498
c11 11 24.833 16.5 41.5 16.5c16 0 29.5 -5.5 40.5 -16.5s16.5 -24.5 16.5 -40.5c0 -16.667 -5.5 -30.5 -16.5 -41.5s-24.5 -16.5 -40.5 -16.5c-16.667 0 -30.5 5.5 -41.5 16.5s-16.5 24.833 -16.5 41.5c0 16 5.5 29.5 16.5 40.5z" />
    <glyph glyph-name="igrave" unicode="&#xec;" horiz-adv-x="199" 
d="M62 536h75v-536h-75v536zM-24 784h76l78 -144h-63z" />
    <glyph glyph-name="iacute" unicode="&#xed;" horiz-adv-x="199" 
d="M62 536h75v-536h-75v536zM145 784h76l-91 -144h-63z" />
    <glyph glyph-name="icircumflex" unicode="&#xee;" horiz-adv-x="199" 
d="M62 536h75v-536h-75v536zM61 784h74l114 -144h-68l-83 103l-81 -103h-68z" />
    <glyph glyph-name="idieresis" unicode="&#xef;" horiz-adv-x="199" 
d="M62 536h75v-536h-75v536zM-24.5 676.5c-11 11 -16.5 24.833 -16.5 41.5c0 16 5.5 29.5 16.5 40.5s24.833 16.5 41.5 16.5c16 0 29.5 -5.5 40.5 -16.5s16.5 -24.5 16.5 -40.5c0 -16.667 -5.5 -30.5 -16.5 -41.5s-24.5 -16.5 -40.5 -16.5c-16.667 0 -30.5 5.5 -41.5 16.5z
M140.5 758.5c11 11 24.833 16.5 41.5 16.5c16 0 29.5 -5.5 40.5 -16.5s16.5 -24.5 16.5 -40.5c0 -16.667 -5.5 -30.5 -16.5 -41.5s-24.5 -16.5 -40.5 -16.5c-16.667 0 -30.5 5.5 -41.5 16.5s-16.5 24.833 -16.5 41.5c0 16 5.5 29.5 16.5 40.5z" />
    <glyph glyph-name="eth" unicode="&#xf0;" horiz-adv-x="655" 
d="M191 24c-42.667 24 -75.998 57.167 -99.998 99.5s-36 89.5 -36 141.5c0 51.333 11.833 97.833 35.5 139.5s56.167 74.334 97.5 98.001s87.666 35.5 138.999 35.5c32 0 63.167 -5 93.5 -15s56.833 -26.333 79.5 -49c-6.66699 33.333 -18.667 64.666 -36 93.999
s-38.333 55.333 -63 78l-159 -58v59l104 38c-46 26.667 -96.333 40 -151 40c-39.333 0 -79 -7 -119 -21l-16 67c48 16 94 24 138 24c90 0 167.667 -26.333 233 -79l109 40v-60l-64 -23c40.667 -45.333 71.5 -99.5 92.5 -162.5s31.5 -128.5 31.5 -196.5
c0 -74 -11.833 -135.333 -35.5 -184s-55.5 -84.5 -95.5 -107.5s-85 -34.5 -135 -34.5c-52.667 0 -100.334 12 -143.001 36zM161.002 162c17.333 -30.667 40.832 -54.833 70.499 -72.5s61.834 -26.5 96.501 -26.5c35.333 0 67.666 9 96.999 27s52.5 42.5 69.5 73.5
s25.5 65.167 25.5 102.5c0 36 -8.16699 69 -24.5 99s-39.166 53.833 -68.499 71.5s-62.333 26.5 -99 26.5s-69.667 -8.83301 -99 -26.5s-52.333 -41.667 -69 -72s-25 -63.833 -25 -100.5c0 -37.333 8.66699 -71.333 26 -102z" />
    <glyph glyph-name="ntilde" unicode="&#xf1;" 
d="M77 536l74.999 -0.000976562v-66c16 24.667 37.5 43.834 64.5 57.501s56.833 20.5 89.5 20.5c37.333 0 71.333 -8.66699 102 -26s54.834 -41.333 72.501 -72s26.5 -64.667 26.5 -102v-348h-75v319c0 48 -12.667 85.667 -38 113s-59 41 -101 41s-76 -13.833 -102 -41.5
s-39 -65.167 -39 -112.5v-319h-75v536zM308.499 686.999c-10.333 4.66699 -21.167 11.334 -32.5 20.001c-1.33301 0.666992 -4.83301 3 -10.5 7s-11.167 6.83301 -16.5 8.5s-10.333 2.5 -15 2.5c-19.333 0 -30.333 -13.333 -33 -40h-54c0.666992 30 8.5 53.667 23.5 71
s34.167 26 57.5 26c15.333 0 28 -2.33301 38 -7s20.667 -11.334 32 -20.001c1.33301 -0.666992 4.83301 -3 10.5 -7s11.167 -6.83301 16.5 -8.5s10.333 -2.5 15 -2.5c20 0 31 13.333 33 40h54c-0.666992 -30 -8.33398 -53.667 -23.001 -71s-33.667 -26 -57 -26
c-15.333 0 -28.166 2.33301 -38.499 7z" />
    <glyph glyph-name="ograve" unicode="&#xf2;" horiz-adv-x="655" 
d="M190.5 24.5c-41.667 24.333 -74.667 58.002 -99 101.002s-36.5 90.833 -36.5 143.5s11.833 100.167 35.5 142.5s56.334 75.666 98.001 99.999s88.167 36.5 139.5 36.5s97.666 -12 138.999 -36s73.833 -57.333 97.5 -100s35.5 -90.334 35.5 -143.001
c0 -54 -12.167 -102.333 -36.5 -145s-57.333 -76 -99 -100s-87.167 -36 -136.5 -36c-50 0 -95.833 12.167 -137.5 36.5zM160.5 164.002c17 -31.333 40.333 -56 70 -74s62.167 -27 97.5 -27s67.666 9 96.999 27s52.5 42.833 69.5 74.5s25.5 66.5 25.5 104.5
s-8.5 72.5 -25.5 103.5s-40.167 55.5 -69.5 73.5s-61.666 27 -96.999 27s-67.833 -9 -97.5 -27s-53 -42.5 -70 -73.5s-25.5 -65.5 -25.5 -103.5c0 -38.667 8.5 -73.667 25.5 -105zM205 784.002h76l78 -144h-63z" />
    <glyph glyph-name="oacute" unicode="&#xf3;" horiz-adv-x="655" 
d="M190.5 24.5c-41.667 24.333 -74.667 58.002 -99 101.002s-36.5 90.833 -36.5 143.5s11.833 100.167 35.5 142.5s56.334 75.666 98.001 99.999s88.167 36.5 139.5 36.5s97.666 -12 138.999 -36s73.833 -57.333 97.5 -100s35.5 -90.334 35.5 -143.001
c0 -54 -12.167 -102.333 -36.5 -145s-57.333 -76 -99 -100s-87.167 -36 -136.5 -36c-50 0 -95.833 12.167 -137.5 36.5zM160.5 164.002c17 -31.333 40.333 -56 70 -74s62.167 -27 97.5 -27s67.666 9 96.999 27s52.5 42.833 69.5 74.5s25.5 66.5 25.5 104.5
s-8.5 72.5 -25.5 103.5s-40.167 55.5 -69.5 73.5s-61.666 27 -96.999 27s-67.833 -9 -97.5 -27s-53 -42.5 -70 -73.5s-25.5 -65.5 -25.5 -103.5c0 -38.667 8.5 -73.667 25.5 -105zM374 784.002h76l-91 -144h-63z" />
    <glyph glyph-name="ocircumflex" unicode="&#xf4;" horiz-adv-x="655" 
d="M190.5 24.5c-41.667 24.333 -74.667 58.002 -99 101.002s-36.5 90.833 -36.5 143.5s11.833 100.167 35.5 142.5s56.334 75.666 98.001 99.999s88.167 36.5 139.5 36.5s97.666 -12 138.999 -36s73.833 -57.333 97.5 -100s35.5 -90.334 35.5 -143.001
c0 -54 -12.167 -102.333 -36.5 -145s-57.333 -76 -99 -100s-87.167 -36 -136.5 -36c-50 0 -95.833 12.167 -137.5 36.5zM160.5 164.002c17 -31.333 40.333 -56 70 -74s62.167 -27 97.5 -27s67.666 9 96.999 27s52.5 42.833 69.5 74.5s25.5 66.5 25.5 104.5
s-8.5 72.5 -25.5 103.5s-40.167 55.5 -69.5 73.5s-61.666 27 -96.999 27s-67.833 -9 -97.5 -27s-53 -42.5 -70 -73.5s-25.5 -65.5 -25.5 -103.5c0 -38.667 8.5 -73.667 25.5 -105zM290 784.002h74l114 -144h-68l-83 103l-81 -103h-68z" />
    <glyph glyph-name="otilde" unicode="&#xf5;" horiz-adv-x="655" 
d="M190.5 24.5c-41.667 24.333 -74.667 58.002 -99 101.002s-36.5 90.833 -36.5 143.5s11.833 100.167 35.5 142.5s56.334 75.666 98.001 99.999s88.167 36.5 139.5 36.5s97.666 -12 138.999 -36s73.833 -57.333 97.5 -100s35.5 -90.334 35.5 -143.001
c0 -54 -12.167 -102.333 -36.5 -145s-57.333 -76 -99 -100s-87.167 -36 -136.5 -36c-50 0 -95.833 12.167 -137.5 36.5zM160.5 164.002c17 -31.333 40.333 -56 70 -74s62.167 -27 97.5 -27s67.666 9 96.999 27s52.5 42.833 69.5 74.5s25.5 66.5 25.5 104.5
s-8.5 72.5 -25.5 103.5s-40.167 55.5 -69.5 73.5s-61.666 27 -96.999 27s-67.833 -9 -97.5 -27s-53 -42.5 -70 -73.5s-25.5 -65.5 -25.5 -103.5c0 -38.667 8.5 -73.667 25.5 -105zM349.5 687.002c-10.333 4.66699 -21.167 11.334 -32.5 20.001
c-1.33301 0.666992 -4.83301 3 -10.5 7s-11.167 6.83301 -16.5 8.5s-10.333 2.5 -15 2.5c-19.333 0 -30.333 -13.333 -33 -40h-54c0.666992 30 8.5 53.667 23.5 71s34.167 26 57.5 26c15.333 0 28 -2.33301 38 -7s20.667 -11.334 32 -20.001
c1.33301 -0.666992 4.83301 -3 10.5 -7s11.167 -6.83301 16.5 -8.5s10.333 -2.5 15 -2.5c20 0 31 13.333 33 40h54c-0.666992 -30 -8.33398 -53.667 -23.001 -71s-33.667 -26 -57 -26c-15.333 0 -28.166 2.33301 -38.499 7z" />
    <glyph glyph-name="odieresis" unicode="&#xf6;" horiz-adv-x="655" 
d="M190.5 24.5c-41.667 24.333 -74.667 58.002 -99 101.002s-36.5 90.833 -36.5 143.5s11.833 100.167 35.5 142.5s56.334 75.666 98.001 99.999s88.167 36.5 139.5 36.5s97.666 -12 138.999 -36s73.833 -57.333 97.5 -100s35.5 -90.334 35.5 -143.001
c0 -54 -12.167 -102.333 -36.5 -145s-57.333 -76 -99 -100s-87.167 -36 -136.5 -36c-50 0 -95.833 12.167 -137.5 36.5zM160.5 164.002c17 -31.333 40.333 -56 70 -74s62.167 -27 97.5 -27s67.666 9 96.999 27s52.5 42.833 69.5 74.5s25.5 66.5 25.5 104.5
s-8.5 72.5 -25.5 103.5s-40.167 55.5 -69.5 73.5s-61.666 27 -96.999 27s-67.833 -9 -97.5 -27s-53 -42.5 -70 -73.5s-25.5 -65.5 -25.5 -103.5c0 -38.667 8.5 -73.667 25.5 -105zM204.5 676.502c-11 11 -16.5 24.833 -16.5 41.5c0 16 5.5 29.5 16.5 40.5
s24.833 16.5 41.5 16.5c16 0 29.5 -5.5 40.5 -16.5s16.5 -24.5 16.5 -40.5c0 -16.667 -5.5 -30.5 -16.5 -41.5s-24.5 -16.5 -40.5 -16.5c-16.667 0 -30.5 5.5 -41.5 16.5zM369.5 758.502c11 11 24.833 16.5 41.5 16.5c16 0 29.5 -5.5 40.5 -16.5s16.5 -24.5 16.5 -40.5
c0 -16.667 -5.5 -30.5 -16.5 -41.5s-24.5 -16.5 -40.5 -16.5c-16.667 0 -30.5 5.5 -41.5 16.5s-16.5 24.833 -16.5 41.5c0 16 5.5 29.5 16.5 40.5z" />
    <glyph glyph-name="divide" unicode="&#xf7;" horiz-adv-x="614" 
d="M55 288h500v-75h-500v75zM265 103h80v-103h-80v103zM265 500h80v-103h-80v103z" />
    <glyph glyph-name="oslash" unicode="&#xf8;" horiz-adv-x="655" 
d="M175 34l-28.001 -33.998h-85l64 77c-22.667 25.333 -40.167 54.333 -52.5 87s-18.5 67.667 -18.5 105c0 52.667 11.833 100.167 35.5 142.5s56.334 75.666 98.001 99.999s88.167 36.5 139.5 36.5c57.333 0 108.333 -15 153 -45l27 33h85l-63 -76
c22.667 -24.667 40 -53.334 52 -86.001s18 -67.667 18 -105c0 -54 -12.167 -102.333 -36.5 -145s-57.333 -76 -99 -100s-87.167 -36 -136.5 -36c-55.333 0 -106.333 15.333 -153 46zM176.999 138.002l253 305.001c-30.667 20 -64.667 30 -102 30
c-35.333 0 -67.833 -9 -97.5 -27s-53 -42.5 -70 -73.5s-25.5 -65.5 -25.5 -103.5c0 -48.667 14 -92.334 42 -131.001zM327.999 63.0029c35.333 0 67.668 9 97.001 27s52.5 42.833 69.5 74.5s25.5 66.5 25.5 104.5c0 48 -14 91 -42 129l-253 -304
c31.333 -20.667 65.666 -31 102.999 -31z" />
    <glyph glyph-name="ugrave" unicode="&#xf9;" 
d="M165 14.5c-30.667 17.667 -54.833 42.5 -72.5 74.5s-26.5 68.333 -26.5 109v338h75v-329c0 -43.333 12.833 -78.166 38.5 -104.499s59.167 -39.5 100.5 -39.5c42 0 76 13.833 102 41.5s39 65.167 39 112.5v319h75v-536h-75v66c-16 -24.667 -37.5 -43.834 -64.5 -57.501
s-56.833 -20.5 -89.5 -20.5c-37.333 0 -71.333 8.83301 -102 26.5zM164.001 784h76l78 -144h-63z" />
    <glyph glyph-name="uacute" unicode="&#xfa;" 
d="M165 14.5c-30.667 17.667 -54.833 42.5 -72.5 74.5s-26.5 68.333 -26.5 109v338h75v-329c0 -43.333 12.833 -78.166 38.5 -104.499s59.167 -39.5 100.5 -39.5c42 0 76 13.833 102 41.5s39 65.167 39 112.5v319h75v-536h-75v66c-16 -24.667 -37.5 -43.834 -64.5 -57.501
s-56.833 -20.5 -89.5 -20.5c-37.333 0 -71.333 8.83301 -102 26.5zM333.001 784h76l-91 -144h-63z" />
    <glyph glyph-name="ucircumflex" unicode="&#xfb;" 
d="M165 14.5c-30.667 17.667 -54.833 42.5 -72.5 74.5s-26.5 68.333 -26.5 109v338h75v-329c0 -43.333 12.833 -78.166 38.5 -104.499s59.167 -39.5 100.5 -39.5c42 0 76 13.833 102 41.5s39 65.167 39 112.5v319h75v-536h-75v66c-16 -24.667 -37.5 -43.834 -64.5 -57.501
s-56.833 -20.5 -89.5 -20.5c-37.333 0 -71.333 8.83301 -102 26.5zM249.001 784h74l114 -144h-68l-83 103l-81 -103h-68z" />
    <glyph glyph-name="udieresis" unicode="&#xfc;" 
d="M165 14.5c-30.667 17.667 -54.833 42.5 -72.5 74.5s-26.5 68.333 -26.5 109v338h75v-329c0 -43.333 12.833 -78.166 38.5 -104.499s59.167 -39.5 100.5 -39.5c42 0 76 13.833 102 41.5s39 65.167 39 112.5v319h75v-536h-75v66c-16 -24.667 -37.5 -43.834 -64.5 -57.501
s-56.833 -20.5 -89.5 -20.5c-37.333 0 -71.333 8.83301 -102 26.5zM163.501 676.5c-11 11 -16.5 24.833 -16.5 41.5c0 16 5.5 29.5 16.5 40.5s24.833 16.5 41.5 16.5c16 0 29.5 -5.5 40.5 -16.5s16.5 -24.5 16.5 -40.5c0 -16.667 -5.5 -30.5 -16.5 -41.5
s-24.5 -16.5 -40.5 -16.5c-16.667 0 -30.5 5.5 -41.5 16.5zM328.501 758.5c11 11 24.833 16.5 41.5 16.5c16 0 29.5 -5.5 40.5 -16.5s16.5 -24.5 16.5 -40.5c0 -16.667 -5.5 -30.5 -16.5 -41.5s-24.5 -16.5 -40.5 -16.5c-16.667 0 -30.5 5.5 -41.5 16.5
s-16.5 24.833 -16.5 41.5c0 16 5.5 29.5 16.5 40.5z" />
    <glyph glyph-name="yacute" unicode="&#xfd;" horiz-adv-x="536" 
d="M314 784h76l-91 -144h-63z" />
    <glyph glyph-name="thorn" unicode="&#xfe;" horiz-adv-x="667" 
d="M77 745l74.999 0.00390625v-290c22 29.333 49.833 52.166 83.5 68.499s71.167 24.5 112.5 24.5c50 0 95.167 -12.167 135.5 -36.5s71.833 -57.833 94.5 -100.5s34 -90.334 34 -143.001s-11.5 -100.334 -34.5 -143.001s-54.5 -76.167 -94.5 -100.5s-85 -36.5 -135 -36.5
c-41.333 0 -79.166 8.66699 -113.499 26s-61.833 41.666 -82.5 72.999v-287h-75v945zM177.499 164.004c17 -31.333 40.167 -56 69.5 -74s61.666 -27 96.999 -27s67.333 9 96 27s51.167 42.5 67.5 73.5s24.5 65.833 24.5 104.5s-8.16699 73.5 -24.5 104.5
s-38.833 55.5 -67.5 73.5s-60.667 27 -96 27s-67.666 -9 -96.999 -27s-52.5 -42.667 -69.5 -74s-25.5 -66 -25.5 -104s8.5 -72.667 25.5 -104z" />
    <glyph glyph-name="ydieresis" unicode="&#xff;" horiz-adv-x="536" 
d="M144.5 676.5c-11 11 -16.5 24.833 -16.5 41.5c0 16 5.5 29.5 16.5 40.5s24.833 16.5 41.5 16.5c16 0 29.5 -5.5 40.5 -16.5s16.5 -24.5 16.5 -40.5c0 -16.667 -5.5 -30.5 -16.5 -41.5s-24.5 -16.5 -40.5 -16.5c-16.667 0 -30.5 5.5 -41.5 16.5zM309.5 758.5
c11 11 24.833 16.5 41.5 16.5c16 0 29.5 -5.5 40.5 -16.5s16.5 -24.5 16.5 -40.5c0 -16.667 -5.5 -30.5 -16.5 -41.5s-24.5 -16.5 -40.5 -16.5c-16.667 0 -30.5 5.5 -41.5 16.5s-16.5 24.833 -16.5 41.5c0 16 5.5 29.5 16.5 40.5z" />
    <glyph glyph-name="Amacron" unicode="&#x100;" horiz-adv-x="652" 
d="M283 745h86l272 -745h-84l-64 182h-333l-65 -182h-84zM465 257l-139 394l-140 -394h279zM196 939h260v-60h-260v60z" />
    <glyph glyph-name="amacron" unicode="&#x101;" horiz-adv-x="572" 
d="M141.5 7.5c-27 13 -48.168 30.998 -63.501 53.998s-23 48.833 -23 77.5c0 43.333 14.167 80 42.5 110s71.166 49.667 128.499 59l194 32v28c0 32 -11.667 58 -35 78s-53.666 30 -90.999 30c-32 0 -60.333 -8 -85 -24s-43.334 -37.333 -56.001 -64l-68 37
c15.333 34.667 42.833 63.834 82.5 87.501s81.834 35.5 126.501 35.5c38.667 0 73.334 -7.66699 104.001 -23s54.5 -36.666 71.5 -63.999s25.5 -58.333 25.5 -93v-368h-75v77c-18 -26.667 -43.667 -48.167 -77 -64.5s-70.333 -24.5 -111 -24.5
c-33.333 0 -63.5 6.5 -90.5 19.5zM163.999 80.998c19.333 -16.667 43.667 -25 73 -25c35.333 0 67 7.66699 95 23s49.667 36.5 65 63.5s23 56.833 23 89.5v40l-176 -29c-37.333 -6 -64.833 -17.833 -82.5 -35.5s-26.5 -39.5 -26.5 -65.5c0 -24 9.66699 -44.333 29 -61z
M156 729.998h260v-60h-260v60z" />
    <glyph glyph-name="Abreve" unicode="&#x102;" horiz-adv-x="652" 
d="M283 745h86l272 -745h-84l-64 182h-333l-65 -182h-84zM465 257l-139 394l-140 -394h279zM256.5 867.5c-21 12.333 -37.6689 29.001 -50.002 50.001s-18.5 43.5 -18.5 67.5h55c0 -22.667 8 -42.334 24 -59.001s35.333 -25 58 -25s42.334 8.33301 59.001 25
s25 36.334 25 59.001h54c0 -24.667 -6.16699 -47.334 -18.5 -68.001s-29.166 -37.167 -50.499 -49.5s-44.333 -18.5 -69 -18.5s-47.5 6.16699 -68.5 18.5z" />
    <glyph glyph-name="abreve" unicode="&#x103;" horiz-adv-x="572" 
d="M141.5 7.5c-27 13 -48.168 30.998 -63.501 53.998s-23 48.833 -23 77.5c0 43.333 14.167 80 42.5 110s71.166 49.667 128.499 59l194 32v28c0 32 -11.667 58 -35 78s-53.666 30 -90.999 30c-32 0 -60.333 -8 -85 -24s-43.334 -37.333 -56.001 -64l-68 37
c15.333 34.667 42.833 63.834 82.5 87.501s81.834 35.5 126.501 35.5c38.667 0 73.334 -7.66699 104.001 -23s54.5 -36.666 71.5 -63.999s25.5 -58.333 25.5 -93v-368h-75v77c-18 -26.667 -43.667 -48.167 -77 -64.5s-70.333 -24.5 -111 -24.5
c-33.333 0 -63.5 6.5 -90.5 19.5zM163.999 80.998c19.333 -16.667 43.667 -25 73 -25c35.333 0 67 7.66699 95 23s49.667 36.5 65 63.5s23 56.833 23 89.5v40l-176 -29c-37.333 -6 -64.833 -17.833 -82.5 -35.5s-26.5 -39.5 -26.5 -65.5c0 -24 9.66699 -44.333 29 -61z
M216.5 658.498c-21 12.333 -37.6689 29.001 -50.002 50.001s-18.5 43.5 -18.5 67.5h55c0 -22.667 8 -42.334 24 -59.001s35.333 -25 58 -25s42.334 8.33301 59.001 25s25 36.334 25 59.001h54c0 -24.667 -6.16699 -47.334 -18.5 -68.001s-29.166 -37.167 -50.499 -49.5
s-44.333 -18.5 -69 -18.5s-47.5 6.16699 -68.5 18.5z" />
    <glyph glyph-name="Aogonek" unicode="&#x104;" horiz-adv-x="652" 
d="M283 745l86.002 0.000976562l272 -745h-57c-35.333 -20.667 -53 -45.667 -53 -75c0 -14.667 4.5 -26.167 13.5 -34.5s21.5 -12.5 37.5 -12.5c22 0 45.333 9 70 27l25 -37c-29.333 -25.333 -62.333 -38 -99 -38c-28.667 0 -52.334 7.66699 -71.001 23
s-28 35.666 -28 60.999c0 20.667 6.16699 39.667 18.5 57s30.166 32.333 53.499 45l-58 166h-333l-65 -182h-84zM465.002 257.001l-139 394l-140 -394h279z" />
    <glyph glyph-name="aogonek" unicode="&#x105;" horiz-adv-x="572" 
d="M141.5 7.5c-27 13 -48.167 31 -63.5 54s-23 48.833 -23 77.5c0 43.333 14.167 80 42.5 110s71.166 49.667 128.499 59l194 32v28c0 32 -11.667 58 -35 78s-53.666 30 -90.999 30c-32 0 -60.333 -8 -85 -24s-43.334 -37.333 -56.001 -64l-68 37
c15.333 34.667 42.833 63.834 82.5 87.501s81.834 35.5 126.501 35.5c38.667 0 73.334 -7.66699 104.001 -23s54.5 -36.666 71.5 -63.999s25.5 -58.333 25.5 -93v-368h-47c-25.333 -19.333 -38 -41 -38 -65c0 -14.667 4.5 -26.167 13.5 -34.5s21.5 -12.5 37.5 -12.5
c22 0 45.333 9 70 27l25 -37c-29.333 -25.333 -62.333 -38 -99 -38c-28.667 0 -52.334 7.66699 -71.001 23s-28 35.666 -28 60.999c0 19.333 5.33301 37.166 16 53.499s26 30.5 46 42.5v57c-18 -26.667 -43.667 -48.167 -77 -64.5s-70.333 -24.5 -111 -24.5
c-33.333 0 -63.5 6.5 -90.5 19.5zM164 81c19.333 -16.667 43.667 -25 73 -25c35.333 0 67 7.66699 95 23s49.667 36.5 65 63.5s23 56.833 23 89.5v40l-176 -29c-37.333 -6 -64.833 -17.833 -82.5 -35.5s-26.5 -39.5 -26.5 -65.5c0 -24 9.66699 -44.333 29 -61z" />
    <glyph glyph-name="Cacute" unicode="&#x106;" horiz-adv-x="781" 
d="M241.5 37.5c-55 33 -98 78.666 -129 136.999s-46.5 124.166 -46.5 197.499s15.5 139.333 46.5 198s74 104.5 129 137.5s117.167 49.5 186.5 49.5c48 0 92.333 -8.83301 133 -26.5s75.167 -40.667 103.5 -69s48.833 -58.5 61.5 -90.5l-75 -33
c-19.333 44.667 -48.333 79.834 -87 105.501s-84 38.5 -136 38.5c-54.667 0 -103.334 -13 -146.001 -39s-76 -62.5 -100 -109.5s-36 -100.833 -36 -161.5s12 -114.5 36 -161.5s57.333 -83.333 100 -109s91.334 -38.5 146.001 -38.5c52 0 97.333 12.667 136 38
s67.667 60.333 87 105l75 -33c-12.667 -32 -33.167 -62.167 -61.5 -90.5s-62.833 -51.166 -103.5 -68.499s-85 -26 -133 -26c-69.333 0 -131.5 16.5 -186.5 49.5zM437 992.999h76l-91 -144h-63z" />
    <glyph glyph-name="cacute" unicode="&#x107;" horiz-adv-x="600" 
d="M181.5 24.5c-41 24.333 -72.833 57.8311 -95.5 100.498s-34 90.667 -34 144c0 52.667 11.333 100.334 34 143.001s54.5 76 95.5 100s87.833 36 140.5 36c49.333 0 95 -12.833 137 -38.5s71.667 -58.5 89 -98.5l-68 -35c-14 29.333 -35.167 52.833 -63.5 70.5
s-59.833 26.5 -94.5 26.5s-66.5 -8.83301 -95.5 -26.5s-52 -42.167 -69 -73.5s-25.5 -66.333 -25.5 -105c0 -38 8.5 -72.667 25.5 -104s40 -56 69 -74s60.833 -27 95.5 -27c35.333 0 67 8.83301 95 26.5s49 41.834 63 72.501l68 -37c-18 -39.333 -48 -72 -90 -98
s-87.333 -39 -136 -39c-52.667 0 -99.5 12.167 -140.5 36.5zM368 783.998h76l-91 -144h-63z" />
    <glyph glyph-name="Ccircumflex" unicode="&#x108;" horiz-adv-x="781" 
d="M241.5 37.5c-55 33 -98 78.666 -129 136.999s-46.5 124.166 -46.5 197.499s15.5 139.333 46.5 198s74 104.5 129 137.5s117.167 49.5 186.5 49.5c48 0 92.333 -8.83301 133 -26.5s75.167 -40.667 103.5 -69s48.833 -58.5 61.5 -90.5l-75 -33
c-19.333 44.667 -48.333 79.834 -87 105.501s-84 38.5 -136 38.5c-54.667 0 -103.334 -13 -146.001 -39s-76 -62.5 -100 -109.5s-36 -100.833 -36 -161.5s12 -114.5 36 -161.5s57.333 -83.333 100 -109s91.334 -38.5 146.001 -38.5c52 0 97.333 12.667 136 38
s67.667 60.333 87 105l75 -33c-12.667 -32 -33.167 -62.167 -61.5 -90.5s-62.833 -51.166 -103.5 -68.499s-85 -26 -133 -26c-69.333 0 -131.5 16.5 -186.5 49.5zM353 992.999h74l114 -144h-68l-83 103l-81 -103h-68z" />
    <glyph glyph-name="ccircumflex" unicode="&#x109;" horiz-adv-x="600" 
d="M181.5 24.5c-41 24.333 -72.833 57.8311 -95.5 100.498s-34 90.667 -34 144c0 52.667 11.333 100.334 34 143.001s54.5 76 95.5 100s87.833 36 140.5 36c49.333 0 95 -12.833 137 -38.5s71.667 -58.5 89 -98.5l-68 -35c-14 29.333 -35.167 52.833 -63.5 70.5
s-59.833 26.5 -94.5 26.5s-66.5 -8.83301 -95.5 -26.5s-52 -42.167 -69 -73.5s-25.5 -66.333 -25.5 -105c0 -38 8.5 -72.667 25.5 -104s40 -56 69 -74s60.833 -27 95.5 -27c35.333 0 67 8.83301 95 26.5s49 41.834 63 72.501l68 -37c-18 -39.333 -48 -72 -90 -98
s-87.333 -39 -136 -39c-52.667 0 -99.5 12.167 -140.5 36.5zM284 783.998h74l114 -144h-68l-83 103l-81 -103h-68z" />
    <glyph glyph-name="Cdotaccent" unicode="&#x10a;" horiz-adv-x="781" 
d="M241.5 37.5c-55 33 -98 78.666 -129 136.999s-46.5 124.166 -46.5 197.499s15.5 139.333 46.5 198s74 104.5 129 137.5s117.167 49.5 186.5 49.5c48 0 92.333 -8.83301 133 -26.5s75.167 -40.667 103.5 -69s48.833 -58.5 61.5 -90.5l-75 -33
c-19.333 44.667 -48.333 79.834 -87 105.501s-84 38.5 -136 38.5c-54.667 0 -103.334 -13 -146.001 -39s-76 -62.5 -100 -109.5s-36 -100.833 -36 -161.5s12 -114.5 36 -161.5s57.333 -83.333 100 -109s91.334 -38.5 146.001 -38.5c52 0 97.333 12.667 136 38
s67.667 60.333 87 105l75 -33c-12.667 -32 -33.167 -62.167 -61.5 -90.5s-62.833 -51.166 -103.5 -68.499s-85 -26 -133 -26c-69.333 0 -131.5 16.5 -186.5 49.5zM349.5 885.499c-11 11 -16.5 24.833 -16.5 41.5c0 16 5.5 29.5 16.5 40.5s24.833 16.5 41.5 16.5
c16 0 29.5 -5.5 40.5 -16.5s16.5 -24.5 16.5 -40.5c0 -16.667 -5.5 -30.5 -16.5 -41.5s-24.5 -16.5 -40.5 -16.5c-16.667 0 -30.5 5.5 -41.5 16.5z" />
    <glyph glyph-name="cdotaccent" unicode="&#x10b;" horiz-adv-x="600" 
d="M181.5 24.5c-41 24.333 -72.833 57.8311 -95.5 100.498s-34 90.667 -34 144c0 52.667 11.333 100.334 34 143.001s54.5 76 95.5 100s87.833 36 140.5 36c49.333 0 95 -12.833 137 -38.5s71.667 -58.5 89 -98.5l-68 -35c-14 29.333 -35.167 52.833 -63.5 70.5
s-59.833 26.5 -94.5 26.5s-66.5 -8.83301 -95.5 -26.5s-52 -42.167 -69 -73.5s-25.5 -66.333 -25.5 -105c0 -38 8.5 -72.667 25.5 -104s40 -56 69 -74s60.833 -27 95.5 -27c35.333 0 67 8.83301 95 26.5s49 41.834 63 72.501l68 -37c-18 -39.333 -48 -72 -90 -98
s-87.333 -39 -136 -39c-52.667 0 -99.5 12.167 -140.5 36.5zM280.5 676.498c-11 11 -16.5 24.833 -16.5 41.5c0 16 5.5 29.5 16.5 40.5s24.833 16.5 41.5 16.5c16 0 29.5 -5.5 40.5 -16.5s16.5 -24.5 16.5 -40.5c0 -16.667 -5.5 -30.5 -16.5 -41.5s-24.5 -16.5 -40.5 -16.5
c-16.667 0 -30.5 5.5 -41.5 16.5z" />
    <glyph glyph-name="Ccaron" unicode="&#x10c;" horiz-adv-x="781" 
d="M241.5 37.5c-55 33 -98 78.666 -129 136.999s-46.5 124.166 -46.5 197.499s15.5 139.333 46.5 198s74 104.5 129 137.5s117.167 49.5 186.5 49.5c48 0 92.333 -8.83301 133 -26.5s75.167 -40.667 103.5 -69s48.833 -58.5 61.5 -90.5l-75 -33
c-19.333 44.667 -48.333 79.834 -87 105.501s-84 38.5 -136 38.5c-54.667 0 -103.334 -13 -146.001 -39s-76 -62.5 -100 -109.5s-36 -100.833 -36 -161.5s12 -114.5 36 -161.5s57.333 -83.333 100 -109s91.334 -38.5 146.001 -38.5c52 0 97.333 12.667 136 38
s67.667 60.333 87 105l75 -33c-12.667 -32 -33.167 -62.167 -61.5 -90.5s-62.833 -51.166 -103.5 -68.499s-85 -26 -133 -26c-69.333 0 -131.5 16.5 -186.5 49.5zM241 992.999h68l81 -103l83 103h68l-114 -144h-74z" />
    <glyph glyph-name="ccaron" unicode="&#x10d;" horiz-adv-x="600" 
d="M181.5 24.5c-41 24.333 -72.833 57.8311 -95.5 100.498s-34 90.667 -34 144c0 52.667 11.333 100.334 34 143.001s54.5 76 95.5 100s87.833 36 140.5 36c49.333 0 95 -12.833 137 -38.5s71.667 -58.5 89 -98.5l-68 -35c-14 29.333 -35.167 52.833 -63.5 70.5
s-59.833 26.5 -94.5 26.5s-66.5 -8.83301 -95.5 -26.5s-52 -42.167 -69 -73.5s-25.5 -66.333 -25.5 -105c0 -38 8.5 -72.667 25.5 -104s40 -56 69 -74s60.833 -27 95.5 -27c35.333 0 67 8.83301 95 26.5s49 41.834 63 72.501l68 -37c-18 -39.333 -48 -72 -90 -98
s-87.333 -39 -136 -39c-52.667 0 -99.5 12.167 -140.5 36.5zM172 783.998h68l81 -103l83 103h68l-114 -144h-74z" />
    <glyph glyph-name="Dcaron" unicode="&#x10e;" horiz-adv-x="742" 
d="M88 745l245 -0.000976562c73.333 0 137.5 -15.167 192.5 -45.5s97.5 -73.666 127.5 -129.999s45 -121.833 45 -196.5s-15 -140.167 -45 -196.5s-72.667 -99.833 -128 -130.5s-119.333 -46 -192 -46h-245v745zM333 74.999c56.667 0 106.167 12.166 148.5 36.499
s75 58.833 98 103.5s34.5 97.334 34.5 158.001c0 60 -11.5 112.333 -34.5 157s-55.833 79.167 -98.5 103.5s-92 36.5 -148 36.5h-165v-595h165zM232 992.998h68l81 -103l83 103h68l-114 -144h-74z" />
    <glyph glyph-name="dcaron" unicode="&#x10f;" horiz-adv-x="782" 
d="M184 24.5c-40 24.333 -71.501 57.8291 -94.501 100.496s-34.5 90.334 -34.5 143.001s11.333 100.334 34 143.001s54.167 76.167 94.5 100.5s85.5 36.5 135.5 36.5c41.333 0 78.833 -8.16699 112.5 -24.5s61.5 -39.166 83.5 -68.499v302h75v-757h-75v87
c-20.667 -31.333 -48.167 -55.666 -82.5 -72.999s-72.166 -26 -113.499 -26c-50 0 -95 12.167 -135 36.5zM159.499 163.496c16.333 -31 38.833 -55.5 67.5 -73.5s60.667 -27 96 -27s67.666 9 96.999 27s52.5 42.667 69.5 74s25.5 66 25.5 104s-8.5 72.667 -25.5 104
s-40.167 56 -69.5 74s-61.666 27 -96.999 27s-67.333 -9 -96 -27s-51.167 -42.5 -67.5 -73.5s-24.5 -65.833 -24.5 -104.5s8.16699 -73.5 24.5 -104.5zM686.999 842.996h80l-12 -184h-55z" />
    <glyph glyph-name="Dcroat" unicode="&#x110;" horiz-adv-x="742" 
d="M88 340l-85 -0.000976562v65h85v340h245c73.333 0 137.5 -15.167 192.5 -45.5s97.5 -73.666 127.5 -129.999s45 -121.833 45 -196.5s-15 -140.167 -45 -196.5s-72.667 -99.833 -128 -130.5s-119.333 -46 -192 -46h-245v340zM333 74.999
c56.667 0 106.167 12.166 148.5 36.499s75 58.833 98 103.5s34.5 97.334 34.5 158.001c0 60 -11.5 112.333 -34.5 157s-55.833 79.167 -98.5 103.5s-92 36.5 -148 36.5h-165v-265h185v-65h-185v-265h165z" />
    <glyph glyph-name="dcroat" unicode="&#x111;" horiz-adv-x="667" 
d="M184 24.5c-40 24.333 -71.501 57.8291 -94.501 100.496s-34.5 90.334 -34.5 143.001s11.333 100.334 34 143.001s54.167 76.167 94.5 100.5s85.5 36.5 135.5 36.5c41.333 0 78.833 -8.16699 112.5 -24.5s61.5 -39.166 83.5 -68.499v152h-87v65h87v85h75v-85h88v-65h-88
v-607h-75v87c-20.667 -31.333 -48.167 -55.666 -82.5 -72.999s-72.166 -26 -113.499 -26c-50 0 -95 12.167 -135 36.5zM159.499 163.496c16.333 -31 38.833 -55.5 67.5 -73.5s60.667 -27 96 -27s67.666 9 96.999 27s52.5 42.667 69.5 74s25.5 66 25.5 104
s-8.5 72.667 -25.5 104s-40.167 56 -69.5 74s-61.666 27 -96.999 27s-67.333 -9 -96 -27s-51.167 -42.5 -67.5 -73.5s-24.5 -65.833 -24.5 -104.5s8.16699 -73.5 24.5 -104.5z" />
    <glyph glyph-name="Emacron" unicode="&#x112;" horiz-adv-x="612" 
d="M88 745h480v-75h-400v-259h380v-75h-380v-261h400v-75h-480v745zM198 939h260v-60h-260v60z" />
    <glyph glyph-name="emacron" unicode="&#x113;" horiz-adv-x="615" 
d="M186 24.5c-40.667 24.333 -72.665 57.9971 -95.998 100.997s-35 91.167 -35 144.5c0 52.667 11.167 100.167 33.5 142.5s53.166 75.5 92.499 99.5s83.333 36 132 36c49.333 0 92.666 -12 129.999 -36s66.166 -55.667 86.499 -95s30.5 -80.666 30.5 -123.999
c0 -16.667 -1.33301 -32.667 -4 -48h-422c0.666992 -37.333 9.83398 -70.166 27.501 -98.499s40.667 -50.166 69 -65.499s58.5 -23 90.5 -23c70 0 124.667 32.667 164 98l64 -34c-17.333 -38 -46.5 -69.833 -87.5 -95.5s-87.833 -38.5 -140.5 -38.5
c-49.333 0 -94.333 12.167 -135 36.5zM479.002 314.997c0 30.667 -7.5 58.501 -22.5 83.501s-35.167 44.5 -60.5 58.5s-53 21 -83 21c-29.333 0 -56.833 -6.66699 -82.5 -20s-47 -32.333 -64 -57s-27.167 -53.334 -30.5 -86.001h343zM178.002 729.998h260v-60h-260v60z" />
    <glyph glyph-name="Ebreve" unicode="&#x114;" horiz-adv-x="612" 
d="M88 745h480v-75h-400v-259h380v-75h-380v-261h400v-75h-480v745zM258.5 867.5c-21 12.333 -37.6689 29.001 -50.002 50.001s-18.5 43.5 -18.5 67.5h55c0 -22.667 8 -42.334 24 -59.001s35.333 -25 58 -25s42.334 8.33301 59.001 25s25 36.334 25 59.001h54
c0 -24.667 -6.16699 -47.334 -18.5 -68.001s-29.166 -37.167 -50.499 -49.5s-44.333 -18.5 -69 -18.5s-47.5 6.16699 -68.5 18.5z" />
    <glyph glyph-name="ebreve" unicode="&#x115;" horiz-adv-x="615" 
d="M186 24.5c-40.667 24.333 -72.665 57.9971 -95.998 100.997s-35 91.167 -35 144.5c0 52.667 11.167 100.167 33.5 142.5s53.166 75.5 92.499 99.5s83.333 36 132 36c49.333 0 92.666 -12 129.999 -36s66.166 -55.667 86.499 -95s30.5 -80.666 30.5 -123.999
c0 -16.667 -1.33301 -32.667 -4 -48h-422c0.666992 -37.333 9.83398 -70.166 27.501 -98.499s40.667 -50.166 69 -65.499s58.5 -23 90.5 -23c70 0 124.667 32.667 164 98l64 -34c-17.333 -38 -46.5 -69.833 -87.5 -95.5s-87.833 -38.5 -140.5 -38.5
c-49.333 0 -94.333 12.167 -135 36.5zM479.002 314.997c0 30.667 -7.5 58.501 -22.5 83.501s-35.167 44.5 -60.5 58.5s-53 21 -83 21c-29.333 0 -56.833 -6.66699 -82.5 -20s-47 -32.333 -64 -57s-27.167 -53.334 -30.5 -86.001h343zM238.502 658.498
c-21 12.333 -37.6689 29.001 -50.002 50.001s-18.5 43.5 -18.5 67.5h55c0 -22.667 8 -42.334 24 -59.001s35.333 -25 58 -25s42.334 8.33301 59.001 25s25 36.334 25 59.001h54c0 -24.667 -6.16699 -47.334 -18.5 -68.001s-29.166 -37.167 -50.499 -49.5
s-44.333 -18.5 -69 -18.5s-47.5 6.16699 -68.5 18.5z" />
    <glyph glyph-name="Edotaccent" unicode="&#x116;" horiz-adv-x="612" 
d="M88 745h480v-75h-400v-259h380v-75h-380v-261h400v-75h-480v745zM286.5 885.5c-11 11 -16.5 24.833 -16.5 41.5c0 16 5.5 29.5 16.5 40.5s24.833 16.5 41.5 16.5c16 0 29.5 -5.5 40.5 -16.5s16.5 -24.5 16.5 -40.5c0 -16.667 -5.5 -30.5 -16.5 -41.5
s-24.5 -16.5 -40.5 -16.5c-16.667 0 -30.5 5.5 -41.5 16.5z" />
    <glyph glyph-name="edotaccent" unicode="&#x117;" horiz-adv-x="615" 
d="M186 24.5c-40.667 24.333 -72.665 57.9971 -95.998 100.997s-35 91.167 -35 144.5c0 52.667 11.167 100.167 33.5 142.5s53.166 75.5 92.499 99.5s83.333 36 132 36c49.333 0 92.666 -12 129.999 -36s66.166 -55.667 86.499 -95s30.5 -80.666 30.5 -123.999
c0 -16.667 -1.33301 -32.667 -4 -48h-422c0.666992 -37.333 9.83398 -70.166 27.501 -98.499s40.667 -50.166 69 -65.499s58.5 -23 90.5 -23c70 0 124.667 32.667 164 98l64 -34c-17.333 -38 -46.5 -69.833 -87.5 -95.5s-87.833 -38.5 -140.5 -38.5
c-49.333 0 -94.333 12.167 -135 36.5zM479.002 314.997c0 30.667 -7.5 58.501 -22.5 83.501s-35.167 44.5 -60.5 58.5s-53 21 -83 21c-29.333 0 -56.833 -6.66699 -82.5 -20s-47 -32.333 -64 -57s-27.167 -53.334 -30.5 -86.001h343zM266.502 676.498
c-11 11 -16.5 24.833 -16.5 41.5c0 16 5.5 29.5 16.5 40.5s24.833 16.5 41.5 16.5c16 0 29.5 -5.5 40.5 -16.5s16.5 -24.5 16.5 -40.5c0 -16.667 -5.5 -30.5 -16.5 -41.5s-24.5 -16.5 -40.5 -16.5c-16.667 0 -30.5 5.5 -41.5 16.5z" />
    <glyph glyph-name="Eogonek" unicode="&#x118;" horiz-adv-x="612" 
d="M88 745l480.001 0.000976562v-75h-400v-259h380v-75h-380v-261h400v-75h-55c-35.333 -20.667 -53 -45.667 -53 -75c0 -14.667 4.5 -26.167 13.5 -34.5s21.5 -12.5 37.5 -12.5c22 0 45.333 9 70 27l25 -37c-29.333 -25.333 -62.333 -38 -99 -38
c-28.667 0 -52.334 7.66699 -71.001 23s-28 35.666 -28 60.999c0 34 15.667 62.667 47 86h-367v745z" />
    <glyph glyph-name="eogonek" unicode="&#x119;" horiz-adv-x="615" 
d="M280 -9c-18 -17.333 -26.9971 -36.002 -26.9971 -56.002c0 -14.667 4.5 -26.167 13.5 -34.5s21.5 -12.5 37.5 -12.5c22 0 45.333 9 70 27l25 -37c-29.333 -25.333 -62.333 -38 -99 -38c-28.667 0 -52.334 7.66699 -71.001 23s-28 35.666 -28 60.999c0 29.333 12 55 36 77
c-54 18 -97.833 51.167 -131.5 99.5s-50.5 104.833 -50.5 169.5c0 52.667 11.167 100.167 33.5 142.5s53.166 75.5 92.499 99.5s83.333 36 132 36c49.333 0 92.666 -12 129.999 -36s66.166 -55.667 86.499 -95s30.5 -80.666 30.5 -123.999
c0 -16.667 -1.33301 -32.667 -4 -48h-422c0.666992 -37.333 9.83398 -70.166 27.501 -98.499s40.667 -50.166 69 -65.499s58.5 -23 90.5 -23c70 0 124.667 32.667 164 98l64 -34c-17.333 -38 -46.5 -69.833 -87.5 -95.5s-87.833 -38.5 -140.5 -38.5c-13.333 0 -27 1 -41 3z
M479.003 314.998c0 30.667 -7.5 58.501 -22.5 83.501s-35.167 44.5 -60.5 58.5s-53 21 -83 21c-29.333 0 -56.833 -6.66699 -82.5 -20s-47 -32.333 -64 -57s-27.167 -53.334 -30.5 -86.001h343z" />
    <glyph glyph-name="Ecaron" unicode="&#x11a;" horiz-adv-x="612" 
d="M88 745h480v-75h-400v-259h380v-75h-380v-261h400v-75h-480v745zM178 993h68l81 -103l83 103h68l-114 -144h-74z" />
    <glyph glyph-name="ecaron" unicode="&#x11b;" horiz-adv-x="615" 
d="M186 24.5c-40.667 24.333 -72.665 57.9971 -95.998 100.997s-35 91.167 -35 144.5c0 52.667 11.167 100.167 33.5 142.5s53.166 75.5 92.499 99.5s83.333 36 132 36c49.333 0 92.666 -12 129.999 -36s66.166 -55.667 86.499 -95s30.5 -80.666 30.5 -123.999
c0 -16.667 -1.33301 -32.667 -4 -48h-422c0.666992 -37.333 9.83398 -70.166 27.501 -98.499s40.667 -50.166 69 -65.499s58.5 -23 90.5 -23c70 0 124.667 32.667 164 98l64 -34c-17.333 -38 -46.5 -69.833 -87.5 -95.5s-87.833 -38.5 -140.5 -38.5
c-49.333 0 -94.333 12.167 -135 36.5zM479.002 314.997c0 30.667 -7.5 58.501 -22.5 83.501s-35.167 44.5 -60.5 58.5s-53 21 -83 21c-29.333 0 -56.833 -6.66699 -82.5 -20s-47 -32.333 -64 -57s-27.167 -53.334 -30.5 -86.001h343zM158.002 783.998h68l81 -103l83 103h68
l-114 -144h-74z" />
    <glyph glyph-name="Gcircumflex" unicode="&#x11c;" horiz-adv-x="821" 
d="M241.5 37.5c-55 33 -98 78.6699 -129 137.003s-46.5 124.166 -46.5 197.499s15.5 139.333 46.5 198s74 104.5 129 137.5s117.167 49.5 186.5 49.5c48 0 92.333 -8.83301 133 -26.5s75.167 -40.667 103.5 -69s48.833 -58.5 61.5 -90.5l-72 -35
c-18.667 46 -47.5 81.833 -86.5 107.5s-85.5 38.5 -139.5 38.5c-54.667 0 -103.334 -13 -146.001 -39s-76 -62.5 -100 -109.5s-36 -100.833 -36 -161.5s12 -114.5 36 -161.5s57.333 -83.333 100 -109s91.334 -38.5 146.001 -38.5c48 0 91.667 10.667 131 32
s70.333 50.666 93 87.999s34 79.666 34 126.999v5h-258v70h338v-62c0 -64 -15 -121.5 -45 -172.5s-70.667 -90.833 -122 -119.5s-108.333 -43 -171 -43c-69.333 0 -131.5 16.5 -186.5 49.5zM373 993.003h74l114 -144h-68l-83 103l-81 -103h-68z" />
    <glyph glyph-name="gcircumflex" unicode="&#x11d;" horiz-adv-x="662" 
d="M187.5 -184c-41 24 -70.833 56.001 -89.5 96.001l69 37c11.333 -27.333 31 -49.833 59 -67.5s62.333 -26.5 103 -26.5c32.667 0 62.834 6.5 90.501 19.5s49.667 32 66 57s24.5 54.833 24.5 89.5v86c-20 -31.333 -46.833 -55.666 -80.5 -72.999s-70.5 -26 -110.5 -26
c-49.333 0 -94.166 12 -134.499 36s-72 56.5 -95 97.5s-34.5 86.5 -34.5 136.5s11.5 95.5 34.5 136.5s54.5 73.5 94.5 97.5s85 36 135 36c38.667 0 74.667 -8.33301 108 -25s61 -39.334 83 -68.001v81h75v-515c0 -46 -10.833 -87.333 -32.5 -124
s-51.834 -65.334 -90.501 -86.001s-82.334 -31 -131.001 -31c-54.667 0 -102.5 12 -143.5 36zM159.5 180.501c16.333 -29.667 38.833 -53.332 67.5 -70.999s60.667 -26.5 96 -26.5c34 0 65.333 8.83301 94 26.5s51.334 41.5 68.001 71.5s25 62.333 25 97s-8.33301 67 -25 97
s-39.334 53.833 -68.001 71.5s-60 26.5 -94 26.5c-34.667 0 -66.5 -8.83301 -95.5 -26.5s-51.667 -41.334 -68 -71.001s-24.5 -62.167 -24.5 -97.5s8.16699 -67.833 24.5 -97.5zM293 784.003h74l114 -144h-68l-83 103l-81 -103h-68z" />
    <glyph glyph-name="Gbreve" unicode="&#x11e;" horiz-adv-x="821" 
d="M241.5 37.5c-55 33 -98 78.6699 -129 137.003s-46.5 124.166 -46.5 197.499s15.5 139.333 46.5 198s74 104.5 129 137.5s117.167 49.5 186.5 49.5c48 0 92.333 -8.83301 133 -26.5s75.167 -40.667 103.5 -69s48.833 -58.5 61.5 -90.5l-72 -35
c-18.667 46 -47.5 81.833 -86.5 107.5s-85.5 38.5 -139.5 38.5c-54.667 0 -103.334 -13 -146.001 -39s-76 -62.5 -100 -109.5s-36 -100.833 -36 -161.5s12 -114.5 36 -161.5s57.333 -83.333 100 -109s91.334 -38.5 146.001 -38.5c48 0 91.667 10.667 131 32
s70.333 50.666 93 87.999s34 79.666 34 126.999v5h-258v70h338v-62c0 -64 -15 -121.5 -45 -172.5s-70.667 -90.833 -122 -119.5s-108.333 -43 -171 -43c-69.333 0 -131.5 16.5 -186.5 49.5zM341.5 867.503c-21 12.333 -37.6689 29.001 -50.002 50.001s-18.5 43.5 -18.5 67.5
h55c0 -22.667 8 -42.334 24 -59.001s35.333 -25 58 -25s42.334 8.33301 59.001 25s25 36.334 25 59.001h54c0 -24.667 -6.16699 -47.334 -18.5 -68.001s-29.166 -37.167 -50.499 -49.5s-44.333 -18.5 -69 -18.5s-47.5 6.16699 -68.5 18.5z" />
    <glyph glyph-name="gbreve" unicode="&#x11f;" horiz-adv-x="662" 
d="M187.5 -184c-41 24 -70.833 56.001 -89.5 96.001l69 37c11.333 -27.333 31 -49.833 59 -67.5s62.333 -26.5 103 -26.5c32.667 0 62.834 6.5 90.501 19.5s49.667 32 66 57s24.5 54.833 24.5 89.5v86c-20 -31.333 -46.833 -55.666 -80.5 -72.999s-70.5 -26 -110.5 -26
c-49.333 0 -94.166 12 -134.499 36s-72 56.5 -95 97.5s-34.5 86.5 -34.5 136.5s11.5 95.5 34.5 136.5s54.5 73.5 94.5 97.5s85 36 135 36c38.667 0 74.667 -8.33301 108 -25s61 -39.334 83 -68.001v81h75v-515c0 -46 -10.833 -87.333 -32.5 -124
s-51.834 -65.334 -90.501 -86.001s-82.334 -31 -131.001 -31c-54.667 0 -102.5 12 -143.5 36zM159.5 180.501c16.333 -29.667 38.833 -53.332 67.5 -70.999s60.667 -26.5 96 -26.5c34 0 65.333 8.83301 94 26.5s51.334 41.5 68.001 71.5s25 62.333 25 97s-8.33301 67 -25 97
s-39.334 53.833 -68.001 71.5s-60 26.5 -94 26.5c-34.667 0 -66.5 -8.83301 -95.5 -26.5s-51.667 -41.334 -68 -71.001s-24.5 -62.167 -24.5 -97.5s8.16699 -67.833 24.5 -97.5zM261.5 658.503c-21 12.333 -37.6689 29.001 -50.002 50.001s-18.5 43.5 -18.5 67.5h55
c0 -22.667 8 -42.334 24 -59.001s35.333 -25 58 -25s42.334 8.33301 59.001 25s25 36.334 25 59.001h54c0 -24.667 -6.16699 -47.334 -18.5 -68.001s-29.166 -37.167 -50.499 -49.5s-44.333 -18.5 -69 -18.5s-47.5 6.16699 -68.5 18.5z" />
    <glyph glyph-name="Gdotaccent" unicode="&#x120;" horiz-adv-x="821" 
d="M241.5 37.5c-55 33 -98 78.6699 -129 137.003s-46.5 124.166 -46.5 197.499s15.5 139.333 46.5 198s74 104.5 129 137.5s117.167 49.5 186.5 49.5c48 0 92.333 -8.83301 133 -26.5s75.167 -40.667 103.5 -69s48.833 -58.5 61.5 -90.5l-72 -35
c-18.667 46 -47.5 81.833 -86.5 107.5s-85.5 38.5 -139.5 38.5c-54.667 0 -103.334 -13 -146.001 -39s-76 -62.5 -100 -109.5s-36 -100.833 -36 -161.5s12 -114.5 36 -161.5s57.333 -83.333 100 -109s91.334 -38.5 146.001 -38.5c48 0 91.667 10.667 131 32
s70.333 50.666 93 87.999s34 79.666 34 126.999v5h-258v70h338v-62c0 -64 -15 -121.5 -45 -172.5s-70.667 -90.833 -122 -119.5s-108.333 -43 -171 -43c-69.333 0 -131.5 16.5 -186.5 49.5zM369.5 885.503c-11 11 -16.5 24.833 -16.5 41.5c0 16 5.5 29.5 16.5 40.5
s24.833 16.5 41.5 16.5c16 0 29.5 -5.5 40.5 -16.5s16.5 -24.5 16.5 -40.5c0 -16.667 -5.5 -30.5 -16.5 -41.5s-24.5 -16.5 -40.5 -16.5c-16.667 0 -30.5 5.5 -41.5 16.5z" />
    <glyph glyph-name="gdotaccent" unicode="&#x121;" horiz-adv-x="662" 
d="M187.5 -184c-41 24 -70.833 56.001 -89.5 96.001l69 37c11.333 -27.333 31 -49.833 59 -67.5s62.333 -26.5 103 -26.5c32.667 0 62.834 6.5 90.501 19.5s49.667 32 66 57s24.5 54.833 24.5 89.5v86c-20 -31.333 -46.833 -55.666 -80.5 -72.999s-70.5 -26 -110.5 -26
c-49.333 0 -94.166 12 -134.499 36s-72 56.5 -95 97.5s-34.5 86.5 -34.5 136.5s11.5 95.5 34.5 136.5s54.5 73.5 94.5 97.5s85 36 135 36c38.667 0 74.667 -8.33301 108 -25s61 -39.334 83 -68.001v81h75v-515c0 -46 -10.833 -87.333 -32.5 -124
s-51.834 -65.334 -90.501 -86.001s-82.334 -31 -131.001 -31c-54.667 0 -102.5 12 -143.5 36zM159.5 180.501c16.333 -29.667 38.833 -53.332 67.5 -70.999s60.667 -26.5 96 -26.5c34 0 65.333 8.83301 94 26.5s51.334 41.5 68.001 71.5s25 62.333 25 97s-8.33301 67 -25 97
s-39.334 53.833 -68.001 71.5s-60 26.5 -94 26.5c-34.667 0 -66.5 -8.83301 -95.5 -26.5s-51.667 -41.334 -68 -71.001s-24.5 -62.167 -24.5 -97.5s8.16699 -67.833 24.5 -97.5zM289.5 676.503c-11 11 -16.5 24.833 -16.5 41.5c0 16 5.5 29.5 16.5 40.5
s24.833 16.5 41.5 16.5c16 0 29.5 -5.5 40.5 -16.5s16.5 -24.5 16.5 -40.5c0 -16.667 -5.5 -30.5 -16.5 -41.5s-24.5 -16.5 -40.5 -16.5c-16.667 0 -30.5 5.5 -41.5 16.5z" />
    <glyph glyph-name="uni0122" unicode="&#x122;" horiz-adv-x="821" 
d="M241.5 37.5c-55 33 -98 78.6699 -129 137.003s-46.5 124.166 -46.5 197.499s15.5 139.333 46.5 198s74 104.5 129 137.5s117.167 49.5 186.5 49.5c48 0 92.333 -8.83301 133 -26.5s75.167 -40.667 103.5 -69s48.833 -58.5 61.5 -90.5l-72 -35
c-18.667 46 -47.5 81.833 -86.5 107.5s-85.5 38.5 -139.5 38.5c-54.667 0 -103.334 -13 -146.001 -39s-76 -62.5 -100 -109.5s-36 -100.833 -36 -161.5s12 -114.5 36 -161.5s57.333 -83.333 100 -109s91.334 -38.5 146.001 -38.5c48 0 91.667 10.667 131 32
s70.333 50.666 93 87.999s34 79.666 34 126.999v5h-258v70h338v-62c0 -64 -15 -121.5 -45 -172.5s-70.667 -90.833 -122 -119.5s-108.333 -43 -171 -43c-69.333 0 -131.5 16.5 -186.5 49.5zM424 -189.997h-43v110h80v-84c0 -88 -33.333 -140 -100 -156v30
c40 10.667 61 44 63 100z" />
    <glyph glyph-name="uni0123" unicode="&#x123;" horiz-adv-x="662" 
d="M187.5 -184c-41 24 -70.833 56.001 -89.5 96.001l69 37c11.333 -27.333 31 -49.833 59 -67.5s62.333 -26.5 103 -26.5c32.667 0 62.834 6.5 90.501 19.5s49.667 32 66 57s24.5 54.833 24.5 89.5v86c-20 -31.333 -46.833 -55.666 -80.5 -72.999s-70.5 -26 -110.5 -26
c-49.333 0 -94.166 12 -134.499 36s-72 56.5 -95 97.5s-34.5 86.5 -34.5 136.5s11.5 95.5 34.5 136.5s54.5 73.5 94.5 97.5s85 36 135 36c38.667 0 74.667 -8.33301 108 -25s61 -39.334 83 -68.001v81h75v-515c0 -46 -10.833 -87.333 -32.5 -124
s-51.834 -65.334 -90.501 -86.001s-82.334 -31 -131.001 -31c-54.667 0 -102.5 12 -143.5 36zM159.5 180.501c16.333 -29.667 38.833 -53.332 67.5 -70.999s60.667 -26.5 96 -26.5c34 0 65.333 8.83301 94 26.5s51.334 41.5 68.001 71.5s25 62.333 25 97s-8.33301 67 -25 97
s-39.334 53.833 -68.001 71.5s-60 26.5 -94 26.5c-34.667 0 -66.5 -8.83301 -95.5 -26.5s-51.667 -41.334 -68 -71.001s-24.5 -62.167 -24.5 -97.5s8.16699 -67.833 24.5 -97.5zM316.5 816.003c17 25.333 41.833 42 74.5 50v-30c-19.333 -5.33301 -34.333 -15.833 -45 -31.5
s-16.667 -35.167 -18 -58.5h43v-110h-80v84c0 38.667 8.5 70.667 25.5 96z" />
    <glyph glyph-name="Hcircumflex" unicode="&#x124;" horiz-adv-x="736" 
d="M88 745h80v-335h400v335h80v-745h-80v335h-400v-335h-80v745zM330 993h74l114 -144h-68l-83 103l-81 -103h-68z" />
    <glyph glyph-name="hcircumflex" unicode="&#x125;" 
d="M77 757l75 -0.000976562v-287c16 24.667 37.5 43.834 64.5 57.501s56.833 20.5 89.5 20.5c37.333 0 71.333 -8.66699 102 -26s54.834 -41.333 72.501 -72s26.5 -64.667 26.5 -102v-348h-75v319c0 47.333 -13 84.833 -39 112.5s-59.333 41.5 -100 41.5
s-74.334 -14 -101.001 -42s-40 -65.333 -40 -112v-319h-75v757zM77 992.999h74l114 -144h-68l-83 103l-81 -103h-68z" />
    <glyph glyph-name="Hbar" unicode="&#x126;" horiz-adv-x="736" 
d="M88 563h-70v65h70v117h80v-117h400v117h80v-117h70v-65h-70v-563h-80v335h-400v-335h-80v563zM568 410v153h-400v-153h400z" />
    <glyph glyph-name="hbar" unicode="&#x127;" 
d="M77 607l-87 -0.000976562v65h87v85h75v-85h88v-65h-88v-137c16 24.667 37.5 43.834 64.5 57.501s56.833 20.5 89.5 20.5c37.333 0 71.333 -8.66699 102 -26s54.834 -41.333 72.501 -72s26.5 -64.667 26.5 -102v-348h-75v319c0 47.333 -13 84.833 -39 112.5
s-59.333 41.5 -100 41.5s-74.334 -14 -101.001 -42s-40 -65.333 -40 -112v-319h-75v607z" />
    <glyph glyph-name="Itilde" unicode="&#x128;" horiz-adv-x="256" 
d="M88 745h80v-745h-80v745zM149.5 896c-10.333 4.66699 -21.167 11.334 -32.5 20.001c-1.33301 0.666992 -4.83301 3 -10.5 7s-11.167 6.83301 -16.5 8.5s-10.333 2.5 -15 2.5c-19.333 0 -30.333 -13.333 -33 -40h-54c0.666992 30 8.5 53.667 23.5 71s34.167 26 57.5 26
c15.333 0 28 -2.33301 38 -7s20.667 -11.334 32 -20.001c1.33301 -0.666992 4.83301 -3 10.5 -7s11.167 -6.83301 16.5 -8.5s10.333 -2.5 15 -2.5c20 0 31 13.333 33 40h54c-0.666992 -30 -8.33398 -53.667 -23.001 -71s-33.667 -26 -57 -26
c-15.333 0 -28.166 2.33301 -38.499 7z" />
    <glyph glyph-name="itilde" unicode="&#x129;" horiz-adv-x="199" 
d="M62 536h75v-536h-75v536zM120.5 687c-10.333 4.66699 -21.167 11.334 -32.5 20.001c-1.33301 0.666992 -4.83301 3 -10.5 7s-11.167 6.83301 -16.5 8.5s-10.333 2.5 -15 2.5c-19.333 0 -30.333 -13.333 -33 -40h-54c0.666992 30 8.5 53.667 23.5 71s34.167 26 57.5 26
c15.333 0 28 -2.33301 38 -7s20.667 -11.334 32 -20.001c1.33301 -0.666992 4.83301 -3 10.5 -7s11.167 -6.83301 16.5 -8.5s10.333 -2.5 15 -2.5c20 0 31 13.333 33 40h54c-0.666992 -30 -8.33398 -53.667 -23.001 -71s-33.667 -26 -57 -26
c-15.333 0 -28.166 2.33301 -38.499 7z" />
    <glyph glyph-name="Imacron" unicode="&#x12a;" horiz-adv-x="256" 
d="M88 745h80v-745h-80v745zM-2 939h260v-60h-260v60z" />
    <glyph glyph-name="imacron" unicode="&#x12b;" horiz-adv-x="199" 
d="M62 536h75v-536h-75v536zM-31 730h260v-60h-260v60z" />
    <glyph glyph-name="Ibreve" unicode="&#x12c;" horiz-adv-x="256" 
d="M88 745h80v-745h-80v745zM58.5 867.5c-21 12.333 -37.6689 29.001 -50.002 50.001s-18.5 43.5 -18.5 67.5h55c0 -22.667 8 -42.334 24 -59.001s35.333 -25 58 -25s42.334 8.33301 59.001 25s25 36.334 25 59.001h54c0 -24.667 -6.16699 -47.334 -18.5 -68.001
s-29.166 -37.167 -50.499 -49.5s-44.333 -18.5 -69 -18.5s-47.5 6.16699 -68.5 18.5z" />
    <glyph glyph-name="ibreve" unicode="&#x12d;" horiz-adv-x="199" 
d="M62 536h75v-536h-75v536zM29.5 658.5c-21 12.333 -37.6689 29.001 -50.002 50.001s-18.5 43.5 -18.5 67.5h55c0 -22.667 8 -42.334 24 -59.001s35.333 -25 58 -25s42.334 8.33301 59.001 25s25 36.334 25 59.001h54c0 -24.667 -6.16699 -47.334 -18.5 -68.001
s-29.166 -37.167 -50.499 -49.5s-44.333 -18.5 -69 -18.5s-47.5 6.16699 -68.5 18.5z" />
    <glyph glyph-name="Iogonek" unicode="&#x12e;" horiz-adv-x="256" 
d="M36 -147c-18.667 15.333 -27.999 35.668 -27.999 61.001c0 21.333 6.83301 41.166 20.5 59.499s33.5 33.833 59.5 46.5v725h80v-745h-55c-35.333 -20.667 -53 -45.667 -53 -75c0 -14.667 4.5 -26.167 13.5 -34.5s21.5 -12.5 37.5 -12.5c22 0 45.333 9 70 27l25 -37
c-29.333 -25.333 -62.333 -38 -99 -38c-28.667 0 -52.334 7.66699 -71.001 23z" />
    <glyph glyph-name="iogonek" unicode="&#x12f;" horiz-adv-x="199" 
d="M57.5 676.5c-11 11 -16.5 24.833 -16.5 41.5c0 16 5.5 29.5 16.5 40.5s24.833 16.5 41.5 16.5c16 0 29.5 -5.5 40.5 -16.5s16.5 -24.5 16.5 -40.5c0 -16.667 -5.5 -30.5 -16.5 -41.5s-24.5 -16.5 -40.5 -16.5c-16.667 0 -30.5 5.5 -41.5 16.5zM1 -15.5
c14 18.333 34.334 33.834 61.001 46.501v505h75v-536h-67c-25.333 -19.333 -38 -41 -38 -65c0 -14.667 4.5 -26.167 13.5 -34.5s21.5 -12.5 37.5 -12.5c22 0 45.333 9 70 27l25 -37c-29.333 -25.333 -62.333 -38 -99 -38c-28.667 0 -52.334 7.66699 -71.001 23
s-28 35.666 -28 60.999c0 22 7 42.167 21 60.5z" />
    <glyph glyph-name="Idotaccent" unicode="&#x130;" horiz-adv-x="256" 
d="M88 745h80v-745h-80v745zM86.5 885.5c-11 11 -16.5 24.833 -16.5 41.5c0 16 5.5 29.5 16.5 40.5s24.833 16.5 41.5 16.5c16 0 29.5 -5.5 40.5 -16.5s16.5 -24.5 16.5 -40.5c0 -16.667 -5.5 -30.5 -16.5 -41.5s-24.5 -16.5 -40.5 -16.5c-16.667 0 -30.5 5.5 -41.5 16.5z
" />
    <glyph glyph-name="dotlessi" unicode="&#x131;" horiz-adv-x="199" 
d="M62 536h75v-536h-75v536z" />
    <glyph glyph-name="Jcircumflex" unicode="&#x134;" horiz-adv-x="383" 
d="M55 80h39.999c36.667 0 65.834 11.167 87.501 33.5s32.5 52.833 32.5 91.5v540h80v-540c0 -62.667 -18 -112.5 -54 -149.5s-84.667 -55.5 -146 -55.5h-40v80zM216.999 993h74l114 -144h-68l-83 103l-81 -103h-68z" />
    <glyph glyph-name="jcircumflex" unicode="&#x135;" horiz-adv-x="229" 
d="M-63 -216v69c14 -2 28 -3 42 -3c28.667 0 52.167 8.66699 70.5 26s27.5 42 27.5 74v586h75v-586c0 -53.333 -16.667 -95 -50 -125s-75 -45 -125 -45c-18 0 -31.333 1.33301 -40 4zM77 784h74l114 -144h-68l-83 103l-81 -103h-68z" />
    <glyph glyph-name="uni0136" unicode="&#x136;" horiz-adv-x="654" 
d="M88 745h80v-406l357 406h100l-277 -315l295 -430h-96l-254 367l-125 -142v-225h-80v745zM340 -190h-43v110h80v-84c0 -88 -33.333 -140 -100 -156v30c40 10.667 61 44 63 100z" />
    <glyph glyph-name="uni0137" unicode="&#x137;" horiz-adv-x="548" 
d="M77 757h75v-493l269 272h97l-210 -215l229 -321h-90l-193 266l-102 -105v-161h-75v757zM287 -190h-43v110h80v-84c0 -88 -33.333 -140 -100 -156v30c40 10.667 61 44 63 100z" />
    <glyph glyph-name="kgreenlandic" unicode="&#x138;" horiz-adv-x="548" 
d="M269 247h-117v-247h-75v536h75v-214h118l144 214h91l-169 -251l201 -285h-90z" />
    <glyph glyph-name="Lacute" unicode="&#x139;" horiz-adv-x="531" 
d="M88 745h80v-670h330v-75h-410v745zM174 993h76l-91 -144h-63z" />
    <glyph glyph-name="lacute" unicode="&#x13a;" horiz-adv-x="229" 
d="M77 757h75v-757h-75v757zM161 993h76l-91 -144h-63z" />
    <glyph glyph-name="uni013B" unicode="&#x13b;" horiz-adv-x="531" 
d="M88 745h80v-670h330v-75h-410v745zM306 -190h-43v110h80v-84c0 -88 -33.333 -140 -100 -156v30c40 10.667 61 44 63 100z" />
    <glyph glyph-name="uni013C" unicode="&#x13c;" horiz-adv-x="229" 
d="M77 757h75v-757h-75v757zM128 -190h-43v110h80v-84c0 -88 -33.333 -140 -100 -156v30c40 10.667 61 44 63 100z" />
    <glyph glyph-name="Lcaron" unicode="&#x13d;" horiz-adv-x="618" 
d="M88 745h80v-670h330v-75h-410v745zM403 745h80l-12 -184h-55z" />
    <glyph glyph-name="lcaron" unicode="&#x13e;" horiz-adv-x="344" 
d="M77 757h75v-757h-75v757zM249 843h80l-12 -184h-55z" />
    <glyph glyph-name="Ldot" unicode="&#x13f;" horiz-adv-x="531" 
d="M88 745h80v-670h330v-75h-410v745zM292.5 413.5c11 11 24.833 16.5 41.5 16.5c16 0 29.5 -5.5 40.5 -16.5s16.5 -24.5 16.5 -40.5c0 -16.667 -5.5 -30.5 -16.5 -41.5s-24.5 -16.5 -40.5 -16.5c-16.667 0 -30.5 5.5 -41.5 16.5s-16.5 24.833 -16.5 41.5
c0 16 5.5 29.5 16.5 40.5z" />
    <glyph glyph-name="ldot" unicode="&#x140;" horiz-adv-x="376" 
d="M77 757h75v-757h-75v757zM238.5 413.5c11 11 24.833 16.5 41.5 16.5c16 0 29.5 -5.5 40.5 -16.5s16.5 -24.5 16.5 -40.5c0 -16.667 -5.5 -30.5 -16.5 -41.5s-24.5 -16.5 -40.5 -16.5c-16.667 0 -30.5 5.5 -41.5 16.5s-16.5 24.833 -16.5 41.5c0 16 5.5 29.5 16.5 40.5z
" />
    <glyph glyph-name="Lslash" unicode="&#x141;" horiz-adv-x="531" 
d="M88 325l-110 -37v70l110 37v350h80v-324l110 37v-70l-110 -37v-276h330v-75h-410v325z" />
    <glyph glyph-name="lslash" unicode="&#x142;" horiz-adv-x="229" 
d="M77 342l-87 -35v70l87 35v345h75v-315l88 35v-70l-88 -35v-372h-75v342z" />
    <glyph glyph-name="Nacute" unicode="&#x143;" horiz-adv-x="736" 
d="M88 745h70l410 -588v588h80v-745h-70l-410 592v-592h-80v745zM414 993h76l-91 -144h-63z" />
    <glyph glyph-name="nacute" unicode="&#x144;" 
d="M77 536l74.999 -0.000976562v-66c16 24.667 37.5 43.834 64.5 57.501s56.833 20.5 89.5 20.5c37.333 0 71.333 -8.66699 102 -26s54.834 -41.333 72.501 -72s26.5 -64.667 26.5 -102v-348h-75v319c0 48 -12.667 85.667 -38 113s-59 41 -101 41s-76 -13.833 -102 -41.5
s-39 -65.167 -39 -112.5v-319h-75v536zM332.999 783.999h76l-91 -144h-63z" />
    <glyph glyph-name="uni0145" unicode="&#x145;" horiz-adv-x="736" 
d="M88 745h70l410 -588v588h80v-745h-70l-410 592v-592h-80v745zM381 -190h-43v110h80v-84c0 -88 -33.333 -140 -100 -156v30c40 10.667 61 44 63 100z" />
    <glyph glyph-name="uni0146" unicode="&#x146;" 
d="M77 536l74.999 -0.000976562v-66c16 24.667 37.5 43.834 64.5 57.501s56.833 20.5 89.5 20.5c37.333 0 71.333 -8.66699 102 -26s54.834 -41.333 72.501 -72s26.5 -64.667 26.5 -102v-348h-75v319c0 48 -12.667 85.667 -38 113s-59 41 -101 41s-76 -13.833 -102 -41.5
s-39 -65.167 -39 -112.5v-319h-75v536zM299.999 -190.001h-43v110h80v-84c0 -88 -33.333 -140 -100 -156v30c40 10.667 61 44 63 100z" />
    <glyph glyph-name="Ncaron" unicode="&#x147;" horiz-adv-x="736" 
d="M88 745h70l410 -588v588h80v-745h-70l-410 592v-592h-80v745zM218 993h68l81 -103l83 103h68l-114 -144h-74z" />
    <glyph glyph-name="ncaron" unicode="&#x148;" 
d="M77 536l74.999 -0.000976562v-66c16 24.667 37.5 43.834 64.5 57.501s56.833 20.5 89.5 20.5c37.333 0 71.333 -8.66699 102 -26s54.834 -41.333 72.501 -72s26.5 -64.667 26.5 -102v-348h-75v319c0 48 -12.667 85.667 -38 113s-59 41 -101 41s-76 -13.833 -102 -41.5
s-39 -65.167 -39 -112.5v-319h-75v536zM136.999 783.999h68l81 -103l83 103h68l-114 -144h-74z" />
    <glyph glyph-name="Eng" unicode="&#x14a;" horiz-adv-x="736" 
d="M433 -216l-0.000976562 74c14 -2 28 -3 42 -3c28.667 0 51.334 7.83301 68.001 23.5s25 39.5 25 71.5v62l-400 581v-593h-80v745h70l410 -588v588h80v-795c0 -53.333 -16.667 -95 -50 -125s-75 -45 -125 -45c-18 0 -31.333 1.33301 -40 4z" />
    <glyph glyph-name="eng" unicode="&#x14b;" horiz-adv-x="600" 
d="M280 -216l-0.000976562 68.999c14 -2 28 -3 42 -3c28.667 0 52.167 8.66699 70.5 26s27.5 42 27.5 74v369c0 48 -12.667 85.667 -38 113s-59 41 -101 41s-76 -13.833 -102 -41.5s-39 -65.167 -39 -112.5v-319h-75v536h75v-66c16 24.667 37.5 43.834 64.5 57.501
s56.833 20.5 89.5 20.5c37.333 0 71.333 -8.66699 102 -26s54.834 -41.333 72.501 -72s26.5 -64.667 26.5 -102v-398c0 -53.333 -16.667 -95 -50 -125s-75 -45 -125 -45c-18 0 -31.333 1.33301 -40 4z" />
    <glyph glyph-name="Omacron" unicode="&#x14c;" horiz-adv-x="878" 
d="M250.5 37.5c-57 33 -102.001 78.835 -135.001 137.502s-49.5 124.667 -49.5 198s16.5 139.166 49.5 197.499s78 104 135 137s119.833 49.5 188.5 49.5s131.334 -16.5 188.001 -49.5s101.667 -78.833 135 -137.5s50 -124.334 50 -197.001
c0 -73.333 -16.5 -139.333 -49.5 -198s-78 -104.5 -135 -137.5s-119.833 -49.5 -188.5 -49.5s-131.5 16.5 -188.5 49.5zM183.499 217.002c25 -47.333 59.833 -84.833 104.5 -112.5s95 -41.5 151 -41.5s106.333 13.833 151 41.5s79.5 65.167 104.5 112.5
s37.5 99.333 37.5 156c0 56 -12.5 107.667 -37.5 155s-59.833 84.833 -104.5 112.5s-95 41.5 -151 41.5s-106.333 -13.833 -151 -41.5s-79.5 -65.167 -104.5 -112.5s-37.5 -99 -37.5 -155c0 -56.667 12.5 -108.667 37.5 -156zM308.999 939.002h260v-60h-260v60z" />
    <glyph glyph-name="omacron" unicode="&#x14d;" horiz-adv-x="655" 
d="M190.5 24.5c-41.667 24.333 -74.667 58.002 -99 101.002s-36.5 90.833 -36.5 143.5s11.833 100.167 35.5 142.5s56.334 75.666 98.001 99.999s88.167 36.5 139.5 36.5s97.666 -12 138.999 -36s73.833 -57.333 97.5 -100s35.5 -90.334 35.5 -143.001
c0 -54 -12.167 -102.333 -36.5 -145s-57.333 -76 -99 -100s-87.167 -36 -136.5 -36c-50 0 -95.833 12.167 -137.5 36.5zM160.5 164.002c17 -31.333 40.333 -56 70 -74s62.167 -27 97.5 -27s67.666 9 96.999 27s52.5 42.833 69.5 74.5s25.5 66.5 25.5 104.5
s-8.5 72.5 -25.5 103.5s-40.167 55.5 -69.5 73.5s-61.666 27 -96.999 27s-67.833 -9 -97.5 -27s-53 -42.5 -70 -73.5s-25.5 -65.5 -25.5 -103.5c0 -38.667 8.5 -73.667 25.5 -105zM198 730.002h260v-60h-260v60z" />
    <glyph glyph-name="Obreve" unicode="&#x14e;" horiz-adv-x="878" 
d="M250.5 37.5c-57 33 -102.001 78.835 -135.001 137.502s-49.5 124.667 -49.5 198s16.5 139.166 49.5 197.499s78 104 135 137s119.833 49.5 188.5 49.5s131.334 -16.5 188.001 -49.5s101.667 -78.833 135 -137.5s50 -124.334 50 -197.001
c0 -73.333 -16.5 -139.333 -49.5 -198s-78 -104.5 -135 -137.5s-119.833 -49.5 -188.5 -49.5s-131.5 16.5 -188.5 49.5zM183.499 217.002c25 -47.333 59.833 -84.833 104.5 -112.5s95 -41.5 151 -41.5s106.333 13.833 151 41.5s79.5 65.167 104.5 112.5
s37.5 99.333 37.5 156c0 56 -12.5 107.667 -37.5 155s-59.833 84.833 -104.5 112.5s-95 41.5 -151 41.5s-106.333 -13.833 -151 -41.5s-79.5 -65.167 -104.5 -112.5s-37.5 -99 -37.5 -155c0 -56.667 12.5 -108.667 37.5 -156zM369.499 867.502
c-21 12.333 -37.6689 29.001 -50.002 50.001s-18.5 43.5 -18.5 67.5h55c0 -22.667 8 -42.334 24 -59.001s35.333 -25 58 -25s42.334 8.33301 59.001 25s25 36.334 25 59.001h54c0 -24.667 -6.16699 -47.334 -18.5 -68.001s-29.166 -37.167 -50.499 -49.5
s-44.333 -18.5 -69 -18.5s-47.5 6.16699 -68.5 18.5z" />
    <glyph glyph-name="obreve" unicode="&#x14f;" horiz-adv-x="655" 
d="M190.5 24.5c-41.667 24.333 -74.667 58.002 -99 101.002s-36.5 90.833 -36.5 143.5s11.833 100.167 35.5 142.5s56.334 75.666 98.001 99.999s88.167 36.5 139.5 36.5s97.666 -12 138.999 -36s73.833 -57.333 97.5 -100s35.5 -90.334 35.5 -143.001
c0 -54 -12.167 -102.333 -36.5 -145s-57.333 -76 -99 -100s-87.167 -36 -136.5 -36c-50 0 -95.833 12.167 -137.5 36.5zM160.5 164.002c17 -31.333 40.333 -56 70 -74s62.167 -27 97.5 -27s67.666 9 96.999 27s52.5 42.833 69.5 74.5s25.5 66.5 25.5 104.5
s-8.5 72.5 -25.5 103.5s-40.167 55.5 -69.5 73.5s-61.666 27 -96.999 27s-67.833 -9 -97.5 -27s-53 -42.5 -70 -73.5s-25.5 -65.5 -25.5 -103.5c0 -38.667 8.5 -73.667 25.5 -105zM258.5 658.502c-21 12.333 -37.6689 29.001 -50.002 50.001s-18.5 43.5 -18.5 67.5h55
c0 -22.667 8 -42.334 24 -59.001s35.333 -25 58 -25s42.334 8.33301 59.001 25s25 36.334 25 59.001h54c0 -24.667 -6.16699 -47.334 -18.5 -68.001s-29.166 -37.167 -50.499 -49.5s-44.333 -18.5 -69 -18.5s-47.5 6.16699 -68.5 18.5z" />
    <glyph glyph-name="Ohungarumlaut" unicode="&#x150;" horiz-adv-x="878" 
d="M250.5 37.5c-57 33 -102.001 78.835 -135.001 137.502s-49.5 124.667 -49.5 198s16.5 139.166 49.5 197.499s78 104 135 137s119.833 49.5 188.5 49.5s131.334 -16.5 188.001 -49.5s101.667 -78.833 135 -137.5s50 -124.334 50 -197.001
c0 -73.333 -16.5 -139.333 -49.5 -198s-78 -104.5 -135 -137.5s-119.833 -49.5 -188.5 -49.5s-131.5 16.5 -188.5 49.5zM183.499 217.002c25 -47.333 59.833 -84.833 104.5 -112.5s95 -41.5 151 -41.5s106.333 13.833 151 41.5s79.5 65.167 104.5 112.5
s37.5 99.333 37.5 156c0 56 -12.5 107.667 -37.5 155s-59.833 84.833 -104.5 112.5s-95 41.5 -151 41.5s-106.333 -13.833 -151 -41.5s-79.5 -65.167 -104.5 -112.5s-37.5 -99 -37.5 -155c0 -56.667 12.5 -108.667 37.5 -156zM414.999 993.002h76l-91 -144h-63z
M554.999 993.002h76l-91 -144h-63z" />
    <glyph glyph-name="ohungarumlaut" unicode="&#x151;" horiz-adv-x="655" 
d="M190.5 24.5c-41.667 24.333 -74.667 58.002 -99 101.002s-36.5 90.833 -36.5 143.5s11.833 100.167 35.5 142.5s56.334 75.666 98.001 99.999s88.167 36.5 139.5 36.5s97.666 -12 138.999 -36s73.833 -57.333 97.5 -100s35.5 -90.334 35.5 -143.001
c0 -54 -12.167 -102.333 -36.5 -145s-57.333 -76 -99 -100s-87.167 -36 -136.5 -36c-50 0 -95.833 12.167 -137.5 36.5zM160.5 164.002c17 -31.333 40.333 -56 70 -74s62.167 -27 97.5 -27s67.666 9 96.999 27s52.5 42.833 69.5 74.5s25.5 66.5 25.5 104.5
s-8.5 72.5 -25.5 103.5s-40.167 55.5 -69.5 73.5s-61.666 27 -96.999 27s-67.833 -9 -97.5 -27s-53 -42.5 -70 -73.5s-25.5 -65.5 -25.5 -103.5c0 -38.667 8.5 -73.667 25.5 -105zM304 784.002h76l-91 -144h-63zM444 784.002h76l-91 -144h-63z" />
    <glyph glyph-name="OE" unicode="&#x152;" horiz-adv-x="1261" 
d="M250.5 37.5c-57 33 -102 78.834 -135 137.501s-49.5 124.667 -49.5 198s16.5 139.166 49.5 197.499s78 104 135 137s119.833 49.5 188.5 49.5c60 0 116.167 -13 168.5 -39s95.5 -62.333 129.5 -109v136h480v-75h-400v-259h380v-75h-380v-261h400v-75h-480v136
c-34 -46.667 -77.167 -83 -129.5 -109s-108.5 -39 -168.5 -39c-68.667 0 -131.5 16.5 -188.5 49.5zM183.5 217.001c25 -47.333 59.833 -84.833 104.5 -112.5s95 -41.5 151 -41.5s106.333 13.833 151 41.5s79.5 65.167 104.5 112.5s37.5 99.333 37.5 156
c0 56 -12.5 107.667 -37.5 155s-59.833 84.833 -104.5 112.5s-95 41.5 -151 41.5s-106.333 -13.833 -151 -41.5s-79.5 -65.167 -104.5 -112.5s-37.5 -99 -37.5 -155c0 -56.667 12.5 -108.667 37.5 -156z" />
    <glyph glyph-name="oe" unicode="&#x153;" horiz-adv-x="1085" 
d="M190.5 24.5c-41.667 24.333 -74.668 57.998 -99.001 100.998s-36.5 90.833 -36.5 143.5s11.833 100.167 35.5 142.5s56.334 75.666 98.001 99.999s88.167 36.5 139.5 36.5c50 0 95.5 -11.667 136.5 -35s73.167 -55.333 96.5 -96c22.667 40.667 53.5 72.667 92.5 96
s82.167 35 129.5 35c49.333 0 92.666 -12 129.999 -36s66.166 -55.667 86.499 -95s30.5 -80.666 30.5 -123.999c0 -16.667 -1.33301 -32.667 -4 -48h-422c0.666992 -37.333 9.83398 -70.166 27.501 -98.499s40.667 -50.166 69 -65.499s58.5 -23 90.5 -23
c70 0 124.667 32.667 164 98l64 -34c-17.333 -38 -46.5 -69.833 -87.5 -95.5s-87.833 -38.5 -140.5 -38.5c-49.333 0 -94 12 -134 36s-71.667 56.667 -95 98c-24 -42 -56.667 -74.833 -98 -98.5s-86.666 -35.5 -135.999 -35.5c-50 0 -95.833 12.167 -137.5 36.5z
M160.499 163.998c17 -31.333 40.333 -56 70 -74s62.167 -27 97.5 -27s67.666 9 96.999 27s52.5 42.833 69.5 74.5s25.5 66.5 25.5 104.5s-8.5 72.5 -25.5 103.5s-40.167 55.5 -69.5 73.5s-61.666 27 -96.999 27s-67.833 -9 -97.5 -27s-53 -42.5 -70 -73.5
s-25.5 -65.5 -25.5 -103.5c0 -38.667 8.5 -73.667 25.5 -105zM948.999 314.998c0 30.667 -7.5 58.501 -22.5 83.501s-35.167 44.5 -60.5 58.5s-53 21 -83 21c-29.333 0 -56.833 -6.66699 -82.5 -20s-47 -32.333 -64 -57s-27.167 -53.334 -30.5 -86.001h343z" />
    <glyph glyph-name="Racute" unicode="&#x154;" horiz-adv-x="641" 
d="M88 745h256c48 0 90.5 -9.5 127.5 -28.5s65.667 -45.833 86 -80.5s30.5 -74.334 30.5 -119.001c0 -52.667 -13.667 -97.667 -41 -135s-65 -63.666 -113 -78.999l174 -303h-94l-164 290h-182v-290h-80v745zM348 365c48.667 0 87.5 13.668 116.5 41.001
s43.5 64.666 43.5 111.999c0 46.667 -14.5 83.667 -43.5 111s-67.833 41 -116.5 41h-180v-305h180zM361 993.001h76l-91 -144h-63z" />
    <glyph glyph-name="racute" unicode="&#x155;" horiz-adv-x="338" 
d="M77 536l75 -0.000976562v-58c14 20.667 33 36.667 57 48s52 17 84 17h34v-75h-47c-39.333 0 -70.5 -12.167 -93.5 -36.5s-34.5 -58.166 -34.5 -101.499v-330h-75v536zM248 783.999h76l-91 -144h-63z" />
    <glyph glyph-name="uni0156" unicode="&#x156;" horiz-adv-x="641" 
d="M88 745h256c48 0 90.5 -9.5 127.5 -28.5s65.667 -45.833 86 -80.5s30.5 -74.334 30.5 -119.001c0 -52.667 -13.667 -97.667 -41 -135s-65 -63.666 -113 -78.999l174 -303h-94l-164 290h-182v-290h-80v745zM348 365c48.667 0 87.5 13.668 116.5 41.001
s43.5 64.666 43.5 111.999c0 46.667 -14.5 83.667 -43.5 111s-67.833 41 -116.5 41h-180v-305h180zM328 -189.999h-43v110h80v-84c0 -88 -33.333 -140 -100 -156v30c40 10.667 61 44 63 100z" />
    <glyph glyph-name="uni0157" unicode="&#x157;" horiz-adv-x="338" 
d="M77 536l75 -0.000976562v-58c14 20.667 33 36.667 57 48s52 17 84 17h34v-75h-47c-39.333 0 -70.5 -12.167 -93.5 -36.5s-34.5 -58.166 -34.5 -101.499v-330h-75v536zM128 -190.001h-43v110h80v-84c0 -88 -33.333 -140 -100 -156v30c40 10.667 61 44 63 100z" />
    <glyph glyph-name="Rcaron" unicode="&#x158;" horiz-adv-x="641" 
d="M88 745h256c48 0 90.5 -9.5 127.5 -28.5s65.667 -45.833 86 -80.5s30.5 -74.334 30.5 -119.001c0 -52.667 -13.667 -97.667 -41 -135s-65 -63.666 -113 -78.999l174 -303h-94l-164 290h-182v-290h-80v745zM348 365c48.667 0 87.5 13.668 116.5 41.001
s43.5 64.666 43.5 111.999c0 46.667 -14.5 83.667 -43.5 111s-67.833 41 -116.5 41h-180v-305h180zM165 993.001h68l81 -103l83 103h68l-114 -144h-74z" />
    <glyph glyph-name="rcaron" unicode="&#x159;" horiz-adv-x="338" 
d="M77 536l75 -0.000976562v-58c14 20.667 33 36.667 57 48s52 17 84 17h34v-75h-47c-39.333 0 -70.5 -12.167 -93.5 -36.5s-34.5 -58.166 -34.5 -101.499v-330h-75v536zM52 783.999h68l81 -103l83 103h68l-114 -144h-74z" />
    <glyph glyph-name="Sacute" unicode="&#x15a;" horiz-adv-x="646" 
d="M211.5 14.5c-39 17.667 -72.001 41.6699 -99.001 72.0029s-46.167 64.166 -57.5 101.499l72 25c10.667 -32 27.834 -59.5 51.501 -82.5s50 -40.5 79 -52.5s56.167 -18 81.5 -18c30 0 57.333 6.5 82 19.5s44 29.167 58 48.5s21 38 21 56c0 30 -10.333 57.333 -31 82
s-49 41 -85 49l-134 31c-50.667 11.333 -90.667 37 -120 77s-44 84 -44 132c0 38.667 9.66699 73.334 29 104.001s45.833 54.667 79.5 72s71.834 26 114.501 26s82.167 -8 118.5 -24s67 -37.5 92 -64.5s42.833 -56.833 53.5 -89.5l-70 -28c-10 28 -25.833 52.167 -47.5 72.5
s-45.5 35.666 -71.5 45.999s-50.667 15.5 -74 15.5c-27.333 0 -52 -6 -74 -18s-39.167 -27.667 -51.5 -47s-18.5 -39 -18.5 -59c0 -30.667 11.333 -59.334 34 -86.001s50.667 -43.667 84 -51l118 -27c57.333 -13.333 101.333 -38.333 132 -75s46 -80.334 46 -131.001
c0 -39.333 -10.167 -74.5 -30.5 -105.5s-48.833 -55 -85.5 -72s-78.334 -25.5 -125.001 -25.5c-46 0 -88.5 8.83301 -127.5 26.5zM368.999 993.003h76l-91 -144h-63z" />
    <glyph glyph-name="sacute" unicode="&#x15b;" horiz-adv-x="509" 
d="M131 25.5c-38.667 25 -67 59.4961 -85 103.496l63 32c16 -32.667 37.833 -58.334 65.5 -77.001s57.834 -28 90.501 -28s59.834 7.83301 81.501 23.5s32.5 36.167 32.5 61.5s-10 45.666 -30 60.999s-40.333 24 -61 26l-77 9c-48.667 12.667 -84.667 32.834 -108 60.501
s-35 59.5 -35 95.5c0 30.667 8 57.834 24 81.501s37.833 41.834 65.5 54.501s58.5 19 92.5 19c44.667 0 85.167 -11.667 121.5 -35s62.166 -55 77.499 -95l-63 -32c-14 29.333 -33.5 52.333 -58.5 69s-52.167 25 -81.5 25c-30 0 -54.167 -7.5 -72.5 -22.5
s-27.5 -34.5 -27.5 -58.5c0 -25.333 8.83301 -45.333 26.5 -60s35.5 -23 53.5 -25l89 -10c44 -12 78.5 -32.667 103.5 -62s37.5 -62.666 37.5 -99.999c0 -29.333 -8 -55.666 -24 -78.999s-38.5 -41.666 -67.5 -54.999s-62.167 -20 -99.5 -20
c-50.667 0 -95.334 12.5 -134.001 37.5zM301 783.996h76l-91 -144h-63z" />
    <glyph glyph-name="Scircumflex" unicode="&#x15c;" horiz-adv-x="646" 
d="M211.5 14.5c-39 17.667 -72.001 41.6699 -99.001 72.0029s-46.167 64.166 -57.5 101.499l72 25c10.667 -32 27.834 -59.5 51.501 -82.5s50 -40.5 79 -52.5s56.167 -18 81.5 -18c30 0 57.333 6.5 82 19.5s44 29.167 58 48.5s21 38 21 56c0 30 -10.333 57.333 -31 82
s-49 41 -85 49l-134 31c-50.667 11.333 -90.667 37 -120 77s-44 84 -44 132c0 38.667 9.66699 73.334 29 104.001s45.833 54.667 79.5 72s71.834 26 114.501 26s82.167 -8 118.5 -24s67 -37.5 92 -64.5s42.833 -56.833 53.5 -89.5l-70 -28c-10 28 -25.833 52.167 -47.5 72.5
s-45.5 35.666 -71.5 45.999s-50.667 15.5 -74 15.5c-27.333 0 -52 -6 -74 -18s-39.167 -27.667 -51.5 -47s-18.5 -39 -18.5 -59c0 -30.667 11.333 -59.334 34 -86.001s50.667 -43.667 84 -51l118 -27c57.333 -13.333 101.333 -38.333 132 -75s46 -80.334 46 -131.001
c0 -39.333 -10.167 -74.5 -30.5 -105.5s-48.833 -55 -85.5 -72s-78.334 -25.5 -125.001 -25.5c-46 0 -88.5 8.83301 -127.5 26.5zM284.999 993.003h74l114 -144h-68l-83 103l-81 -103h-68z" />
    <glyph glyph-name="scircumflex" unicode="&#x15d;" horiz-adv-x="509" 
d="M131 25.5c-38.667 25 -67 59.4961 -85 103.496l63 32c16 -32.667 37.833 -58.334 65.5 -77.001s57.834 -28 90.501 -28s59.834 7.83301 81.501 23.5s32.5 36.167 32.5 61.5s-10 45.666 -30 60.999s-40.333 24 -61 26l-77 9c-48.667 12.667 -84.667 32.834 -108 60.501
s-35 59.5 -35 95.5c0 30.667 8 57.834 24 81.501s37.833 41.834 65.5 54.501s58.5 19 92.5 19c44.667 0 85.167 -11.667 121.5 -35s62.166 -55 77.499 -95l-63 -32c-14 29.333 -33.5 52.333 -58.5 69s-52.167 25 -81.5 25c-30 0 -54.167 -7.5 -72.5 -22.5
s-27.5 -34.5 -27.5 -58.5c0 -25.333 8.83301 -45.333 26.5 -60s35.5 -23 53.5 -25l89 -10c44 -12 78.5 -32.667 103.5 -62s37.5 -62.666 37.5 -99.999c0 -29.333 -8 -55.666 -24 -78.999s-38.5 -41.666 -67.5 -54.999s-62.167 -20 -99.5 -20
c-50.667 0 -95.334 12.5 -134.001 37.5zM217 783.996h74l114 -144h-68l-83 103l-81 -103h-68z" />
    <glyph glyph-name="Scedilla" unicode="&#x15e;" horiz-adv-x="646" 
d="M297 -216c-14 2.66699 -25.6719 6.33496 -35.0049 11.002l12 42c18.667 -7.33301 38.334 -11 59.001 -11c15.333 0 27.333 3.5 36 10.5s13 16.5 13 28.5c0 10 -3.16699 18 -9.5 24s-15.166 9 -26.499 9c-14 0 -27.667 -3.33301 -41 -10l-20 8l11 95
c-59.333 8 -110.5 30.167 -153.5 66.5s-72.167 79.833 -87.5 130.5l72 25c10.667 -32 27.834 -59.5 51.501 -82.5s50 -40.5 79 -52.5s56.167 -18 81.5 -18c30 0 57.333 6.5 82 19.5s44 29.167 58 48.5s21 38 21 56c0 30 -10.333 57.333 -31 82s-49 41 -85 49l-134 31
c-50.667 11.333 -90.667 37 -120 77s-44 84 -44 132c0 38.667 9.66699 73.334 29 104.001s45.833 54.667 79.5 72s71.834 26 114.501 26s82.167 -8 118.5 -24s67 -37.5 92 -64.5s42.833 -56.833 53.5 -89.5l-70 -28c-10 28 -25.833 52.167 -47.5 72.5
s-45.5 35.666 -71.5 45.999s-50.667 15.5 -74 15.5c-27.333 0 -52 -6 -74 -18s-39.167 -27.667 -51.5 -47s-18.5 -39 -18.5 -59c0 -30.667 11.333 -59.334 34 -86.001s50.667 -43.667 84 -51l118 -27c57.333 -13.333 101.333 -38.333 132 -75s46 -80.334 46 -131.001
c0 -38.667 -9.83301 -73.167 -29.5 -103.5s-47.167 -54.333 -82.5 -72s-75.666 -26.834 -120.999 -27.501l-5 -50c8 1.33301 15 2 21 2c22.667 0 41.5 -6.66699 56.5 -20s22.5 -30.666 22.5 -51.999c0 -25.333 -9.5 -46.333 -28.5 -63s-44.5 -25 -76.5 -25
c-12.667 0 -26 1.33301 -40 4z" />
    <glyph glyph-name="scedilla" unicode="&#x15f;" horiz-adv-x="509" 
d="M229 -216c-14 2.66699 -25.6689 6.33203 -35.002 10.999l12 42c18.667 -7.33301 38.334 -11 59.001 -11c15.333 0 27.333 3.5 36 10.5s13 16.5 13 28.5c0 10 -3.16699 18 -9.5 24s-15.166 9 -26.499 9c-14 0 -27.667 -3.33301 -41 -10l-20 8l11 94
c-42 6 -79 21.167 -111 45.5s-55.667 55.5 -71 93.5l63 32c16 -32.667 37.833 -58.334 65.5 -77.001s57.834 -28 90.501 -28s59.834 7.83301 81.501 23.5s32.5 36.167 32.5 61.5s-10 45.666 -30 60.999s-40.333 24 -61 26l-77 9c-48.667 12.667 -84.667 32.834 -108 60.501
s-35 59.5 -35 95.5c0 30.667 8 57.834 24 81.501s37.833 41.834 65.5 54.501s58.5 19 92.5 19c44.667 0 85.167 -11.667 121.5 -35s62.166 -55 77.499 -95l-63 -32c-14 29.333 -33.5 52.333 -58.5 69s-52.167 25 -81.5 25c-30 0 -54.167 -7.5 -72.5 -22.5
s-27.5 -34.5 -27.5 -58.5c0 -25.333 8.83301 -45.333 26.5 -60s35.5 -23 53.5 -25l89 -10c44 -12 78.5 -32.667 103.5 -62s37.5 -62.666 37.5 -99.999c0 -42.667 -16.333 -78.334 -49 -107.001s-75.334 -44.334 -128.001 -47.001l-5 -50c8 1.33301 15 2 21 2
c22.667 0 41.5 -6.66699 56.5 -20s22.5 -30.666 22.5 -51.999c0 -25.333 -9.5 -46.333 -28.5 -63s-44.5 -25 -76.5 -25c-12.667 0 -26 1.33301 -40 4z" />
    <glyph glyph-name="Scaron" unicode="&#x160;" horiz-adv-x="646" 
d="M211.5 14.5c-39 17.667 -72.001 41.6699 -99.001 72.0029s-46.167 64.166 -57.5 101.499l72 25c10.667 -32 27.834 -59.5 51.501 -82.5s50 -40.5 79 -52.5s56.167 -18 81.5 -18c30 0 57.333 6.5 82 19.5s44 29.167 58 48.5s21 38 21 56c0 30 -10.333 57.333 -31 82
s-49 41 -85 49l-134 31c-50.667 11.333 -90.667 37 -120 77s-44 84 -44 132c0 38.667 9.66699 73.334 29 104.001s45.833 54.667 79.5 72s71.834 26 114.501 26s82.167 -8 118.5 -24s67 -37.5 92 -64.5s42.833 -56.833 53.5 -89.5l-70 -28c-10 28 -25.833 52.167 -47.5 72.5
s-45.5 35.666 -71.5 45.999s-50.667 15.5 -74 15.5c-27.333 0 -52 -6 -74 -18s-39.167 -27.667 -51.5 -47s-18.5 -39 -18.5 -59c0 -30.667 11.333 -59.334 34 -86.001s50.667 -43.667 84 -51l118 -27c57.333 -13.333 101.333 -38.333 132 -75s46 -80.334 46 -131.001
c0 -39.333 -10.167 -74.5 -30.5 -105.5s-48.833 -55 -85.5 -72s-78.334 -25.5 -125.001 -25.5c-46 0 -88.5 8.83301 -127.5 26.5zM172.999 993.003h68l81 -103l83 103h68l-114 -144h-74z" />
    <glyph glyph-name="scaron" unicode="&#x161;" horiz-adv-x="509" 
d="M131 25.5c-38.667 25 -67 59.4961 -85 103.496l63 32c16 -32.667 37.833 -58.334 65.5 -77.001s57.834 -28 90.501 -28s59.834 7.83301 81.501 23.5s32.5 36.167 32.5 61.5s-10 45.666 -30 60.999s-40.333 24 -61 26l-77 9c-48.667 12.667 -84.667 32.834 -108 60.501
s-35 59.5 -35 95.5c0 30.667 8 57.834 24 81.501s37.833 41.834 65.5 54.501s58.5 19 92.5 19c44.667 0 85.167 -11.667 121.5 -35s62.166 -55 77.499 -95l-63 -32c-14 29.333 -33.5 52.333 -58.5 69s-52.167 25 -81.5 25c-30 0 -54.167 -7.5 -72.5 -22.5
s-27.5 -34.5 -27.5 -58.5c0 -25.333 8.83301 -45.333 26.5 -60s35.5 -23 53.5 -25l89 -10c44 -12 78.5 -32.667 103.5 -62s37.5 -62.666 37.5 -99.999c0 -29.333 -8 -55.666 -24 -78.999s-38.5 -41.666 -67.5 -54.999s-62.167 -20 -99.5 -20
c-50.667 0 -95.334 12.5 -134.001 37.5zM105 783.996h68l81 -103l83 103h68l-114 -144h-74z" />
    <glyph glyph-name="uni0162" unicode="&#x162;" horiz-adv-x="512" 
d="M217 670h-206v75h490v-75h-204v-670h-80v670zM230 -216c-14 2.66699 -25.6689 6.33203 -35.002 10.999l12 42c18.667 -7.33301 38.334 -11 59.001 -11c15.333 0 27.333 3.5 36 10.5s13 16.5 13 28.5c0 10 -3.16699 18 -9.5 24s-15.166 9 -26.499 9
c-14 0 -27.667 -3.33301 -41 -10l-20 8l12 104h51l-6 -62c8 1.33301 15 2 21 2c22.667 0 41.5 -6.66699 56.5 -20s22.5 -30.666 22.5 -51.999c0 -25.333 -9.5 -46.333 -28.5 -63s-44.5 -25 -76.5 -25c-12.667 0 -26 1.33301 -40 4z" />
    <glyph glyph-name="uni0163" unicode="&#x163;" horiz-adv-x="388" 
d="M248 -216c-14 2.66699 -25.6689 6.33301 -35.002 11l12 42c18.667 -7.33301 38.334 -11 59.001 -11c15.333 0 27.333 3.5 36 10.5s13 16.5 13 28.5c0 10 -3.16699 18 -9.5 24s-15.166 9 -26.499 9c-14 0 -27.667 -3.33301 -41 -10l-20 8l12 101
c-37.333 6 -66 22.667 -86 50s-30 63.666 -30 108.999v305h-99v75h25c22 0 39.833 7.33301 53.5 22s20.5 33.667 20.5 57v45h75v-124h118v-75h-118v-305c0 -29.333 6.66699 -52 20 -68s36 -24 68 -24c14.667 0 27.334 1 38.001 3v-68
c-6.66699 -2 -18.334 -3.66699 -35.001 -5l-5 -56c8 1.33301 15 2 21 2c22.667 0 41.5 -6.66699 56.5 -20s22.5 -30.666 22.5 -51.999c0 -25.333 -9.5 -46.333 -28.5 -63s-44.5 -25 -76.5 -25c-12.667 0 -26 1.33301 -40 4z" />
    <glyph glyph-name="Tcaron" unicode="&#x164;" horiz-adv-x="512" 
d="M217 670h-206v75h490v-75h-204v-670h-80v670zM106 993h68l81 -103l83 103h68l-114 -144h-74z" />
    <glyph glyph-name="tcaron" unicode="&#x165;" horiz-adv-x="394" 
d="M171 36c-26 28 -39.001 68 -39.001 120v305h-99v75h25c22 0 39.833 7.33301 53.5 22s20.5 33.667 20.5 57v45h75v-124h118v-75h-118v-305c0 -29.333 6.66699 -52 20 -68s36 -24 68 -24c14.667 0 27.334 1 38.001 3v-68c-13.333 -3.33301 -30.333 -5 -51 -5
c-48 0 -85 14 -111 42zM285.999 843h80l-12 -184h-55z" />
    <glyph glyph-name="Tbar" unicode="&#x166;" horiz-adv-x="512" 
d="M217 340h-136v65h136v265h-206v75h490v-75h-204v-265h134v-65h-134v-340h-80v340z" />
    <glyph glyph-name="tbar" unicode="&#x167;" horiz-adv-x="388" 
d="M171 36c-26 28 -39.001 68 -39.001 120v74h-96v75h96v156h-99v75h25c22 0 39.833 7.33301 53.5 22s20.5 33.667 20.5 57v45h75v-124h118v-75h-118v-156h121v-75h-121v-74c0 -29.333 6.66699 -52 20 -68s36 -24 68 -24c14.667 0 27.334 1 38.001 3v-68
c-13.333 -3.33301 -30.333 -5 -51 -5c-48 0 -85 14 -111 42z" />
    <glyph glyph-name="Utilde" unicode="&#x168;" horiz-adv-x="700" 
d="M211.5 20.5c-40.333 21.667 -71.5 51.834 -93.5 90.501s-33 82.667 -33 132v502h80v-502c0 -54 17 -97.5 51 -130.5s78.667 -49.5 134 -49.5s100 16.5 134 49.5s51 76.5 51 130.5v502h80v-502c0 -49.333 -11 -93.333 -33 -132s-53.167 -68.834 -93.5 -90.501
s-86.5 -32.5 -138.5 -32.5s-98.167 10.833 -138.5 32.5zM371.5 896c-10.333 4.66699 -21.167 11.334 -32.5 20.001c-1.33301 0.666992 -4.83301 3 -10.5 7s-11.167 6.83301 -16.5 8.5s-10.333 2.5 -15 2.5c-19.333 0 -30.333 -13.333 -33 -40h-54
c0.666992 30 8.5 53.667 23.5 71s34.167 26 57.5 26c15.333 0 28 -2.33301 38 -7s20.667 -11.334 32 -20.001c1.33301 -0.666992 4.83301 -3 10.5 -7s11.167 -6.83301 16.5 -8.5s10.333 -2.5 15 -2.5c20 0 31 13.333 33 40h54c-0.666992 -30 -8.33398 -53.667 -23.001 -71
s-33.667 -26 -57 -26c-15.333 0 -28.166 2.33301 -38.499 7z" />
    <glyph glyph-name="utilde" unicode="&#x169;" 
d="M165 14.5c-30.667 17.667 -54.833 42.5 -72.5 74.5s-26.5 68.333 -26.5 109v338h75v-329c0 -43.333 12.833 -78.166 38.5 -104.499s59.167 -39.5 100.5 -39.5c42 0 76 13.833 102 41.5s39 65.167 39 112.5v319h75v-536h-75v66c-16 -24.667 -37.5 -43.834 -64.5 -57.501
s-56.833 -20.5 -89.5 -20.5c-37.333 0 -71.333 8.83301 -102 26.5zM308.501 687c-10.333 4.66699 -21.167 11.334 -32.5 20.001c-1.33301 0.666992 -4.83301 3 -10.5 7s-11.167 6.83301 -16.5 8.5s-10.333 2.5 -15 2.5c-19.333 0 -30.333 -13.333 -33 -40h-54
c0.666992 30 8.5 53.667 23.5 71s34.167 26 57.5 26c15.333 0 28 -2.33301 38 -7s20.667 -11.334 32 -20.001c1.33301 -0.666992 4.83301 -3 10.5 -7s11.167 -6.83301 16.5 -8.5s10.333 -2.5 15 -2.5c20 0 31 13.333 33 40h54c-0.666992 -30 -8.33398 -53.667 -23.001 -71
s-33.667 -26 -57 -26c-15.333 0 -28.166 2.33301 -38.499 7z" />
    <glyph glyph-name="Umacron" unicode="&#x16a;" horiz-adv-x="700" 
d="M211.5 20.5c-40.333 21.667 -71.5 51.834 -93.5 90.501s-33 82.667 -33 132v502h80v-502c0 -54 17 -97.5 51 -130.5s78.667 -49.5 134 -49.5s100 16.5 134 49.5s51 76.5 51 130.5v502h80v-502c0 -49.333 -11 -93.333 -33 -132s-53.167 -68.834 -93.5 -90.501
s-86.5 -32.5 -138.5 -32.5s-98.167 10.833 -138.5 32.5zM220 939h260v-60h-260v60z" />
    <glyph glyph-name="umacron" unicode="&#x16b;" 
d="M165 14.5c-30.667 17.667 -54.833 42.5 -72.5 74.5s-26.5 68.333 -26.5 109v338h75v-329c0 -43.333 12.833 -78.166 38.5 -104.499s59.167 -39.5 100.5 -39.5c42 0 76 13.833 102 41.5s39 65.167 39 112.5v319h75v-536h-75v66c-16 -24.667 -37.5 -43.834 -64.5 -57.501
s-56.833 -20.5 -89.5 -20.5c-37.333 0 -71.333 8.83301 -102 26.5zM157.001 730h260v-60h-260v60z" />
    <glyph glyph-name="Ubreve" unicode="&#x16c;" horiz-adv-x="700" 
d="M211.5 20.5c-40.333 21.667 -71.5 51.834 -93.5 90.501s-33 82.667 -33 132v502h80v-502c0 -54 17 -97.5 51 -130.5s78.667 -49.5 134 -49.5s100 16.5 134 49.5s51 76.5 51 130.5v502h80v-502c0 -49.333 -11 -93.333 -33 -132s-53.167 -68.834 -93.5 -90.501
s-86.5 -32.5 -138.5 -32.5s-98.167 10.833 -138.5 32.5zM280.5 867.5c-21 12.333 -37.6689 29.001 -50.002 50.001s-18.5 43.5 -18.5 67.5h55c0 -22.667 8 -42.334 24 -59.001s35.333 -25 58 -25s42.334 8.33301 59.001 25s25 36.334 25 59.001h54
c0 -24.667 -6.16699 -47.334 -18.5 -68.001s-29.166 -37.167 -50.499 -49.5s-44.333 -18.5 -69 -18.5s-47.5 6.16699 -68.5 18.5z" />
    <glyph glyph-name="ubreve" unicode="&#x16d;" 
d="M165 14.5c-30.667 17.667 -54.833 42.5 -72.5 74.5s-26.5 68.333 -26.5 109v338h75v-329c0 -43.333 12.833 -78.166 38.5 -104.499s59.167 -39.5 100.5 -39.5c42 0 76 13.833 102 41.5s39 65.167 39 112.5v319h75v-536h-75v66c-16 -24.667 -37.5 -43.834 -64.5 -57.501
s-56.833 -20.5 -89.5 -20.5c-37.333 0 -71.333 8.83301 -102 26.5zM217.501 658.5c-21 12.333 -37.6689 29.001 -50.002 50.001s-18.5 43.5 -18.5 67.5h55c0 -22.667 8 -42.334 24 -59.001s35.333 -25 58 -25s42.334 8.33301 59.001 25s25 36.334 25 59.001h54
c0 -24.667 -6.16699 -47.334 -18.5 -68.001s-29.166 -37.167 -50.499 -49.5s-44.333 -18.5 -69 -18.5s-47.5 6.16699 -68.5 18.5z" />
    <glyph glyph-name="Uring" unicode="&#x16e;" horiz-adv-x="700" 
d="M211.5 20.5c-40.333 21.667 -71.5 51.834 -93.5 90.501s-33 82.667 -33 132v502h80v-502c0 -54 17 -97.5 51 -130.5s78.667 -49.5 134 -49.5s100 16.5 134 49.5s51 76.5 51 130.5v502h80v-502c0 -49.333 -11 -93.333 -33 -132s-53.167 -68.834 -93.5 -90.501
s-86.5 -32.5 -138.5 -32.5s-98.167 10.833 -138.5 32.5zM263.5 833.5c-23 23 -34.5 51.167 -34.5 84.5c0 34 11.5 62.5 34.5 85.5s51.833 34.5 86.5 34.5c34 0 62.5 -11.5 85.5 -34.5s34.5 -51.5 34.5 -85.5c0 -33.333 -11.5 -61.5 -34.5 -84.5s-51.5 -34.5 -85.5 -34.5
c-34.667 0 -63.5 11.5 -86.5 34.5zM302 870.5c12.667 -12.333 28.334 -18.5 47.001 -18.5s34.334 6.16699 47.001 18.5s19 28.166 19 47.499s-6.33301 35.333 -19 48s-28.334 19 -47.001 19s-34.334 -6.16699 -47.001 -18.5s-19 -28.5 -19 -48.5
c0 -19.333 6.33301 -35.166 19 -47.499z" />
    <glyph glyph-name="uring" unicode="&#x16f;" 
d="M165 14.5c-30.667 17.667 -54.833 42.5 -72.5 74.5s-26.5 68.333 -26.5 109v338h75v-329c0 -43.333 12.833 -78.166 38.5 -104.499s59.167 -39.5 100.5 -39.5c42 0 76 13.833 102 41.5s39 65.167 39 112.5v319h75v-536h-75v66c-16 -24.667 -37.5 -43.834 -64.5 -57.501
s-56.833 -20.5 -89.5 -20.5c-37.333 0 -71.333 8.83301 -102 26.5zM200.501 624.5c-23 23 -34.5 51.167 -34.5 84.5c0 34 11.5 62.5 34.5 85.5s51.833 34.5 86.5 34.5c34 0 62.5 -11.5 85.5 -34.5s34.5 -51.5 34.5 -85.5c0 -33.333 -11.5 -61.5 -34.5 -84.5
s-51.5 -34.5 -85.5 -34.5c-34.667 0 -63.5 11.5 -86.5 34.5zM239.001 661.5c12.667 -12.333 28.334 -18.5 47.001 -18.5s34.334 6.16699 47.001 18.5s19 28.166 19 47.499s-6.33301 35.333 -19 48s-28.334 19 -47.001 19s-34.334 -6.16699 -47.001 -18.5
s-19 -28.5 -19 -48.5c0 -19.333 6.33301 -35.166 19 -47.499z" />
    <glyph glyph-name="Uhungarumlaut" unicode="&#x170;" horiz-adv-x="700" 
d="M211.5 20.5c-40.333 21.667 -71.5 51.834 -93.5 90.501s-33 82.667 -33 132v502h80v-502c0 -54 17 -97.5 51 -130.5s78.667 -49.5 134 -49.5s100 16.5 134 49.5s51 76.5 51 130.5v502h80v-502c0 -49.333 -11 -93.333 -33 -132s-53.167 -68.834 -93.5 -90.501
s-86.5 -32.5 -138.5 -32.5s-98.167 10.833 -138.5 32.5zM326 993h76l-91 -144h-63zM466 993h76l-91 -144h-63z" />
    <glyph glyph-name="uhungarumlaut" unicode="&#x171;" 
d="M165 14.5c-30.667 17.667 -54.833 42.5 -72.5 74.5s-26.5 68.333 -26.5 109v338h75v-329c0 -43.333 12.833 -78.166 38.5 -104.499s59.167 -39.5 100.5 -39.5c42 0 76 13.833 102 41.5s39 65.167 39 112.5v319h75v-536h-75v66c-16 -24.667 -37.5 -43.834 -64.5 -57.501
s-56.833 -20.5 -89.5 -20.5c-37.333 0 -71.333 8.83301 -102 26.5zM263.001 784h76l-91 -144h-63zM403.001 784h76l-91 -144h-63z" />
    <glyph glyph-name="Uogonek" unicode="&#x172;" horiz-adv-x="700" 
d="M308 -147c-18.667 15.333 -27.998 35.665 -27.998 60.998c0 28.667 11.667 54 35 76c-46 4.66699 -86.333 18.334 -121 41.001s-61.5 52.334 -80.5 89.001s-28.5 77.667 -28.5 123v502h80v-502c0 -54 17 -97.5 51 -130.5s78.667 -49.5 134 -49.5s100 16.5 134 49.5
s51 76.5 51 130.5v502h80v-502c0 -47.333 -10.167 -89.833 -30.5 -127.5s-49.333 -67.667 -87 -90s-80.834 -34.833 -129.501 -37.5c-24 -18 -36 -39 -36 -63c0 -14.667 4.5 -26.167 13.5 -34.5s21.5 -12.5 37.5 -12.5c22 0 45.333 9 70 27l25 -37
c-29.333 -25.333 -62.333 -38 -99 -38c-28.667 0 -52.334 7.66699 -71.001 23z" />
    <glyph glyph-name="uogonek" unicode="&#x173;" 
d="M165 14.5c-30.667 17.667 -54.833 42.502 -72.5 74.502s-26.5 68.333 -26.5 109v338h75v-329c0 -43.333 12.833 -78.166 38.5 -104.499s59.167 -39.5 100.5 -39.5c42 0 76 13.833 102 41.5s39 65.167 39 112.5v319h75v-536h-48c-25.333 -19.333 -38 -41 -38 -65
c0 -14.667 4.5 -26.167 13.5 -34.5s21.5 -12.5 37.5 -12.5c22 0 45.333 9 70 27l25 -37c-29.333 -25.333 -62.333 -38 -99 -38c-28.667 0 -52.334 7.66699 -71.001 23s-28 35.666 -28 60.999c0 19.333 5.33301 37.166 16 53.499s26.334 30.833 47.001 43.5v45
c-16 -24.667 -37.5 -43.834 -64.5 -57.501s-56.833 -20.5 -89.5 -20.5c-37.333 0 -71.333 8.83301 -102 26.5z" />
    <glyph glyph-name="Wcircumflex" unicode="&#x174;" horiz-adv-x="984" 
d="M11 745h81l177 -637l181 637h85l180 -635l177 635h81l-214 -745h-85l-182 638l-182 -638h-85zM454 993h74l114 -144h-68l-83 103l-81 -103h-68z" />
    <glyph glyph-name="wcircumflex" unicode="&#x175;" horiz-adv-x="797" 
d="M11 536h85l137 -421l128 421h75l129 -421l137 421h84l-184 -536h-75l-128 424l-129 -424h-75zM361 784h74l114 -144h-68l-83 103l-81 -103h-68z" />
    <glyph glyph-name="Ycircumflex" unicode="&#x176;" horiz-adv-x="623" 
d="M272 346l-261 399h89l212 -323l211 323h89l-260 -399v-346h-80v346zM274 993h74l114 -144h-68l-83 103l-81 -103h-68z" />
    <glyph glyph-name="ycircumflex" unicode="&#x177;" horiz-adv-x="536" 
d="M230 784h74l114 -144h-68l-83 103l-81 -103h-68z" />
    <glyph glyph-name="Ydieresis" unicode="&#x178;" horiz-adv-x="623" 
d="M272 346l-261 399h89l212 -323l211 323h89l-260 -399v-346h-80v346zM188.5 885.5c-11 11 -16.5 24.833 -16.5 41.5c0 16 5.5 29.5 16.5 40.5s24.833 16.5 41.5 16.5c16 0 29.5 -5.5 40.5 -16.5s16.5 -24.5 16.5 -40.5c0 -16.667 -5.5 -30.5 -16.5 -41.5
s-24.5 -16.5 -40.5 -16.5c-16.667 0 -30.5 5.5 -41.5 16.5zM353.5 967.5c11 11 24.833 16.5 41.5 16.5c16 0 29.5 -5.5 40.5 -16.5s16.5 -24.5 16.5 -40.5c0 -16.667 -5.5 -30.5 -16.5 -41.5s-24.5 -16.5 -40.5 -16.5c-16.667 0 -30.5 5.5 -41.5 16.5
s-16.5 24.833 -16.5 41.5c0 16 5.5 29.5 16.5 40.5z" />
    <glyph glyph-name="Zacute" unicode="&#x179;" horiz-adv-x="584" 
d="M22 54l426 616h-401v75h506v-54l-425 -616h434v-75h-540v54zM338 993h76l-91 -144h-63z" />
    <glyph glyph-name="zacute" unicode="&#x17a;" horiz-adv-x="449" 
d="M22 65l301 396h-284v75h386v-65l-300 -396h302v-75h-405v65zM265 784h76l-91 -144h-63z" />
    <glyph glyph-name="Zdotaccent" unicode="&#x17b;" horiz-adv-x="584" 
d="M22 54l426 616h-401v75h506v-54l-425 -616h434v-75h-540v54zM250.5 885.5c-11 11 -16.5 24.833 -16.5 41.5c0 16 5.5 29.5 16.5 40.5s24.833 16.5 41.5 16.5c16 0 29.5 -5.5 40.5 -16.5s16.5 -24.5 16.5 -40.5c0 -16.667 -5.5 -30.5 -16.5 -41.5s-24.5 -16.5 -40.5 -16.5
c-16.667 0 -30.5 5.5 -41.5 16.5z" />
    <glyph glyph-name="zdotaccent" unicode="&#x17c;" horiz-adv-x="449" 
d="M22 65l301 396h-284v75h386v-65l-300 -396h302v-75h-405v65zM177.5 676.5c-11 11 -16.5 24.833 -16.5 41.5c0 16 5.5 29.5 16.5 40.5s24.833 16.5 41.5 16.5c16 0 29.5 -5.5 40.5 -16.5s16.5 -24.5 16.5 -40.5c0 -16.667 -5.5 -30.5 -16.5 -41.5s-24.5 -16.5 -40.5 -16.5
c-16.667 0 -30.5 5.5 -41.5 16.5z" />
    <glyph glyph-name="Zcaron" unicode="&#x17d;" horiz-adv-x="584" 
d="M22 54l426 616h-401v75h506v-54l-425 -616h434v-75h-540v54zM142 993h68l81 -103l83 103h68l-114 -144h-74z" />
    <glyph glyph-name="zcaron" unicode="&#x17e;" horiz-adv-x="449" 
d="M22 65l301 396h-284v75h386v-65l-300 -396h302v-75h-405v65zM69 784h68l81 -103l83 103h68l-114 -144h-74z" />
    <glyph glyph-name="uni018F" unicode="&#x18f;" horiz-adv-x="832" 
d="M234 34c-52.667 30.667 -93.834 72.666 -123.501 125.999s-44.5 113 -44.5 179c0 20 2 40.333 6 61h613c-2.66699 52.667 -17 100.5 -43 143.5s-60.667 76.833 -104 101.5s-91.333 37 -144 37s-100.167 -12.167 -142.5 -36.5s-74.833 -57.833 -97.5 -100.5l-71 36
c25.333 52.667 66.333 95.167 123 127.5s119.334 48.5 188.001 48.5c69.333 0 132.333 -16.833 189 -50.5s101.334 -80 134.001 -139s49 -125.167 49 -198.5c0 -68.667 -14.5 -132.167 -43.5 -190.5s-70.333 -104.666 -124 -138.999s-115.834 -51.5 -186.501 -51.5
c-66 0 -125.333 15.333 -178 46zM188.5 185.499c22.333 -38.333 53.333 -68.3311 93 -89.998s84.5 -32.5 134.5 -32.5c48 0 91.333 10.667 130 32s70.167 51.666 94.5 90.999s38.833 85.666 43.5 138.999h-529v-10c0 -48 11.167 -91.167 33.5 -129.5z" />
    <glyph glyph-name="florin" unicode="&#x192;" horiz-adv-x="487" 
d="M58 -7v68c9.33301 -2 21.333 -3 36 -3c74.667 0 112 37.667 112 113v169h-131v65h131v169c0 39.333 8.16699 72.666 24.5 99.999s38.166 48 65.499 62s57 21 89 21c17.333 0 32 -1.66699 44 -5v-68c-8.66699 2 -20.667 3 -36 3c-74.667 0 -112 -37.667 -112 -113v-169
h131v-65h-131v-169c0 -39.333 -8.16699 -72.666 -24.5 -99.999s-38.166 -48 -65.499 -62s-57 -21 -89 -21c-17.333 0 -32 1.66699 -44 5z" />
    <glyph glyph-name="Ohorn" unicode="&#x1a0;" horiz-adv-x="878" 
d="M250.5 37.5c-57 33 -102 78.835 -135 137.502s-49.5 124.667 -49.5 198s16.5 139.166 49.5 197.499s78 104 135 137s119.833 49.5 188.5 49.5h213c33.333 0 50 17.333 50 52c0 12.667 -2 25.334 -6 38.001s-9.66699 26.667 -17 42h92c16.667 -30.667 25 -60 25 -88
c0 -40 -11.5 -69.667 -34.5 -89s-54.833 -29 -95.5 -29h-2c46 -34.667 82.167 -78.834 108.5 -132.501s39.5 -112.834 39.5 -177.501c0 -73.333 -16.5 -139.333 -49.5 -198s-78 -104.5 -135 -137.5s-119.833 -49.5 -188.5 -49.5s-131.5 16.5 -188.5 49.5zM183.5 217.002
c25 -47.333 59.833 -84.833 104.5 -112.5s95 -41.5 151 -41.5s106.333 13.833 151 41.5s79.5 65.167 104.5 112.5s37.5 99.333 37.5 156c0 56 -12.5 107.667 -37.5 155s-59.833 84.833 -104.5 112.5s-95 41.5 -151 41.5s-106.333 -13.833 -151 -41.5
s-79.5 -65.167 -104.5 -112.5s-37.5 -99 -37.5 -155c0 -56.667 12.5 -108.667 37.5 -156z" />
    <glyph glyph-name="ohorn" unicode="&#x1a1;" horiz-adv-x="655" 
d="M190.5 24.5c-41.667 24.333 -74.668 58.002 -99.001 101.002s-36.5 90.833 -36.5 143.5s11.833 100.167 35.5 142.5s56.334 75.666 98.001 99.999s88.167 36.5 139.5 36.5h113c34 0 51 17.667 51 53c0 12.667 -1.83301 25 -5.5 37s-9.16699 26.333 -16.5 43h74
c7.33301 -16.667 13 -31.667 17 -45s6 -27.333 6 -42c0 -27.333 -6.33301 -49.5 -19 -66.5s-30.334 -28.5 -53.001 -34.5c32.667 -25.333 58.334 -57.333 77.001 -96s28 -81.334 28 -128.001c0 -54 -12.167 -102.333 -36.5 -145s-57.333 -76 -99 -100
s-87.167 -36 -136.5 -36c-50 0 -95.833 12.167 -137.5 36.5zM160.499 164.002c17 -31.333 40.333 -56 70 -74s62.167 -27 97.5 -27s67.666 9 96.999 27s52.5 42.833 69.5 74.5s25.5 66.5 25.5 104.5s-8.5 72.5 -25.5 103.5s-40.167 55.5 -69.5 73.5s-61.666 27 -96.999 27
s-67.833 -9 -97.5 -27s-53 -42.5 -70 -73.5s-25.5 -65.5 -25.5 -103.5c0 -38.667 8.5 -73.667 25.5 -105z" />
    <glyph glyph-name="Uhorn" unicode="&#x1af;" horiz-adv-x="700" 
d="M211.5 20.5c-40.333 21.667 -71.5 51.833 -93.5 90.5s-33 82.667 -33 132v502h80v-502c0 -54 17 -97.5 51 -130.5s78.667 -49.5 134 -49.5s100 16.5 134 49.5s51 76.5 51 130.5v502h73c33.333 0 50 17.333 50 52c0 12.667 -2 25.334 -6 38.001s-9.66699 26.667 -17 42h92
c16.667 -30.667 25 -60 25 -88c0 -40 -11.5 -69.667 -34.5 -89s-54.833 -29 -95.5 -29h-7v-428c0 -49.333 -11 -93.333 -33 -132s-53.167 -68.834 -93.5 -90.501s-86.5 -32.5 -138.5 -32.5s-98.167 10.833 -138.5 32.5z" />
    <glyph glyph-name="uhorn" unicode="&#x1b0;" horiz-adv-x="595" 
d="M165 14.5c-30.667 17.667 -54.833 42.501 -72.5 74.501s-26.5 68.333 -26.5 109v338h75v-329c0 -43.333 12.833 -78.166 38.5 -104.499s59.167 -39.5 100.5 -39.5c42 0 76 13.833 102 41.5s39 65.167 39 112.5v319h38c34 0 51 17.667 51 53c0 12.667 -1.83301 25 -5.5 37
s-9.16699 26.333 -16.5 43h74c7.33301 -16.667 13 -31.667 17 -45s6 -27.333 6 -42c0 -30.667 -7.83301 -54.834 -23.5 -72.501s-37.5 -28.5 -65.5 -32.5v-477h-75v66c-16 -24.667 -37.5 -43.834 -64.5 -57.501s-56.833 -20.5 -89.5 -20.5
c-37.333 0 -71.333 8.83301 -102 26.5z" />
    <glyph glyph-name="uni01C4" unicode="&#x1c4;" horiz-adv-x="1326" 
d="M88 745l245 -0.000976562c73.333 0 137.5 -15.167 192.5 -45.5s97.5 -73.666 127.5 -129.999s45 -121.833 45 -196.5s-15 -140.167 -45 -196.5s-72.667 -99.833 -128 -130.5s-119.333 -46 -192 -46h-245v745zM333 74.999c56.667 0 106.167 12.166 148.5 36.499
s75 58.833 98 103.5s34.5 97.334 34.5 158.001c0 60 -11.5 112.333 -34.5 157s-55.833 79.167 -98.5 103.5s-92 36.5 -148 36.5h-165v-595h165zM764 53.998l426 616h-401v75h506v-54l-425 -616h434v-75h-540v54zM952 992.998l81 -103l83 103h68l-114 -144h-74l-112 144h68z
" />
    <glyph glyph-name="uni01C5" unicode="&#x1c5;" horiz-adv-x="1191" 
d="M88 745l245 -0.000976562c73.333 0 137.5 -15.167 192.5 -45.5s97.5 -73.666 127.5 -129.999s45 -121.833 45 -196.5s-15 -140.167 -45 -196.5s-72.667 -99.833 -128 -130.5s-119.333 -46 -192 -46h-245v745zM333 74.999c56.667 0 106.167 12.166 148.5 36.499
s75 58.833 98 103.5s34.5 97.334 34.5 158.001c0 60 -11.5 112.333 -34.5 157s-55.833 79.167 -98.5 103.5s-92 36.5 -148 36.5h-165v-595h165zM764 64.998l301 396h-284v75h386v-65l-300 -396h302v-75h-405v65zM879 783.998l81 -103l83 103h68l-114 -144h-74l-112 144h68z
" />
    <glyph glyph-name="uni01C6" unicode="&#x1c6;" horiz-adv-x="1116" 
d="M184 24.5c-40 24.333 -71.501 57.8291 -94.501 100.496s-34.5 90.334 -34.5 143.001s11.333 100.334 34 143.001s54.167 76.167 94.5 100.5s85.5 36.5 135.5 36.5c41.333 0 78.833 -8.16699 112.5 -24.5s61.5 -39.166 83.5 -68.499v290h75v-745h-75v87
c-20.667 -31.333 -48.167 -55.666 -82.5 -72.999s-72.166 -26 -113.499 -26c-50 0 -95 12.167 -135 36.5zM159.499 163.496c16.333 -31 38.833 -55.5 67.5 -73.5s60.667 -27 96 -27s67.666 9 96.999 27s52.5 42.667 69.5 74s25.5 66 25.5 104s-8.5 72.667 -25.5 104
s-40.167 56 -69.5 74s-61.666 27 -96.999 27s-67.333 -9 -96 -27s-51.167 -42.5 -67.5 -73.5s-24.5 -65.833 -24.5 -104.5s8.16699 -73.5 24.5 -104.5zM688.999 64.9961l301 396h-284v75h386v-65l-300 -396h302v-75h-405v65zM803.999 783.996l81 -103l83 103h68l-114 -144
h-74l-112 144h68z" />
    <glyph glyph-name="uni01C7" unicode="&#x1c7;" horiz-adv-x="1109" 
d="M88 745h80v-670h330v-75h-410v745zM658.5 36c-41.667 32 -69.165 74.333 -82.498 127l74 22c11.333 -38 31.166 -67.833 59.499 -89.5s61.166 -32.5 98.499 -32.5c40.667 0 73 12.167 97 36.5s36 56.166 36 95.499v550h80v-550c0 -39.333 -8.66699 -74.666 -26 -105.999
s-42 -56 -74 -74s-69.667 -27 -113 -27c-58 0 -107.833 16 -149.5 48z" />
    <glyph glyph-name="uni01C8" unicode="&#x1c8;" horiz-adv-x="760" 
d="M88 745h80v-670h330v-75h-410v745zM468 -216v69c14 -2 28 -3 42 -3c28.667 0 52.167 8.66699 70.5 26s27.5 42 27.5 74v586h75v-586c0 -53.333 -16.667 -95 -50 -125s-75 -45 -125 -45c-18 0 -31.333 1.33301 -40 4zM611 712c9.33301 9.33301 21 14 35 14
s25.667 -4.66699 35 -14s14 -21 14 -35s-4.66699 -25.667 -14 -35s-21 -14 -35 -14s-25.667 4.66699 -35 14s-14 21 -14 35s4.66699 25.667 14 35z" />
    <glyph glyph-name="uni01C9" unicode="&#x1c9;" horiz-adv-x="458" 
d="M77 757h75v-757h-75v757zM166 -216v69c14 -2 28 -3 42 -3c28.667 0 52.167 8.66699 70.5 26s27.5 42 27.5 74v586h75v-586c0 -53.333 -16.667 -95 -50 -125s-75 -45 -125 -45c-18 0 -31.333 1.33301 -40 4zM309 712c9.33301 9.33301 21 14 35 14s25.667 -4.66699 35 -14
s14 -21 14 -35s-4.66699 -25.667 -14 -35s-21 -14 -35 -14s-25.667 4.66699 -35 14s-14 21 -14 35s4.66699 25.667 14 35z" />
    <glyph glyph-name="uni01CA" unicode="&#x1ca;" horiz-adv-x="1119" 
d="M88 745h70l410 -588v588h80v-745h-70l-410 592v-592h-80v745zM791 80h39.999c36.667 0 65.834 11.167 87.501 33.5s32.5 52.833 32.5 91.5v540h80v-540c0 -62.667 -18 -112.5 -54 -149.5s-84.667 -55.5 -146 -55.5h-40v80z" />
    <glyph glyph-name="uni01CB" unicode="&#x1cb;" horiz-adv-x="965" 
d="M88 745h70l410 -588v588h80v-745h-70l-410 592v-592h-80v745zM673 -216v69c14 -2 28 -3 42 -3c28.667 0 52.167 8.66699 70.5 26s27.5 42 27.5 74v586h75v-586c0 -53.333 -16.667 -95 -50 -125s-75 -45 -125 -45c-18 0 -31.333 1.33301 -40 4zM816 712
c9.33301 9.33301 21 14 35 14s25.667 -4.66699 35 -14s14 -21 14 -35s-4.66699 -25.667 -14 -35s-21 -14 -35 -14s-25.667 4.66699 -35 14s-14 21 -14 35s4.66699 25.667 14 35z" />
    <glyph glyph-name="uni01CC" unicode="&#x1cc;" horiz-adv-x="802" 
d="M77 536l74.999 -0.000976562v-66c16 24.667 37.5 43.834 64.5 57.501s56.833 20.5 89.5 20.5c37.333 0 71.333 -8.66699 102 -26s54.834 -41.333 72.501 -72s26.5 -64.667 26.5 -102v-348h-75v319c0 48 -12.667 85.667 -38 113s-59 41 -101 41s-76 -13.833 -102 -41.5
s-39 -65.167 -39 -112.5v-319h-75v536zM509.999 -216.001v69c14 -2 28 -3 42 -3c28.667 0 52.167 8.66699 70.5 26s27.5 42 27.5 74v586h75v-586c0 -53.333 -16.667 -95 -50 -125s-75 -45 -125 -45c-18 0 -31.333 1.33301 -40 4zM652.999 711.999
c9.33301 9.33301 21 14 35 14s25.667 -4.66699 35 -14s14 -21 14 -35s-4.66699 -25.667 -14 -35s-21 -14 -35 -14s-25.667 4.66699 -35 14s-14 21 -14 35s4.66699 25.667 14 35z" />
    <glyph glyph-name="Gcaron" unicode="&#x1e6;" horiz-adv-x="821" 
d="M241.5 37.5c-55 33 -98 78.6699 -129 137.003s-46.5 124.166 -46.5 197.499s15.5 139.333 46.5 198s74 104.5 129 137.5s117.167 49.5 186.5 49.5c48 0 92.333 -8.83301 133 -26.5s75.167 -40.667 103.5 -69s48.833 -58.5 61.5 -90.5l-72 -35
c-18.667 46 -47.5 81.833 -86.5 107.5s-85.5 38.5 -139.5 38.5c-54.667 0 -103.334 -13 -146.001 -39s-76 -62.5 -100 -109.5s-36 -100.833 -36 -161.5s12 -114.5 36 -161.5s57.333 -83.333 100 -109s91.334 -38.5 146.001 -38.5c48 0 91.667 10.667 131 32
s70.333 50.666 93 87.999s34 79.666 34 126.999v5h-258v70h338v-62c0 -64 -15 -121.5 -45 -172.5s-70.667 -90.833 -122 -119.5s-108.333 -43 -171 -43c-69.333 0 -131.5 16.5 -186.5 49.5zM261 993.003h68l81 -103l83 103h68l-114 -144h-74z" />
    <glyph glyph-name="gcaron" unicode="&#x1e7;" horiz-adv-x="662" 
d="M187.5 -184c-41 24 -70.833 56.001 -89.5 96.001l69 37c11.333 -27.333 31 -49.833 59 -67.5s62.333 -26.5 103 -26.5c32.667 0 62.834 6.5 90.501 19.5s49.667 32 66 57s24.5 54.833 24.5 89.5v86c-20 -31.333 -46.833 -55.666 -80.5 -72.999s-70.5 -26 -110.5 -26
c-49.333 0 -94.166 12 -134.499 36s-72 56.5 -95 97.5s-34.5 86.5 -34.5 136.5s11.5 95.5 34.5 136.5s54.5 73.5 94.5 97.5s85 36 135 36c38.667 0 74.667 -8.33301 108 -25s61 -39.334 83 -68.001v81h75v-515c0 -46 -10.833 -87.333 -32.5 -124
s-51.834 -65.334 -90.501 -86.001s-82.334 -31 -131.001 -31c-54.667 0 -102.5 12 -143.5 36zM159.5 180.501c16.333 -29.667 38.833 -53.332 67.5 -70.999s60.667 -26.5 96 -26.5c34 0 65.333 8.83301 94 26.5s51.334 41.5 68.001 71.5s25 62.333 25 97s-8.33301 67 -25 97
s-39.334 53.833 -68.001 71.5s-60 26.5 -94 26.5c-34.667 0 -66.5 -8.83301 -95.5 -26.5s-51.667 -41.334 -68 -71.001s-24.5 -62.167 -24.5 -97.5s8.16699 -67.833 24.5 -97.5zM181 784.003h68l81 -103l83 103h68l-114 -144h-74z" />
    <glyph glyph-name="uni01EA" unicode="&#x1ea;" horiz-adv-x="878" 
d="M590 104.5c44.667 27.667 79.5 65.167 104.5 112.5s37.5 99.333 37.5 156c0 56 -12.5 107.667 -37.5 155s-59.833 84.833 -104.5 112.5s-95 41.5 -151 41.5s-106.333 -13.833 -151 -41.5s-79.5 -65.167 -104.5 -112.5s-37.5 -99 -37.5 -155
c0 -56.667 12.5 -108.667 37.5 -156s59.833 -84.833 104.5 -112.5s95 -41.5 151 -41.5s106.333 13.833 151 41.5zM115.5 570.5c33 58.333 78 104.004 135 137.004s119.833 49.5 188.5 49.5s131.334 -16.5 188.001 -49.5s101.667 -78.833 135 -137.5s50 -124.334 50 -197.001
c0 -70.667 -15.667 -134.667 -47 -192s-74 -103 -128 -137s-114 -52.667 -180 -56c-24 -18 -36 -39 -36 -63c0 -14.667 4.5 -26.167 13.5 -34.5s21.5 -12.5 37.5 -12.5c22 0 45.333 9 70 27l25 -37c-29.333 -25.333 -62.333 -38 -99 -38
c-28.667 0 -52.334 7.66699 -71.001 23s-28 35.666 -28 60.999c0 28 11.333 53.333 34 76c-63.333 5.33301 -120.5 25.166 -171.5 59.499s-91.333 79.5 -121 135.5s-44.5 118.667 -44.5 188c0 73.333 16.5 139.166 49.5 197.499z" />
    <glyph glyph-name="uni01EB" unicode="&#x1eb;" horiz-adv-x="655" 
d="M425 90c29.333 18 52.5 42.833 69.5 74.5s25.5 66.5 25.5 104.5s-8.5 72.5 -25.5 103.5s-40.167 55.5 -69.5 73.5s-61.666 27 -96.999 27s-67.833 -9 -97.5 -27s-53 -42.5 -70 -73.5s-25.5 -65.5 -25.5 -103.5c0 -38.667 8.5 -73.667 25.5 -105s40.333 -56 70 -74
s62.167 -27 97.5 -27s67.666 9 96.999 27zM90.5 411.5c23.667 42.333 56.3369 75.665 98.0039 99.998s88.167 36.5 139.5 36.5s97.666 -12 138.999 -36s73.833 -57.333 97.5 -100s35.5 -90.334 35.5 -143.001c0 -53.333 -11.833 -101.166 -35.5 -143.499
s-55.834 -75.666 -96.501 -99.999s-85.334 -36.833 -134.001 -37.5c-16 -16 -24 -33.667 -24 -53c0 -14.667 4.5 -26.167 13.5 -34.5s21.5 -12.5 37.5 -12.5c22 0 45.333 9 70 27l25 -37c-29.333 -25.333 -62.333 -38 -99 -38c-28.667 0 -52.334 7.66699 -71.001 23
s-28 35.666 -28 60.999c0 24 8.66699 46.333 26 67c-43.333 6.66699 -82.333 22.834 -117 48.501s-62 58.334 -82 98.001s-30 83.5 -30 131.5c0 52.667 11.833 100.167 35.5 142.5z" />
    <glyph glyph-name="Aringacute" unicode="&#x1fa;" horiz-adv-x="652" 
d="M283 745h86l272 -745h-84l-64 182h-333l-65 -182h-84zM465 257l-139 394l-140 -394h279zM239.5 833.5c-23 23 -34.5 51.167 -34.5 84.5c0 34 11.5 62.5 34.5 85.5s51.833 34.5 86.5 34.5c34 0 62.5 -11.5 85.5 -34.5s34.5 -51.5 34.5 -85.5
c0 -33.333 -11.5 -61.5 -34.5 -84.5s-51.5 -34.5 -85.5 -34.5c-34.667 0 -63.5 11.5 -86.5 34.5zM278 870.5c12.667 -12.333 28.334 -18.5 47.001 -18.5s34.334 6.16699 47.001 18.5s19 28.166 19 47.499s-6.33301 35.333 -19 48s-28.334 19 -47.001 19
s-34.334 -6.16699 -47.001 -18.5s-19 -28.5 -19 -48.5c0 -19.333 6.33301 -35.166 19 -47.499zM336 1143h75l-53 -85h-67z" />
    <glyph glyph-name="aringacute" unicode="&#x1fb;" horiz-adv-x="572" 
d="M141.5 7.5c-27 13 -48.168 30.998 -63.501 53.998s-23 48.833 -23 77.5c0 43.333 14.167 80 42.5 110s71.166 49.667 128.499 59l194 32v28c0 32 -11.667 58 -35 78s-53.666 30 -90.999 30c-32 0 -60.333 -8 -85 -24s-43.334 -37.333 -56.001 -64l-68 37
c15.333 34.667 42.833 63.834 82.5 87.501s81.834 35.5 126.501 35.5c38.667 0 73.334 -7.66699 104.001 -23s54.5 -36.666 71.5 -63.999s25.5 -58.333 25.5 -93v-368h-75v77c-18 -26.667 -43.667 -48.167 -77 -64.5s-70.333 -24.5 -111 -24.5
c-33.333 0 -63.5 6.5 -90.5 19.5zM163.999 80.998c19.333 -16.667 43.667 -25 73 -25c35.333 0 67 7.66699 95 23s49.667 36.5 65 63.5s23 56.833 23 89.5v40l-176 -29c-37.333 -6 -64.833 -17.833 -82.5 -35.5s-26.5 -39.5 -26.5 -65.5c0 -24 9.66699 -44.333 29 -61z
M199.5 624.498c-23 23 -34.5 51.167 -34.5 84.5c0 34 11.5 62.5 34.5 85.5s51.833 34.5 86.5 34.5c34 0 62.5 -11.5 85.5 -34.5s34.5 -51.5 34.5 -85.5c0 -33.333 -11.5 -61.5 -34.5 -84.5s-51.5 -34.5 -85.5 -34.5c-34.667 0 -63.5 11.5 -86.5 34.5zM238 661.498
c12.667 -12.333 28.334 -18.5 47.001 -18.5s34.334 6.16699 47.001 18.5s19 28.166 19 47.499s-6.33301 35.333 -19 48s-28.334 19 -47.001 19s-34.334 -6.16699 -47.001 -18.5s-19 -28.5 -19 -48.5c0 -19.333 6.33301 -35.166 19 -47.499zM296 933.998h75l-53 -85h-67z" />
    <glyph glyph-name="AEacute" unicode="&#x1fc;" horiz-adv-x="985" 
d="M283 745h658v-75h-400v-259h380v-75h-380v-261h400v-75h-480v182h-301l-65 -182h-84zM461 257v413h-128l-147 -413h275zM539 993h76l-91 -144h-63z" />
    <glyph glyph-name="aeacute" unicode="&#x1fd;" horiz-adv-x="983" 
d="M141.5 7.5c-27 13 -48.1631 30.9971 -63.4961 53.9971s-23 48.833 -23 77.5c0 43.333 14.167 80 42.5 110s71.166 49.667 128.499 59l194 32v28c0 32 -11.667 58 -35 78s-53.666 30 -90.999 30c-32 0 -60.333 -8 -85 -24s-43.334 -37.333 -56.001 -64l-68 37
c15.333 34.667 42.833 63.834 82.5 87.501s81.834 35.5 126.501 35.5c42.667 0 80.167 -9 112.5 -27s56.166 -43 71.499 -75c23.333 32 52.666 57 87.999 75s73.666 27 114.999 27c49.333 0 92.666 -12 129.999 -36s66.166 -55.667 86.499 -95s30.5 -80.666 30.5 -123.999
c0 -16.667 -1.33301 -32.667 -4 -48h-422c0.666992 -37.333 9.83398 -70.166 27.501 -98.499s40.667 -50.166 69 -65.499s58.5 -23 90.5 -23c70 0 124.667 32.667 164 98l64 -34c-17.333 -38 -46.5 -69.833 -87.5 -95.5s-87.833 -38.5 -140.5 -38.5
c-38.667 0 -74.667 7.66699 -108 23s-62 37 -86 65v-76h-75v78c-18 -26.667 -43.667 -48.334 -77 -65.001s-70.333 -25 -111 -25c-33.333 0 -63.5 6.5 -90.5 19.5zM164.004 80.9971c19.333 -16.667 43.667 -25 73 -25c35.333 0 67 7.66699 95 23s49.667 36.5 65 63.5
s23 56.833 23 89.5v40l-176 -29c-37.333 -6 -64.833 -17.833 -82.5 -35.5s-26.5 -39.5 -26.5 -65.5c0 -24 9.66699 -44.333 29 -61zM847.005 314.997c0 30.667 -7.5 58.501 -22.5 83.501s-35.167 44.5 -60.5 58.5s-53 21 -83 21c-29.333 0 -56.833 -6.66699 -82.5 -20
s-47 -32.333 -64 -57s-27.167 -53.334 -30.5 -86.001h343zM538.005 783.998h76l-91 -144h-63z" />
    <glyph glyph-name="Oslashacute" unicode="&#x1fe;" horiz-adv-x="878" 
d="M221 57l-47 -56.998h-91l85 103c-32 34 -57 74.167 -75 120.5s-27 96.166 -27 149.499c0 73.333 16.5 139.166 49.5 197.499s78 104 135 137s119.833 49.5 188.5 49.5c40 0 78.5 -5.83301 115.5 -17.5s70.833 -28.5 101.5 -50.5l47 56h91l-85 -102
c32.667 -34.667 58 -75 76 -121s27 -95.667 27 -149c0 -73.333 -16.5 -139.333 -49.5 -198s-78 -104.5 -135 -137.5s-119.833 -49.5 -188.5 -49.5c-81.333 0 -154 23 -218 69zM165 259.502c12.667 -35.667 30.667 -67.5 54 -95.5l388 465c-48 35.333 -104 53 -168 53
c-56 0 -106.333 -13.833 -151 -41.5s-79.5 -65.167 -104.5 -112.5s-37.5 -99 -37.5 -155c0 -40 6.33301 -77.833 19 -113.5zM439 63.002c56 0 106.333 13.833 151 41.5s79.5 65.167 104.5 112.5s37.5 99.333 37.5 156c0 40 -6.33301 77.833 -19 113.5s-31 67.5 -55 95.5
l-387 -466c49.333 -35.333 105.333 -53 168 -53zM485 993.002h76l-91 -144h-63z" />
    <glyph glyph-name="oslashacute" unicode="&#x1ff;" horiz-adv-x="655" 
d="M175 34l-28.001 -33.998h-85l64 77c-22.667 25.333 -40.167 54.333 -52.5 87s-18.5 67.667 -18.5 105c0 52.667 11.833 100.167 35.5 142.5s56.334 75.666 98.001 99.999s88.167 36.5 139.5 36.5c57.333 0 108.333 -15 153 -45l27 33h85l-63 -76
c22.667 -24.667 40 -53.334 52 -86.001s18 -67.667 18 -105c0 -54 -12.167 -102.333 -36.5 -145s-57.333 -76 -99 -100s-87.167 -36 -136.5 -36c-55.333 0 -106.333 15.333 -153 46zM176.999 138.002l253 305.001c-30.667 20 -64.667 30 -102 30
c-35.333 0 -67.833 -9 -97.5 -27s-53 -42.5 -70 -73.5s-25.5 -65.5 -25.5 -103.5c0 -48.667 14 -92.334 42 -131.001zM327.999 63.0029c35.333 0 67.668 9 97.001 27s52.5 42.833 69.5 74.5s25.5 66.5 25.5 104.5c0 48 -14 91 -42 129l-253 -304
c31.333 -20.667 65.666 -31 102.999 -31zM374.001 784.003h76l-91 -144h-63z" />
    <glyph glyph-name="uni0200" unicode="&#x200;" horiz-adv-x="652" 
d="M283 745h86l272 -745h-84l-64 182h-333l-65 -182h-84zM465 257l-139 394l-140 -394h279zM273 993h76l78 -144h-63zM209 993l78 -144h-63l-91 144h76z" />
    <glyph glyph-name="uni0201" unicode="&#x201;" horiz-adv-x="572" 
d="M141.5 7.5c-27 13 -48.168 30.998 -63.501 53.998s-23 48.833 -23 77.5c0 43.333 14.167 80 42.5 110s71.166 49.667 128.499 59l194 32v28c0 32 -11.667 58 -35 78s-53.666 30 -90.999 30c-32 0 -60.333 -8 -85 -24s-43.334 -37.333 -56.001 -64l-68 37
c15.333 34.667 42.833 63.834 82.5 87.501s81.834 35.5 126.501 35.5c38.667 0 73.334 -7.66699 104.001 -23s54.5 -36.666 71.5 -63.999s25.5 -58.333 25.5 -93v-368h-75v77c-18 -26.667 -43.667 -48.167 -77 -64.5s-70.333 -24.5 -111 -24.5
c-33.333 0 -63.5 6.5 -90.5 19.5zM163.999 80.998c19.333 -16.667 43.667 -25 73 -25c35.333 0 67 7.66699 95 23s49.667 36.5 65 63.5s23 56.833 23 89.5v40l-176 -29c-37.333 -6 -64.833 -17.833 -82.5 -35.5s-26.5 -39.5 -26.5 -65.5c0 -24 9.66699 -44.333 29 -61z
M233 783.998h76l78 -144h-63zM169 783.998l78 -144h-63l-91 144h76z" />
    <glyph glyph-name="uni0202" unicode="&#x202;" horiz-adv-x="652" 
d="M283 745h86l272 -745h-84l-64 182h-333l-65 -182h-84zM465 257l-139 394l-140 -394h279zM206.5 916.5c12.333 21 29.002 37.668 50.002 50.001s43.833 18.5 68.5 18.5s47.667 -6.16699 69 -18.5s38.166 -28.833 50.499 -49.5s18.5 -43.334 18.5 -68.001h-54
c0 22.667 -8.33301 42.334 -25 59.001s-36.334 25 -59.001 25s-42 -8.33301 -58 -25s-24 -36.334 -24 -59.001h-55c0 24 6.16699 46.5 18.5 67.5z" />
    <glyph glyph-name="uni0203" unicode="&#x203;" horiz-adv-x="572" 
d="M141.5 7.5c-27 13 -48.168 30.998 -63.501 53.998s-23 48.833 -23 77.5c0 43.333 14.167 80 42.5 110s71.166 49.667 128.499 59l194 32v28c0 32 -11.667 58 -35 78s-53.666 30 -90.999 30c-32 0 -60.333 -8 -85 -24s-43.334 -37.333 -56.001 -64l-68 37
c15.333 34.667 42.833 63.834 82.5 87.501s81.834 35.5 126.501 35.5c38.667 0 73.334 -7.66699 104.001 -23s54.5 -36.666 71.5 -63.999s25.5 -58.333 25.5 -93v-368h-75v77c-18 -26.667 -43.667 -48.167 -77 -64.5s-70.333 -24.5 -111 -24.5
c-33.333 0 -63.5 6.5 -90.5 19.5zM163.999 80.998c19.333 -16.667 43.667 -25 73 -25c35.333 0 67 7.66699 95 23s49.667 36.5 65 63.5s23 56.833 23 89.5v40l-176 -29c-37.333 -6 -64.833 -17.833 -82.5 -35.5s-26.5 -39.5 -26.5 -65.5c0 -24 9.66699 -44.333 29 -61z
M166.5 707.498c12.333 21 29.002 37.668 50.002 50.001s43.833 18.5 68.5 18.5s47.667 -6.16699 69 -18.5s38.166 -28.833 50.499 -49.5s18.5 -43.334 18.5 -68.001h-54c0 22.667 -8.33301 42.334 -25 59.001s-36.334 25 -59.001 25s-42 -8.33301 -58 -25
s-24 -36.334 -24 -59.001h-55c0 24 6.16699 46.5 18.5 67.5z" />
    <glyph glyph-name="uni0204" unicode="&#x204;" horiz-adv-x="612" 
d="M88 745h480v-75h-400v-259h380v-75h-380v-261h400v-75h-480v745zM275 993h76l78 -144h-63zM211 993l78 -144h-63l-91 144h76z" />
    <glyph glyph-name="uni0205" unicode="&#x205;" horiz-adv-x="615" 
d="M186 24.5c-40.667 24.333 -72.665 57.9971 -95.998 100.997s-35 91.167 -35 144.5c0 52.667 11.167 100.167 33.5 142.5s53.166 75.5 92.499 99.5s83.333 36 132 36c49.333 0 92.666 -12 129.999 -36s66.166 -55.667 86.499 -95s30.5 -80.666 30.5 -123.999
c0 -16.667 -1.33301 -32.667 -4 -48h-422c0.666992 -37.333 9.83398 -70.166 27.501 -98.499s40.667 -50.166 69 -65.499s58.5 -23 90.5 -23c70 0 124.667 32.667 164 98l64 -34c-17.333 -38 -46.5 -69.833 -87.5 -95.5s-87.833 -38.5 -140.5 -38.5
c-49.333 0 -94.333 12.167 -135 36.5zM479.002 314.997c0 30.667 -7.5 58.501 -22.5 83.501s-35.167 44.5 -60.5 58.5s-53 21 -83 21c-29.333 0 -56.833 -6.66699 -82.5 -20s-47 -32.333 -64 -57s-27.167 -53.334 -30.5 -86.001h343zM255.002 783.998h76l78 -144h-63z
M191.002 783.998l78 -144h-63l-91 144h76z" />
    <glyph glyph-name="uni0206" unicode="&#x206;" horiz-adv-x="612" 
d="M88 745h480v-75h-400v-259h380v-75h-380v-261h400v-75h-480v745zM208.5 916.5c12.333 21 29.002 37.668 50.002 50.001s43.833 18.5 68.5 18.5s47.667 -6.16699 69 -18.5s38.166 -28.833 50.499 -49.5s18.5 -43.334 18.5 -68.001h-54
c0 22.667 -8.33301 42.334 -25 59.001s-36.334 25 -59.001 25s-42 -8.33301 -58 -25s-24 -36.334 -24 -59.001h-55c0 24 6.16699 46.5 18.5 67.5z" />
    <glyph glyph-name="uni0207" unicode="&#x207;" horiz-adv-x="615" 
d="M186 24.5c-40.667 24.333 -72.665 57.9971 -95.998 100.997s-35 91.167 -35 144.5c0 52.667 11.167 100.167 33.5 142.5s53.166 75.5 92.499 99.5s83.333 36 132 36c49.333 0 92.666 -12 129.999 -36s66.166 -55.667 86.499 -95s30.5 -80.666 30.5 -123.999
c0 -16.667 -1.33301 -32.667 -4 -48h-422c0.666992 -37.333 9.83398 -70.166 27.501 -98.499s40.667 -50.166 69 -65.499s58.5 -23 90.5 -23c70 0 124.667 32.667 164 98l64 -34c-17.333 -38 -46.5 -69.833 -87.5 -95.5s-87.833 -38.5 -140.5 -38.5
c-49.333 0 -94.333 12.167 -135 36.5zM479.002 314.997c0 30.667 -7.5 58.501 -22.5 83.501s-35.167 44.5 -60.5 58.5s-53 21 -83 21c-29.333 0 -56.833 -6.66699 -82.5 -20s-47 -32.333 -64 -57s-27.167 -53.334 -30.5 -86.001h343zM188.502 707.498
c12.333 21 29.002 37.668 50.002 50.001s43.833 18.5 68.5 18.5s47.667 -6.16699 69 -18.5s38.166 -28.833 50.499 -49.5s18.5 -43.334 18.5 -68.001h-54c0 22.667 -8.33301 42.334 -25 59.001s-36.334 25 -59.001 25s-42 -8.33301 -58 -25s-24 -36.334 -24 -59.001h-55
c0 24 6.16699 46.5 18.5 67.5z" />
    <glyph glyph-name="uni0208" unicode="&#x208;" horiz-adv-x="256" 
d="M88 745h80v-745h-80v745zM75 993h76l78 -144h-63zM11 993l78 -144h-63l-91 144h76z" />
    <glyph glyph-name="uni0209" unicode="&#x209;" horiz-adv-x="199" 
d="M62 536h75v-536h-75v536zM46 784h76l78 -144h-63zM-18 784l78 -144h-63l-91 144h76z" />
    <glyph glyph-name="uni020A" unicode="&#x20a;" horiz-adv-x="256" 
d="M88 745h80v-745h-80v745zM8.5 916.5c12.333 21 29.002 37.668 50.002 50.001s43.833 18.5 68.5 18.5s47.667 -6.16699 69 -18.5s38.166 -28.833 50.499 -49.5s18.5 -43.334 18.5 -68.001h-54c0 22.667 -8.33301 42.334 -25 59.001s-36.334 25 -59.001 25
s-42 -8.33301 -58 -25s-24 -36.334 -24 -59.001h-55c0 24 6.16699 46.5 18.5 67.5z" />
    <glyph glyph-name="uni020B" unicode="&#x20b;" horiz-adv-x="199" 
d="M62 536h75v-536h-75v536zM-20.5 707.5c12.333 21 29.002 37.668 50.002 50.001s43.833 18.5 68.5 18.5s47.667 -6.16699 69 -18.5s38.166 -28.833 50.499 -49.5s18.5 -43.334 18.5 -68.001h-54c0 22.667 -8.33301 42.334 -25 59.001s-36.334 25 -59.001 25
s-42 -8.33301 -58 -25s-24 -36.334 -24 -59.001h-55c0 24 6.16699 46.5 18.5 67.5z" />
    <glyph glyph-name="uni020C" unicode="&#x20c;" horiz-adv-x="878" 
d="M250.5 37.5c-57 33 -102.001 78.835 -135.001 137.502s-49.5 124.667 -49.5 198s16.5 139.166 49.5 197.499s78 104 135 137s119.833 49.5 188.5 49.5s131.334 -16.5 188.001 -49.5s101.667 -78.833 135 -137.5s50 -124.334 50 -197.001
c0 -73.333 -16.5 -139.333 -49.5 -198s-78 -104.5 -135 -137.5s-119.833 -49.5 -188.5 -49.5s-131.5 16.5 -188.5 49.5zM183.499 217.002c25 -47.333 59.833 -84.833 104.5 -112.5s95 -41.5 151 -41.5s106.333 13.833 151 41.5s79.5 65.167 104.5 112.5
s37.5 99.333 37.5 156c0 56 -12.5 107.667 -37.5 155s-59.833 84.833 -104.5 112.5s-95 41.5 -151 41.5s-106.333 -13.833 -151 -41.5s-79.5 -65.167 -104.5 -112.5s-37.5 -99 -37.5 -155c0 -56.667 12.5 -108.667 37.5 -156zM385.999 993.002h76l78 -144h-63z
M321.999 993.002l78 -144h-63l-91 144h76z" />
    <glyph glyph-name="uni020D" unicode="&#x20d;" horiz-adv-x="655" 
d="M190.5 24.5c-41.667 24.333 -74.667 58.002 -99 101.002s-36.5 90.833 -36.5 143.5s11.833 100.167 35.5 142.5s56.334 75.666 98.001 99.999s88.167 36.5 139.5 36.5s97.666 -12 138.999 -36s73.833 -57.333 97.5 -100s35.5 -90.334 35.5 -143.001
c0 -54 -12.167 -102.333 -36.5 -145s-57.333 -76 -99 -100s-87.167 -36 -136.5 -36c-50 0 -95.833 12.167 -137.5 36.5zM160.5 164.002c17 -31.333 40.333 -56 70 -74s62.167 -27 97.5 -27s67.666 9 96.999 27s52.5 42.833 69.5 74.5s25.5 66.5 25.5 104.5
s-8.5 72.5 -25.5 103.5s-40.167 55.5 -69.5 73.5s-61.666 27 -96.999 27s-67.833 -9 -97.5 -27s-53 -42.5 -70 -73.5s-25.5 -65.5 -25.5 -103.5c0 -38.667 8.5 -73.667 25.5 -105zM275 784.002h76l78 -144h-63zM211 784.002l78 -144h-63l-91 144h76z" />
    <glyph glyph-name="uni020E" unicode="&#x20e;" horiz-adv-x="878" 
d="M250.5 37.5c-57 33 -102.001 78.835 -135.001 137.502s-49.5 124.667 -49.5 198s16.5 139.166 49.5 197.499s78 104 135 137s119.833 49.5 188.5 49.5s131.334 -16.5 188.001 -49.5s101.667 -78.833 135 -137.5s50 -124.334 50 -197.001
c0 -73.333 -16.5 -139.333 -49.5 -198s-78 -104.5 -135 -137.5s-119.833 -49.5 -188.5 -49.5s-131.5 16.5 -188.5 49.5zM183.499 217.002c25 -47.333 59.833 -84.833 104.5 -112.5s95 -41.5 151 -41.5s106.333 13.833 151 41.5s79.5 65.167 104.5 112.5
s37.5 99.333 37.5 156c0 56 -12.5 107.667 -37.5 155s-59.833 84.833 -104.5 112.5s-95 41.5 -151 41.5s-106.333 -13.833 -151 -41.5s-79.5 -65.167 -104.5 -112.5s-37.5 -99 -37.5 -155c0 -56.667 12.5 -108.667 37.5 -156zM319.499 916.502
c12.333 21 29.002 37.668 50.002 50.001s43.833 18.5 68.5 18.5s47.667 -6.16699 69 -18.5s38.166 -28.833 50.499 -49.5s18.5 -43.334 18.5 -68.001h-54c0 22.667 -8.33301 42.334 -25 59.001s-36.334 25 -59.001 25s-42 -8.33301 -58 -25s-24 -36.334 -24 -59.001h-55
c0 24 6.16699 46.5 18.5 67.5z" />
    <glyph glyph-name="uni020F" unicode="&#x20f;" horiz-adv-x="655" 
d="M190.5 24.5c-41.667 24.333 -74.667 58.002 -99 101.002s-36.5 90.833 -36.5 143.5s11.833 100.167 35.5 142.5s56.334 75.666 98.001 99.999s88.167 36.5 139.5 36.5s97.666 -12 138.999 -36s73.833 -57.333 97.5 -100s35.5 -90.334 35.5 -143.001
c0 -54 -12.167 -102.333 -36.5 -145s-57.333 -76 -99 -100s-87.167 -36 -136.5 -36c-50 0 -95.833 12.167 -137.5 36.5zM160.5 164.002c17 -31.333 40.333 -56 70 -74s62.167 -27 97.5 -27s67.666 9 96.999 27s52.5 42.833 69.5 74.5s25.5 66.5 25.5 104.5
s-8.5 72.5 -25.5 103.5s-40.167 55.5 -69.5 73.5s-61.666 27 -96.999 27s-67.833 -9 -97.5 -27s-53 -42.5 -70 -73.5s-25.5 -65.5 -25.5 -103.5c0 -38.667 8.5 -73.667 25.5 -105zM208.5 707.502c12.333 21 29.002 37.668 50.002 50.001s43.833 18.5 68.5 18.5
s47.667 -6.16699 69 -18.5s38.166 -28.833 50.499 -49.5s18.5 -43.334 18.5 -68.001h-54c0 22.667 -8.33301 42.334 -25 59.001s-36.334 25 -59.001 25s-42 -8.33301 -58 -25s-24 -36.334 -24 -59.001h-55c0 24 6.16699 46.5 18.5 67.5z" />
    <glyph glyph-name="uni0210" unicode="&#x210;" horiz-adv-x="641" 
d="M88 745h256c48 0 90.5 -9.5 127.5 -28.5s65.667 -45.833 86 -80.5s30.5 -74.334 30.5 -119.001c0 -52.667 -13.667 -97.667 -41 -135s-65 -63.666 -113 -78.999l174 -303h-94l-164 290h-182v-290h-80v745zM348 365c48.667 0 87.5 13.668 116.5 41.001
s43.5 64.666 43.5 111.999c0 46.667 -14.5 83.667 -43.5 111s-67.833 41 -116.5 41h-180v-305h180zM262 993.001h76l78 -144h-63zM198 993.001l78 -144h-63l-91 144h76z" />
    <glyph glyph-name="uni0211" unicode="&#x211;" horiz-adv-x="338" 
d="M77 536l75 -0.000976562v-58c14 20.667 33 36.667 57 48s52 17 84 17h34v-75h-47c-39.333 0 -70.5 -12.167 -93.5 -36.5s-34.5 -58.166 -34.5 -101.499v-330h-75v536zM149 783.999h76l78 -144h-63zM85 783.999l78 -144h-63l-91 144h76z" />
    <glyph glyph-name="uni0212" unicode="&#x212;" horiz-adv-x="641" 
d="M88 745h256c48 0 90.5 -9.5 127.5 -28.5s65.667 -45.833 86 -80.5s30.5 -74.334 30.5 -119.001c0 -52.667 -13.667 -97.667 -41 -135s-65 -63.666 -113 -78.999l174 -303h-94l-164 290h-182v-290h-80v745zM348 365c48.667 0 87.5 13.668 116.5 41.001
s43.5 64.666 43.5 111.999c0 46.667 -14.5 83.667 -43.5 111s-67.833 41 -116.5 41h-180v-305h180zM195.5 916.501c12.333 21 29.002 37.668 50.002 50.001s43.833 18.5 68.5 18.5s47.667 -6.16699 69 -18.5s38.166 -28.833 50.499 -49.5s18.5 -43.334 18.5 -68.001h-54
c0 22.667 -8.33301 42.334 -25 59.001s-36.334 25 -59.001 25s-42 -8.33301 -58 -25s-24 -36.334 -24 -59.001h-55c0 24 6.16699 46.5 18.5 67.5z" />
    <glyph glyph-name="uni0213" unicode="&#x213;" horiz-adv-x="338" 
d="M77 536l75 -0.000976562v-58c14 20.667 33 36.667 57 48s52 17 84 17h34v-75h-47c-39.333 0 -70.5 -12.167 -93.5 -36.5s-34.5 -58.166 -34.5 -101.499v-330h-75v536zM82.5 707.499c12.333 21 29.002 37.668 50.002 50.001s43.833 18.5 68.5 18.5
s47.667 -6.16699 69 -18.5s38.166 -28.833 50.499 -49.5s18.5 -43.334 18.5 -68.001h-54c0 22.667 -8.33301 42.334 -25 59.001s-36.334 25 -59.001 25s-42 -8.33301 -58 -25s-24 -36.334 -24 -59.001h-55c0 24 6.16699 46.5 18.5 67.5z" />
    <glyph glyph-name="uni0214" unicode="&#x214;" horiz-adv-x="700" 
d="M211.5 20.5c-40.333 21.667 -71.5 51.834 -93.5 90.501s-33 82.667 -33 132v502h80v-502c0 -54 17 -97.5 51 -130.5s78.667 -49.5 134 -49.5s100 16.5 134 49.5s51 76.5 51 130.5v502h80v-502c0 -49.333 -11 -93.333 -33 -132s-53.167 -68.834 -93.5 -90.501
s-86.5 -32.5 -138.5 -32.5s-98.167 10.833 -138.5 32.5zM297 993h76l78 -144h-63zM233 993l78 -144h-63l-91 144h76z" />
    <glyph glyph-name="uni0215" unicode="&#x215;" 
d="M165 14.5c-30.667 17.667 -54.833 42.5 -72.5 74.5s-26.5 68.333 -26.5 109v338h75v-329c0 -43.333 12.833 -78.166 38.5 -104.499s59.167 -39.5 100.5 -39.5c42 0 76 13.833 102 41.5s39 65.167 39 112.5v319h75v-536h-75v66c-16 -24.667 -37.5 -43.834 -64.5 -57.501
s-56.833 -20.5 -89.5 -20.5c-37.333 0 -71.333 8.83301 -102 26.5zM234.001 784h76l78 -144h-63zM170.001 784l78 -144h-63l-91 144h76z" />
    <glyph glyph-name="uni0216" unicode="&#x216;" horiz-adv-x="700" 
d="M211.5 20.5c-40.333 21.667 -71.5 51.834 -93.5 90.501s-33 82.667 -33 132v502h80v-502c0 -54 17 -97.5 51 -130.5s78.667 -49.5 134 -49.5s100 16.5 134 49.5s51 76.5 51 130.5v502h80v-502c0 -49.333 -11 -93.333 -33 -132s-53.167 -68.834 -93.5 -90.501
s-86.5 -32.5 -138.5 -32.5s-98.167 10.833 -138.5 32.5zM230.5 916.5c12.333 21 29.002 37.668 50.002 50.001s43.833 18.5 68.5 18.5s47.667 -6.16699 69 -18.5s38.166 -28.833 50.499 -49.5s18.5 -43.334 18.5 -68.001h-54c0 22.667 -8.33301 42.334 -25 59.001
s-36.334 25 -59.001 25s-42 -8.33301 -58 -25s-24 -36.334 -24 -59.001h-55c0 24 6.16699 46.5 18.5 67.5z" />
    <glyph glyph-name="uni0217" unicode="&#x217;" 
d="M165 14.5c-30.667 17.667 -54.833 42.5 -72.5 74.5s-26.5 68.333 -26.5 109v338h75v-329c0 -43.333 12.833 -78.166 38.5 -104.499s59.167 -39.5 100.5 -39.5c42 0 76 13.833 102 41.5s39 65.167 39 112.5v319h75v-536h-75v66c-16 -24.667 -37.5 -43.834 -64.5 -57.501
s-56.833 -20.5 -89.5 -20.5c-37.333 0 -71.333 8.83301 -102 26.5zM167.501 707.5c12.333 21 29.002 37.668 50.002 50.001s43.833 18.5 68.5 18.5s47.667 -6.16699 69 -18.5s38.166 -28.833 50.499 -49.5s18.5 -43.334 18.5 -68.001h-54
c0 22.667 -8.33301 42.334 -25 59.001s-36.334 25 -59.001 25s-42 -8.33301 -58 -25s-24 -36.334 -24 -59.001h-55c0 24 6.16699 46.5 18.5 67.5z" />
    <glyph glyph-name="uni0218" unicode="&#x218;" horiz-adv-x="646" 
d="M211.5 14.5c-39 17.667 -72.001 41.6699 -99.001 72.0029s-46.167 64.166 -57.5 101.499l72 25c10.667 -32 27.834 -59.5 51.501 -82.5s50 -40.5 79 -52.5s56.167 -18 81.5 -18c30 0 57.333 6.5 82 19.5s44 29.167 58 48.5s21 38 21 56c0 30 -10.333 57.333 -31 82
s-49 41 -85 49l-134 31c-50.667 11.333 -90.667 37 -120 77s-44 84 -44 132c0 38.667 9.66699 73.334 29 104.001s45.833 54.667 79.5 72s71.834 26 114.501 26s82.167 -8 118.5 -24s67 -37.5 92 -64.5s42.833 -56.833 53.5 -89.5l-70 -28c-10 28 -25.833 52.167 -47.5 72.5
s-45.5 35.666 -71.5 45.999s-50.667 15.5 -74 15.5c-27.333 0 -52 -6 -74 -18s-39.167 -27.667 -51.5 -47s-18.5 -39 -18.5 -59c0 -30.667 11.333 -59.334 34 -86.001s50.667 -43.667 84 -51l118 -27c57.333 -13.333 101.333 -38.333 132 -75s46 -80.334 46 -131.001
c0 -39.333 -10.167 -74.5 -30.5 -105.5s-48.833 -55 -85.5 -72s-78.334 -25.5 -125.001 -25.5c-46 0 -88.5 8.83301 -127.5 26.5zM335.999 -189.997h-43v110h80v-84c0 -88 -33.333 -140 -100 -156v30c40 10.667 61 44 63 100z" />
    <glyph glyph-name="uni0219" unicode="&#x219;" horiz-adv-x="509" 
d="M131 25.5c-38.667 25 -67 59.4961 -85 103.496l63 32c16 -32.667 37.833 -58.334 65.5 -77.001s57.834 -28 90.501 -28s59.834 7.83301 81.501 23.5s32.5 36.167 32.5 61.5s-10 45.666 -30 60.999s-40.333 24 -61 26l-77 9c-48.667 12.667 -84.667 32.834 -108 60.501
s-35 59.5 -35 95.5c0 30.667 8 57.834 24 81.501s37.833 41.834 65.5 54.501s58.5 19 92.5 19c44.667 0 85.167 -11.667 121.5 -35s62.166 -55 77.499 -95l-63 -32c-14 29.333 -33.5 52.333 -58.5 69s-52.167 25 -81.5 25c-30 0 -54.167 -7.5 -72.5 -22.5
s-27.5 -34.5 -27.5 -58.5c0 -25.333 8.83301 -45.333 26.5 -60s35.5 -23 53.5 -25l89 -10c44 -12 78.5 -32.667 103.5 -62s37.5 -62.666 37.5 -99.999c0 -29.333 -8 -55.666 -24 -78.999s-38.5 -41.666 -67.5 -54.999s-62.167 -20 -99.5 -20
c-50.667 0 -95.334 12.5 -134.001 37.5zM268 -190.004h-43v110h80v-84c0 -88 -33.333 -140 -100 -156v30c40 10.667 61 44 63 100z" />
    <glyph glyph-name="uni021A" unicode="&#x21a;" horiz-adv-x="512" 
d="M217 670h-206v75h490v-75h-204v-670h-80v670zM269 -190h-43v110h80v-84c0 -88 -33.333 -140 -100 -156v30c40 10.667 61 44 63 100z" />
    <glyph glyph-name="uni021B" unicode="&#x21b;" horiz-adv-x="388" 
d="M171 36c-26 28 -39.001 68 -39.001 120v305h-99v75h25c22 0 39.833 7.33301 53.5 22s20.5 33.667 20.5 57v45h75v-124h118v-75h-118v-305c0 -29.333 6.66699 -52 20 -68s36 -24 68 -24c14.667 0 27.334 1 38.001 3v-68c-13.333 -3.33301 -30.333 -5 -51 -5
c-48 0 -85 14 -111 42zM286.999 -190h-43v110h80v-84c0 -88 -33.333 -140 -100 -156v30c40 10.667 61 44 63 100z" />
    <glyph glyph-name="uni022A" unicode="&#x22a;" horiz-adv-x="878" 
d="M250.5 37.5c-57 33 -102.001 78.835 -135.001 137.502s-49.5 124.667 -49.5 198s16.5 139.166 49.5 197.499s78 104 135 137s119.833 49.5 188.5 49.5s131.334 -16.5 188.001 -49.5s101.667 -78.833 135 -137.5s50 -124.334 50 -197.001
c0 -73.333 -16.5 -139.333 -49.5 -198s-78 -104.5 -135 -137.5s-119.833 -49.5 -188.5 -49.5s-131.5 16.5 -188.5 49.5zM183.499 217.002c25 -47.333 59.833 -84.833 104.5 -112.5s95 -41.5 151 -41.5s106.333 13.833 151 41.5s79.5 65.167 104.5 112.5
s37.5 99.333 37.5 156c0 56 -12.5 107.667 -37.5 155s-59.833 84.833 -104.5 112.5s-95 41.5 -151 41.5s-106.333 -13.833 -151 -41.5s-79.5 -65.167 -104.5 -112.5s-37.5 -99 -37.5 -155c0 -56.667 12.5 -108.667 37.5 -156zM315.499 885.502
c-11 11 -16.5 24.833 -16.5 41.5c0 16 5.5 29.5 16.5 40.5s24.833 16.5 41.5 16.5c16 0 29.5 -5.5 40.5 -16.5s16.5 -24.5 16.5 -40.5c0 -16.667 -5.5 -30.5 -16.5 -41.5s-24.5 -16.5 -40.5 -16.5c-16.667 0 -30.5 5.5 -41.5 16.5zM314.999 1074h250v-60h-250v60z
M480.499 967.502c11 11 24.833 16.5 41.5 16.5c16 0 29.5 -5.5 40.5 -16.5s16.5 -24.5 16.5 -40.5c0 -16.667 -5.5 -30.5 -16.5 -41.5s-24.5 -16.5 -40.5 -16.5c-16.667 0 -30.5 5.5 -41.5 16.5s-16.5 24.833 -16.5 41.5c0 16 5.5 29.5 16.5 40.5z" />
    <glyph glyph-name="uni022B" unicode="&#x22b;" horiz-adv-x="655" 
d="M190.5 24.5c-41.667 24.333 -74.667 58.002 -99 101.002s-36.5 90.833 -36.5 143.5s11.833 100.167 35.5 142.5s56.334 75.666 98.001 99.999s88.167 36.5 139.5 36.5s97.666 -12 138.999 -36s73.833 -57.333 97.5 -100s35.5 -90.334 35.5 -143.001
c0 -54 -12.167 -102.333 -36.5 -145s-57.333 -76 -99 -100s-87.167 -36 -136.5 -36c-50 0 -95.833 12.167 -137.5 36.5zM160.5 164.002c17 -31.333 40.333 -56 70 -74s62.167 -27 97.5 -27s67.666 9 96.999 27s52.5 42.833 69.5 74.5s25.5 66.5 25.5 104.5
s-8.5 72.5 -25.5 103.5s-40.167 55.5 -69.5 73.5s-61.666 27 -96.999 27s-67.833 -9 -97.5 -27s-53 -42.5 -70 -73.5s-25.5 -65.5 -25.5 -103.5c0 -38.667 8.5 -73.667 25.5 -105zM204.5 676.502c-11 11 -16.5 24.833 -16.5 41.5c0 16 5.5 29.5 16.5 40.5
s24.833 16.5 41.5 16.5c16 0 29.5 -5.5 40.5 -16.5s16.5 -24.5 16.5 -40.5c0 -16.667 -5.5 -30.5 -16.5 -41.5s-24.5 -16.5 -40.5 -16.5c-16.667 0 -30.5 5.5 -41.5 16.5zM204 865.002h250v-60h-250v60zM369.5 758.502c11 11 24.833 16.5 41.5 16.5
c16 0 29.5 -5.5 40.5 -16.5s16.5 -24.5 16.5 -40.5c0 -16.667 -5.5 -30.5 -16.5 -41.5s-24.5 -16.5 -40.5 -16.5c-16.667 0 -30.5 5.5 -41.5 16.5s-16.5 24.833 -16.5 41.5c0 16 5.5 29.5 16.5 40.5z" />
    <glyph glyph-name="uni022C" unicode="&#x22c;" horiz-adv-x="878" 
d="M250.5 37.5c-57 33 -102.001 78.835 -135.001 137.502s-49.5 124.667 -49.5 198s16.5 139.166 49.5 197.499s78 104 135 137s119.833 49.5 188.5 49.5s131.334 -16.5 188.001 -49.5s101.667 -78.833 135 -137.5s50 -124.334 50 -197.001
c0 -73.333 -16.5 -139.333 -49.5 -198s-78 -104.5 -135 -137.5s-119.833 -49.5 -188.5 -49.5s-131.5 16.5 -188.5 49.5zM183.499 217.002c25 -47.333 59.833 -84.833 104.5 -112.5s95 -41.5 151 -41.5s106.333 13.833 151 41.5s79.5 65.167 104.5 112.5
s37.5 99.333 37.5 156c0 56 -12.5 107.667 -37.5 155s-59.833 84.833 -104.5 112.5s-95 41.5 -151 41.5s-106.333 -13.833 -151 -41.5s-79.5 -65.167 -104.5 -112.5s-37.5 -99 -37.5 -155c0 -56.667 12.5 -108.667 37.5 -156zM462.499 896.002
c-10.333 4.66699 -21.167 11.334 -32.5 20.001c-1.33301 0.666992 -4.83301 3 -10.5 7s-11.167 6.83301 -16.5 8.5s-10.333 2.5 -15 2.5c-19.333 0 -30.333 -13.333 -33 -40h-54c0.666992 30 8.5 53.667 23.5 71s34.167 26 57.5 26c15.333 0 28 -2.33301 38 -7
s20.667 -11.334 32 -20.001c1.33301 -0.666992 4.83301 -3 10.5 -7s11.167 -6.83301 16.5 -8.5s10.333 -2.5 15 -2.5c20 0 31 13.333 33 40h54c-0.666992 -30 -8.33398 -53.667 -23.001 -71s-33.667 -26 -57 -26c-15.333 0 -28.166 2.33301 -38.499 7zM315.998 1104h250v-60
h-250v60z" />
    </font>
</defs>
</svg>
